<svg id="Layer_5" data-name="Layer 5" xmlns="http://www.w3.org/2000/svg" viewBox="0 0 2843.82 1683.18"><defs><style>.cls-1,.cls-11,.cls-3,.cls-7{fill:#fff;}.cls-2,.cls-6{fill:#db9aad;}.cls-13,.cls-2,.cls-7{opacity:0.55;}.cls-3,.cls-4{opacity:0.22;}.cls-12,.cls-13,.cls-4{fill:#a08dce;}.cls-5{fill:#ddddab;}.cls-8,.cls-9{fill:#a6ccf4;}.cls-11,.cls-9{opacity:0.67;}.cls-10{fill:#b9a5e5;}</style></defs><title>BG-1</title><circle class="cls-1" cx="332.03" cy="1058.68" r="5.69"/><circle class="cls-2" cx="126.8" cy="1259.44" r="5.69"/><circle class="cls-3" cx="270.66" cy="1287.08" r="5.69"/><circle class="cls-4" cx="840.02" cy="1504.09" r="5.69"/><circle class="cls-5" cx="5.69" cy="965.62" r="5.69"/><circle class="cls-6" cx="642.87" cy="1343.06" r="5.69"/><circle class="cls-7" cx="235.25" cy="1165.06" r="5.69"/><circle class="cls-3" cx="126.8" cy="1617.88" r="5.69"/><circle class="cls-5" cx="283.61" cy="1232.93" r="5.69"/><circle class="cls-6" cx="591.31" cy="1287.08" r="5.69"/><circle class="cls-7" cx="882.69" cy="1643.08" r="5.69"/><circle class="cls-4" cx="487.22" cy="1317.46" r="8.53"/><circle class="cls-1" cx="391.2" cy="396.77" r="1.83"/><circle class="cls-8" cx="424.61" cy="1355.29" r="4.54"/><circle class="cls-9" cx="247.02" cy="1174.03" r="4.54"/><circle class="cls-1" cx="496.95" cy="1482.49" r="4.54"/><circle class="cls-10" cx="10.5" cy="1648.7" r="4.54"/><circle class="cls-1" cx="613.18" cy="1575.55" r="4.54"/><circle class="cls-6" cx="422.09" cy="1584.44" r="4.54"/><circle class="cls-1" cx="494.09" cy="1413.3" r="2.88"/><circle class="cls-1" cx="187.89" cy="1486.95" r="4.54"/><circle class="cls-11" cx="299.65" cy="1383.32" r="4.54"/><circle class="cls-8" cx="503.55" cy="1118.14" r="4.54"/><circle class="cls-12" cx="412.97" cy="1148.31" r="4.54"/><circle class="cls-12" cx="84.53" cy="1062.49" r="2.84"/><circle class="cls-1" cx="170.97" cy="1245.71" r="2.51"/><circle class="cls-10" cx="1128.49" cy="1588.8" r="2.51"/><ellipse class="cls-1" cx="96.86" cy="1191.78" rx="0.68" ry="0.61"/><circle class="cls-13" cx="26.19" cy="1496.18" r="4.54"/><circle class="cls-5" cx="237.23" cy="1484.46" r="4.54"/><circle class="cls-8" cx="598.28" cy="1469.33" r="4.54"/><circle class="cls-1" cx="395.52" cy="1189.03" r="2.03"/><circle class="cls-6" cx="272.56" cy="1059.65" r="4.54"/><circle class="cls-1" cx="1196.03" cy="282.68" r="5.69"/><circle class="cls-2" cx="169.8" cy="512.44" r="5.69"/><circle class="cls-3" cx="313.66" cy="540.08" r="5.69"/><circle class="cls-4" cx="407.02" cy="355.09" r="5.69"/><circle class="cls-5" cx="869.69" cy="189.62" r="5.69"/><circle class="cls-6" cx="401.87" cy="805.06" r="5.69"/><circle class="cls-7" cx="745.25" cy="323.06" r="5.69"/><circle class="cls-3" cx="169.8" cy="870.88" r="5.69"/><circle class="cls-5" cx="793.61" cy="390.93" r="5.69"/><circle class="cls-6" cx="634.31" cy="540.08" r="5.69"/><circle class="cls-7" cx="1184.69" cy="276.08" r="5.69"/><circle class="cls-4" cx="246.22" cy="779.46" r="8.53"/><circle class="cls-1" cx="261.2" cy="458.77" r="1.83"/><circle class="cls-8" cx="467.61" cy="608.29" r="4.54"/><circle class="cls-9" cx="290.02" cy="427.03" r="4.54"/><circle class="cls-1" cx="539.95" cy="735.49" r="4.54"/><circle class="cls-10" cx="53.5" cy="901.7" r="4.54"/><circle class="cls-1" cx="656.18" cy="828.55" r="4.54"/><circle class="cls-6" cx="465.09" cy="837.44" r="4.54"/><circle class="cls-1" cx="253.09" cy="875.3" r="2.88"/><circle class="cls-1" cx="230.89" cy="739.95" r="4.54"/><circle class="cls-11" cx="342.65" cy="636.32" r="4.54"/><circle class="cls-8" cx="1013.55" cy="276.14" r="4.54"/><circle class="cls-12" cx="455.97" cy="401.31" r="4.54"/><circle class="cls-12" cx="948.53" cy="286.49" r="2.84"/><circle class="cls-1" cx="680.97" cy="403.71" r="2.51"/><circle class="cls-10" cx="695.49" cy="439.8" r="2.51"/><ellipse class="cls-1" cx="139.86" cy="444.78" rx="0.68" ry="0.61"/><circle class="cls-13" cx="69.19" cy="749.18" r="4.54"/><circle class="cls-5" cx="747.23" cy="642.46" r="4.54"/><circle class="cls-8" cx="632.28" cy="225.33" r="4.54"/><circle class="cls-6" cx="2319.87" cy="673.06" r="5.69"/><circle class="cls-7" cx="505.25" cy="873.06" r="5.69"/><circle class="cls-5" cx="742.61" cy="45.93" r="5.69"/><circle class="cls-6" cx="669.31" cy="384.08" r="5.69"/><circle class="cls-4" cx="2613.22" cy="302.46" r="8.53"/><circle class="cls-1" cx="756.2" cy="790.77" r="1.83"/><circle class="cls-8" cx="502.61" cy="452.29" r="4.54"/><circle class="cls-1" cx="2620.09" cy="398.3" r="2.88"/><circle class="cls-8" cx="773.55" cy="826.14" r="4.54"/><circle class="cls-12" cx="490.97" cy="245.31" r="4.54"/><circle class="cls-1" cx="715.97" cy="247.71" r="2.51"/><circle class="cls-5" cx="696.23" cy="297.46" r="4.54"/><circle class="cls-8" cx="2275.28" cy="799.33" r="4.54"/><circle class="cls-1" cx="854.52" cy="2.03" r="2.03"/><circle class="cls-6" cx="542.56" cy="767.65" r="4.54"/><circle class="cls-4" cx="1437.02" cy="256.09" r="5.69"/><circle class="cls-6" cx="453.31" cy="257.08" r="5.69"/><circle class="cls-7" cx="728.69" cy="699.08" r="5.69"/><circle class="cls-8" cx="286.61" cy="325.29" r="4.54"/><circle class="cls-1" cx="358.95" cy="452.49" r="4.54"/><circle class="cls-1" cx="1210.18" cy="327.55" r="4.54"/><circle class="cls-6" cx="1019.09" cy="336.44" r="4.54"/><circle class="cls-1" cx="823.09" cy="288.3" r="2.88"/><circle class="cls-10" cx="1725.49" cy="340.8" r="2.51"/><circle class="cls-5" cx="566.23" cy="359.46" r="4.54"/><circle class="cls-8" cx="1662.28" cy="126.33" r="4.54"/><circle class="cls-1" cx="905.52" cy="347.03" r="2.03"/><circle class="cls-6" cx="782.56" cy="217.65" r="4.54"/><circle class="cls-6" cx="2329.87" cy="1610.06" r="5.69"/><circle class="cls-7" cx="2578.25" cy="1358.06" r="5.69"/><circle class="cls-5" cx="1970.61" cy="1499.93" r="5.69"/><circle class="cls-5" cx="1557.61" cy="600.93" r="5.69"/><circle class="cls-6" cx="1811.31" cy="1649.08" r="5.69"/><circle class="cls-4" cx="2174.22" cy="1584.46" r="8.53"/><circle class="cls-1" cx="1908.2" cy="1472.77" r="1.83"/><circle class="cls-1" cx="2181.09" cy="1680.3" r="2.88"/><circle class="cls-8" cx="1925.55" cy="1508.14" r="4.54"/><circle class="cls-1" cx="1857.97" cy="1512.71" r="2.51"/><circle class="cls-1" cx="1817.52" cy="1579.03" r="2.03"/><circle class="cls-6" cx="2615.56" cy="1252.65" r="4.54"/><circle class="cls-4" cx="2103.02" cy="1119.09" r="5.69"/><circle class="cls-6" cx="2372.87" cy="863.06" r="5.69"/><circle class="cls-7" cx="2621.25" cy="611.06" r="5.69"/><circle class="cls-5" cx="2669.61" cy="678.93" r="5.69"/><circle class="cls-6" cx="2510.31" cy="828.08" r="5.69"/><circle class="cls-7" cx="2145.69" cy="1258.08" r="5.69"/><circle class="cls-4" cx="2217.22" cy="837.46" r="8.53"/><circle class="cls-1" cx="2665.2" cy="257.77" r="1.83"/><circle class="cls-1" cx="2673.18" cy="1601.55" r="4.54"/><circle class="cls-1" cx="2224.09" cy="933.3" r="2.88"/><circle class="cls-8" cx="2682.55" cy="293.14" r="4.54"/><circle class="cls-1" cx="2556.97" cy="691.71" r="2.51"/><circle class="cls-10" cx="2391.49" cy="1203.8" r="2.51"/><circle class="cls-5" cx="2764.23" cy="1415.46" r="4.54"/><circle class="cls-8" cx="2328.28" cy="989.33" r="4.54"/><circle class="cls-7" cx="2617.25" cy="1416.06" r="5.69"/><circle class="cls-5" cx="2665.61" cy="1483.93" r="5.69"/><circle class="cls-6" cx="2365.31" cy="1148.08" r="5.69"/><circle class="cls-4" cx="2728.22" cy="1083.46" r="8.53"/><circle class="cls-1" cx="2727.2" cy="848.77" r="1.83"/><circle class="cls-8" cx="2198.61" cy="1216.29" r="4.54"/><circle class="cls-1" cx="2735.09" cy="1179.3" r="2.88"/><circle class="cls-8" cx="2744.55" cy="884.14" r="4.54"/><circle class="cls-12" cx="2186.97" cy="1009.31" r="4.54"/><circle class="cls-1" cx="2411.97" cy="1011.71" r="2.51"/><circle class="cls-5" cx="2478.23" cy="1250.46" r="4.54"/><circle class="cls-8" cx="2567.28" cy="794.33" r="4.54"/><circle class="cls-7" cx="1949.25" cy="1550.06" r="5.69"/><circle class="cls-5" cx="2262.61" cy="1494.93" r="5.69"/><circle class="cls-1" cx="2465.2" cy="1344.77" r="1.83"/><circle class="cls-8" cx="2482.55" cy="1380.14" r="4.54"/><circle class="cls-1" cx="2374.52" cy="1451.03" r="2.03"/><circle class="cls-6" cx="1986.56" cy="1444.65" r="4.54"/><circle class="cls-4" cx="2395.02" cy="1114.09" r="5.69"/><circle class="cls-6" cx="2664.87" cy="858.06" r="5.69"/><circle class="cls-6" cx="2146.31" cy="897.08" r="5.69"/><circle class="cls-7" cx="2437.69" cy="1253.08" r="5.69"/><circle class="cls-4" cx="2509.22" cy="832.46" r="8.53"/><circle class="cls-1" cx="2168.18" cy="1185.55" r="4.54"/><circle class="cls-1" cx="2657.09" cy="1413.3" r="2.88"/><circle class="cls-10" cx="2683.49" cy="1198.8" r="2.51"/><circle class="cls-5" cx="2259.23" cy="999.46" r="4.54"/><circle class="cls-8" cx="2761.28" cy="1469.33" r="4.54"/><circle class="cls-7" cx="2768.25" cy="926.06" r="5.69"/><circle class="cls-6" cx="2657.31" cy="1143.08" r="5.69"/><circle class="cls-8" cx="2490.61" cy="1211.29" r="4.54"/><circle class="cls-12" cx="2619.97" cy="1489.31" r="4.54"/><circle class="cls-1" cx="2703.97" cy="1006.71" r="2.51"/><circle class="cls-5" cx="2770.23" cy="1245.46" r="4.54"/><circle class="cls-8" cx="2507.28" cy="918.33" r="4.54"/><circle class="cls-7" cx="2154.25" cy="1551.06" r="5.69"/><circle class="cls-5" cx="2202.61" cy="1618.93" r="5.69"/><circle class="cls-1" cx="2405.2" cy="1468.77" r="1.83"/><circle class="cls-8" cx="2422.55" cy="1504.14" r="4.54"/><circle class="cls-1" cx="2314.52" cy="1575.03" r="2.03"/><circle class="cls-6" cx="1926.56" cy="1568.65" r="4.54"/><circle class="cls-4" cx="2335.02" cy="1238.09" r="5.69"/><circle class="cls-6" cx="2745.87" cy="1467.06" r="5.69"/><circle class="cls-6" cx="2086.31" cy="1021.08" r="5.69"/><circle class="cls-7" cx="2377.69" cy="1377.08" r="5.69"/><circle class="cls-4" cx="2590.22" cy="1441.46" r="8.53"/><circle class="cls-1" cx="1843.18" cy="1432.55" r="4.54"/><circle class="cls-1" cx="2597.09" cy="1537.3" r="2.88"/><circle class="cls-10" cx="2623.49" cy="1322.8" r="2.51"/><circle class="cls-5" cx="2199.23" cy="1123.46" r="4.54"/><circle class="cls-8" cx="2701.28" cy="1593.33" r="4.54"/><circle class="cls-7" cx="2708.25" cy="1050.06" r="5.69"/><circle class="cls-6" cx="2597.31" cy="1267.08" r="5.69"/><circle class="cls-8" cx="2430.61" cy="1335.29" r="4.54"/><circle class="cls-12" cx="2418.97" cy="1128.31" r="4.54"/><circle class="cls-1" cx="2643.97" cy="1130.71" r="2.51"/><circle class="cls-5" cx="2710.23" cy="1369.46" r="4.54"/><circle class="cls-8" cx="2839.28" cy="1235.33" r="4.54"/><circle class="cls-1" cx="2636.52" cy="955.03" r="2.03"/><circle class="cls-6" cx="2513.56" cy="825.65" r="4.54"/><circle class="cls-8" cx="1286.28" cy="678.33" r="4.54"/><circle class="cls-6" cx="1383.87" cy="742.06" r="5.69"/><circle class="cls-6" cx="1521.31" cy="707.08" r="5.69"/><circle class="cls-4" cx="1228.22" cy="716.46" r="8.53"/><circle class="cls-1" cx="1235.09" cy="812.3" r="2.88"/><circle class="cls-1" cx="1567.97" cy="570.71" r="2.51"/><circle class="cls-8" cx="1339.28" cy="868.33" r="4.54"/><circle class="cls-12" cx="1197.97" cy="888.31" r="4.54"/><circle class="cls-1" cx="1422.97" cy="890.71" r="2.51"/><circle class="cls-8" cx="1578.28" cy="673.33" r="4.54"/><circle class="cls-6" cx="1675.87" cy="737.06" r="5.69"/><circle class="cls-4" cx="1520.22" cy="711.46" r="8.53"/><circle class="cls-5" cx="1270.23" cy="878.46" r="4.54"/><circle class="cls-8" cx="1518.28" cy="797.33" r="4.54"/><circle class="cls-1" cx="1647.52" cy="834.03" r="2.03"/><circle class="cls-6" cx="1524.56" cy="704.65" r="4.54"/><circle class="cls-4" cx="2657.02" cy="618.09" r="5.69"/><circle class="cls-6" cx="2408.31" cy="401.08" r="5.69"/><circle class="cls-7" cx="2699.69" cy="757.08" r="5.69"/><circle class="cls-8" cx="2241.61" cy="469.29" r="4.54"/><circle class="cls-1" cx="2313.95" cy="596.49" r="4.54"/><circle class="cls-1" cx="2430.18" cy="689.55" r="4.54"/><circle class="cls-6" cx="2688.09" cy="353.44" r="4.54"/><circle class="cls-1" cx="2778.09" cy="432.3" r="2.88"/><circle class="cls-5" cx="2521.23" cy="503.46" r="4.54"/><circle class="cls-1" cx="2574.52" cy="364.03" r="2.03"/><circle class="cls-6" cx="2658.56" cy="505.65" r="4.54"/></svg>