<svg id="Layer_3" data-name="Layer 3" xmlns="http://www.w3.org/2000/svg" viewBox="0 0 2783 1706.02"><defs><style>.cls-1,.cls-11,.cls-3,.cls-7{fill:#fff;}.cls-2,.cls-6{fill:#db9aad;}.cls-13,.cls-2,.cls-7{opacity:0.55;}.cls-3,.cls-4{opacity:0.22;}.cls-12,.cls-13,.cls-4{fill:#a08dce;}.cls-5{fill:#ddddab;}.cls-8,.cls-9{fill:#a6ccf4;}.cls-11,.cls-9{opacity:0.67;}.cls-10{fill:#b9a5e5;}</style></defs><title>BG-2</title><circle class="cls-1" cx="817" cy="243" r="14"/><circle class="cls-2" cx="312" cy="737" r="14"/><circle class="cls-3" cx="666" cy="805" r="14"/><circle class="cls-4" cx="2067" cy="1339" r="14"/><circle class="cls-5" cx="14" cy="14" r="14"/><circle class="cls-6" cx="2731" cy="709" r="14"/><circle class="cls-7" cx="1728" cy="271" r="14"/><circle class="cls-3" cx="312" cy="1619" r="14"/><circle class="cls-5" cx="1847" cy="438" r="14"/><circle class="cls-6" cx="1455" cy="805" r="14"/><circle class="cls-7" cx="2172" cy="1681" r="14"/><circle class="cls-4" cx="2348" cy="646" r="21"/><circle class="cls-1" cx="2345.5" cy="68.5" r="4.5"/><circle class="cls-8" cx="1044.83" cy="972.84" r="11.18"/><circle class="cls-9" cx="607.83" cy="526.84" r="11.18"/><circle class="cls-1" cx="1222.83" cy="1285.84" r="11.18"/><circle class="cls-10" cx="25.83" cy="1694.84" r="11.18"/><circle class="cls-1" cx="1508.83" cy="1514.84" r="11.18"/><circle class="cls-6" cx="1038.62" cy="1536.71" r="11.18"/><circle class="cls-1" cx="2364.91" cy="881.84" r="7.09"/><circle class="cls-1" cx="462.33" cy="1296.83" r="11.18"/><circle class="cls-11" cx="737.33" cy="1041.83" r="11.18"/><circle class="cls-8" cx="2388.18" cy="155.54" r="11.18"/><circle class="cls-12" cx="1016.18" cy="463.54" r="11.18"/><circle class="cls-12" cx="208" cy="252.36" r="7"/><circle class="cls-1" cx="1569.83" cy="469.44" r="6.17"/><circle class="cls-10" cx="2776.83" cy="1547.44" r="6.17"/><ellipse class="cls-1" cx="238.33" cy="570.5" rx="1.67" ry="1.5"/><circle class="cls-13" cx="64.45" cy="1319.54" r="11.18"/><circle class="cls-5" cx="1732.87" cy="1056.94" r="11.18"/><circle class="cls-8" cx="2621.29" cy="1019.69" r="11.18"/><circle class="cls-1" cx="2122.37" cy="329.99" r="5.01"/><circle class="cls-6" cx="1819.8" cy="11.61" r="11.18"/></svg>