<svg xmlns="http://www.w3.org/2000/svg" viewBox="0 0 600 800"><defs><style>.cls-1{fill:#484d9e;}.cls-2{fill:#f2b526;}.cls-3,.cls-4,.cls-5,.cls-6,.cls-7,.cls-8{fill:none;}.cls-3,.cls-5,.cls-6,.cls-8,.cls-9{stroke:#f0aa07;}.cls-3,.cls-4,.cls-5,.cls-6,.cls-7,.cls-8,.cls-9{stroke-miterlimit:10;}.cls-3,.cls-4,.cls-9{stroke-width:11px;}.cls-4,.cls-7{stroke:#f6ccc3;}.cls-5{stroke-width:4px;}.cls-6{stroke-width:5px;}.cls-7,.cls-8{stroke-width:2px;}.cls-9{fill:#f0aa07;opacity:0.53;}</style></defs><title>monopoly-boards-</title><g id="BG"><rect class="cls-1" x="9" y="9" width="582" height="782"/><path class="cls-1" d="M582,18V782H18V18H582M600,0H0V800H600V0Z"/></g><g id="Layer_2" data-name="Layer 2"><path class="cls-2" d="M596.67,800c.43,1.47,1.41.64,1.22-3.42l-1.66-2.88Z"/><path class="cls-2" d="M599.74,772.68c-.8-4.78-2.21-10.29-3.73-7.2,1.59,4.73.92,5.88,2.82,11,.19,4.07-.53,7.09-1.14,6.41.42,1.44-.37,6.31.67,8.5,1.28-5.29,1.33-12,.28-19C599,770.88,599.43,772.33,599.74,772.68Z"/><path class="cls-2" d="M595.75,717.92a27.09,27.09,0,0,0,.43,3.57c-.07-1.13-.13-2.22-.17-3.35A1.69,1.69,0,0,1,595.75,717.92Z"/><path class="cls-2" d="M503.52,793.4c-.07.1,0,.17,0,.25C504,793.51,504.16,793.41,503.52,793.4Z"/><path class="cls-2" d="M595.93,715.76c0-1.12,0-2.26,0-3.41A33.66,33.66,0,0,0,595.93,715.76Z"/><path class="cls-2" d="M286.8,794.08a12.54,12.54,0,0,1,3.29,1.26C289,794.34,299.47,794,286.8,794.08Z"/><path class="cls-2" d="M596.54,717.88a3.48,3.48,0,0,1-.61-2.12c0,.82.05,1.61.08,2.38C596.22,718.34,596.41,718.39,596.54,717.88Z"/><path class="cls-2" d="M362.16,7.06l-11.33-.2C354,7,358.11,7.06,362.16,7.06Z"/><path class="cls-2" d="M5.72,575.2l.17,2.6A10.71,10.71,0,0,0,5.72,575.2Z"/><path class="cls-2" d="M317.2,7.06a42.54,42.54,0,0,0-6.38-1,6.26,6.26,0,0,0-1.31.37Z"/><path class="cls-2" d="M290.11,795.36l0,0Z"/><path class="cls-2" d="M364.74,792c-10.79,0-5.07,1.81-7.36,2.87-12.88.52-6-1.36-10.35-2.31-8,.49-14.21,2.19-20.21,2.11-.45-.3-1.62-.41-.25-.79-8.51,1.47-25.25.07-35.16,1.91a3.63,3.63,0,0,1-1.3-.45c1.61.92,1.86,1.86,1.53,2.53-4.84,0-9,1.17-10.81,0a10.1,10.1,0,0,0,4.61-.83l-5.08.53c-4.56-1.74,6.93-.6,6.93-1.89-9.89.57-21.42,2-29,1.51-1.59-1.7,17.72-.57,7.6-2.08l11.73.65c-9-2.68,7.12.19-1.11-2.68-15.43-.49-17.26.87-32.65.37-3.46.94,1.15,1.4-2.32,2.34-21.87,1.7-17.22-4.27-33.3-2-4.16,1.13-5.78,3.28-17.23,2.15l3.9-1.92c-14.93-.19-8.52,2.76-24.17,1.46,2.78-.75,11.74-.63,9.48-.86-10.13-1.52-7.17,1.09-15,1.09l-1.61-1.7c-15.9.27-33.42,1.49-51,1.8,1-.5,4-1-.13-1.55-22.21.85-47.42-.21-68.85-1.22l-8.18,1.47c-1.91,0-3.54-.66-1.47-1-8.36-.56-.44.93-4.45,1.51-4.75.1-6.28-.85-3.27-1.29-3.43.29-7.53.59-12,.86l-3.43.2-1.75.09-.89.05H8l-.17,0c-.92.12-2,.22-3.08.3l-.13-1.71,0-.91,0-.46,0-.68c0-2.81-.06-5.58,0-8.26,0-5.36.26-10.35.68-14.5l.43,3c.6-12.09-3-13.64-1.64-24.85l.26,2.15c.64-26.24-.7-55.24,1.51-75.27-2.11-3.8.94-26-2-27.65,1.46-15,2-10.7,3-31.8C6.8,608.74,4.82,606,4.52,599l1.54-.17-1.62-9.46,1.84-5-.39-6.54c-.09,2.61-.69,5.54-1.14,5.14-.69-10.21,1.08-24.89,1.87-25.14L5.31,533.65c.62.54.84,4.58,1.23,7.78-1.57-12.89,1.62-2.34.18-14.16-.35,1.59-.91-.85-1.23-1.12.94-5.89.94-19.3.55-29.21l1.06,1.9c.27-17.92-.51-37.77-.49-57.87-.49,7.21-2.33,5.55-2.51-.34l1.63-2.36c-1-3.81-.62,6.16-1.85-1.66.19-7.51,1.85-5.05,2.38-.73l-.56-9.14c.48-.53.74,1.61,1.36,2.17-1-3.75,1.64-15.76-.12-21.17l.48-.51c0-20.1-.54-29.22-.62-45.59-1.41-.32-1.1-6.72-2.24-11.6C5,338,6.12,324.65,6,310.16c-.7-10.19-1.19-3-2-7.56,1.28-.75,1.16-15.23,2.08-7.72-.2-17.4-.25-22.22-1.29-44.22-.53,2.38-.75,5.07-1.19,3.68-.21-4,.54-9.09,1.15-8.51l.13,1c-1.92-24.7,3.74-57,1.07-76.68l.13,1.11-1.39-20.4c.22-9.38,1,5.63,1.75-1.31-2.13-22,.31-34.77-1.11-52.89C9.08,82.69,5,47,7.45,28l-.89,1.09c-.88-4.89.5-5.92.71-9.52-.69.51-.8,5.3-1.28,2.26-.1-3.59-.16-7.2-.21-10.84,0-1.75,0-3.52-.07-5.3l7.41.07L26.35,6c8.84.17,17.73.41,26.63.66,17.8.52,35.64,1.12,53.2,1.45,15.55.24,8.82-4.6,28.42-2.48L129,7.26c31.37-2,64.13.07,94.84-1.61C222,6,222,6.53,219,6.52c6.48,1.2,24,.06,24.09-.92,4.78.11,1.11.88,4,1.38,6.51.71,16.33-1.53,19.79-.34.58.2-1.83.39-3,.49,4.24-.59,19.75.14,15.69-1.24,11.52.66,22-.62,31.23.2,6-1.54,19.73.75,21.63-1.44-.82,2.26,20.21,1.82,27.49.76-2.44.68,6.34.71,3.48,1.65,8.32,0,15.94-.45,14.49-1.61,15.31,2.71,30.79-2.18,39.41,1.29,24.7-1.21,47.56-2,69.78-2.57-.81,2.26-24.56.23-23.61,2.6,21.08-.93,33.24-2.87,54.14-2.32,5.41.3-3.08,1-4.9,1.36,21-.93,40.71.2,59.45-1,0,.21-2.07.44-4,.61,3.69-.08,8.58.33,8.17-.7l-3.6.28c-5.9-1.49,14.66-3.11,15.32-3.89-1.56.73-1.19,1.15.09,1.41a23.35,23.35,0,0,0,2.49.31l1.42.11,1,.1c1.28.14,2.36.31,2.5.67.08.18-.08.41-.47.71s-1,.67-1.69,1.14a13.14,13.14,0,0,0,1.51-.45.61.61,0,0,0,.92-.16,3.24,3.24,0,0,1-.48,1.77c-.22.22-.51,0-.9-.31.07.47.14.89.23,1.27l.06.29,0,.13c0,.12,0,.24,0,.36l.13,1.32c.18,1.61.37,2.63.54,3.62a49.39,49.39,0,0,1,.59,9.79c-.5,0-.69-2.46-1.27-3.7a98.61,98.61,0,0,1,1.52,22.29c-.3-.61-.69.57-.69-2.45C595.78,56.7,598.21,69,597.28,88c-2.16-5.63-.71,6.49-2.58,7.5l.56,10.26.9-4.11c0,9,1.33,16.93.72,24.65l-.77-6.68.35,16.85.71-9.54c1,9.1,2.36-1,1.84,11-.19-2.43,0,9-1.12,13.68v0a69.87,69.87,0,0,1,.75,15.66c-.59,1.73-2.06-1.39-2.46-.26,1.56,4.38.43,21.05,2.1,26.6-.39-1.85-1.37-1.95-1.57-1.34l1.26,3.68c-.4,4.17-.6,4.78-1.38,4.1-.23,12.52,2.37-4,1.35,10.88a27.67,27.67,0,0,1-.49-3c-.53,14.93.81,28.85.18,42.56-1.87,4.05-.46-12-2-7.35.34,19.78,2.25,41,1.81,60.09l.21-3.56c2.65,2.65-1.31,14.25-.06,23.93-.2-2.37-1.48-3.11-1.18-2.47-.43,13.11.65,26.8,1.49,46.66l-.69-2.46c-.6,7.72-.35,20.34-.66,28.69.68,2.47.57,7.24,1.56,4.34-3.88,25.73,2.08,49.08-1.15,71.9,0-2.72-.59-6.5-.6-4.33l.63,19.44c1.16-1.53.7-2.55,1.6-6.63a59.3,59.3,0,0,1,1.22,12.77c-.77-8.75-1.86.07-2.5,3.85.35-.63.74.66,1.1.34-2,10.16,2.33,1.7.94,15.57l-.61-.73c.31,5.19,1.12,10,.94,15.56-1.33,2.33-.62-5.52-1.72-5.88.08,7.86,2.53,15.51,1.2,22.63-.37-3.34-.38-8.14-.75-11.48-1.57,7.75-1.17,8.65-1.42,14.4l0-.56-.71,13.31.42-3.39c3.49,9.83.64,20,2.92,33.28-2.16-12.88-1.25-2.13-2.76-3.12-.42,3.39-.9,8.53-1.32,7.06,1.22,6.27-1,10.46.82,19.3-.49.39,0,6.7-1.27,5.29.38,8.14.85-1.93,1.46-1.24,1.67,12.55-2,29.5.27,47.55.94,15.57,2.58,18.45,3.4,32.9-.78,4.87-1.78-4-1.78-4a118.21,118.21,0,0,0,0,21.2c-.43-1.5-.79.05-1.34,2.31.13,5.95,1.78,4,1.06,11.82a27.19,27.19,0,0,1-2-5.94c.45,7,1.36,13.93,1.8,21.19-.85,1.92-1.29-4.38-1.84-6.94.38,8.16.77,21.13,2.11,23.65l.48-5.23c.07,3-1.15,1.53-1.4-.66-1.05-7,.47-10.08,1-10.48l.31,5.17c2.86-5.31-.46-20.76-.29-31.16l2.08,4.33-1.73-10.67c.54-2.27,1.7-3.82,2,1.32,1-7.46-.74-6.61.41-13,.18-.71.28-.39.36.26l-.62-7.28c.44,1.43,1.47-1.22,1.17,3.26,1.2-13.08-1.56-21.09,0-26l.12,1.1c-.7-18.15-1.52-1.76-3.31-15.37l3.76-9.16L601.06,644c.05-1.87.16-5.57.78-4.89-1.05-7-.67,1.19-1.66-2.85,1.4-9-.65-24.85,1.79-26.88-1.16-3.24-.9,8.61-1.71-1,2.62-2.74-.44-11.12.76-19.35,1.35,2.53.63,10.33,1.84,2.09-2.29-5,.5-16,.06-23-1.82-.32-.76-15.1-1.36-26.75.61.74,1-21.93,1.65-32.77l.31.32c-1.84-2.1-1.49-13.28-1.87-21.42,1.1.32,1.53,1.78,2,6.19v-7.65c-.59-1.8-.9-4.19-1.11-9.16l1.38,1.93c-.08-10.19-1.62-20.52-.7-33.63-1.28-.73-3.57,10.43-4.42-3.43.69-.52,1.87-1,2.16,2.6a32.1,32.1,0,0,1-.28-6.63l1.16,5.54c.51-6-1-3.12-.86-7.9,1,.1.7-3.53,1.48-2.84.1,1.21-.4,4.16,0,6,.18-5.39.77-11.89,1.51-14-.56.47-1.33,0-1.45-3.94-.08-10.19,1.18-3.49,1.69-9.43-.68-2.47,0-9-1.45-9.14a9.15,9.15,0,0,1,1.1-4.68c-.65-5.27-.19-24.63-1.76-18.69L602,380c0-.26,0-.56-.07-.87v0c-1.47-17.28.84-35.89.21-53l.49,0c-.56-10.24-.33-22.78-1.4-30.09,0-3,.91-7.15,1.49-5.85-.37-7.83-.92-8.71-.11-20,.86,7.87.77-2.71.63,8.06.43-10.16,1.22-12.46-.13-23.38,1.27,3.72,1.59-7.65,1.22-12.49l-.91,7.13c-.18-5.44-.07-10.19,0-15l1.66,2.61c2-20.81-3.44-37.52-.06-53.36-1.16-5.5-.81,11.3-2.18,6.38.23-9.57,2.62-19.54,2.62-22.54.92-13.11-2.43-12.23-1.8-25.95-.59,1.76-2.18,3.41-2.73-6.84.21-9.58,2.48-11.77,3-5.72.05,2.29-.14,3.4-.34,3.3.22,3.1.47,7.16,1.11,3.37l-.59-1.25c.61-4.75.54-17.92,1.52-14.83-.57-7.23-1-3.09-1.28,2.27.85-12.28,0-19.19.6-31.83-.33,2-1,3.86-1,1.86.74-18.55-1.13-8.17-1.39-20.73.91-7.14,2.16,2.55,1.41-10.09.61-7.73,1.57-1.64,2,1.43-1.14-11.52.76-21.53,1-28.11l.47,6.07c-.28-3.63-.27-6.61-.27-9.63L606,34.31c.21-3.56.22-6.58.71-6.51-.78-3.68-2,2.81-3-4.48a80.84,80.84,0,0,0,.1-9.22,41.89,41.89,0,0,1,.11-4.35,9.58,9.58,0,0,1,.25-1.57,5.41,5.41,0,0,1,.47-1.47c0,1.13-.05,2.1-.07,3,0,.7,0,1.29,0,1.79a12.12,12.12,0,0,0,.11,2c.12.75.35.47.59.12.5-.7,1.09-1.69,1.22,4.64a69,69,0,0,1,0-9c.18-.54.33.5.42,1.48.09-.93.16-1.76.22-2.52s0-1.32.07-1.93,0-1.24,0-1.81c.05-2.3,0-4.08,0-5.48a23.58,23.58,0,0,0-.73-5.39c-1.78.31-3.62.64-6.43.9-1.4.13-3,.23-5,.31l-3.2.09c-.74,0-1.55,0-2.45,0,1.89-.88-3.43-1.68-5.85-1.49,6,0,2.86,1.48-2.62,2.16-9.5-.69-10.33.51-15.31.43l5.68.33c-1.92.89-6.67.77-13.3,1.05-.56-.69,6-.48,3.66-.78C554.2-1.85,544.94-5,534.68-4c-4.75-.6-.46-1.66-4.63-2.07-11.49,1.15-12.45-1.22-24.53-.27,3.48,1.2,4.09.91-4.42,2.07L521-5.09,508.22-3.36c6,0,12.65-.75,16.24-.54-6.07,1-5.45.67-2.58,1.66-8.2-1.79-16.26,1.05-25.74-.16l.29-3c-14.26-1.31-25.33,1.52-43.83.78l5.94.51c-2.48,1.17-11.42.16-17.42.64.56-1-3.19-1.35-5.74-2,.31.73-13.55-.07-15.23,1.9l-8.26-1.3C396.94-5.32,394.83-2,380.46-2.31c4.33-1.07-2.2-1.77,7.43-2.54-4.8,0-9.11-.19-9.19.49C375.9-5,365.4-3,361-4c-2,.43-2.68,1.46-8.07,1.38-.58-.2,0-.49,0-.49,0,.49-8.43.67-3.72,1.76-14.77-3.08-41.3.22-54.16-2.42-10.47.33-23.08.65-32.58.72.61-.3,0-.49,1.83-.39-13.11-.92-8.06,2.83-23,1.81-7.62-1.6,7.92-.86,3.17-1.47-2.07-3.25-18,.44-28-1.45l2.43-.19c-7.67-1.11-18.72,1.23-31.26,1,0,0,.61-.29.08-.49C179.13-2.54,162.9-2,150.84-1.53c3.76-1.27,5.48-.67,3.19-2-5.4.18,1.59,2.07-9.2,2.43-3.51-.69-11.3-1.3-12.33-2.68l10.18-.08c-5.22-1.78-13.18.07-18.54-.24l.69-.78c-15.6.25-15.82,2.21-32.59,2.07L94-2.18c-9.16,2-7.68-1.09-16.82.36l-2.77-2c-6,.48-21.17,1.91-32,2.28C48.52-3,61.2-3.73,69.05-4.6c-6,0-20.36.15-23.49,1.12C48-3.67,51-4.15,53.41-3.85q-11,2.33-29,2.28c.69-1.25-2.4-1.79-7.17-2-2.38-.13-5.19-.19-8.16-.23L-4-4c0,2.37-.1,4.7-.15,6.93,0,1.13-.08,2.24-.12,3.32,0,.54-.05,1.08-.07,1.6,0,.2,0,.4,0,.6l0,.5a28.86,28.86,0,0,1-1.09,6.4c1.42,21.12-.6,41.9-.37,66.51,3-8.72.08,7.19,3.14,5.68.19,5.73.14,7.92,0,8.43l-1.83,17.37c-.89,4.12-.67-5.45-1.36-4.92C-6.22,121-7.28,113.68-8.09,122c1.09-1.71,1.57,4.36,1.15,11.52l1.41-10.08c1.63,17.54-2.57,15.16-1,32.84l-1-5.59c.57,9.07,0,33.47,2.44,42.36-.35,1.61-1.19,3.72-1.41-.27-.37,21.68,2.61,48.27,1.1,65.12l-.75-1.65c.22,4.05,1.41,7,.66,12.11-.31-.26-.75-1.63-.79.24.25,2.14,1.31,10.75.87,16.11l-.84-4.58c-1,21.14,2.05,32.45,2.56,50.19-2.2-.05-2.92,16.59-3.27,24.9l-.31-.29c-.28,24.62,1.82,41.83,2.68,64.63-2.39,14.16-1,48-2.34,70.71.4-3.48,1.72.56,1.94,4.61-.45,5.34,1.53,14.76-.49,13.91l0-1.9c-2,4-1.46,15-1.51,23.56l2.64,1.41c-3.84,22.41,1.41,58.72-2,70.95.66,5.41.65,12.11,1.31,17.47L-6.36,620c-.36,15-.54,22.46-.2,41l-1-3.78c-.09,10.45,4.09,13.19,4.17,22.83l-2.11,2.9c0,18.22-1.83,36.67.09,54.68-.31-.3-.92-.83-1-3.78,0,8.58-1.43,33.18,1.47,30.07-.94.1-1,4.8-.69,10.71.14,2.95.38,6.2.62,9.33.13,1.57.26,3.1.38,4.55.06.73.12,1.43.18,2.11s.11,1.17.16,2.27l-.35-.58a2,2,0,0,0-.34-.51l-.7-.77c.06.27.11.52.16.77a3,3,0,0,1,.08.51c0,.2.06.4.08.59.11.76.2,1.47.3,2.15.18,1.26.35,2.39.51,3.45.3,2,.55,3.63.75,5.37,2-.2,4.13-.36,6.69-.5l8.3-.38c2.75.18,2.41,1.12-1.24.76,9.16.73,7.14-1.32,18.25-.58L24,804c9.43.11,8.68-.37,13.87-1.4,5.92-.56,17.88.35,19.27,1.61,1.27-.77,6.43-1.8,12-1.44.74.48-1.28.78-2.3.92,15.77.95,23.44-1.62,34.28-.25.22.46.93.69,1.83.83-12.52,0-22.6-.11-21.66-.21,0,1.28,10.11,1.51,2.07,3.28,8.12-1,22-3.07,31.86-2.47a6,6,0,0,1,1.3.45l-1,.14a36.86,36.86,0,0,0,6.23-.2c3.15.21,5.15.36,8.17.38,1.16,1.06,11.59.57,16.64.63-.42-1.41,6.18-1.18,0-2.34.8.1-1,.16-4.31.22-.76,0-1.65.07-2.15.15l.35-.13-12.54.1a40.26,40.26,0,0,1,13.72-.54c2.59-.9,5.44-1.83,7-2.26,6.91,2,20.21,3,22.06,4.22,15.4-.78,36.28-.52,46-3.16,4.38-.34,5,.76,6.67,1.18-2.53.26-5.54.22-6.9.6,8.75-.68,25.93-.26,28-2.11,11,.83-6.2,1.7,9,1.4l-2,.56c29.82,3,48.48-4.71,81.55-.92-2.29-.23-3.44-.34-3.9-.65,37.69,1.67,77.68-1.57,114.88,1.08,10.57.53,11.72-.64,18.17-1.54l2.29,1.51,11-1.74c15.64-1.28,27.09,3.7,46.9,1.29l-2.56-1c7.12.2,22.54-.6,21.35.57a9,9,0,0,1,5.11-.52l.22.79,17.48-1.36c13.54.57-2.12,3.14,17.64,3.29,7.35-.3,20.93-2.3,18.17-2.83-3,0-7.58-.49-7.8-1.28l6.72-.41c1.22-2.33,6.39-4.71-10.11-6.34l-11.5,1.42-3.7-1.12,9.68-.08c-5.49-1.06-9-.12-12.87.53a11.51,11.51,0,0,0-4.82-1.25l-11.28,2.23c-1.37-.91,5.06-1.81-2.51-2.31-5.29,1,5.07,2-3.69,2.72-5.5-1.06-3.89-1.92-10.35-1-.9-.6.46-1,3-1.24-5.74.71-15.2.3-18.17,1.54-5.73-1.31-19.4.34-18.83-1.87a92.56,92.56,0,0,1-15.4,1.82c9.64-2.63-19.76-.15-17.21-3-7.14,2.37-25.78,1-38.42,2.37a9.66,9.66,0,0,1,3.21-.45c-7.11-.2-9.18-.91-13.75-1.36-.91,2-12,2.41-18,3.62-8.72-1.89,5.3-2.3,2.56-4.12.44,1.59-15.15,1.59-12.18,2.91-6.67-1.17-5.75-.57-9.19-2.19-1.17,2.45-6.21.41-11.74,1.92-9.65-1.21-2.48-2.3-13.08-1.55C355.31,792.89,364.74,792,364.74,792Zm-252.15,4.23v0l5.21-.08Zm-21.19,0c2.58.05,5.79.06,9.19.05.74.49-.06,1-2.19,1C99.56,797,94.56,796.69,91.4,796.28ZM136.22,806c-3.35.2-4.48-.08-4.94-.37,1.59,0,3.44-.07,5.87-.17.1-.05.3-.11.4-.17A3.42,3.42,0,0,1,136.22,806Z"/><polygon class="cls-2" points="6.41 598.8 6.06 598.83 6.37 600.68 6.41 598.8"/><path class="cls-2" d="M597.27,495.31a4.25,4.25,0,0,0-.36,1.53A6.15,6.15,0,0,0,597.27,495.31Z"/><path class="cls-2" d="M597,545.72l-.5,7.13C596.74,549.77,596.87,547.52,597,545.72Z"/><path class="cls-2" d="M596.25,584.48a1.85,1.85,0,0,0,.61.76v-.07Z"/><path class="cls-2" d="M568.2,5.4c-.53,0-1,0-1.5.06C563.19,5.73,565.58,5.63,568.2,5.4Z"/><path class="cls-2" d="M597.89,151.6c-.26-1.95-.51-3.87-.67-5.9C597.11,149,597.09,151.5,597.89,151.6Z"/><path class="cls-2" d="M363.4,7.09s0,0,0,0h-1.26Z"/><path class="cls-2" d="M597.25,137.17a51.76,51.76,0,0,0,0,8.53A78.28,78.28,0,0,0,597.25,137.17Z"/><path class="cls-2" d="M595.62,752.48l-.06,1.87c.09,0,.17.08.22.22Z"/><path class="cls-2" d="M595.78,754.57l.17,2.07A6.42,6.42,0,0,0,595.78,754.57Z"/><path class="cls-2" d="M596.3,761l-.35-4.37A14.54,14.54,0,0,0,596.3,761Z"/><path class="cls-2" d="M596.27,701.17l-.51-.59A.78.78,0,0,0,596.27,701.17Z"/><path class="cls-2" d="M596.12,685.58c-.12,3.71-1.09,9.33-.77,14.52l.41.48C595,698.14,597,689.11,596.12,685.58Z"/><polygon class="cls-2" points="596.6 231.22 595.81 236.49 596.98 239 596.6 231.22"/></g><g id="Layer_7" data-name="Layer 7"><ellipse class="cls-3" cx="297.89" cy="393.53" rx="274.41" ry="143.71" transform="translate(-129.77 147.13) rotate(-22.93)"/><ellipse class="cls-4" cx="299.68" cy="395.04" rx="274.41" ry="143.71" transform="translate(-187.54 302.92) rotate(-42.11)"/><ellipse class="cls-5" cx="321.27" cy="393.53" rx="243.73" ry="200"/><ellipse class="cls-6" cx="312.97" cy="392.53" rx="237.23" ry="101.5"/><ellipse class="cls-7" cx="280.6" cy="383.91" rx="135.87" ry="273.62" transform="translate(-167.09 544.21) rotate(-73.54)"/><ellipse class="cls-8" cx="309.44" cy="406.59" rx="225.36" ry="128.73" transform="translate(-192.76 312.45) rotate(-42.11)"/><ellipse class="cls-9" cx="297" cy="402" rx="228.5" ry="216.5"/></g></svg>