<svg xmlns="http://www.w3.org/2000/svg" viewBox="0 0 800 800"><defs><style>.cls-1{fill:#484d9e;}.cls-2{fill:#f2b526;}.cls-3{fill:#be9051;}.cls-4{opacity:0.86;}.cls-5{fill:#fae1c0;}.cls-6{fill:none;}.cls-6,.cls-8{stroke:#f0aa07;stroke-miterlimit:10;stroke-width:21px;}.cls-7{fill:#f0aa07;}.cls-8{font-size:297.57px;fill:#fceecd;font-family:CenturyGothic-Bold, Century Gothic;font-weight:700;}</style></defs><title>monopoly-boards-</title><g id="BG"><rect class="cls-1" x="9" y="9" width="782" height="782"/><path class="cls-1" d="M782,18V782H18V18H782M800,0H0V800H800V0Z"/></g><g id="Layer_2" data-name="Layer 2"><path class="cls-2" d="M796.67,800c.43,1.68,1.41.73,1.22-3.91l-1.66-3.29Z"/><path class="cls-2" d="M799.74,768.77c-.8-5.46-2.21-11.75-3.73-8.22,1.59,5.41.92,6.72,2.82,12.54.19,4.64-.53,8.1-1.14,7.32.42,1.64-.37,7.22.67,9.72,1.28-6,1.33-13.7.28-21.7C799,766.71,799.43,768.38,799.74,768.77Z"/><path class="cls-2" d="M795.75,706.19a34.88,34.88,0,0,0,.43,4.08c-.07-1.29-.13-2.54-.17-3.83A1.2,1.2,0,0,1,795.75,706.19Z"/><path class="cls-2" d="M689.74,793.4c-.08.1,0,.17,0,.25C690.3,793.51,690.47,793.41,689.74,793.4Z"/><path class="cls-2" d="M795.93,703.73c0-1.29,0-2.59,0-3.9C795.87,701.61,795.87,702.8,795.93,703.73Z"/><path class="cls-2" d="M442.05,794.08a15.63,15.63,0,0,1,3.77,1.26C444.56,794.34,456.53,794,442.05,794.08Z"/><path class="cls-2" d="M796.54,706.15a4.42,4.42,0,0,1-.61-2.42c0,.94.05,1.83.08,2.71C796.22,706.68,796.41,706.73,796.54,706.15Z"/><path class="cls-2" d="M413.89,7.06,401,6.86C404.57,7,409.27,7.06,413.89,7.06Z"/><path class="cls-2" d="M5.72,657.37l.17,3A13.92,13.92,0,0,0,5.72,657.37Z"/><path class="cls-2" d="M362.52,7.06a55.28,55.28,0,0,0-7.29-1,7.94,7.94,0,0,0-1.51.37Z"/><path class="cls-2" d="M445.84,795.36l0,0Z"/><path class="cls-2" d="M531.13,792c-12.33,0-5.79,1.81-8.41,2.87-14.73.52-6.81-1.36-11.83-2.31-9.19.49-16.24,2.19-23.1,2.11-.51-.3-1.85-.41-.28-.79-9.72,1.47-28.86.07-40.19,1.91a4.57,4.57,0,0,1-1.48-.45c1.84.92,2.12,1.86,1.74,2.53-5.53,0-10.26,1.17-12.34,0a13,13,0,0,0,5.26-.83l-5.8.53c-5.21-1.74,7.91-.6,7.91-1.89-11.3.57-24.47,2-33.13,1.51-1.81-1.7,20.25-.57,8.7-2.08l13.4.65c-10.24-2.68,8.14.19-1.27-2.68-17.63-.49-19.72.87-37.31.37-4,.94,1.31,1.4-2.65,2.34-25,1.7-19.68-4.27-38.07-2-4.75,1.13-6.6,3.28-19.69,2.15l4.47-1.92c-17.08-.19-9.75,2.76-27.63,1.46,3.18-.75,13.42-.63,10.84-.86-11.59-1.52-8.2,1.09-17.1,1.09l-1.85-1.7c-18.17.27-38.19,1.49-58.32,1.8,1.11-.5,4.56-1-.15-1.55-25.39.85-54.2-.21-78.69-1.22l-9.35,1.47c-2.18,0-4-.66-1.68-1-9.55-.56-.5.93-5.09,1.51-5.43.1-7.17-.85-3.73-1.29-16.84,1.25-48,2.68-65.72,1.11l3.46-.43c-13.82-.6-15.59,3-28.41,1.64l2.46-.26c-9.28-.2-18.86-.21-28.34-.19l-14.1,0H7.47l-3.06,0c.13-4,.26-7.78.37-11.39.21-5,.5-9.75.92-14.11-2.11-4.36.94-29.69-2-31.62,1.46-17.12,2-12.22,3-36.33.13-6.44-1.85-9.6-2.15-17.57l1.54-.19L4.44,673.57l1.84-5.76-.39-7.47c-.09,3-.69,6.33-1.14,5.88-.69-11.67,1.08-28.44,1.87-28.73l-1.31-27.6c.62.61.84,5.23,1.23,8.89C5,604,8.16,616.1,6.72,602.6c-.35,1.81-.91-1-1.23-1.29.94-6.73.94-22,.55-33.38L7.1,570.1c.27-20.47-.51-43.16-.49-66.14-.49,8.24-2.33,6.35-2.51-.39l1.63-2.69c-1-4.35-.62,7-1.85-1.89.19-8.59,1.85-5.78,2.38-.85L5.7,487.71c.48-.61.74,1.83,1.36,2.47-1-4.28,1.64-18-.12-24.19l.48-.59c0-23-.54-33.39-.62-52.1-1.41-.36-1.1-7.68-2.24-13.26C5,386.3,6.12,371,6,354.47c-.7-11.65-1.19-3.41-2-8.64,1.28-.86,1.16-17.4,2.08-8.82-.2-19.88-.25-25.4-1.29-50.55-.53,2.73-.75,5.8-1.19,4.21-.21-4.56.54-10.38,1.15-9.73l.13,1.21C2.93,253.92,8.59,217,5.92,194.52l.13,1.26L4.66,172.47c.22-10.72,1,6.43,1.75-1.5-2.13-25.15.31-39.73-1.11-60.44C9.08,94.5,5,53.65,7.45,32l-.89,1.25c-.88-5.59.5-6.76.71-10.89C6.58,23,6.47,28.45,6,25c-.1-4.11-.16-8.24-.21-12.4q0-3.4-.07-6.87L15,5.78,30.11,6c10.11.17,20.27.41,30.44.66,20.35.52,40.73,1.12,60.8,1.45,17.76.24,10.08-4.6,32.47-2.48l-6.35,1.65c35.84-2,73.29.07,108.38-1.61-2.09.38-2.15.88-5.58.87,7.41,1.2,27.41.06,27.53-.92,5.47.11,1.27.88,4.64,1.38,7.43.71,18.66-1.53,22.61-.34.67.2-2.09.39-3.45.49,4.84-.59,22.57.14,17.93-1.24,13.17.66,25.19-.62,35.7.2,6.85-1.54,22.54.75,24.72-1.44C379,6.91,403,6.47,411.36,5.41c-2.78.68,7.24.71,4,1.65,9.5,0,18.21-.45,16.55-1.61,17.51,2.71,35.19-2.18,45.05,1.29,28.23-1.21,54.35-2,79.74-2.57-.92,2.26-28.07.23-27,2.6,24.09-.93,38-2.87,61.87-2.32,6.19.3-3.51,1-5.6,1.36,24.07-.93,46.54.2,67.95-1-.06.21-2.37.44-4.55.61,4.22-.08,9.81.33,9.34-.7L654.59,5c-6.74-1.49,16.76-3.11,17.52-3.89-7.17,2.94,21.15.74,9.77,4.45,2.78-.2,6.26-.68,5.62-1.37,4.13.2,5.43.6,1.25,1.38C703.87,5,698.5,3.91,712.2,3.93c-.05.5-2.82.69-4.23,1.27a128.41,128.41,0,0,1,25.47-1.52c-.69.3.65.69-2.8.69,19.87-.15,33.88-2.58,55.68-1.65C783.11,3.8,785,4,787.76,4.12l2.22.11,1.12.08.54.05.27,0,.12,0c.62.16,1,.42.91.89l2-.24c.11.72.21,1.53.32,2.42a22.16,22.16,0,0,0,.9-2.64c0,.68,0,1.33.05,2l.06,1,0,.25,0,.44,0,.91q.2,3.64.39,7.14a107.92,107.92,0,0,1,.14,13.55l-.77-7.64.35,19.25.71-10.89c1,10.39,2.36-1.12,1.84,12.55-.19-2.77,0,10.28-1.12,15.63v0a91.15,91.15,0,0,1,.75,17.9c-.59,2-2.06-1.59-2.46-.3,1.56,5,.43,24.05,2.1,30.4-.39-2.11-1.37-2.23-1.57-1.53l1.26,4.21c-.4,4.76-.6,5.45-1.38,4.68-.23,14.31,2.37-4.55,1.35,12.44-.1-1.33-.29-.7-.49-3.47-.53,17.06.81,33,.18,48.64-1.87,4.62-.46-13.7-2-8.41.34,22.61,2.25,46.81,1.81,68.68l.21-4.08c2.65,3-1.31,16.29-.06,27.35-.2-2.7-1.48-3.55-1.18-2.81-.43,15,.65,30.62,1.49,53.32l-.69-2.81c-.6,8.82-.35,23.24-.66,32.78.68,2.83.57,8.28,1.56,5-3.88,29.4,2.08,56.08-1.15,82.17,0-3.12-.59-7.43-.6-5l.63,22.22c1.16-1.76.7-2.91,1.6-7.58a77,77,0,0,1,1.22,14.59c-.77-10-1.86.09-2.5,4.4.35-.72.74.76,1.1.39-2,11.61,2.33,1.95.94,17.8l-.61-.84c.31,5.93,1.12,11.39.94,17.79-1.33,2.65-.62-6.31-1.72-6.72.08,9,2.53,17.73,1.2,25.86-.37-3.82-.38-9.31-.75-13.12-1.57,8.85-1.17,9.88-1.42,16.46l0-.65L796.28,524l.42-3.87c3.49,11.24.64,22.89,2.92,38-2.16-14.72-1.25-2.43-2.76-3.56-.42,3.87-.9,9.75-1.32,8.07,1.22,7.16-1,12,.82,22-.49.46,0,7.66-1.27,6.05.38,9.3.85-2.2,1.46-1.42,1.67,14.34-2,33.72.27,54.35.94,17.79,2.58,21.08,3.4,37.59-.78,5.58-1.78-4.56-1.78-4.56a154.34,154.34,0,0,0,0,24.23c-.43-1.72-.79.05-1.34,2.63.13,6.8,1.78,4.55,1.06,13.51a34.18,34.18,0,0,1-2-6.79c.45,8,1.36,15.93,1.8,24.22-.85,2.2-1.29-5-1.84-7.93.38,9.32.77,24.15,2.11,27l.48-6c.07,3.4-1.15,1.75-1.4-.76-1.05-8,.47-11.52,1-12l.31,5.91c2.86-6.07-.46-23.73-.29-35.62l2.08,5-1.73-12.2c.54-2.59,1.7-4.36,2,1.51,1-8.53-.74-7.55.41-14.87.18-.81.28-.44.36.3l-.62-8.32c.44,1.63,1.47-1.39,1.17,3.73,1.2-14.95-1.56-24.11,0-29.74l.12,1.25c-.7-20.74-1.52-2-3.31-17.56l3.76-10.47-1.52-2c.05-2.14.16-6.38.78-5.59-1.05-8-.67,1.36-1.66-3.27,1.4-10.3-.65-28.4,1.79-30.72-1.16-3.69-.9,9.85-1.71-1.14,2.62-3.14-.44-12.71.76-22.12,1.35,2.89.63,11.8,1.84,2.39-2.29-5.68.5-18.33.06-26.26-1.82-.37-.76-17.26-1.36-30.58.61.85,1-25.06,1.65-37.44l.31.36c-1.84-2.4-1.49-15.18-1.87-24.48,1.1.36,1.53,2,2,7.08V441.2c-.59-2.06-.9-4.79-1.11-10.47l1.38,2.2c-.08-11.64-1.62-23.44-.7-38.42-1.28-.84-3.57,11.91-4.42-3.93.69-.59,1.87-1.17,2.16,3a41.75,41.75,0,0,1-.28-7.57l1.16,6.33c.51-6.83-1-3.57-.86-9,1,.11.7-4,1.48-3.25.1,1.39-.4,4.76,0,6.85.18-6.15.77-13.59,1.51-16.05-.56.54-1.33,0-1.45-4.5-.08-11.64,1.18-4,1.69-10.78-.68-2.82,0-10.24-1.45-10.44a11.62,11.62,0,0,1,1.1-5.35c-.65-6-.19-28.15-1.76-21.36L802,320c0-.29,0-.63-.07-1v0c-1.47-19.74.84-41,.21-60.62l.49,0c-.56-11.7-.33-26-1.4-34.39,0-3.46.91-8.16,1.49-6.68-.37-8.94-.92-10-.11-22.86.86,9,.77-3.1.63,9.21.43-11.62,1.22-14.25-.13-26.72,1.27,4.24,1.59-8.75,1.22-14.27l-.91,8.14c-.18-6.21-.07-11.64,0-17.16l1.66,3c2-23.77-3.44-42.87-.06-61-1.16-6.29-.81,12.91-2.18,7.28.23-10.93,2.62-22.33,2.62-25.75.92-15-2.43-14-1.8-29.66-.59,2-2.18,3.9-2.73-7.81.21-10.95,2.48-13.46,3-6.55.05,2.63-.14,3.89-.34,3.78.22,3.54.47,8.18,1.11,3.84l-.59-1.42c.61-5.43.54-20.48,1.52-16.95-.57-8.27-1-3.53-1.28,2.59.3-4.94.39-9.12.41-13.1,0-5.56,0-10.83,0-16.62l-8.47,0-4.52-.07-3.11-.11c2.3.33,4.42,1,2.13,1-21.19-.74-9.33,1.13-23.69,1.39-8.16-.91,2.92-2.16-11.53-1.41-8.83-.61-1.87-1.57,1.64-2.05C744-4.85,732.56-6.75,725-7L732-7.43c-4.15.28-7.54.27-11,.27l4,1.19c-4.07-.21-7.52-.22-7.45-.71-4.2.78,3.22,2-5.11,3-5.43-.61-16.54.64-18.42-.93C711-4,692.07-6.15,706.52-6.41a90,90,0,0,1-10.27,0c-.62-.18.57-.33,1.69-.42-16.34-1.41-7.51,1.78-24.45,1.74,2.15-.88-3.93-1.68-6.69-1.49,6.83,0,3.27,1.48-3,2.16-10.86-.69-11.8.51-17.49.43l6.5.33c-2.2.89-7.63.77-15.2,1.05-.65-.69,6.87-.48,4.17-.78-8.41,1.56-19-1.62-30.71-.57-5.43-.6-.53-1.66-5.3-2.07-13.13,1.15-14.22-1.22-28-.27,4,1.2,4.67.91-5,2.07l22.7-.84L580.82-3.36c6.85,0,14.46-.75,18.56-.54-6.94,1-6.23.67-3,1.66C587.06-4,577.85-1.19,567-2.4l.33-3c-16.28-1.31-28.94,1.52-50.09.78l6.8.51c-2.84,1.17-13.06.16-19.91.64.64-1-3.64-1.35-6.57-2,.36.73-15.48-.07-17.4,1.9l-9.44-1.3c-17.08-.53-19.5,2.82-35.91,2.48,4.94-1.07-2.52-1.77,8.48-2.54-5.48,0-10.41-.19-10.5.49C429.6-5,417.6-3,412.56-4c-2.31.43-3.07,1.46-9.22,1.38-.67-.2,0-.49,0-.49,0,.49-9.63.67-4.25,1.76-16.89-3.08-47.2.22-61.9-2.42-12,.33-26.37.65-37.23.72.69-.3,0-.49,2.08-.39-15-.92-9.21,2.83-26.25,1.81-8.71-1.6,9.05-.86,3.62-1.47-2.36-3.25-20.57.44-32.05-1.45l2.78-.19c-8.77-1.11-21.39,1.23-35.72,1,0,0,.7-.29.08-.49-9.8,1.65-28.34,2.2-42.13,2.66,4.29-1.27,6.26-.67,3.65-2-6.18.18,1.81,2.07-10.52,2.43-4-.69-12.91-1.3-14.09-2.68l11.63-.08c-6-1.78-15.06.07-21.19-.24l.79-.78c-17.83.25-18.08,2.21-37.24,2.07l2,.59c-10.47,2-8.78-1.09-19.22.36L85-3.8c-6.91.48-24.2,1.91-36.59,2.28C55.45-3,69.94-3.73,78.92-4.6c-6.85,0-23.28.15-26.85,1.12,2.76-.19,6.24-.67,9-.37Q48.43-1.52,27.93-1.57c.79-1.25-2.74-1.79-8.19-2-2.73-.13-5.94-.19-9.33-.23L-4-4c0,2.72-.1,5.39-.15,7.94,0,1.3-.08,2.58-.12,3.81l0,.72c0,.2,0,.4,0,.6,0,.39-.06.78-.08,1.16a37.16,37.16,0,0,1-1.09,7.31c1.42,24.14-.6,47.89-.37,76,3-10,.08,8.21,3.14,6.48.19,6.55.14,9,0,9.64l-1.83,19.85c-.89,4.71-.67-6.23-1.36-5.63-.24,14.35-1.3,6-2.11,15.51,1.09-1.94,1.57,5,1.15,13.17l1.41-11.52c1.63,20.05-2.57,17.33-1,37.54l-1-6.4c.57,10.37,0,38.25,2.44,48.42-.35,1.83-1.19,4.25-1.41-.31-.37,24.78,2.61,55.16,1.1,74.42l-.75-1.88c.22,4.62,1.41,8,.66,13.83-.31-.3-.75-1.86-.79.28.25,2.45,1.31,12.28.87,18.41l-.84-5.24c-1,24.17,2.05,37.1,2.56,57.36-2.2-.05-2.92,19-3.27,28.46l-.31-.33c-.28,28.14,1.82,47.81,2.68,73.87-2.39,16.18-1,54.8-2.34,80.8.4-4,1.72.65,1.94,5.27-.45,6.1,1.53,16.87-.49,15.9l0-2.17c-2,4.6-1.46,17.14-1.51,26.93l2.64,1.61c-3.84,25.61,1.41,67.11-2,81.08.66,6.18.65,13.84,1.31,20l-1.41-.34c-.36,17.13-.54,25.68-.2,46.84l-1-4.31c-.09,11.94,4.09,15.07,4.17,26.08l-2.11,3.32q0,4.88-.11,9.75l-.24,15.65,9.26.16,4.71.07,2.69.06c3.6.08,7.19.14,10.78.14,7.17,0,14.31-.21,21.39-.87-.34.31-1,.92-4.32,1,9.8,0,37.92,1.43,34.36-1.47.24,1.88,21.49.18,32.74-.65L104,805.71c9.49-1.78,9.8-2.27,23.06-2.76,3.14.18,2.75,1.12-1.42.76,10.46.73,8.15-1.32,20.85-.58l-4.73.89c10.77.11,9.91-.37,15.84-1.4,6.78-.56,20.44.35,22,1.61,1.45-.77,7.35-1.8,13.7-1.44.86.48-1.45.78-2.62.92,18,.95,26.79-1.62,39.17-.25.26.46,1.07.69,2.1.83-14.31,0-25.84-.11-24.76-.21,0,1.28,11.56,1.51,2.36,3.28,9.28-1,25.15-3.07,36.42-2.47a7.94,7.94,0,0,1,1.49.45l-1.17.14a48.11,48.11,0,0,0,7.12-.2c3.6.21,5.88.36,9.33.38,1.34,1.06,13.26.57,19,.63-.48-1.41,7.07-1.18,0-2.34.92.1-1.09.16-4.92.22-.87,0-1.89.07-2.46.15l.4-.13-14.33.1a52.46,52.46,0,0,1,15.68-.54c3-.9,6.22-1.83,8.05-2.26,7.89,2,23.09,3,25.21,4.22,17.59-.78,41.45-.52,52.52-3.16,5-.34,5.75.76,7.62,1.18-2.89.26-6.32.22-7.88.6,10-.68,29.64-.26,32-2.11,12.61.83-7.08,1.7,10.24,1.4l-2.34.56c34.09,3,55.42-4.71,93.21-.92-2.62-.23-3.93-.34-4.46-.65,43.08,1.67,88.78-1.57,131.29,1.08,12.09.53,13.4-.64,20.77-1.54l2.62,1.51,12.61-1.74c17.88-1.28,31,3.7,53.6,1.29l-2.92-1c8.13.2,25.76-.6,24.4.57a11.66,11.66,0,0,1,5.84-.52l.25.79,20-1.36c15.48.57-2.42,3.14,20.17,3.29,8.4-.3,23.92-2.3,20.76-2.83-3.39,0-8.66-.49-8.91-1.28l7.68-.41c1.39-2.33,7.3-4.71-11.55-6.34l-13.14,1.42-4.24-1.12,11.06-.08c-6.27-1.06-10.25-.12-14.7.53a14.66,14.66,0,0,0-5.51-1.25l-12.9,2.23c-1.56-.91,5.79-1.81-2.87-2.31-6,1,5.8,2-4.21,2.72-6.28-1.06-4.45-1.92-11.82-1-1-.6.52-1,3.45-1.24-6.57.71-17.38.3-20.77,1.54-6.55-1.31-22.17.34-21.53-1.87a120,120,0,0,1-17.59,1.82c11-2.63-22.58-.15-19.67-3-8.16,2.37-29.46,1-43.91,2.37a12.51,12.51,0,0,1,3.67-.45c-8.13-.2-10.49-.91-15.72-1.36-1,2-13.7,2.41-20.53,3.62-10-1.89,6.06-2.3,2.93-4.12.5,1.59-17.32,1.59-13.93,2.91-7.62-1.17-6.57-.57-10.49-2.19-1.34,2.45-7.1.41-13.42,1.92-11-1.21-2.84-2.3-15-1.55C520.36,792.89,531.13,792,531.13,792ZM243,796.25v0l5.95-.08Zm-24.22,0c2.95.05,6.62.06,10.51.05.85.49-.07,1-2.51,1C228.06,797,222.36,796.69,218.74,796.28ZM270,806c-3.83.2-5.12-.08-5.64-.37,1.81,0,3.92-.07,6.7-.17.11-.05.34-.11.45-.17A4,4,0,0,1,270,806Z"/><polygon class="cls-2" points="6.41 684.34 6.06 684.38 6.37 686.49 6.41 684.34"/><path class="cls-2" d="M797.27,451.78a5.53,5.53,0,0,0-.36,1.75A7.64,7.64,0,0,0,797.27,451.78Z"/><path class="cls-2" d="M797,509.4l-.5,8.15C796.74,514,796.87,511.45,797,509.4Z"/><path class="cls-2" d="M796.25,553.7a2,2,0,0,0,.61.86v-.08Z"/><path class="cls-2" d="M649.37,5.4c-.6,0-1.19,0-1.71.06C643.65,5.73,646.37,5.63,649.37,5.4Z"/><path class="cls-2" d="M797.89,59c-.26-2.23-.51-4.42-.67-6.74C797.11,56,797.09,58.86,797.89,59Z"/><path class="cls-2" d="M415.31,7.09s0,0,0,0h-1.45Z"/><path class="cls-2" d="M797.25,42.48a67.6,67.6,0,0,0,0,9.75C797.32,49.17,797.46,45.57,797.25,42.48Z"/><path class="cls-2" d="M795.62,745.69l-.06,2.14c.09,0,.17.09.22.25Z"/><path class="cls-2" d="M795.78,748.08l.17,2.37A8.39,8.39,0,0,0,795.78,748.08Z"/><path class="cls-2" d="M796.3,755.44l-.35-5A18.86,18.86,0,0,0,796.3,755.44Z"/><path class="cls-2" d="M796.27,687.05l-.51-.67A.86.86,0,0,0,796.27,687.05Z"/><path class="cls-2" d="M796.12,669.23c-.12,4.25-1.09,10.66-.77,16.59l.41.56C795,683.59,797,673.27,796.12,669.23Z"/><polygon class="cls-2" points="796.6 149.97 795.81 155.99 796.98 158.85 796.6 149.97"/></g><g id="Layer_4" data-name="Layer 4"><path class="cls-2" d="M112.73,798.46c-.28.57.35.81,1.48-.29l.22-1.48Z"/><path class="cls-2" d="M122,793c1.09-1.58,2.1-3.64.6-3.52-.72,1.94-1.33,1.92-2.06,4.08-1.11,1.13-2.3,1.55-2.33,1.11-.26.55-2,1.43-2.25,2.44a12.56,12.56,0,0,0,5.69-4.68C122.22,792.19,122,792.76,122,793Z"/><path class="cls-2" d="M194.66,661.42l-.11,1A6.63,6.63,0,0,0,194.66,661.42Z"/><path class="cls-2" d="M159.34,573.19c.44.59.7.78.79.76C159.69,573.43,159.32,573,159.34,573.19Z"/><path class="cls-2" d="M150.87,559.16l.5.82A2,2,0,0,0,150.87,559.16Z"/><path class="cls-2" d="M194.66,661.42l.29-2.6C194.63,658.65,194.72,660.16,194.66,661.42Z"/><path class="cls-2" d="M135.8,776.73a6.93,6.93,0,0,0-.78,1.16l.83-1A.84.84,0,0,1,135.8,776.73Z"/><path class="cls-2" d="M188.79,703.6l-.26.74a4.56,4.56,0,0,0,.18.75Z"/><path class="cls-2" d="M175.54,733.58c.4-.62-.21-1.26-.39-1.69a2.92,2.92,0,0,1-.3,1.69A.83.83,0,0,0,175.54,733.58Z"/><path class="cls-2" d="M143.3,773.91l-.55.74Z"/><path class="cls-2" d="M194.32,680.72a.71.71,0,0,0,.34-.25C194.56,680.45,194.44,680.55,194.32,680.72Z"/><path class="cls-2" d="M332,.22l-.52,0a1.41,1.41,0,0,0-.18.45Z"/><path class="cls-2" d="M134.65,534.06l.06.12C135.24,534.77,135,534.41,134.65,534.06Z"/><path class="cls-2" d="M14.73,290.26c-.14,3.18-1.91-4.72-1.84,0C13.12,289.78,15,294.12,14.73,290.26Z"/><path class="cls-2" d="M136.47,776.21c.29-.31.6-.63.92-.94A8.37,8.37,0,0,0,136.47,776.21Z"/><path class="cls-2" d="M12.89,290.26h0l0,.49C12.9,290.55,12.89,290.44,12.89,290.26Z"/><path class="cls-2" d="M97.36,476.48a2.2,2.2,0,0,0,0,.79C97.46,477.2,97.47,477,97.36,476.48Z"/><path class="cls-2" d="M123.42,520.5l-.61-1.11A10.45,10.45,0,0,0,123.42,520.5Z"/><path class="cls-2" d="M83.33,453.9a6.72,6.72,0,0,0-.83-1.66,1.18,1.18,0,0,0,0,.3A3,3,0,0,1,83.33,453.9Z"/><path class="cls-2" d="M70.27,429.46c0,.16.06.35.09.53l.45.75Z"/><path class="cls-2" d="M210.17,2.44a4,4,0,0,1,1.44.43C211.05,2.39,215,1.21,210.17,2.44Z"/><path class="cls-2" d="M136.15,777.05a1.06,1.06,0,0,1,.32-.84l-.62.69C135.89,777,136,777.14,136.15,777.05Z"/><path class="cls-2" d="M76.93,456.07l-2-3.95C75.44,453.25,76.18,454.68,76.93,456.07Z"/><path class="cls-2" d="M46,111.77l.53-.89A2.85,2.85,0,0,0,46,111.77Z"/><path class="cls-2" d="M68.67,440.63a11.46,11.46,0,0,0-.65-2.46,1.89,1.89,0,0,0-.43-.35Z"/><path class="cls-2" d="M211.62,2.88h0Z"/><path class="cls-2" d="M240.11-4.52c-4.22.62-1.82,1.37-2.62,2.14-5,1.08-2.44-.45-4.24-.75-3.09.78-5.29,2.27-7.62,2.63-.2-.15-.67-.13-.18-.45A39.28,39.28,0,0,1,219,.85,26.26,26.26,0,0,0,212.17,3a1.13,1.13,0,0,1-.55-.14,1.42,1.42,0,0,1,.92,1.34c-1.83.46-3.24,1.5-4.1,1a2.89,2.89,0,0,0,1.63-.91l-1.85.77c-2-.59,2.54-1,2.36-1.73-1.84.62-3.81,1.39-5.68,2.1A26.9,26.9,0,0,1,199.82,7c-.88-.81,6.6-2.17,2.54-2,1.52-.29,3-.58,4.55-.8-3.82-.72,2.75-.55-.82-1.45a37.34,37.34,0,0,0-6.19,1.78,62.66,62.66,0,0,1-6.15,1.87c-1.14,1,.67.67-.47,1.61-3.94,1.77-5.75,1.65-7.28,1.51s-2.76-.26-5.53,1.43c-.66.59-1,1.24-1.8,1.85a10.23,10.23,0,0,1-4.13,1.67l1-1.63c-5.53,2-2.53,2.75-8.54,4.27.84-.83,4.16-2,3.28-1.84-4.06.61-2.4,1.61-5.2,2.82l-1-.69c-5.73,2.57-11.66,6.16-17.74,9.44.2-.45,1.1-1.29-.47-.81-3.75,2.28-7.93,4.34-12,6.59l-6.12,3.17L122,39l-2.24,2.47c-.64.39-1.4.41-.8-.16-2.91,1.57.16.55-1,1.73-1.5,1.12-2.31,1-1.49.1-1.08,1-2.42,2.15-3.89,3.39s-3.11,2.52-4.68,3.89-3.24,2.64-4.81,3.79-3.1,2.14-4.4,3l.75-1c-3.89,2.78-3,4.83-6.87,7l.54-.66C85.06,68.91,77.39,77.34,71,82.07c-.06,1-2,2.7-3.68,4.44S64,90,64.44,90.83c-2.32,1.87-3.21,2.49-4.28,3.35a54.32,54.32,0,0,0-5.24,5c-1.44,1.7-1.2,3.3-2.75,5.56l-.77-.52c-.51,1.18-1,2.33-1.52,3.53l-2.05.94-1.33,2.22c.65-.8,1.62-1.52,1.74-1.23a29.07,29.07,0,0,1-4,5c-1.35,1.44-2.46,2.47-2.69,2.38l-2.32,4.18c-.77,1.4-1.57,2.77-2.26,4.21-.2-.38.5-1.82,1-3A14.29,14.29,0,0,1,37,124.61c-.23.33-.39.35-.54.36-.31,0-.6,0-1.44,2.21.5-.42.3.58.4.77a27.52,27.52,0,0,0-3.07,4.19c-.28.44-.57.9-.84,1.37L30.71,135c-.49,1-1,1.93-1.37,2.82l-.2-1a98,98,0,0,0-5.05,9.93l-2.38,5.34c-.4.9-.83,1.79-1.21,2.7l-1.12,2.76c1.36-2.52,2.12-1.47,1.34.72l-1.25.48c0,1.62,1.26-2.1.77,1-1.22,2.69-1.78,1.42-1.43-.28l-1,3.47c-.36.09-.18-.75-.44-1.1,0,.8-.82,2.16-1.62,3.61a8.66,8.66,0,0,0-1.28,4.27l-.34.09c-1.28,3.78-2.21,6.53-2.91,9.15s-1.23,5.1-2.07,8.24c.8.34-.11,2.72.1,4.75-.64,2.28-1.42,4.68-2.17,7.21a78.49,78.49,0,0,0-1.79,8.06c-.24,4,.52,1.27.75,3.13-.8.17-1.51,5.86-1.65,2.84-.2,1.71-.39,3.11-.5,4.39s-.15,2.43-.23,3.65-.12,2.48-.17,4,0,3.27.05,5.44c.37-.92.56-2,.79-1.4,0,1.57-.52,3.55-.87,3.31l-.06-.42a64.7,64.7,0,0,1,0,7.74c-.19,2.68-.38,5.44-.57,8.12a66.79,66.79,0,0,0-.21,7.79c0,1.22.11,2.4.24,3.5a19.53,19.53,0,0,0,.67,3.09L3.32,262c.56,2.65,1,5.3,1.67,7.91.35,3.68-.86-2.13-1,.65a53.17,53.17,0,0,1,1.3,5.79c.34,1.77.58,3.42.79,5a49.17,49.17,0,0,0,2,9.64,15.61,15.61,0,0,0,.25,5.59,62.19,62.19,0,0,0,1.69,7.1c1.37,5,3.12,10.06,3.45,13.85l.4-.57c1.05,1.69.39,2.31.7,3.71.33-.32-.17-2.14.46-1.08,5.37,15.36,10.26,32,16.49,47.49,2.36,5.62,3.88,2.06,5.91,9.54L35.61,375c6.15,10.68,10.66,22.71,17,32.95-.53-.54-.8-.42-1.33-1.46.5,2.58,4.21,8.36,4.76,8.12.8,1.68-.27.62,0,1.78.79,2.45,3.74,5.24,3.73,6.76,0,.25-.53-.53-.8-.91,1.08,1.3,3.49,6.86,3.5,5.07,1.73,4.16,4.33,7.42,5.57,10.82,1.92,1.62,3.21,7,4.72,7-1.34.36,2.71,7.45,4.65,9.65-.81-.64.81,2.38-.22,1.67,1.57,2.84,3.21,5.34,3.55,4.51,1.44,6.05,7,9.85,6.84,13.82,5.47,8,10.43,15.42,15.26,22.62-.65.22-1.95-1.79-3.19-3.75s-2.42-3.84-2.93-3.31c2.35,3.39,4.42,5.93,6.4,8.51a83.77,83.77,0,0,1,5.91,8.73c1,1.89-1.14-.69-1.72-1.17,2.44,3.32,4.54,6.69,6.66,9.92a94.27,94.27,0,0,0,6.52,9.19c-.12.06-.67-.52-1.17-1.09.84,1.18,1.69,2.9,2.12,2.42l-.92-1.07c-.54-2.41,4.72,3.72,5.27,3.65-2.84-1,3.68,6.21-.34,4.26.63.71,1.54,1.53,1.76,1.12.69,1.23.74,1.74-.45.82,3.19,4.07,2.7,2.18,5.34,6-.25.16-.88-.55-1.45-.75a26.19,26.19,0,0,1,5.71,6.61c-.29-.09-.22.42-.89-.55,4,5.51,7.9,8.56,11.71,15-2.32-1,1.11,2.31.41,3.27l2.56,3.07-.47-1.62c2,2.87,4.42,4.94,5.83,7.61l-1.86-1.86,3.89,5.25-1.74-3.29c2.48,2.58,1-1.12,3.33,2.9-.63-.72,2,2.89,2.43,4.77h0a17.89,17.89,0,0,1,3.74,4.81c.07.76-1.33.23-1.29.73,1.71.91,4.64,6.69,6.58,8-.58-.49-1.1-.21-1.08.05l1.4.82c.63,1.5.66,1.76.12,1.78,2.34,4.23.45-2.07,2.82,3.21-.28-.36-.27-.11-.84-.87,2.68,5.11,5.84,9.51,7.82,14.44-.32,1.87-2.28-4-2.35-2,3.54,6.66,7.66,13.81,9.39,21l-.27-1.35c.9.27,1.12,1.65,1.28,3.37a16,16,0,0,0,.94,5.54c-.3-.87-1.13-1-.89-.78.69,4.94,2.25,10,3,17.59l-.46-.93c-.24,3-.07,7.79-.47,11,.37,1,.22,2.8.86,1.73-1.52,4.85-1.72,9.51-2.21,14.08s-1.08,9-3.18,13c.31-1,.29-2.5.09-1.69-.22,1.22-.57,2.41-.85,3.63s-.57,2.42-.93,3.61c.84-.35.74-.78,1.69-2.14a13.5,13.5,0,0,1-.85,4.93c.65-3.37-1.06-.32-1.89.91.28-.16.33.39.57.35-2.55,3.23,1.12,1.12-1.64,5.82l-.22-.4c-.62,1.92-.84,3.85-1.86,5.77-1.11.49.55-2.1,0-2.49-1.18,2.77-1.08,6.11-3.06,8.23.37-1.27,1.22-2.92,1.54-4.2a16.8,16.8,0,0,0-3.2,4.62L176,724c-.89,1.46-1.85,2.89-2.76,4.33l.83-1c.06,4.36-3.41,6.93-5,12,1.54-4.93-.2-1.09-.76-1.9-.9,1-2.22,2.47-2.13,1.86-.67,2.44-2.68,3-3.71,6.44-.33,0-1.52,2.08-1.81,1.21-1.63,2.67.85-.3,1,.12-2,4.56-7.69,8.41-11.12,14.57a59.63,59.63,0,0,0-3.49,5.62,36.05,36.05,0,0,1-3.46,5.27c-1.63,1.07.27-1.87.27-1.87a33.71,33.71,0,0,0-5.67,5.94c.23-.59-.35-.31-1.2.08-1.57,1.68-.31,1.86-2.79,3.68a8.38,8.38,0,0,1,.81-2.45c-1.73,2.09-3.27,4.36-5.14,6.48-.89.14.7-1.73,1.19-2.65-2.11,2.35-5.64,5.92-5.83,7.17l1.69-1.16c-.82.81-.9-.11-.38-.79,1.56-2.3,3-2.45,3.36-2.35l-1.33,1.51c2.69-.15,5.68-5.74,8.56-8.54l-.31,2.08L139,776c.83-.41,1.76-.36.5,1.2,2.47-1.65,1.46-2.16,3.69-3.48.27-.13.23,0,.09.22l1.66-2.34c-.19.59,1,.25-.35,1.42a20.79,20.79,0,0,0,4.16-4.7c1-1.37,1.64-2.45,2.63-2.87l-.22.37c4.28-5.66-.23-1.1,2.33-5.86,1.34-.43,2.68-.87,4-1.35l-.28-1.12c.48-.55,1.42-1.64,1.55-1.21,1.17-2.53-.59.13-.1-1.48,2.81-2.28,5.43-8,7-7.84.14-1.44-2.35,2.46-.62-.91,1.9,0,2.23-3.72,4.54-6,.15,1.27-1.87,3.61.49,1.29,0-1.19.86-2.47,1.89-3.79a20.12,20.12,0,0,0,2.82-3.9c-.44-.34.21-1.67,1.17-3.45a64.91,64.91,0,0,0,3.06-6.19c.07.2,1.23-1.62,2.47-4s2.69-5.39,3.7-7.28l.12.18c-.35-.58-.11-1.89.35-3.42s1.09-3.32,1.48-4.88c.59.33.65,1,.37,2.71l1-2.87a11.39,11.39,0,0,1,.46-3.64l.57,1a54.05,54.05,0,0,0,1.28-6.09c.19-1.07.41-2.17.68-3.31a32.09,32.09,0,0,1,.95-3.56c-.7-.42-2.95,3.51-2.32-1.84.45-.11,1.19-.18,1.06,1.24a10.86,10.86,0,0,1,.33-2.57c.1.75.22,1.51.28,2.26.76-2.24-.35-1.31.05-3.13.58.14.66-1.29,1.08-.95a10,10,0,0,0-.42,2.32,22.1,22.1,0,0,1,1.79-5.32c-.35.14-.79-.12-.66-1.66.48-4,.92-1.27,1.46-3.58-.32-1,.34-3.54-.54-3.67a3,3,0,0,1,.77-1.81c-.14-1-.06-3.48-.07-5.36s-.29-3.21-.75-2l-.06.53c0-.1,0-.21,0-.34v0c-.25-1.69-.28-3.42-.38-5.16s-.14-3.49-.16-5.26-.21-3.51-.36-5.25a39.6,39.6,0,0,0-.88-5.08l.3,0c-.24-1-.54-2-.83-3s-.58-2.08-.85-3.1a30,30,0,0,0-2-5.12c-.3-1.14-.38-2.82.14-2.46a38.83,38.83,0,0,1-2.8-7.36c1.63,2.68,0-1.17,1.53,2.81-1.26-3.81-1.11-4.9-3.65-8.47,1.29,1-.36-3.18-1.47-4.76l.76,2.75c-1.05-1.87-1.82-3.57-2.62-5.3l1.35.47a33.79,33.79,0,0,0-5.71-9.71c-1-1.4-2-2.73-2.9-4.09a15.86,15.86,0,0,1-1.92-4.4c-1.73-1.46,1.93,4,.22,2.82-1.85-3.26-2.79-7.29-3.42-8.29-2.39-4.58-3.84-3.2-6.55-7.83.09.77-.33,1.83-2.86-1.27-2-3.15-1.38-4.62.2-2.85.54.72.69,1.14.57,1.17.79.93,1.81,2.15,1.29.71l-.57-.2c-.74-1.74-3.71-5.93-2.54-5.27-1.89-2.13-1.17-.66-.13,1.16-2.3-4.23-4.27-6.14-6.81-10.37.29.76.36,1.58-.08.95-3.8-6.16-2.39-2.21-5.33-6.12-1.15-2.58,1.63.07-1.57-3.69-1.42-2.67.41-1.07,1.34-.26-3.15-3.26-4.43-7.11-5.79-9.27l1.58,1.77a27.78,27.78,0,0,1-2.27-3l.18,1.51c-.69-1.2-1.36-2.16-1.1-2.31-1.19-.91-.35,1.57-2.48-.39-.75-1.73-3.51-4.41-3.1-5.47,3,5,.42-1.06,3.33,2.89a17.16,17.16,0,0,1-2-2.88c0-.23.27,0,.53.33-2.44-5-2.32-1.5-5.54-6.26.85.3.09-1.67-.54-2.38,1.3,1.92-.11,1.41-1.64-.12-1.7-3.3-2.48-3.16-3.51-4.8l1.06,1.94c-.86-.32-1.82-1.9-3.39-3.94.22-.41,1.54,1.78,1.18.92-2.37-1.86-2.72-5.93-5.43-8.91-.7-1.74.73-.69.07-2.19-3-3.38-2-4.45-5-8.1.13,1.52.38,1.64-2-.79,1.49,2.09,3,4.16,4.54,6.24L111,502.05c1.24,2,3,3.9,3.66,5.14-1.76-1.67-1.48-1.56-1.38-.3-.8-3.27-3.94-5-5.25-8.51l1.56-.84a31,31,0,0,0-4.23-6.65,52.46,52.46,0,0,1-5-7.62l.92,2.13c-1.09-.46-2.38-3.74-3.78-5.61.62-.12.08-1.48-.1-2.52-.32.32-2.61-4.56-4-4.53l-.91-3.18c-2.55-5.21-4.74-4.92-7.25-9.91,1.37,1.16.51-1.26,2.72,1.79-.9-1.63-1.59-3.16-2-3-.19-1.13-3.17-4.15-3.49-5.92-.6-.57-1.27-.5-2.23-2.36,0-.26.27-.13.27-.13-.27.13-1.9-2.71-1.62-.79-1.07-5.94-7.68-14.1-8.6-19.27-2.08-3.5-4.52-7.76-6.27-11,.27.13.27-.13.54.52-1.86-4.77-3-2-5.07-7.43-.51-3.07,1.87,2.5,1.34.69,1.36-1.6-3.42-6.1-4.17-10.09l.53.79c-.74-3-3.92-6.16-5.94-10.6,0,0,.26.14.28-.1a37.91,37.91,0,0,1-3.88-5.51c-1.32-2.22-2.63-4.64-3.76-6.7,1.32,1,1.28,1.75,1.6.62-1-1.85-.88,1.09-2.84-2.62-.19-1.41-1.12-4.31-.54-5l1.69,3.57c.13-2.29-2.17-4.62-2.86-6.6l.54.05c-2.57-5.46-3.75-5-6.2-11.07l-.06.76c-2.46-2.82-.59-3-2.72-5.94l.69-1.44L30.53,348c-1.09-2-2.24-4.28-3.1-6.2,1.68,1.91,3.84,6.34,5.5,8.95-.9-2.15-3-7.29-4-8.22a10.37,10.37,0,0,1,1.3,2.76,33.45,33.45,0,0,1-5.22-10c2.41,0-3.48-11.56-2.68-15.33-3.29-7.52-4.27-15.58-6.51-24.75-1,3.67-.66-2.68-2.32-1.72-.62-2.14-.73-3-.65-3.2l-.22-6.78c.23-1.65.79,2,1.17,1.71-.41-2.38-.27-2.91-.09-3.25s.44-.48.43-2.09c-.55.75-1.2-1.49-1.4-4.23l-.21,3.94a12.21,12.21,0,0,1-.68-6.25,13.27,13.27,0,0,0-.53-6.29l.85,2.05c-.44-1.69-.7-4.88-1.15-8-.25-1.58-.45-3.16-.71-4.55a13.46,13.46,0,0,0-1-3.43c.18-.63.63-1.46.86.06-.22-8.25-1.94-18.49-.52-24.91l.41.66c0-1.55-.71-2.76-.05-4.65.17.12.38.66.48-.05a24.22,24.22,0,0,1,.06-6.19l.34,1.8c.3-2,.59-3.76.71-5.4s.16-3.17.15-4.66a77.43,77.43,0,0,1,.54-9.19c.65.14,1.42-1.33,2.14-3.2.37-.94.71-2,1-3l.44-1.44c.16-.45.31-.88.45-1.25l.15.15c.67-2.25,1.2-4.35,1.66-6.38.22-1,.43-2,.62-3s.36-2,.62-2.91c.94-3.79,1.72-7.59,3-11.79,1.72-2.25,3.53-6.47,5.58-11,1.11-2.24,2.26-4.58,3.37-6.84.58-1.12,1.11-2.24,1.73-3.27s1.23-2,1.84-2.91c-.85,1.05-.81-.67-.19-2.11,1.21-1.67,1.9-5.44,2.79-4.55l-.36.63c1.75-.78,3.7-4.49,5.4-7.28l-1.06-1.3a42.82,42.82,0,0,0,4.66-5.6c1.5-2.11,2.84-4.46,4.3-6.58s2.76-4.2,4-5.89a13.56,13.56,0,0,1,3.68-3.5c1-1.85,2.54-3.92,3.6-5.71l.58.62c1.95-2.11,3.4-3.7,4.93-5.45s3.24-3.56,5.55-6.25l-.53,1.48c2.75-2.89,1.72-5.34,4.26-8.07l1.68.1c5-5,10.89-9,15.34-14.43,0,.22.12.63-.7,1.42.63-.54,1.58-1.3,2.62-2.14s2.2-1.7,3.2-2.55c2-1.68,3.44-3.18,2.43-3.47.39.42,1.78-.73,3.43-2.3s3.63-3.47,5-4.82l0,1c1-1.39,1.41-2.17,2-3a18.69,18.69,0,0,1,3.24-3c.93-.52,1.15,0-.13.65,3.15-1.66,1.8-2.23,5.58-4.31l-1,1.35a11.86,11.86,0,0,0,4-3.69c1.75-1.51,6-3.54,6.79-3.18a4.23,4.23,0,0,1,1.07-1.49,9.15,9.15,0,0,1,2.45-1.62c.4.1-.19.64-.48.91,5.54-2.54,7.33-5.43,11.46-6.6a.85.85,0,0,0,.85.11c-2.13,1.13-4.09,2.07-5.41,2.84a15.52,15.52,0,0,1-2,1.05c.39.67,3.81-1.15,1.66,1.32l2.07-1.8c.79-.64,1.65-1.31,2.54-2a27.09,27.09,0,0,1,5.46-3.31,1.49,1.49,0,0,1,.56,0l-.3.26a11.79,11.79,0,0,0,2.09-1.18A27.44,27.44,0,0,0,155,29.24c.69.39,4.15-1.63,5.94-2.39-.5-.7,1.89-1.59-.58-1.28.31-.05-.31.22-1.45.82a7.27,7.27,0,0,0-.71.43l.08-.12L154,28.83a10.31,10.31,0,0,1,4.64-2.57,24.87,24.87,0,0,1,1.92-2.36c2.94,0,7.89-1.43,8.81-1,2.66-1.31,5.89-2.63,8.81-4s5.62-2.57,7.13-4c1.54-.75,2-.21,2.66-.18a18.62,18.62,0,0,0-2.4,1.22c.77-.37,1.73-.79,2.77-1.18l3.17-1.15c2-.77,3.76-1.53,4-2.18,2.11-.39,1.61,0,1.27.31s-.51.38,2.29-.47l-.67.53A37.51,37.51,0,0,0,206.16,10c2.37-.75,4.61-1.62,6.88-2.51a52.94,52.94,0,0,1,7.21-2.32,40.44,40.44,0,0,1,4.08-.78,39,39,0,0,1,4.59-.27c-.9,0-1.35,0-1.56-.11q2.73-.31,5.46-.74c1.84-.24,3.67-.51,5.51-.8,3.68-.62,7.4-1.1,11.1-1.68,7.43-1,14.89-1.71,22.11-1.23,4.1.12,4.51-.55,7-1.19l.9.88c1.42-.4,2.83-.74,4.26-1.11,6.08-.84,10.46,2.2,18.14,1l-1-.65c2.75.2,8.74.09,8.23.77a2.35,2.35,0,0,1,2-.19l.05.48c2.27-.1,4.54-.2,6.81-.25,5.19.86-1,1.76,6.57,2.68,2.83.12,8.18-.31,7.18-.78-1.14-.18-2.87-.7-2.89-1.17l2.62.11c.65-1.31,2.9-2.47-3.41-4.3l-4.6.31-1.37-.83c1.26.12,2.53.24,3.79.39-2.07-.9-3.51-.47-5.07-.25A3.32,3.32,0,0,0,319-5.42c-1.52.31-3,.6-4.54.94-.49-.58,2.08-.92-.87-1.46-2.12.46,1.89,1.38-1.57,1.52-2.1-.8-1.44-1.25-4-.87-.34-.38.21-.58,1.23-.68-2.29.28-6-.15-7.18.55-2.22-.92-7.61,0-7.36-1.35a26.73,26.73,0,0,1-6.06,1c1.9-.77,0-.83-2.33-.85s-4.93,0-4.45-.89c-2.78,1.44-10.12.91-15,2a2.55,2.55,0,0,1,1.24-.34,42.46,42.46,0,0,1-5.45-.46c-.27,1.22-4.59,1.76-6.85,2.74-3.51-.78,1.94-1.58.78-2.56.25.94-5.84,1.55-4.6,2.22-2.68-.42-2.28-.13-3.73-.92-.29,1.52-2.4.55-4.44,1.72-3.85-.22-1.16-1.29-5.22-.22C236.51-3.44,240.11-4.52,240.11-4.52ZM146.5,27.15v0l1.78-1ZM139.15,31c.92-.44,2-1,3.21-1.65.39.12.26.53-.49.91C142.18,29.91,140.37,30.67,139.15,31Zm18.17-2.64c-1.11.66-1.57.7-1.81.62.55-.28,1.18-.61,2-1.06,0-.05.07-.11.09-.16A1.3,1.3,0,0,1,157.32,28.39Z"/><path class="cls-2" d="M159,26.39a5.1,5.1,0,0,1,.45-.29l-.77.16c-.11.15-.21.31-.31.44Z"/><path class="cls-2" d="M194.53,662.6l0-.17a1.26,1.26,0,0,1-.12.36C194.47,662.68,194.5,662.68,194.53,662.6Z"/><polygon class="cls-2" points="51.23 104.07 51.4 104.19 51.71 103.5 51.23 104.07"/><path class="cls-2" d="M183.75,706.51a1.31,1.31,0,0,0-.41.48A1.88,1.88,0,0,0,183.75,706.51Z"/><path class="cls-2" d="M175.86,724.21c-.48.78-1,1.53-1.54,2.29A23.49,23.49,0,0,0,175.86,724.21Z"/><path class="cls-2" d="M168.17,737a1,1,0,0,0,.15.44l0,0Z"/><path class="cls-2" d="M119.3,524.49c-.12-.16-.24-.32-.36-.46C118.05,523,118.62,523.72,119.3,524.49Z"/><path class="cls-2" d="M161.53,582.08c-.55-.55-1.1-1.07-1.62-1.67C160.57,581.49,161.11,582.31,161.53,582.08Z"/><path class="cls-2" d="M77.15,456.51h0l-.24-.44Z"/><path class="cls-2" d="M158.06,577.66a12.64,12.64,0,0,0,1.85,2.75A20,20,0,0,0,158.06,577.66Z"/><path class="cls-2" d="M126.14,785.91l-.55.47s0,.09,0,.15Z"/><path class="cls-2" d="M125.62,786.53l-.52.62C125.37,786.9,125.6,786.68,125.62,786.53Z"/><path class="cls-2" d="M124,788.44l1.11-1.29C124.67,787.54,124.11,788,124,788.44Z"/><path class="cls-2" d="M140.53,772.31l-.07-.37A.38.38,0,0,0,140.53,772.31Z"/><path class="cls-2" d="M144.55,767.84c-1,1-2.91,2.21-4.13,3.8l0,.3C140.78,771,144,769.2,144.55,767.84Z"/><path class="cls-2" d="M163.43,750.63c-1.05,1.35-2.16,2.65-3.25,4,.8-.51,1.86-1.19.52.72C165.36,750.72,159.34,756,163.43,750.63Z"/><path class="cls-2" d="M172.63,737.67c-1.3,2.44.42.22.5.44C173.79,736.45,174,736.06,172.63,737.67Z"/><path class="cls-2" d="M189.3,627.07l.82,0C189.31,625.09,189.83,627.16,189.3,627.07Z"/><path class="cls-2" d="M176.93,608.74c.18.66.36,1.33.51,2l1.05.54C178,610.44,177.48,609.57,176.93,608.74Z"/><polygon class="cls-2" points="175.3 594.84 175.88 595.57 173.78 592.69 175.3 594.84"/><path class="cls-2" d="M73.23,433.46l-.53,1C73.51,435.65,74.59,435.41,73.23,433.46Z"/><path class="cls-2" d="M36.13,360a7.53,7.53,0,0,0-1.53-4.38C35.27,357.29,35.65,359.14,36.13,360Z"/><polygon class="cls-2" points="44.69 126.29 44.05 127.82 45.53 125.12 44.69 126.29"/><path class="cls-3" d="M379.07,799.49c.12.55.76.43,1-.94l-.69-1.2Z"/><path class="cls-3" d="M383.32,791c0-1.68-.27-3.72-1.45-3,.46,1.82-.06,2.08.58,4.06-.26,1.36-.95,2.24-1.24,1.92.12.54-.78,2-.38,2.89a10.08,10.08,0,0,0,1.88-6.18C383.07,790.31,383.18,790.85,383.32,791Z"/><path class="cls-3" d="M445.57,672.86l-.64.59A4.15,4.15,0,0,0,445.57,672.86Z"/><path class="cls-3" d="M508.5,619.36c-.53.34-.7.56-.68.66C508.29,619.66,508.67,619.36,508.5,619.36Z"/><path class="cls-3" d="M521.31,613.32l-.76.33A1.45,1.45,0,0,0,521.31,613.32Z"/><path class="cls-3" d="M445.57,672.86c.55-.5,1.07-1,1.64-1.51C447.06,671,446.3,672.06,445.57,672.86Z"/><path class="cls-3" d="M386.61,772.5a5.13,5.13,0,0,0-.13,1.24c.07-.38.16-.74.25-1.12Z"/><path class="cls-3" d="M424.64,702.84l-.35.58a3.21,3.21,0,0,0,0,.69Z"/><path class="cls-3" d="M410.91,727.29c.32-.55-.33-1.13-.54-1.52a2.31,2.31,0,0,1-.12,1.5A.88.88,0,0,0,410.91,727.29Z"/><path class="cls-3" d="M391.94,767.64l-.16.78C391.82,768.22,391.9,767.88,391.94,767.64Z"/><path class="cls-3" d="M436.17,686.43a.64.64,0,0,0,.39,0C436.48,686.34,436.34,686.36,436.17,686.43Z"/><path class="cls-3" d="M775.2,125c0,.05.08.05.11.09C775.35,124.87,775.34,124.79,775.2,125Z"/><path class="cls-3" d="M800.16,103.15l-.28.36a1.44,1.44,0,0,0,.28.4Z"/><path class="cls-3" d="M545.06,603.3l-.12,0C544.35,603.68,544.7,603.52,545.06,603.3Z"/><path class="cls-3" d="M758.88,511.53c-1.56,2.48.43-4.65-1.64-.83C757.69,510.39,757.35,514.78,758.88,511.53Z"/><path class="cls-3" d="M386.94,771.84c.11-.37.24-.74.38-1.11A6.33,6.33,0,0,0,386.94,771.84Z"/><path class="cls-3" d="M757.24,510.7h0l-.21.39Z"/><path class="cls-3" d="M601.62,585.09a1.65,1.65,0,0,0-.68-.22C601,585,601.14,585,601.62,585.09Z"/><path class="cls-3" d="M558.6,596.26l1.07-.27A6.13,6.13,0,0,0,558.6,596.26Z"/><path class="cls-3" d="M624,579.12a4.62,4.62,0,0,0,1.61-.25l-.26,0A2.41,2.41,0,0,1,624,579.12Z"/><path class="cls-3" d="M647.79,574.64c-.14,0-.31,0-.47-.08l-.75.18Z"/><path class="cls-3" d="M733.89,186.61a3.32,3.32,0,0,1,1.21-.64C734.39,186,735.9,182.74,733.89,186.61Z"/><path class="cls-3" d="M387.06,772.64a.9.9,0,0,1-.12-.8l-.21.78C386.83,772.73,386.94,772.78,387.06,772.64Z"/><path class="cls-3" d="M623.71,572.4l3.82-.61C626.45,571.91,625.06,572.13,623.71,572.4Z"/><path class="cls-3" d="M708.05,357l-.31-.85A2.07,2.07,0,0,0,708.05,357Z"/><path class="cls-3" d="M638.75,569.55a8.31,8.31,0,0,0,2.23.18,1.42,1.42,0,0,0,.4-.29Z"/><path class="cls-3" d="M735.11,186h0Z"/><path class="cls-3" d="M746.37,162.87c-2,3.11,0,2,.09,3-2.06,3.92-1.76,1.31-3,2.29-1.23,2.49-1.4,4.86-2.5,6.6-.23,0-.49.35-.45-.17A28.59,28.59,0,0,1,738,180c-.53,1-1.06,2-1.51,3a13.37,13.37,0,0,0-.91,2.8.93.93,0,0,1-.45.26,1.55,1.55,0,0,1,1.58.27c-.76,1.46-.82,3-1.76,3.23a2.19,2.19,0,0,0,.3-1.61l-.54,1.67c-1.65.89.8-2.25.12-2.62-1.34,3.13-2.28,7.06-3.73,9.23-1.16,0,2.43-5.56.06-2.88l2.16-3.41c-2.82,2,1.21-2.13-1.6-.4-2.66,4.61-2.24,5.52-4.77,10.18,0,1.31.92,0,.93,1.31-1.14,3.6-2.27,4.7-3.34,5.58s-2,1.55-2.4,4.38c.09,1.59,1,2.57-1,6l-.59-1.68c-2,4.76.46,3.32-2.15,8.07-.13-1.06,1.09-3.9.67-3.23-2.12,2.93-.26,2.54-1.17,5.05l-1.15.18c-.41,1.3-.82,2.64-1.2,4l-1,4.25c-.73,2.86-1.31,5.83-2.08,8.75-.19-.4-.21-1.49-.91-.21-1.57,7.49-4.15,15.77-6.07,23,.11,1,.27,2,.4,2.93-.11.65-.59,1.14-.64.41-.79,2.79.53.24.65,1.66-.2,1.62-.85,2.05-.95,1-.08,2.55-.06,6.2-.36,9.83-.1,1.82-.22,3.64-.42,5.34s-.48,3.26-.78,4.58l-.19-1.06c-.59,4.14,1.46,4.78.51,8.58l-.14-.74c-.14,2.25-.21,4.56-.26,6.87,0,1.15-.07,2.3,0,3.45s.06,2.28.09,3.4c0,2.24,0,4.41,0,6.45a44.88,44.88,0,0,1-.26,5.72c.7.6.63,2.85.81,5s.38,4.19,1.29,4.37c-.31,5.22-.76,3.79-.24,11.09.2,1.94,1.57,2.67,2.21,5l-.9.23,1.58,3L707,354c.21.72.48,1.43.72,2.14-.15-.88,0-1.94.27-1.86,1.2,3.31,1.34,8.47.9,8.68l2.94,7.82c-.4-.08-.89-1.38-1.41-2.38,2.1,4-.77,1.06,1.23,4.72,0-.58.62.12.82.16.08,2.09,1.39,6.53,2.77,9.66l-.82-.42q.7,2.21,1.52,4.5c.56,1.51,1.19,3,1.82,4.58,1.22,3.12,2.62,6.25,3.89,9.45-.64-2.41.6-2.29,1.44-.46l-.61,1.12c1,1-.44-2.09,1.24.11.89,2.4-.36,2-1.22.77l1.52,2.75c-.2.28-.62-.33-1-.37,1.06.95,1.18,5.38,2.9,6.64l-.19.28c2.73,6.31,4.33,9,6.67,14.05.82-.25,1.55,1.81,2.85,3,1.45,3.83,2.72,8.22,4.78,12.66,1.76,3,1,.63,2.13,1.85-.6.54,1.41,5-.11,2.88,2.4,5.34,3.08,6.81,6.26,13.48,0-.86-.18-1.75.24-1.41.61,1.21.72,3,.31,2.92l-.19-.3a26.23,26.23,0,0,1,2.23,6.15c.27,1.11.51,2.23.73,3.35s.33,2.27.48,3.39c.64,4.48.84,8.65,2,11.72l-.12-.35.41,1.63.3,1.63.58,3.29c0,1.53-.22,1.07-.38.52s-.47-1.2-.65-.08a35.83,35.83,0,0,1,.38,4.82,38.47,38.47,0,0,1-.49,4.12c-.15,1.31-.52,2.54-.79,3.82-.13.64-.25,1.29-.35,2-.05.34-.09.69-.14,1s-.13.69-.19,1.06a12.3,12.3,0,0,0-2.25,4c-.81,1.61-1.51,3.51-2.29,5.44-1.61,3.85-3.78,7.71-6.14,9.7l.64,0c-.52,1.56-1.33,1.37-2.16,2.15.44.15,1.42-1,1.06-.08a47.82,47.82,0,0,1-6.75,7.52,59.16,59.16,0,0,1-8.36,6.11,105,105,0,0,1-19.07,8.59c-4.81,1.65-1.75,3.67-8.35,4.53l1.45-1.51c-9.52,4.44-20.57,5.78-30.47,8.87.56-.35.52-.65,1.5-.85-2.27-.25-7.92,1.59-7.85,2.17-1.6.24-.47-.45-1.5-.55-2.24,0-5.25,1.94-6.54,1.46-.21-.08.57-.35,1-.48-1.34.62-6.59,1.15-5.08,1.71-3.91.33-7.29,1.73-10.45,1.81-1.83,1.29-6.67.79-7.06,2.2,0-1.39-7,.19-9.28,1.3.74-.56-2.2,0-1.35-.74-2.78.55-5.28,1.32-4.66,1.91-5.45-.57-10,3.42-13.32,2l-22.78,7.21c-.1-1.41,8.07-2.29,7.41-3.57-6.87,2.34-10.55,4.57-17.48,6.3-1.83.37.83-.87,1.36-1.27-6.74,2.6-13.35,4.09-19.14,7,0-.13.58-.49,1.16-.81-1.18.47-2.84.82-2.49,1.35l1.1-.58c1.1.07.08.94-1.21,1.85a16.62,16.62,0,0,0-2.87,2.17c1.36-2.43-6,1.89-3.7-1.43-.73.42-1.59,1.09-1.26,1.4-1.18.35-1.64.28-.65-.63-4.08,2-2.34,2-6.11,3.62-.11-.28.61-.72.86-1.21a21.65,21.65,0,0,1-6.61,3.93c.11-.25-.35-.29.59-.72-5.4,2.56-8.5,5.72-14.51,8.27,1.09-2.06-2.15.68-3-.14-1,.65-2,1.31-2.91,2l1.49-.23c-2.68,1.53-4.65,3.54-7.08,4.62L509.2,614l-4.83,3.16,3-1.32c-2.36,2.1,1,1-2.63,2.88.64-.54-2.58,1.64-4.28,1.94h0a14.92,14.92,0,0,1-4.19,3.34c-.69,0-.31-1.29-.76-1.27-.74,1.57-5.76,4.34-6.71,6.25.37-.56.05-1-.19-1-.2.44-.37.91-.56,1.36-1.28.66-1.52.69-1.61.18-3.51,2.46,1.94.32-2.49,2.88.28-.29.06-.27.65-.86a56.25,56.25,0,0,0-5.79,4.64,62.82,62.82,0,0,1-5.44,4.58c-1.8,0,3-2.84,1.13-2.55-2.57,2.21-4.87,4.91-7.28,7.42-1.19,1.28-2.39,2.53-3.6,3.73-.61.59-1.2,1.19-1.78,1.8s-1.17,1.18-1.77,1.74L461,652c.48,1.77-4,2.9-5.78,5.78.48-.66.11-1.37.08-1.09-.83.75-1.63,1.55-2.44,2.41s-1.52,1.86-2.31,2.88l-5.35,7.07.25-.89a27.34,27.34,0,0,0-3.3,3.52c-1.13,1.35-2.27,2.74-3.24,3.79-.21.92-1.29,2.14-.2,1.74a23.22,23.22,0,0,0-2.54,2.15,27.71,27.71,0,0,0-2.05,2.45,59.33,59.33,0,0,0-3.41,5.19l-1.59,2.59c-.52.85-1,1.72-1.55,2.55a23.46,23.46,0,0,1-3.77,4.56c.51-.78.93-2.05.52-1.43-1.11,1.92-2.3,3.79-3.34,5.76.87-.08.79-.54,2-1.4a14,14,0,0,1-1.68,4.08c1.15-2.78-1-.57-2,.33.29-.08.26.42.5.44-2.85,2.32.89,1.22-2.27,4.82l-.19-.4c-.37.8-.68,1.61-1,2.42a13,13,0,0,1-1.17,2.44c-1.08.29.59-1.83.08-2.26-1.27,2.37-1.24,5.36-3.12,7.08.36-1.1,1.15-2.53,1.51-3.63a12.31,12.31,0,0,0-3.13,3.88l.11-.16c-.87,1.26-1.73,2.52-2.52,3.81l.75-.91c.34,4-2.78,6.26-3.56,10.91.79-4.49-.35-1-1-1.68-.74.92-1.71,2.4-1.74,1.83-.24,2.26-2,3-2.33,6.2-.33,0-1,2.06-1.46,1.32-1,2.63.74-.39,1,0a27.63,27.63,0,0,1-3,6.78,24.72,24.72,0,0,0-3.15,8.24c-1.38,5.17-.88,6.4-2,11.2-1,1.4-.54-1.64-.54-1.64a22.54,22.54,0,0,0-2.44,6.79c-.07-.57-.46-.14-1,.48-.56,2,.59,1.63-.65,4a6.76,6.76,0,0,1-.48-2.3c-.49,2.36-.71,4.78-1.22,7.21-.69.47-.28-1.66-.32-2.59-.69,2.71-1.7,7-1.18,8.08l.79-1.62c-.26,1-.81.29-.74-.47.08-2.46,1.26-3.2,1.59-3.24-.13.57-.23,1.16-.34,1.74,2.14-1.22,1.91-6.8,3.1-10.15l.72,1.8c0-1.25.09-2.51.18-3.76.57-.62,1.41-.89,1,.81,1.43-2.18.33-2.25,1.71-4.07.18-.19.2-.07.17.16l.48-2.46c.08.55,1-.08.29,1.28,2.12-3.93,1.64-7,3.1-8.23l-.06.37c1.84-5.88-.64-.88,0-5.59,1.06-.69,2.19-1.35,3.28-2l-.6-.91c.27-.57.83-1.7,1.07-1.34.35-2.42-.52.21-.53-1.28a22.14,22.14,0,0,0,2.41-4.9c.74-1.65,1.44-3,2.24-3-.17-1.29-1.72,2.42-.78-.74,1.81-.18,1.34-3.53,3.17-5.76.37,1.13-1.13,3.34.7,1.12-.56-2.14,2.7-4.71,3.5-6.92-.9-.58,1.84-4.8,3.5-8.38.1.2,1.13-1.35,2.4-3.32.64-1,1.34-2.07,2-3.11s1.39-2,2-2.69l.1.19c-.58-1.17,1.57-4.3,2.81-6.77.5.45.46,1-.06,2.43l1.34-2.2a6.26,6.26,0,0,1,1.1-3l.34,1c1.86-2.86,3-6.28,5.95-9.65-.47-.64-3.77,1.69-1.48-2.46.44.1,1.12.37.53,1.46a6.39,6.39,0,0,1,1.2-1.91l-.54,1.92c1.44-1.45.15-1.19,1.16-2.46.46.37,1.05-.71,1.29-.25-.19.36-1,1-1.21,1.62a14.28,14.28,0,0,1,3.54-3.28c-.36-.07-.64-.47.09-1.59,2-2.8,1.26-.52,2.69-2,.14-.94,1.88-2.35,1.21-2.95a2.17,2.17,0,0,1,1.51-.82c.81-1.62,5.14-6.51,3.15-5.56l-.33.31.15-.25h0a32.71,32.71,0,0,1,5.78-6.87c1.08-1.07,2.17-2.12,3.21-3.19s2-2.17,3-3.25l.2.21c2.19-2.69,5.27-5.6,6.57-7.81.7-.75,2.11-1.29,2-.74,1.8-1.93,1.8-2.38,4.95-4.58-1.61,2.16,1-.28-1.75,2.1,2.71-2.11,3.59-2.27,5.78-5.35-.22.7.41.45,1.23-.14a14.94,14.94,0,0,0,2.43-2l-2.19,1.12c1.33-1.26,2.61-2.23,3.89-3.23l0,1.34a23.66,23.66,0,0,0,4-3C485,637.16,486,636,487,635c2.09-2.1,4.1-4,6.87-4.7,1.11-1.64-3.37,1.8-2.51.18,2.71-1.78,6.26-2.53,7.11-3.06,3.94-2,2.59-3.51,6.7-5.68-.68,0-1.69-.5,1.09-2.61,2.85-1.57,4.17-.78,2.58.51-.65.43-1,.53-1.06.41-.82.64-1.91,1.48-.62,1.15l.17-.52c1.56-.52,5.32-2.83,4.73-1.79,1.94-1.5.6-1.05-1-.27,3.83-1.63,5.58-3.24,9.49-4.94-.69.15-1.43.08-.84-.24,2.84-1.29,3.38-1.74,3.66-2.16s.29-.78,2.14-1.81c2.4-.6-.2,1.52,3.42-.77,2.5-.8.91.61.11,1.32a16.62,16.62,0,0,1,4.8-2.32c1.54-.47,2.94-.76,4-1.16l-1.72,1.1a21.82,21.82,0,0,1,2.86-1.48l-1.35-.17c1.13-.39,2.07-.78,2.16-.5,1-.92-1.34-.71.66-2.27,1.6-.31,4.33-2.27,5.21-1.59-4.77,1.61.86.64-3,2.44a11.19,11.19,0,0,1,2.78-1.15c.21,0-.08.24-.36.41,4.75-1,1.61-1.86,6.27-3.63-.4.72,1.44.53,2.15.13-1.87.71-1.21-.48.36-1.53,3.15-.72,3.16-1.48,4.76-2l-1.87.47c.43-.71,1.95-1.23,4-2.1.31.33-1.83.93-1,.84,2-1.69,5.6-.92,8.69-2.57,1.64-.15.46.91,1.87.71,3.49-1.79,4.19-.57,7.93-2.24-1.32-.36-1.48-.13,1.08-1.6-2.09.78-4.19,1.56-6.27,2.39,1.27-.75,2.54-1.51,3.82-2.24-2,.55-4,1.67-5.15,1.9,1.78-1.16,1.64-.92.54-1.21,3,.2,5.09-2.18,8.37-2.37L581,590c4.83-.52,8-3.16,14.17-4.21l-2,.18c.64-.89,3.72-1,5.63-1.76,0,.62,1.23.53,2.15.69-.2-.42,4.47-1,4.77-2.26l2.89.16c5-.76,5.29-2.86,10.1-3.64-1.3.93.94.9-2.15,2,1.59-.32,3-.5,3-.91,1,.17,4.26-1.67,5.84-1.4a4.13,4.13,0,0,1,2.52-1.34c.22.09.05.29.05.29-.05-.29,2.74-.92,1-1.27,5.27.87,13.75-2.71,18.34-1.94,3.46-.85,7.64-1.81,10.8-2.46-.17.21,0,.29-.56.34,4.48-.29,2.37-2.18,7.46-2.55,2.73.44-2.54,1-.89,1.08,1.07,1.78,6-1.46,9.54-1.06l-.79.28c2.71.11,6.1-2.07,10.29-2.92,0,0-.16.21,0,.29,2.63-1.64,7.9-3.33,11.77-4.75-1,1.09-1.69.89-.72,1.43,1.75-.61-.85-1,2.61-2.29,1.27.08,3.91-.41,4.5.27-1.1.37-2.2.76-3.32,1.1,2,.49,4.32-1.38,6.11-1.83l-.07.52a21.28,21.28,0,0,0,4.9-2.54,28.05,28.05,0,0,1,5.14-2.68l-.69-.08c2.38-2.37,2.7-.44,5.15-2.62l1.38.64c1.76-1.19,6-4.42,8.88-6.73-1.26,1.91-4.8,4.6-7,6.3,1.87-.93,6.16-3.58,6.72-4.72a7.11,7.11,0,0,1-2.19,1.65,26.58,26.58,0,0,1,3.17-3.26c1.22-1.16,2.7-2.28,4.29-3.58.22.57.87.46,1.8,0a23.88,23.88,0,0,0,3.29-2.49c2.39-2.15,4.9-4.82,6.53-5.48,2.12-3.14,4.29-6.14,6.41-9.4.51-.82,1.08-1.63,1.57-2.5l1.47-2.63c.92-1.83,1.74-3.79,2.56-5.82-1.43,1.12-1.19.51-.85-.37s.64-2.13-.29-2.16a8.53,8.53,0,0,1,.91-2.79l.71-1.38.59-1.43,1.17-2.88c.83-1.34,0,2,.44,1.88,1-4.4,1.23-1.7,2.1-4.63-.72.52-.74-1.69-.19-4.24l-1.27,3.52A14.25,14.25,0,0,1,761,498a11,11,0,0,1,.54-2.23,11.89,11.89,0,0,0,.53-2.27,7.84,7.84,0,0,0,.06-1.57,17.8,17.8,0,0,0-.32-2.06l.68,2c-.12-.82-.22-2-.33-3.3-.05-.67-.11-1.37-.17-2.1s-.23-1.46-.35-2.19a35.84,35.84,0,0,0-.92-4.2,11.74,11.74,0,0,0-1.39-3c.1-.59.44-1.43.84-.07a27.78,27.78,0,0,0-.59-2.88c-.27-1-.57-1.93-.88-2.9-.58-2-1.36-3.86-2.09-5.72l-2.1-5.33a37.81,37.81,0,0,1-1.45-4.7l.62.37c-.62-1.26-1.66-2-1.86-3.75.2,0,.61.36.41-.25a21,21,0,0,1-2.59-4.92l1.07,1.26c-2.25-6.95-5.52-9.72-8.27-15.1,1.21-.53-.74-5.86-1.71-8.51H741c-3.32-7.67-6.84-12.44-10.34-19.33-.59-4.93-5.6-15.17-7.33-22.65.15,1.18-1,.16-1.6-1.09-.32-1.78-2.48-4.4-1.22-4.51l.17.61c.72-1.65-.66-5.05-1.48-7.8h-1.66c.12-3.95-1.45-8.59-2.65-12.93-.31-1.08-.62-2.13-.91-3.14s-.47-2-.64-2.88a10.73,10.73,0,0,1-.12-4.44c-.78-1.69-1.08-3.91-1.75-5.62l.85,0c-.25-2.49-.53-4.34-.71-6.35s-.46-4.16-.91-7.22l.75,1.19a7.73,7.73,0,0,0-1.56-3.78,7,7,0,0,1-1.54-3.62l1.2-1.05a90.5,90.5,0,0,1,.05-9.17,54.41,54.41,0,0,0-.41-9.11c.18.11.55.3.58,1.28.08-1.43.25-4.19.39-6.47s0-4.08-.89-3.61c.57,0,.69-1.57.64-3.55s-.14-4.39-.23-6.06l.78.6a14.46,14.46,0,0,1-.84-6.92c.22-.9.76-.71.39.48.84-3-.51-2.5.54-6.13l.3,1.46c.57-3.12.25-2.92-.08-4.75,0-2,1.34-5.89,2.15-6.19a5.5,5.5,0,0,1,0-4.13c.34-.19.36.52.37.87a26.1,26.1,0,0,0,1.26-6.27,14.08,14.08,0,0,1,1.3-5,.76.76,0,0,0,.64-.46L715,251.93a15.66,15.66,0,0,1-.51,1.87c.75.17,1.63-3.09,2.07-.22,0-1.39,0-3.27.19-5.21a17.71,17.71,0,0,1,1.09-5.47,1.52,1.52,0,0,1,.38-.34v.35a6.86,6.86,0,0,0,.46-2,21.36,21.36,0,0,0,1-2.56c.72-.19,1.53-3.59,2.07-5.18-.84-.14,0-2.2-1.33-.45.14-.23,0,.34-.32,1.42a6.89,6.89,0,0,0-.14.72l0-.14c-.31,1.07-.78,2.45-1.22,4a7.46,7.46,0,0,1,1.09-4.5c-.25-1-.48-2.08-.56-2.68,1.84-1.85,4-5.83,4.85-6.17.66-2.51,1.71-5.36,2.53-8.06a21.75,21.75,0,0,0,1.44-7c.42-1.43,1.11-1.37,1.56-1.77a14.26,14.26,0,0,0-.61,2.26c.82-2.85,3.41-8,2.76-9.12,2.05-3.15,0,2.32,2.06-2.37v.77a32,32,0,0,0,3.4-6.08c.84-2,1.53-4,2.25-6a44.86,44.86,0,0,1,2.55-6.11,28.46,28.46,0,0,1,4.36-6.26c-.52.6-.77.9-1,.94,3.65-5.24,7-10.89,10.47-16.42A96.53,96.53,0,0,1,767.5,144.7c2.41-2.66,2.06-3.41,3-5.45l1.19-.06,1.48-3.59c2.71-4.63,7.44-5.75,10.67-11.76l-1,.26c1.63-1.77,4.71-6,5-5.25a1.89,1.89,0,0,1,.9-1.51l.41.26,3.33-4.95c3.35-3.16.91,1.79,5.49-3.06,1.55-1.94,3.84-6.1,3-5.64-.71.71-2,1.66-2.37,1.39l1.38-1.83c-.73-1.26-.55-3.54-5.13-.1l-2,3.46-1.36.47,2.21-2.46c-1.74,1-2.13,2.21-2.75,3.45a2.71,2.71,0,0,0-1.66.71l-1.59,3.76c-.72,0,.35-2-1.61-.28-.74,1.76,2.07-.48.39,2-1.71,1-1.74.24-2.79,2.26-.47,0-.34-.51.12-1.27-1,1.75-3.27,4-3.36,5.31-1.88,1-4.11,5.2-5,4.21a20.49,20.49,0,0,1-2.48,4.77c.83-3.57-4.31,5.21-5.07,3.5-.4,2.79-4.92,7.37-6.83,11.35a2.1,2.1,0,0,1,.43-1,25.43,25.43,0,0,1-3.43,3.33c.75.93-1.19,4.2-1.77,6.27-2.65,1.8-.1-2.27-1.53-2.12.44.21-.12,1.41-.62,2.51s-.93,2.11-.31,1.92c-1.86,1.49-1.39,1.43-2.86,1.87,1,1.14-1,1.9-1.25,4-2.4,2.38-1.62,0-3.22,3.26-.65.62-.66.17-.5-.43A12.64,12.64,0,0,1,746.37,162.87Zm-33.73,79.48h0l.45-1.72Zm-1.85,7c.25-.85.53-1.91.82-3,.35-.17.57.17.37.87C711.89,246.77,711.3,248.38,710.79,249.37Zm9.76-13c-.23,1.1-.5,1.41-.72,1.5.15-.51.32-1.1.51-1.9,0,0,0-.11-.05-.15A1.13,1.13,0,0,1,720.55,236.37Z"/><path class="cls-3" d="M720.12,234.1c0-.16,0-.25.09-.46-.14.2-.27.39-.39.58,0,.16.09.32.13.46C720,234.49,720.07,234.29,720.12,234.1Z"/><path class="cls-3" d="M444.82,673.56l.11-.11a.81.81,0,0,1-.29.17C444.73,673.57,444.75,673.59,444.82,673.56Z"/><polygon class="cls-3" points="705.98 349.12 706.18 349.07 705.88 348.48 705.98 349.12"/><path class="cls-3" d="M419.4,704.07a1,1,0,0,0-.46.33C419,704.41,419.18,704.26,419.4,704.07Z"/><path class="cls-3" d="M410.61,718.86l-1.45,2C409.82,720,410.27,719.38,410.61,718.86Z"/><path class="cls-3" d="M404.16,730.44a.87.87,0,0,0,.2.39l0,0Z"/><path class="cls-3" d="M555.84,591.26l.47-.21C557.38,590.48,556.64,590.82,555.84,591.26Z"/><path class="cls-3" d="M500.47,620.6c.48-.48.95-1,1.48-1.41C501,619.73,500.24,620.18,500.47,620.6Z"/><path class="cls-3" d="M623.29,572.47v0l.42-.09Z"/><path class="cls-3" d="M504.42,617.63a10,10,0,0,0-2.47,1.56A15.82,15.82,0,0,0,504.42,617.63Z"/><path class="cls-3" d="M382.92,783.72l-.21.6a.17.17,0,0,1,.11.11Z"/><path class="cls-3" d="M382.82,784.43l-.11.71A1.39,1.39,0,0,0,382.82,784.43Z"/><path class="cls-3" d="M382.48,786.63l.23-1.49A3,3,0,0,0,382.48,786.63Z"/><path class="cls-3" d="M388.8,767.2l-.22-.29A.36.36,0,0,0,388.8,767.2Z"/><path class="cls-3" d="M390.5,762.16c-.49,1.17-1.68,2.78-2.1,4.52l.18.23C388.43,766,390.58,763.47,390.5,762.16Z"/><path class="cls-3" d="M402.33,743.09l-1.95,4c.6-.59,1.4-1.34.68.53C404.13,742.86,400,748.36,402.33,743.09Z"/><path class="cls-3" d="M408.59,730.91c-.93,2.18.44.19.55.38C409.55,729.82,409.65,729.46,408.59,730.91Z"/><path class="cls-3" d="M466.38,651.52l.35.72C468,650.94,466.54,652,466.38,651.52Z"/><polygon class="cls-3" points="478.02 635.98 476.33 636.76 476.12 637.86 478.02 635.98"/><path class="cls-3" d="M490.22,633.43l-.57.57c.76-.68,1.49-1.37,2.26-2C491.34,632.44,490.79,633,490.22,633.43Z"/><path class="cls-3" d="M643.69,576.16l-.72-.83C641.78,575.72,641.72,576.81,643.69,576.16Z"/><path class="cls-3" d="M713.74,557.55a6,6,0,0,0,3.9-1.42C716.11,556.77,714.45,557.09,713.74,557.55Z"/><polygon class="cls-3" points="717.72 366 718.4 367.3 717.43 364.77 717.72 366"/><g class="cls-4"><path class="cls-5" d="M799.49,395c4-3-2.41-1.38-7.9,0l-2.87,5.55Z"/><path class="cls-5" d="M774.58,405.89l-5.4,4.63-5.47,4.55c2.76-1.93,5.54-3.8,8.25-5.78,10.78-2.9.42,4.33-3.13,6.68C784.87,407.55,772.87,409.07,774.58,405.89Z"/><path class="cls-5" d="M751.17,419.55c-4.1,1.6-5.4,2.62-5.15,3.3s2,.85,3.86.52C750,422.15,754.88,418.83,751.17,419.55Z"/><path class="cls-5" d="M398.34,115c1.52,2,3.46,4.26,2.69,4.5C403.57,120.79,404.43,120.73,398.34,115Z"/><path class="cls-5" d="M401,119.48c-.49-.25-1-.52-1.62-.87.46.33.83.63,1.36,1C401,119.63,400.93,119.51,401,119.48Z"/><path class="cls-5" d="M478.45,275.83c5.3,8.09,6.11,13.57,10,21.87l-1.16,5.88a23.6,23.6,0,0,0,2.44,4.29,3.89,3.89,0,0,0,1.54,1.3c.91.46,1.85.51,3.67,3.59.44,4.45,2.41,11,4.4,17.2,1,3.08,2,6,2.85,8.49s1.49,4.43,1.77,5.5c-.52,3.35-3-3.12-4.22-4.31a52.88,52.88,0,0,0,5.68,10.86,42.22,42.22,0,0,1,2.73,5,83.84,83.84,0,0,1,3.23,8.4l-.72.51c4,8.48,8.31,17.71,13.46,27.1,2.57,4.69,5.38,9.42,8.42,14.09.72,1.17,1.54,2.34,2.37,3.51l2.47,3.5c.77,1.16,1.75,2.35,2.71,3.53s1.91,2.39,2.91,3.52c2,2.2,4,4.47,6.23,6.51,1.11,1,2.15,2.12,3.31,3.08l3.45,2.91c1.14,1,2.38,1.82,3.57,2.73s2.4,1.8,3.67,2.6l3.75,2.43,3.87,2.21c.64.35,1.28.74,1.93,1.07l2,1c1.33.64,2.63,1.32,4,1.89,2.68,1.14,5.34,2.28,8.06,3.17s5.43,1.72,8.13,2.49c1.35.35,2.72.63,4.07.94s2.7.6,4,.8c-2.84-.82-1.94-1.34-2.88-2.22a126.41,126.41,0,0,0,17,3l2.17.24,2.19.15c1.45.09,2.94.24,4.36.26l8.53.11c2.85.09,5.69-.1,8.53-.23l4.24-.21,2.12-.11c.71-.06,1.41-.15,2.11-.22l8.38-.92c1.4-.13,2.77-.38,4.14-.61l4.09-.7c5.46-.84,10.72-2.24,15.88-3.47,2.55-.69,5-1.48,7.52-2.23l3.67-1.16c1.21-.38,2.38-.85,3.56-1.28,2.35-.88,4.64-1.77,6.89-2.66s4.38-1.94,6.48-2.92,4.15-2,6.1-3,3.83-2.16,5.64-3.24c-10.54,4-25.45,7.37-40.47,9.79-3.77.54-7.54,1.1-11.23,1.73-3.72.46-7.38,1-10.92,1.57s-7,.94-10.26,1.59c-1.63.35-3.23.58-4.78.88s-3,.62-4.5,1a25.59,25.59,0,0,0-3.41-.53c-1.19-.09-2.42-.26-3.67-.32-2.5-.14-5.07-.14-7.49-.16-1.2,0-2.38-.09-3.49-.19s-2.14-.24-3.08-.41a7.55,7.55,0,0,1-4.07-1.89c-8.13-1.53-15-3.24-21.13-5a153,153,0,0,1-17.15-6,89.16,89.16,0,0,1-16-8.93q-2-1.47-4-3.07c-1.3-1.13-2.61-2.32-4-3.56s-2.58-2.68-3.91-4.11c-.67-.7-1.29-1.49-1.92-2.29l-1.91-2.45a5.68,5.68,0,0,1-.92-2.3,1.44,1.44,0,0,1,.29-1.12c.42-.51,1.16-.74,1.4-1.71a90,90,0,0,0,18,17.81c-1.76-1.87-3.61-3.62-5.2-5.62-.82-1-1.66-1.93-2.44-2.93l-2.26-3c1.36,1,2.87,2.59,4.73,4.16.92.81,1.83,1.68,2.79,2.51l3,2.39a30.18,30.18,0,0,0,2.91,2.07c1,.61,1.84,1.15,2.65,1.58,1.68.78,3,1.14,3.77.81A55,55,0,0,1,560.57,414a47.67,47.67,0,0,1-3.46-3.5l-1.7-1.83-1.59-2-1.58-2c-.55-.65-1-1.39-1.48-2.08l-2.89-4.22c-7.4-11.47-12.93-23.62-18-31.86.63,2.15,1.42,4.4,2.28,6.72s2,4.65,3,7,2.31,4.77,3.55,7.14l1.89,3.56c.62,1.19,1.22,2.39,1.88,3.54.38,1.13.85,2.39,1.33,3.66l.71,1.9.72,1.76c.89,2.24,1.38,4,.63,4.22-1.3-1.48-2.57-3-3.81-4.46s-2.29-3.06-3.4-4.6-2.12-3.12-3.11-4.7-2-3.15-2.84-4.77l-2.58-4.84c-.81-1.63-1.55-3.27-2.31-4.9s-1.47-3.29-2.14-4.95-1.37-3.31-2-5c-2.53-6.67-4.67-13.44-6.83-20.36s-4.27-14-6.74-21.24c-.63-1.82-1.26-3.81-1.86-5.79s-1.16-3.94-1.6-5.74c-.92-3.56-1.41-6.43-.9-7.26,2,4.59,2,.62,4,4.32-2.27-4.95-3.6-4.79-4.94-5.25a3.81,3.81,0,0,1-2.09-1.86,34.68,34.68,0,0,1-2.85-7.1l5.51.15c-3.61-2-5-6.62-6.46-11.88s-2.87-11.19-6.44-15.74c.37-4.49,4.33,1.88,7.57,9.89-2.73-9.46-5.84-9.16-8.77-16.34,2.29,1.69,4.61,3.4,6.88,5.15a15.48,15.48,0,0,1-5.25-9.93c-.48-3.36-.19-6.61-.56-9.06-.6,0-1.19,1.3-2.16,1.44s-2.28-.92-4.42-5.66c-1.48-4.25.53-2.69.61-3.92-1.23,0-4.61-2.53-8-8.48.69-1.81,4.1,3,5.63,2.7-1.27-2.29-2.44-4.35-3.46-6.29-.5-1-.94-1.94-1.34-2.91a16.27,16.27,0,0,1-1.54-2.47l-.67-.51a2,2,0,0,1-.52-.46c-.26-.33-.49-.61-.7-.84a4.66,4.66,0,0,0-1-.87c-.46-.27-.61,0-.71.45-.22.82-.19,2.18-2.32-.12-2.92-6.38-2.07-7.31-.35-7.42s4.2.69,4.23-2.41q1.35,1.59,2.71,3.33c.89,1.1,1.86,2.54,2.43,3.19a13.24,13.24,0,0,0,1,1.2c.57.45,1.13.91,1.7,1.35l.84.68.42.33a1.25,1.25,0,0,1,.4.42l1.53,2.31,4.57,6.75c1.28,2,2.44,3.59,3.35,4.78q-2.64-4.59-5.41-9.07l-1.5-2.42-1.84-3c-.62-.67-1.26-1.16-1.9-1.75l-.95-.84a3.48,3.48,0,0,1-.43-.41l-.22-.35c.44-.07.56-.7.58-1.47a4.25,4.25,0,0,0-.14-1.47c-.15-.68-.31-1.36-.44-2-.54-2.41-.43-3.79,3.05.81a143.91,143.91,0,0,0-18.14-29.12,288.51,288.51,0,0,0-22.15-24.61c1.4,2.53,3.48,5.55,2.27,5.8-3.73-3.62-5-5.51-5.42-6.84s.07-2.07-.17-3.27c-5.95-4.95-7.54-2.19-12.3-4.25a111.35,111.35,0,0,0-10.37-13.19c-1.36-1.58-2.65-3.12-4-5-.68-.94-1.38-2-2.11-3.1l-2.5-4-1.42,2.76A19.43,19.43,0,0,0,407,127a16.77,16.77,0,0,0-1.88-1.83,23,23,0,0,0-3.67-2.43,24.65,24.65,0,0,1-8.28-6.8c0-.85,3.42,1.15,6.2,2.7-7.37-5.21-4.54-7.38-12-12.26l7.47,2.07c-5.37-4.55-14-10.41-9.42-10.24l-1.12-.53c-.39-.2-.84-.45-1.27-.69-.87-.48-1.76-1-2.62-1.43s-1.75-.93-2.65-1.44-1.68-.94-2.55-1.45c-3.4-2-7-4.33-10.64-6.76-7.31-4.86-15-10.06-22-13.5l2.27-1.58c-4.23-.93-10.36-5-16.76-8.67l-2.42-1.39-2.39-1.23c-1.57-.8-3.1-1.53-4.55-2.16a18.69,18.69,0,0,0-7.47-2l-.58-1.47c-5.25-1.42-10.59-2.57-15.84-3.76-6.44-3.16-2.67-5.73-3.63-5-14.82-5.72-26.55-9.63-35.83-14.1-.88.63-2.54.83-4.74.74-1.09-.05-2.32-.17-3.65-.36s-2.79-.36-4.3-.62c-3-.51-6.34-1.23-9.72-1.88s-6.77-1.47-10-2.09a326.71,326.71,0,0,0-47.13-9.36,375.13,375.13,0,0,0-48.38-2.69,435.35,435.35,0,0,0-91.88,11C27,27.35,15.93,33.21,5.8,37.09a93.25,93.25,0,0,0,13.46-2.82c1.72-.49,3.44-1,5.52-1.54s4.54-1,7.73-1.58c9.76-.65,13.81,2.39,22.28,3.52l-4.54-2.33c6.32-2,8.63-1.84,10.55-1.76s3.5.13,8.51-1.79V33.5c1.69-1.34,4.84-1.79,8-1.67A42.77,42.77,0,0,1,85.7,33l3.17-3.41c4.14.66,7.54,1.12,10.22,1.84s4.66,1.55,5.93,3l-.87-2.94c.78.42,3.13.62,6.06.72l4.71.11c1.63.06,3.29.13,4.84.23,6.24.32,10.82,1.27,6,3.63,2.35-.6,4.54-2.09,9.68-1.57l.65,3c7.39-.46,15.67-.38,17.65,1.43-4,.42-5.46,1.62-6.85,2.82,7.69.64,12,.59,14.55-.07a5.88,5.88,0,0,0,4.14-3,6,6,0,0,1,3.55-3.14,16.44,16.44,0,0,1,4.65-.68,59.36,59.36,0,0,1,8.2.62l-.6,1.85c2.43-.37,4.86-.62,7.3-.92,2.31,1.21,4.62,2.37,6.89,3.65a14.36,14.36,0,0,1,4.86-1,28.23,28.23,0,0,1,2.91,0c1,.06,2.07.18,3.16.34,2.19.31,4.53.76,7,1.34s4.93,1.32,7.49,2.07c10.22,3.08,20.9,7.18,29.43,8.17,3.23.8,6.59,2.85,10.6,5.19,2,1.2,4.14,2.47,6.53,3.69a72.16,72.16,0,0,0,7.93,3.56l.37-3c4.15,3.27,14.61,9.16,24.32,16l3.62,2.56c1.17.88,2.29,1.77,3.4,2.64s2.17,1.75,3.19,2.61l1.5,1.28,1.33,1.29c.86.85,1.67,1.69,2.46,2.55s1.47,1.66,2.09,2.47a18.2,18.2,0,0,1,2.65,4.44c9,3.09-.47-1.06.94-2.91,8.48,3.57,12.35,6.78,14.94,9.77s3.92,5.91,7.4,9.48c5.13,2.79,3.5,1.27,1.37-.73s-4.72-4.41-1.55-3.52c6.54,6.06,10,7.5,14,9.19l3,1.32c.49.23,1,.48,1.55.76l.82.44.74.48a40.48,40.48,0,0,1,3.87,3c1.52,1.31,3.21,2.91,5.1,4.86.55,2.66-5-2.77-7.4-3.32,6.77,3.67,15.19,10.65,24.18,18.77l1.62,1.47c.47.43.94.82,1.4,1.28l3.2,3.19,6.78,6.63c2.2,2.14,4.3,4.2,6.27,6.19l2.87,2.92,1.35,1.42,1.4,1.5,6.39,8.26c2.17,2.84,4.43,5.79,6.71,8.83,4.54,6.09,9.18,12.55,13.53,19.23a222,222,0,0,1,11.82,20.5c.83,1.75,1.7,3.46,2.47,5.19l.3.66.65,1.32,1.32,2.68.67,1.35.17.34a.77.77,0,0,0,.15.27l.26.3,1.05,1.2,1.05,1.19.26.3.13.15.08.1,0,.07a.16.16,0,0,1-.07.09l0,0s0,0,0,0l.07.15.15.32c.77,1.7,1.47,3.41,2.18,5.07l1.2,0c1.56,6,4.24,11.63,7.08,17.6A133.43,133.43,0,0,1,479.63,283Z"/><path class="cls-5" d="M582.49,424.87c-.24-1.12-.46-2.24-.67-3.34-2-.82-3.93-1.86-5.89-2.85-1-.47-1.89-1.08-2.85-1.62s-1.93-1.08-2.82-1.72a12.07,12.07,0,0,0,2.26,3,13.78,13.78,0,0,0,2.67,2.06c1,.6,2,1.2,3.21,1.94A44.46,44.46,0,0,1,582.49,424.87Z"/><path class="cls-5" d="M576,430c1.19.48,2.35,1,3.54,1.43l3.6,1.23c-1.79-.93-3.63-1.79-5.35-2.85l-2.61-1.53c-.87-.52-1.69-1.11-2.54-1.66l1.64,1.73C574.83,428.88,575.42,429.4,576,430Z"/><path class="cls-5" d="M501.61,268.35l.33,1.87c4.06,8.19,7.92,16.49,11.68,24.8C509.77,286.08,505.81,277.15,501.61,268.35Z"/><path class="cls-5" d="M400.8,113.73c3.25,1.1,6.24,4.53,9.27,6l-10.4-7.57Z"/><path class="cls-5" d="M299.61,34.86c-6.51,2.12-9.25-4.1-4.74,2.39C302.49,39.76,296.88,35.34,299.61,34.86Z"/><path class="cls-5" d="M269.31,29.78A29.06,29.06,0,0,0,278.72,32C273.79,28,272.76,30.1,269.31,29.78Z"/></g><line class="cls-6" x1="647.5" y1="654.5" x2="202.32" y2="654.5"/><path class="cls-7" d="M216,740.51c-21.24-35.88-54.32-64.08-89.5-86,35.52-21.59,67.21-50.83,89.5-86h21.23c-22.27,34.1-49.08,63.72-82.18,86,33.1,22.62,60.95,52.59,82.53,86Z"/><path class="cls-7" d="M267.18,740.51c-21.24-35.88-54.32-64.08-89.48-86,35.51-21.59,67.19-50.83,89.48-86h21.23c-22.27,34.1-49.09,63.72-82.16,86,33.07,22.62,60.93,52.59,82.51,86Z"/></g><g id="Text"><text class="cls-8" transform="translate(152.4 511.72) rotate(0.45)">GO</text></g></svg>