<svg xmlns="http://www.w3.org/2000/svg" viewBox="0 0 800 800"><defs><style>.cls-1{fill:#484d9e;}.cls-2{fill:#f2b526;}.cls-3{font-size:297.57px;}.cls-3,.cls-4{fill:#fceecd;font-family:CenturyGothic-Bold, Century Gothic;font-weight:700;}.cls-3,.cls-4,.cls-5{stroke:#f0aa07;stroke-miterlimit:10;}.cls-3,.cls-5{stroke-width:21px;}.cls-4{font-size:200px;stroke-width:10px;}.cls-5{fill:none;}.cls-6{fill:#f0aa07;}</style></defs><title>monopoly-boards-</title><g id="BG"><rect class="cls-1" x="9" y="9" width="782" height="782"/><path class="cls-1" d="M782,18V782H18V18H782M800,0H0V800H800V0Z"/></g><g id="Layer_2" data-name="Layer 2"><path class="cls-2" d="M796.67,800c.43,1.68,1.41.73,1.22-3.91l-1.66-3.29Z"/><path class="cls-2" d="M799.74,768.77c-.8-5.46-2.21-11.75-3.73-8.22,1.59,5.41.92,6.72,2.82,12.54.19,4.64-.53,8.1-1.14,7.32.42,1.64-.37,7.22.67,9.72,1.28-6,1.33-13.7.28-21.7C799,766.71,799.43,768.38,799.74,768.77Z"/><path class="cls-2" d="M795.75,706.19a34.88,34.88,0,0,0,.43,4.08c-.07-1.29-.13-2.54-.17-3.83A1.2,1.2,0,0,1,795.75,706.19Z"/><path class="cls-2" d="M689.74,793.4c-.08.1,0,.17,0,.25C690.3,793.51,690.47,793.41,689.74,793.4Z"/><path class="cls-2" d="M795.93,703.73c0-1.29,0-2.59,0-3.9C795.87,701.61,795.87,702.8,795.93,703.73Z"/><path class="cls-2" d="M442.05,794.08a15.63,15.63,0,0,1,3.77,1.26C444.56,794.34,456.53,794,442.05,794.08Z"/><path class="cls-2" d="M796.54,706.15a4.42,4.42,0,0,1-.61-2.42c0,.94.05,1.83.08,2.71C796.22,706.68,796.41,706.73,796.54,706.15Z"/><path class="cls-2" d="M413.89,7.06,401,6.86C404.57,7,409.27,7.06,413.89,7.06Z"/><path class="cls-2" d="M5.72,657.37l.17,3A13.92,13.92,0,0,0,5.72,657.37Z"/><path class="cls-2" d="M362.52,7.06a55.28,55.28,0,0,0-7.29-1,7.94,7.94,0,0,0-1.51.37Z"/><path class="cls-2" d="M445.84,795.36l0,0Z"/><path class="cls-2" d="M531.13,792c-12.33,0-5.79,1.81-8.41,2.87-14.73.52-6.81-1.36-11.83-2.31-9.19.49-16.24,2.19-23.1,2.11-.51-.3-1.85-.41-.28-.79-9.72,1.47-28.86.07-40.19,1.91a4.57,4.57,0,0,1-1.48-.45c1.84.92,2.12,1.86,1.74,2.53-5.53,0-10.26,1.17-12.34,0a13,13,0,0,0,5.26-.83l-5.8.53c-5.21-1.74,7.91-.6,7.91-1.89-11.3.57-24.47,2-33.13,1.51-1.81-1.7,20.25-.57,8.7-2.08l13.4.65c-10.24-2.68,8.14.19-1.27-2.68-17.63-.49-19.72.87-37.31.37-4,.94,1.31,1.4-2.65,2.34-25,1.7-19.68-4.27-38.07-2-4.75,1.13-6.6,3.28-19.69,2.15l4.47-1.92c-17.08-.19-9.75,2.76-27.63,1.46,3.18-.75,13.42-.63,10.84-.86-11.59-1.52-8.2,1.09-17.1,1.09l-1.85-1.7c-18.17.27-38.19,1.49-58.32,1.8,1.11-.5,4.56-1-.15-1.55-25.39.85-54.2-.21-78.69-1.22l-9.35,1.47c-2.18,0-4-.66-1.68-1-9.55-.56-.5.93-5.09,1.51-5.43.1-7.17-.85-3.73-1.29-16.84,1.25-48,2.68-65.72,1.11l3.46-.43c-13.82-.6-15.59,3-28.41,1.64l2.46-.26c-9.28-.2-18.86-.21-28.34-.19l-14.1,0H7.47l-3.06,0c.13-4,.26-7.78.37-11.39.21-5,.5-9.75.92-14.11-2.11-4.36.94-29.69-2-31.62,1.46-17.12,2-12.22,3-36.33.13-6.44-1.85-9.6-2.15-17.57l1.54-.19L4.44,673.57l1.84-5.76-.39-7.47c-.09,3-.69,6.33-1.14,5.88-.69-11.67,1.08-28.44,1.87-28.73l-1.31-27.6c.62.61.84,5.23,1.23,8.89C5,604,8.16,616.1,6.72,602.6c-.35,1.81-.91-1-1.23-1.29.94-6.73.94-22,.55-33.38L7.1,570.1c.27-20.47-.51-43.16-.49-66.14-.49,8.24-2.33,6.35-2.51-.39l1.63-2.69c-1-4.35-.62,7-1.85-1.89.19-8.59,1.85-5.78,2.38-.85L5.7,487.71c.48-.61.74,1.83,1.36,2.47-1-4.28,1.64-18-.12-24.19l.48-.59c0-23-.54-33.39-.62-52.1-1.41-.36-1.1-7.68-2.24-13.26C5,386.3,6.12,371,6,354.47c-.7-11.65-1.19-3.41-2-8.64,1.28-.86,1.16-17.4,2.08-8.82-.2-19.88-.25-25.4-1.29-50.55-.53,2.73-.75,5.8-1.19,4.21-.21-4.56.54-10.38,1.15-9.73l.13,1.21C2.93,253.92,8.59,217,5.92,194.52l.13,1.26L4.66,172.47c.22-10.72,1,6.43,1.75-1.5-2.13-25.15.31-39.73-1.11-60.44C9.08,94.5,5,53.65,7.45,32l-.89,1.25c-.88-5.59.5-6.76.71-10.89C6.58,23,6.47,28.45,6,25c-.1-4.11-.16-8.24-.21-12.4q0-3.4-.07-6.87L15,5.78,30.11,6c10.11.17,20.27.41,30.44.66,20.35.52,40.73,1.12,60.8,1.45,17.76.24,10.08-4.6,32.47-2.48l-6.35,1.65c35.84-2,73.29.07,108.38-1.61-2.09.38-2.15.88-5.58.87,7.41,1.2,27.41.06,27.53-.92,5.47.11,1.27.88,4.64,1.38,7.43.71,18.66-1.53,22.61-.34.67.2-2.09.39-3.45.49,4.84-.59,22.57.14,17.93-1.24,13.17.66,25.19-.62,35.7.2,6.85-1.54,22.54.75,24.72-1.44C379,6.91,403,6.47,411.36,5.41c-2.78.68,7.24.71,4,1.65,9.5,0,18.21-.45,16.55-1.61,17.51,2.71,35.19-2.18,45.05,1.29,28.23-1.21,54.35-2,79.74-2.57-.92,2.26-28.07.23-27,2.6,24.09-.93,38-2.87,61.87-2.32,6.19.3-3.51,1-5.6,1.36,24.07-.93,46.54.2,67.95-1-.06.21-2.37.44-4.55.61,4.22-.08,9.81.33,9.34-.7L654.59,5c-6.74-1.49,16.76-3.11,17.52-3.89-7.17,2.94,21.15.74,9.77,4.45,2.78-.2,6.26-.68,5.62-1.37,4.13.2,5.43.6,1.25,1.38C703.87,5,698.5,3.91,712.2,3.93c-.05.5-2.82.69-4.23,1.27a128.41,128.41,0,0,1,25.47-1.52c-.69.3.65.69-2.8.69,19.87-.15,33.88-2.58,55.68-1.65C783.11,3.8,785,4,787.76,4.12l2.22.11,1.12.08.54.05.27,0,.12,0c.62.16,1,.42.91.89l2-.24c.11.72.21,1.53.32,2.42a22.16,22.16,0,0,0,.9-2.64c0,.68,0,1.33.05,2l.06,1,0,.25,0,.44,0,.91q.2,3.64.39,7.14a107.92,107.92,0,0,1,.14,13.55l-.77-7.64.35,19.25.71-10.89c1,10.39,2.36-1.12,1.84,12.55-.19-2.77,0,10.28-1.12,15.63v0a91.15,91.15,0,0,1,.75,17.9c-.59,2-2.06-1.59-2.46-.3,1.56,5,.43,24.05,2.1,30.4-.39-2.11-1.37-2.23-1.57-1.53l1.26,4.21c-.4,4.76-.6,5.45-1.38,4.68-.23,14.31,2.37-4.55,1.35,12.44-.1-1.33-.29-.7-.49-3.47-.53,17.06.81,33,.18,48.64-1.87,4.62-.46-13.7-2-8.41.34,22.61,2.25,46.81,1.81,68.68l.21-4.08c2.65,3-1.31,16.29-.06,27.35-.2-2.7-1.48-3.55-1.18-2.81-.43,15,.65,30.62,1.49,53.32l-.69-2.81c-.6,8.82-.35,23.24-.66,32.78.68,2.83.57,8.28,1.56,5-3.88,29.4,2.08,56.08-1.15,82.17,0-3.12-.59-7.43-.6-5l.63,22.22c1.16-1.76.7-2.91,1.6-7.58a77,77,0,0,1,1.22,14.59c-.77-10-1.86.09-2.5,4.4.35-.72.74.76,1.1.39-2,11.61,2.33,1.95.94,17.8l-.61-.84c.31,5.93,1.12,11.39.94,17.79-1.33,2.65-.62-6.31-1.72-6.72.08,9,2.53,17.73,1.2,25.86-.37-3.82-.38-9.31-.75-13.12-1.57,8.85-1.17,9.88-1.42,16.46l0-.65L796.28,524l.42-3.87c3.49,11.24.64,22.89,2.92,38-2.16-14.72-1.25-2.43-2.76-3.56-.42,3.87-.9,9.75-1.32,8.07,1.22,7.16-1,12,.82,22-.49.46,0,7.66-1.27,6.05.38,9.3.85-2.2,1.46-1.42,1.67,14.34-2,33.72.27,54.35.94,17.79,2.58,21.08,3.4,37.59-.78,5.58-1.78-4.56-1.78-4.56a154.34,154.34,0,0,0,0,24.23c-.43-1.72-.79.05-1.34,2.63.13,6.8,1.78,4.55,1.06,13.51a34.18,34.18,0,0,1-2-6.79c.45,8,1.36,15.93,1.8,24.22-.85,2.2-1.29-5-1.84-7.93.38,9.32.77,24.15,2.11,27l.48-6c.07,3.4-1.15,1.75-1.4-.76-1.05-8,.47-11.52,1-12l.31,5.91c2.86-6.07-.46-23.73-.29-35.62l2.08,5-1.73-12.2c.54-2.59,1.7-4.36,2,1.51,1-8.53-.74-7.55.41-14.87.18-.81.28-.44.36.3l-.62-8.32c.44,1.63,1.47-1.39,1.17,3.73,1.2-14.95-1.56-24.11,0-29.74l.12,1.25c-.7-20.74-1.52-2-3.31-17.56l3.76-10.47-1.52-2c.05-2.14.16-6.38.78-5.59-1.05-8-.67,1.36-1.66-3.27,1.4-10.3-.65-28.4,1.79-30.72-1.16-3.69-.9,9.85-1.71-1.14,2.62-3.14-.44-12.71.76-22.12,1.35,2.89.63,11.8,1.84,2.39-2.29-5.68.5-18.33.06-26.26-1.82-.37-.76-17.26-1.36-30.58.61.85,1-25.06,1.65-37.44l.31.36c-1.84-2.4-1.49-15.18-1.87-24.48,1.1.36,1.53,2,2,7.08V441.2c-.59-2.06-.9-4.79-1.11-10.47l1.38,2.2c-.08-11.64-1.62-23.44-.7-38.42-1.28-.84-3.57,11.91-4.42-3.93.69-.59,1.87-1.17,2.16,3a41.75,41.75,0,0,1-.28-7.57l1.16,6.33c.51-6.83-1-3.57-.86-9,1,.11.7-4,1.48-3.25.1,1.39-.4,4.76,0,6.85.18-6.15.77-13.59,1.51-16.05-.56.54-1.33,0-1.45-4.5-.08-11.64,1.18-4,1.69-10.78-.68-2.82,0-10.24-1.45-10.44a11.62,11.62,0,0,1,1.1-5.35c-.65-6-.19-28.15-1.76-21.36L802,320c0-.29,0-.63-.07-1v0c-1.47-19.74.84-41,.21-60.62l.49,0c-.56-11.69-.33-26-1.4-34.39,0-3.46.91-8.16,1.49-6.68-.37-8.94-.92-10-.11-22.86.86,9,.77-3.1.63,9.21.43-11.62,1.22-14.25-.13-26.72,1.27,4.24,1.59-8.75,1.22-14.27l-.91,8.14c-.18-6.21-.07-11.64,0-17.16l1.66,3c2-23.77-3.44-42.87-.06-61-1.16-6.29-.81,12.91-2.18,7.28.23-10.93,2.62-22.33,2.62-25.75.92-15-2.43-14-1.8-29.66-.59,2-2.18,3.9-2.73-7.81.21-10.95,2.48-13.46,3-6.55.05,2.63-.14,3.89-.34,3.78.22,3.54.47,8.18,1.11,3.84l-.59-1.42c.61-5.43.54-20.48,1.52-16.95-.57-8.27-1-3.53-1.28,2.59.3-4.94.39-9.12.41-13.1,0-5.56,0-10.83,0-16.62l-8.47,0-4.52-.07-3.11-.11c2.3.33,4.42,1,2.13,1-21.19-.74-9.33,1.13-23.69,1.39-8.16-.91,2.92-2.16-11.53-1.41-8.83-.61-1.87-1.57,1.64-2.05C744-4.85,732.56-6.75,725-7L732-7.43c-4.15.28-7.54.27-11,.27l4,1.19c-4.07-.21-7.52-.22-7.45-.71-4.2.78,3.22,2-5.11,3-5.43-.61-16.54.64-18.42-.93C711-4,692.07-6.15,706.52-6.41a90,90,0,0,1-10.27,0c-.62-.18.57-.33,1.69-.42-16.34-1.41-7.51,1.78-24.45,1.74,2.15-.88-3.93-1.68-6.69-1.49,6.83,0,3.27,1.48-3,2.16-10.86-.69-11.8.51-17.49.43l6.5.33c-2.2.89-7.63.77-15.2,1.05-.65-.69,6.87-.48,4.17-.78-8.41,1.56-19-1.62-30.71-.57-5.43-.6-.53-1.66-5.3-2.07-13.13,1.15-14.22-1.22-28-.27,4,1.2,4.67.91-5,2.07l22.7-.84L580.82-3.36c6.85,0,14.46-.75,18.56-.54-6.94,1-6.23.67-3,1.66C587.06-4,577.85-1.19,567-2.4l.33-3c-16.28-1.31-28.94,1.52-50.09.78l6.8.51c-2.84,1.17-13.06.16-19.91.64.64-1-3.64-1.35-6.57-2,.36.73-15.48-.07-17.4,1.9l-9.44-1.3c-17.08-.53-19.5,2.82-35.91,2.48,4.94-1.07-2.52-1.77,8.48-2.54-5.48,0-10.41-.19-10.5.49C429.6-5,417.6-3,412.56-4c-2.31.43-3.07,1.46-9.22,1.38-.67-.2,0-.49,0-.49,0,.49-9.63.67-4.25,1.76-16.89-3.08-47.2.22-61.9-2.42-12,.33-26.37.65-37.23.72.69-.3,0-.49,2.08-.39-15-.92-9.21,2.83-26.25,1.81-8.71-1.6,9.05-.86,3.62-1.47-2.36-3.25-20.57.44-32.05-1.45l2.78-.19c-8.77-1.11-21.39,1.23-35.72,1,0,0,.7-.29.08-.49-9.8,1.65-28.34,2.2-42.13,2.66,4.29-1.27,6.26-.67,3.65-2-6.18.18,1.81,2.07-10.52,2.43-4-.69-12.91-1.3-14.09-2.68l11.63-.08c-6-1.78-15.06.07-21.19-.24l.79-.78c-17.83.25-18.08,2.21-37.24,2.07l2,.59c-10.47,2-8.78-1.09-19.22.36L85-3.8c-6.91.48-24.2,1.91-36.59,2.28C55.45-3,69.94-3.73,78.92-4.6c-6.85,0-23.28.15-26.85,1.12,2.76-.19,6.24-.67,9-.37Q48.43-1.52,27.93-1.57c.79-1.25-2.74-1.79-8.19-2-2.73-.13-5.94-.19-9.33-.23L-4-4c0,2.72-.1,5.39-.15,7.94,0,1.3-.08,2.58-.12,3.81l0,.72c0,.2,0,.4,0,.6,0,.39-.06.78-.08,1.16a37.16,37.16,0,0,1-1.09,7.31c1.42,24.14-.6,47.89-.37,76,3-10,.08,8.21,3.14,6.48.19,6.55.14,9,0,9.64l-1.83,19.85c-.89,4.71-.67-6.23-1.36-5.63-.24,14.35-1.3,6-2.11,15.51,1.09-1.94,1.57,5,1.15,13.17l1.41-11.52c1.63,20.05-2.57,17.33-1,37.54l-1-6.4c.57,10.37,0,38.25,2.44,48.42-.35,1.83-1.19,4.25-1.41-.31-.37,24.78,2.61,55.16,1.1,74.42l-.75-1.88c.22,4.62,1.41,8,.66,13.83-.31-.3-.75-1.86-.79.28.25,2.45,1.31,12.28.87,18.41l-.84-5.24c-1,24.17,2.05,37.1,2.56,57.36-2.2-.05-2.92,19-3.27,28.46l-.31-.33c-.28,28.14,1.82,47.81,2.68,73.87-2.39,16.18-1,54.8-2.34,80.8.4-4,1.72.65,1.94,5.27-.45,6.1,1.53,16.87-.49,15.9l0-2.17c-2,4.6-1.46,17.14-1.51,26.93l2.64,1.61c-3.84,25.61,1.41,67.11-2,81.08.66,6.18.65,13.84,1.31,20l-1.41-.34c-.36,17.13-.54,25.68-.2,46.84l-1-4.31c-.09,11.94,4.09,15.07,4.17,26.08l-2.11,3.32q0,4.88-.11,9.75l-.24,15.65,9.26.16,4.71.07,2.69.06c3.6.08,7.19.14,10.78.14,7.17,0,14.31-.21,21.39-.87-.34.31-1,.92-4.32,1,9.8,0,37.92,1.43,34.36-1.47.24,1.88,21.49.18,32.74-.65L104,805.71c9.49-1.78,9.8-2.27,23.06-2.76,3.14.18,2.75,1.12-1.42.76,10.46.73,8.15-1.32,20.85-.58l-4.73.89c10.77.11,9.91-.37,15.84-1.4,6.78-.56,20.44.35,22,1.61,1.45-.77,7.35-1.8,13.7-1.44.86.48-1.45.78-2.62.92,18,.95,26.79-1.62,39.17-.25.26.46,1.07.69,2.1.83-14.31,0-25.84-.11-24.76-.21,0,1.28,11.56,1.51,2.36,3.28,9.28-1,25.15-3.07,36.42-2.47a7.94,7.94,0,0,1,1.49.45l-1.17.14a48.11,48.11,0,0,0,7.12-.2c3.6.21,5.88.36,9.33.38,1.34,1.06,13.26.57,19,.63-.48-1.41,7.07-1.18,0-2.34.92.1-1.09.16-4.92.22-.87,0-1.89.07-2.46.15l.4-.13-14.33.1a52.46,52.46,0,0,1,15.68-.54c3-.9,6.22-1.83,8.05-2.26,7.89,2,23.09,3,25.21,4.22,17.59-.78,41.45-.52,52.52-3.16,5-.34,5.75.76,7.62,1.18-2.89.26-6.32.22-7.88.6,10-.68,29.64-.26,32-2.11,12.61.83-7.08,1.7,10.24,1.4l-2.34.56c34.09,3,55.42-4.71,93.21-.92-2.62-.23-3.93-.34-4.46-.65,43.08,1.67,88.78-1.57,131.29,1.08,12.09.53,13.4-.64,20.77-1.54l2.62,1.51,12.61-1.74c17.88-1.28,31,3.7,53.6,1.29l-2.92-1c8.13.2,25.76-.6,24.4.57a11.66,11.66,0,0,1,5.84-.52l.25.79,20-1.36c15.48.57-2.42,3.14,20.17,3.29,8.4-.3,23.92-2.3,20.76-2.83-3.39,0-8.66-.49-8.91-1.28l7.68-.41c1.39-2.33,7.3-4.71-11.55-6.34l-13.14,1.42-4.24-1.12,11.06-.08c-6.27-1.06-10.25-.12-14.7.53a14.66,14.66,0,0,0-5.51-1.25l-12.9,2.23c-1.56-.91,5.79-1.81-2.87-2.31-6,1,5.8,2-4.21,2.72-6.28-1.06-4.45-1.92-11.82-1-1-.6.52-1,3.45-1.24-6.57.71-17.38.3-20.77,1.54-6.55-1.31-22.17.34-21.53-1.87a120,120,0,0,1-17.59,1.82c11-2.63-22.58-.15-19.67-3-8.16,2.37-29.46,1-43.91,2.37a12.51,12.51,0,0,1,3.67-.45c-8.13-.2-10.49-.91-15.72-1.36-1,2-13.7,2.41-20.53,3.62-10-1.89,6.06-2.3,2.93-4.12.5,1.59-17.32,1.59-13.93,2.91-7.62-1.17-6.57-.57-10.49-2.19-1.34,2.45-7.1.41-13.42,1.92-11-1.21-2.84-2.3-15-1.55C520.36,792.89,531.13,792,531.13,792ZM243,796.25v0l5.95-.08Zm-24.22,0c2.95.05,6.62.06,10.51.05.85.49-.07,1-2.51,1C228.06,797,222.36,796.69,218.74,796.28ZM270,806c-3.83.2-5.12-.08-5.64-.37,1.81,0,3.92-.07,6.7-.17.11-.05.34-.11.45-.17A4,4,0,0,1,270,806Z"/><polygon class="cls-2" points="6.41 684.34 6.06 684.38 6.37 686.5 6.41 684.34"/><path class="cls-2" d="M797.27,451.78a5.53,5.53,0,0,0-.36,1.75A7.64,7.64,0,0,0,797.27,451.78Z"/><path class="cls-2" d="M797,509.4l-.5,8.15C796.74,514,796.87,511.45,797,509.4Z"/><path class="cls-2" d="M796.25,553.7a2,2,0,0,0,.61.86v-.08Z"/><path class="cls-2" d="M649.37,5.4c-.6,0-1.19,0-1.71.06C643.65,5.73,646.37,5.63,649.37,5.4Z"/><path class="cls-2" d="M797.89,59c-.26-2.23-.51-4.42-.67-6.74C797.11,56,797.09,58.86,797.89,59Z"/><path class="cls-2" d="M415.31,7.09s0,0,0,0h-1.45Z"/><path class="cls-2" d="M797.25,42.48a67.6,67.6,0,0,0,0,9.75C797.32,49.17,797.46,45.57,797.25,42.48Z"/><path class="cls-2" d="M795.62,745.69l-.06,2.14c.09,0,.17.09.22.25Z"/><path class="cls-2" d="M795.78,748.08l.17,2.37A8.39,8.39,0,0,0,795.78,748.08Z"/><path class="cls-2" d="M796.3,755.44l-.35-5A18.86,18.86,0,0,0,796.3,755.44Z"/><path class="cls-2" d="M796.27,687.05l-.51-.67A.86.86,0,0,0,796.27,687.05Z"/><path class="cls-2" d="M796.12,669.23c-.12,4.25-1.09,10.66-.77,16.59l.41.56C795,683.59,797,673.27,796.12,669.23Z"/><polygon class="cls-2" points="796.6 149.97 795.81 155.99 796.98 158.85 796.6 149.97"/></g><g id="Text"><text class="cls-3" transform="matrix(0.87, -0.49, 0.49, 0.87, 263.47, 783.99)">JAIL</text><text class="cls-4" transform="translate(80.4 184.72) rotate(0.45)">GO TO</text><line class="cls-5" x1="520.02" y1="228.86" x2="132.91" y2="448.69"/><path class="cls-6" d="M187.28,516.73C151.09,496,108.4,487.83,67,486.14c20.22-36.32,33.34-77.39,35.35-119l18.46-10.48c-2.53,40.66-11.21,79.65-29,115.38,39.95,3.33,79,15.63,114.23,34Z"/><path class="cls-6" d="M231.78,491.46c-36.19-20.71-78.88-28.9-120.28-30.61,20.21-36.31,33.32-77.38,35.34-119l18.46-10.48c-2.53,40.65-11.22,79.65-29,115.36,39.93,3.35,78.95,15.65,114.22,34.06Z"/></g></svg>