<svg xmlns="http://www.w3.org/2000/svg" viewBox="0 0 600 800"><defs><style>.cls-1{fill:#484d9e;}.cls-2{fill:#f2b526;}.cls-3{fill:#f0aa07;}.cls-4{opacity:0.72;}.cls-5{fill:#f0aa9b;}.cls-6{fill:none;stroke:#f0aa07;stroke-miterlimit:10;stroke-width:11px;}</style></defs><title>monopoly-boards-</title><g id="BG"><rect class="cls-1" x="9" y="9" width="582" height="782"/><path class="cls-1" d="M582,18V782H18V18H582M600,0H0V800H600V0Z"/></g><g id="Layer_2" data-name="Layer 2"><path class="cls-2" d="M596.67,800c.43,1.47,1.41.64,1.22-3.42l-1.66-2.88Z"/><path class="cls-2" d="M599.74,772.68c-.8-4.78-2.21-10.29-3.73-7.2,1.59,4.73.92,5.88,2.82,11,.19,4.07-.53,7.09-1.14,6.41.42,1.44-.37,6.31.67,8.5,1.28-5.29,1.33-12,.28-19C599,770.88,599.43,772.33,599.74,772.68Z"/><path class="cls-2" d="M595.75,717.92a27.09,27.09,0,0,0,.43,3.57c-.07-1.13-.13-2.22-.17-3.35A1.69,1.69,0,0,1,595.75,717.92Z"/><path class="cls-2" d="M503.52,793.4c-.07.1,0,.17,0,.25C504,793.51,504.16,793.41,503.52,793.4Z"/><path class="cls-2" d="M595.93,715.76c0-1.12,0-2.26,0-3.41A33.66,33.66,0,0,0,595.93,715.76Z"/><path class="cls-2" d="M286.8,794.08a12.54,12.54,0,0,1,3.29,1.26C289,794.34,299.47,794,286.8,794.08Z"/><path class="cls-2" d="M596.54,717.88a3.48,3.48,0,0,1-.61-2.12c0,.82.05,1.61.08,2.38C596.22,718.34,596.41,718.39,596.54,717.88Z"/><path class="cls-2" d="M362.16,7.06l-11.33-.2C354,7,358.11,7.06,362.16,7.06Z"/><path class="cls-2" d="M5.72,575.2l.17,2.6A10.71,10.71,0,0,0,5.72,575.2Z"/><path class="cls-2" d="M317.2,7.06a42.54,42.54,0,0,0-6.38-1,6.26,6.26,0,0,0-1.31.37Z"/><path class="cls-2" d="M290.11,795.36l0,0Z"/><path class="cls-2" d="M364.74,792c-10.79,0-5.07,1.81-7.36,2.87-12.88.52-6-1.36-10.35-2.31-8,.49-14.21,2.19-20.21,2.11-.45-.3-1.62-.41-.25-.79-8.51,1.47-25.25.07-35.16,1.91a3.63,3.63,0,0,1-1.3-.45c1.61.92,1.86,1.86,1.53,2.53-4.84,0-9,1.17-10.81,0a10.1,10.1,0,0,0,4.61-.83l-5.07.53c-4.57-1.74,6.92-.6,6.92-1.89-9.89.57-21.42,2-29,1.51-1.59-1.7,17.72-.57,7.6-2.08l11.73.65c-9-2.68,7.12.19-1.11-2.68-15.43-.49-17.26.87-32.65.37-3.46.94,1.15,1.4-2.32,2.34-21.87,1.7-17.22-4.27-33.3-2-4.16,1.13-5.78,3.28-17.23,2.15l3.9-1.92c-14.93-.19-8.52,2.76-24.17,1.46,2.78-.75,11.74-.63,9.48-.86-10.13-1.52-7.17,1.09-15,1.09l-1.61-1.7c-15.9.27-33.42,1.49-51,1.8,1-.5,4-1-.13-1.55-22.21.85-47.42-.21-68.85-1.22l-8.18,1.47c-1.91,0-3.54-.66-1.47-1-8.36-.56-.44.93-4.45,1.51-4.75.1-6.28-.85-3.27-1.29-3.43.29-7.53.59-12,.86l-3.43.2-1.75.09-.89.05H8l-.17,0c-.92.12-2,.22-3.08.3l-.13-1.71,0-.91,0-.46,0-.68c0-2.81-.06-5.58,0-8.26,0-5.36.26-10.35.68-14.5l.43,3c.6-12.09-3-13.64-1.64-24.85l.26,2.15c.64-26.24-.7-55.24,1.51-75.27-2.11-3.8.94-26-2-27.65,1.46-15,2-10.7,3-31.8C6.8,608.74,4.82,606,4.52,599l1.54-.17-1.62-9.46,1.84-5-.39-6.54c-.09,2.61-.69,5.54-1.14,5.14-.69-10.21,1.08-24.89,1.87-25.14L5.31,533.65c.62.54.84,4.58,1.23,7.78-1.57-12.89,1.62-2.34.18-14.16-.35,1.59-.91-.85-1.23-1.12.94-5.89.94-19.3.55-29.21l1.06,1.9c.27-17.92-.51-37.77-.49-57.87-.49,7.21-2.33,5.55-2.51-.34l1.63-2.36c-1-3.81-.62,6.16-1.85-1.66.19-7.51,1.85-5.05,2.38-.73l-.56-9.14c.48-.53.74,1.61,1.36,2.17-1-3.75,1.64-15.76-.12-21.17l.48-.51c0-20.1-.54-29.22-.62-45.59-1.41-.32-1.1-6.72-2.24-11.6C5,338,6.12,324.65,6,310.16c-.7-10.19-1.19-3-2-7.56,1.28-.75,1.16-15.23,2.08-7.72-.2-17.4-.25-22.22-1.29-44.22-.53,2.38-.75,5.07-1.19,3.68-.21-4,.54-9.09,1.15-8.51l.13,1c-1.92-24.7,3.74-57,1.07-76.68l.13,1.11-1.39-20.4c.22-9.38,1,5.63,1.75-1.31-2.13-22,.31-34.77-1.11-52.89C9.08,82.69,5,47,7.45,28l-.89,1.09c-.88-4.89.5-5.92.71-9.52-.69.51-.8,5.3-1.28,2.26-.1-3.59-.16-7.2-.21-10.84,0-1.75,0-3.52-.07-5.3l7.41.07L26.35,6c8.84.17,17.73.41,26.63.66,17.8.52,35.64,1.12,53.2,1.45,15.55.24,8.82-4.6,28.42-2.48L129,7.26c31.37-2,64.13.07,94.84-1.61C222,6,222,6.53,219,6.52c6.48,1.2,24,.06,24.09-.92,4.78.11,1.11.88,4,1.38,6.51.71,16.33-1.53,19.79-.34.58.2-1.83.39-3,.49,4.24-.59,19.75.14,15.69-1.24,11.52.66,22-.62,31.23.2,6-1.54,19.73.75,21.63-1.44-.82,2.26,20.2,1.82,27.49.76-2.44.68,6.34.71,3.48,1.65,8.32,0,15.94-.45,14.49-1.61,15.31,2.71,30.79-2.18,39.41,1.29,24.7-1.21,47.56-2,69.78-2.57-.81,2.26-24.56.23-23.61,2.6,21.08-.93,33.24-2.87,54.14-2.32,5.41.3-3.08,1-4.9,1.36,21-.93,40.71.2,59.45-1,0,.21-2.07.44-4,.61,3.69-.08,8.58.33,8.17-.7l-3.6.28c-5.9-1.49,14.66-3.11,15.32-3.89-1.56.73-1.19,1.15.09,1.41a23.35,23.35,0,0,0,2.49.31l1.42.11,1,.1c1.28.14,2.36.31,2.5.67.08.18-.08.41-.47.71s-1,.67-1.69,1.14a13.14,13.14,0,0,0,1.51-.45.61.61,0,0,0,.92-.16,3.24,3.24,0,0,1-.48,1.77c-.22.22-.51,0-.9-.31.07.47.14.89.23,1.27l.06.29,0,.13,0,.36c0,.48.09.92.13,1.32.18,1.61.37,2.63.54,3.62a49.39,49.39,0,0,1,.59,9.79c-.5,0-.69-2.46-1.27-3.7a98.61,98.61,0,0,1,1.52,22.29c-.3-.61-.69.57-.69-2.45C595.78,56.7,598.21,69,597.28,88c-2.16-5.63-.71,6.49-2.58,7.5l.56,10.26.9-4.11c0,9,1.33,16.93.72,24.65l-.77-6.68.35,16.85.71-9.54c1,9.1,2.36-1,1.84,11-.19-2.43,0,9-1.12,13.68v0a69.87,69.87,0,0,1,.75,15.66c-.59,1.73-2.06-1.39-2.46-.26,1.56,4.38.43,21.05,2.1,26.6-.39-1.85-1.37-1.95-1.57-1.34l1.26,3.68c-.4,4.17-.6,4.78-1.38,4.1-.23,12.52,2.37-4,1.35,10.88a27.67,27.67,0,0,1-.49-3c-.53,14.93.81,28.85.18,42.56-1.87,4.05-.46-12-2-7.35.34,19.78,2.25,41,1.81,60.09l.21-3.56c2.65,2.65-1.31,14.25-.06,23.93-.2-2.37-1.48-3.11-1.18-2.47-.43,13.11.65,26.8,1.49,46.66l-.69-2.46c-.6,7.72-.35,20.34-.66,28.69.68,2.47.57,7.24,1.56,4.34-3.88,25.73,2.08,49.08-1.15,71.9,0-2.72-.59-6.5-.6-4.33l.63,19.44c1.16-1.53.7-2.55,1.6-6.63a59.3,59.3,0,0,1,1.22,12.77c-.77-8.75-1.86.07-2.5,3.85.35-.63.74.66,1.1.34-2,10.16,2.33,1.7.94,15.57l-.61-.73c.31,5.19,1.12,10,.94,15.56-1.33,2.33-.62-5.52-1.72-5.88.08,7.86,2.53,15.51,1.2,22.63-.37-3.34-.38-8.14-.75-11.48-1.57,7.75-1.17,8.65-1.42,14.4l0-.56-.71,13.31.42-3.39c3.49,9.83.64,20,2.92,33.28-2.16-12.88-1.25-2.13-2.76-3.12-.42,3.39-.9,8.53-1.32,7.06,1.22,6.27-1,10.46.82,19.3-.49.39,0,6.7-1.27,5.29.38,8.14.85-1.93,1.46-1.24,1.67,12.55-2,29.5.27,47.55.94,15.57,2.58,18.45,3.4,32.9-.78,4.87-1.78-4-1.78-4a118.21,118.21,0,0,0,0,21.2c-.43-1.5-.79.05-1.34,2.31.13,5.95,1.78,4,1.06,11.82a27.19,27.19,0,0,1-2-5.94c.45,7,1.36,13.93,1.8,21.19-.85,1.92-1.29-4.38-1.84-6.94.38,8.16.77,21.13,2.11,23.65l.48-5.23c.07,3-1.15,1.53-1.4-.66-1.05-7,.47-10.08,1-10.48l.31,5.17c2.86-5.31-.46-20.76-.29-31.16l2.08,4.33-1.73-10.67c.54-2.27,1.7-3.82,2,1.32,1-7.46-.74-6.61.41-13,.18-.71.28-.39.36.26l-.62-7.28c.44,1.43,1.47-1.22,1.17,3.26,1.2-13.08-1.56-21.09,0-26l.12,1.1c-.7-18.15-1.52-1.76-3.31-15.37l3.76-9.16L601.06,644c.05-1.87.16-5.57.78-4.89-1.05-7-.67,1.19-1.66-2.85,1.4-9-.65-24.85,1.79-26.88-1.16-3.24-.9,8.61-1.71-1,2.62-2.74-.44-11.12.76-19.35,1.35,2.53.63,10.33,1.84,2.09-2.29-5,.5-16,.06-23-1.82-.32-.76-15.1-1.36-26.75.61.74,1-21.93,1.65-32.77l.31.32c-1.84-2.1-1.49-13.28-1.87-21.42,1.1.32,1.53,1.78,2,6.19v-7.65c-.59-1.8-.9-4.19-1.11-9.16l1.38,1.93c-.08-10.19-1.62-20.52-.7-33.63-1.28-.73-3.57,10.43-4.42-3.43.69-.52,1.87-1,2.16,2.6a32.1,32.1,0,0,1-.28-6.63l1.16,5.54c.51-6-1-3.12-.86-7.9,1,.1.7-3.53,1.48-2.84.1,1.21-.4,4.16,0,6,.18-5.39.77-11.89,1.51-14-.56.47-1.33,0-1.45-3.94-.08-10.19,1.18-3.49,1.69-9.43-.68-2.47,0-9-1.45-9.14a9.15,9.15,0,0,1,1.1-4.68c-.65-5.27-.19-24.63-1.76-18.69L602,380l-.07-.87v0c-1.47-17.28.84-35.89.21-53l.49,0c-.56-10.24-.33-22.78-1.4-30.09,0-3,.91-7.15,1.49-5.85-.37-7.83-.92-8.71-.11-20,.86,7.87.77-2.71.63,8.06.43-10.16,1.22-12.46-.13-23.38,1.27,3.72,1.59-7.65,1.22-12.49l-.91,7.13c-.18-5.44-.07-10.19,0-15l1.66,2.61c2-20.81-3.44-37.52-.06-53.36-1.16-5.5-.81,11.3-2.18,6.38.23-9.57,2.62-19.54,2.62-22.54.92-13.11-2.43-12.23-1.8-25.95-.59,1.76-2.18,3.41-2.73-6.84.21-9.58,2.48-11.77,3-5.72.05,2.29-.14,3.4-.34,3.3.22,3.1.47,7.16,1.11,3.37l-.59-1.25c.61-4.75.54-17.92,1.52-14.83-.57-7.23-1-3.09-1.28,2.27.85-12.28,0-19.19.6-31.83-.33,2-1,3.86-1,1.86.74-18.55-1.13-8.17-1.39-20.73.91-7.14,2.16,2.55,1.41-10.09.61-7.73,1.57-1.64,2,1.43-1.14-11.52.76-21.53,1-28.11l.47,6.07c-.28-3.63-.27-6.61-.27-9.63L606,34.31c.21-3.56.22-6.58.71-6.51-.78-3.68-2,2.81-3-4.48a80.84,80.84,0,0,0,.1-9.22,41.89,41.89,0,0,1,.11-4.35,9.58,9.58,0,0,1,.25-1.57,5.41,5.41,0,0,1,.47-1.47c0,1.13-.05,2.1-.07,3,0,.7,0,1.29,0,1.79a12.12,12.12,0,0,0,.11,2c.12.75.35.47.59.12.5-.7,1.09-1.69,1.22,4.64a69,69,0,0,1,0-9c.18-.54.33.5.42,1.48.09-.93.16-1.76.22-2.52s0-1.32.07-1.93,0-1.24,0-1.81c.05-2.3,0-4.08,0-5.48a23.58,23.58,0,0,0-.73-5.39c-1.78.31-3.62.64-6.43.9-1.4.13-3,.23-5,.31l-3.2.09c-.74,0-1.55,0-2.45,0,1.89-.88-3.43-1.68-5.85-1.49,6,0,2.86,1.48-2.62,2.16-9.5-.69-10.33.51-15.31.43l5.68.33c-1.92.89-6.67.77-13.3,1.05-.56-.69,6-.48,3.66-.78C554.2-1.85,544.94-5,534.68-4c-4.75-.6-.46-1.66-4.63-2.07-11.49,1.15-12.45-1.22-24.53-.27,3.48,1.2,4.09.91-4.42,2.07L521-5.09,508.22-3.36c6,0,12.65-.75,16.24-.54-6.07,1-5.45.67-2.58,1.66-8.2-1.79-16.26,1.05-25.74-.16l.29-3c-14.26-1.31-25.33,1.52-43.83.78l5.94.51c-2.48,1.17-11.42.16-17.42.64.56-1-3.19-1.35-5.74-2,.31.73-13.55-.07-15.23,1.9l-8.26-1.3C396.94-5.32,394.83-2,380.46-2.31c4.33-1.07-2.2-1.77,7.43-2.54-4.8,0-9.11-.19-9.19.49C375.9-5,365.4-3,361-4c-2,.43-2.68,1.46-8.07,1.38-.58-.2,0-.49,0-.49,0,.49-8.43.67-3.72,1.76-14.77-3.08-41.3.22-54.16-2.42-10.47.33-23.08.65-32.58.72.61-.3,0-.49,1.83-.39-13.11-.92-8.06,2.83-23,1.81-7.62-1.6,7.92-.86,3.17-1.47-2.07-3.25-18,.44-28-1.45l2.43-.19c-7.67-1.11-18.72,1.23-31.26,1,0,0,.61-.29.08-.49C179.13-2.54,162.9-2,150.84-1.53c3.76-1.27,5.48-.67,3.19-2-5.4.18,1.59,2.07-9.2,2.43-3.51-.69-11.3-1.3-12.33-2.68l10.18-.08c-5.22-1.78-13.18.07-18.54-.24l.69-.78c-15.6.25-15.82,2.21-32.59,2.07L94-2.18c-9.16,2-7.68-1.09-16.82.36l-2.77-2c-6,.48-21.17,1.91-32,2.28C48.52-3,61.2-3.73,69.05-4.6c-6,0-20.36.15-23.49,1.12C48-3.67,51-4.15,53.41-3.85c-7.35,1.55-17,2.31-29,2.28.69-1.25-2.4-1.79-7.17-2-2.38-.13-5.19-.19-8.16-.23L-4-4c0,2.37-.1,4.7-.15,6.93,0,1.13-.08,2.24-.12,3.32l-.07,1.6,0,.6,0,.5a28.86,28.86,0,0,1-1.09,6.4c1.42,21.12-.6,41.9-.37,66.51,3-8.72.08,7.19,3.14,5.68.19,5.73.14,7.92,0,8.43l-1.83,17.37c-.89,4.12-.67-5.45-1.36-4.92C-6.22,121-7.28,113.68-8.09,122c1.09-1.71,1.57,4.36,1.15,11.52l1.41-10.08c1.63,17.54-2.57,15.16-1,32.84l-1-5.59c.57,9.07,0,33.47,2.44,42.36-.35,1.61-1.19,3.72-1.41-.27-.37,21.68,2.61,48.27,1.1,65.12l-.75-1.65c.22,4.05,1.41,7,.66,12.11-.31-.26-.75-1.63-.79.24.25,2.14,1.31,10.75.87,16.11l-.84-4.58c-1,21.14,2.05,32.45,2.56,50.19-2.2-.05-2.92,16.59-3.27,24.9l-.31-.29c-.28,24.62,1.82,41.83,2.68,64.63-2.39,14.16-1,48-2.34,70.71.4-3.48,1.72.56,1.94,4.61-.45,5.34,1.53,14.76-.49,13.91l0-1.9c-2,4-1.46,15-1.51,23.56l2.64,1.41c-3.84,22.41,1.41,58.72-2,70.95.66,5.41.65,12.11,1.31,17.47L-6.36,620c-.36,15-.54,22.46-.2,41l-1-3.78c-.09,10.45,4.09,13.19,4.17,22.83l-2.11,2.9c0,18.22-1.83,36.67.09,54.68-.31-.3-.92-.83-1-3.78,0,8.58-1.43,33.18,1.47,30.07-.94.1-1,4.8-.69,10.71.14,2.95.38,6.2.62,9.33.13,1.57.26,3.1.38,4.55l.18,2.11c.05.72.11,1.17.16,2.27l-.35-.58a2,2,0,0,0-.34-.51l-.7-.77.16.77a3,3,0,0,1,.08.51l.08.59.3,2.15.51,3.45c.3,2,.55,3.63.75,5.37,2-.2,4.13-.36,6.69-.5l8.3-.38c2.75.18,2.41,1.12-1.24.76,9.16.73,7.14-1.32,18.25-.58L24,804c9.43.11,8.68-.37,13.87-1.4,5.92-.56,17.88.35,19.27,1.61,1.27-.77,6.43-1.8,12-1.44.74.48-1.28.78-2.3.92,15.77.95,23.44-1.62,34.28-.25.23.46.93.69,1.83.83-12.52,0-22.6-.11-21.66-.21,0,1.28,10.11,1.51,2.07,3.28,8.12-1,22-3.07,31.86-2.47a6,6,0,0,1,1.3.45l-1,.14a36.86,36.86,0,0,0,6.23-.2c3.15.21,5.15.36,8.17.38,1.16,1.06,11.59.57,16.64.63-.42-1.41,6.18-1.18,0-2.34.8.1-1,.16-4.31.22-.76,0-1.65.07-2.15.15l.35-.13-12.54.1a40.26,40.26,0,0,1,13.72-.54c2.59-.9,5.44-1.83,7-2.26,6.91,2,20.21,3,22.06,4.22,15.4-.78,36.28-.52,46-3.16,4.38-.34,5,.76,6.67,1.18-2.53.26-5.54.22-6.9.6,8.75-.68,25.93-.26,28-2.11,11,.83-6.2,1.7,9,1.4l-2,.56c29.82,3,48.48-4.71,81.55-.92-2.29-.23-3.44-.34-3.9-.65,37.69,1.67,77.68-1.57,114.88,1.08,10.57.53,11.72-.64,18.17-1.54l2.29,1.51,11-1.74c15.64-1.28,27.09,3.7,46.9,1.29l-2.56-1c7.12.2,22.54-.6,21.35.57a9,9,0,0,1,5.11-.52l.22.79,17.48-1.36c13.54.57-2.12,3.14,17.64,3.29,7.35-.3,20.93-2.3,18.17-2.83-3,0-7.58-.49-7.8-1.28l6.72-.41c1.22-2.33,6.39-4.71-10.11-6.34l-11.5,1.42-3.7-1.12,9.68-.08c-5.49-1.06-9-.12-12.87.53a11.51,11.51,0,0,0-4.82-1.25l-11.28,2.23c-1.37-.91,5.06-1.81-2.51-2.31-5.29,1,5.07,2-3.69,2.72-5.5-1.06-3.89-1.92-10.35-1-.9-.6.46-1,3-1.24-5.74.71-15.2.3-18.17,1.54-5.73-1.31-19.4.34-18.83-1.87a92.56,92.56,0,0,1-15.4,1.82c9.64-2.63-19.76-.15-17.21-3-7.14,2.37-25.78,1-38.42,2.37a9.66,9.66,0,0,1,3.21-.45c-7.11-.2-9.18-.91-13.75-1.36-.91,2-12,2.41-18,3.62-8.72-1.89,5.3-2.3,2.56-4.12.44,1.59-15.15,1.59-12.18,2.91-6.67-1.17-5.75-.57-9.19-2.19-1.17,2.45-6.21.41-11.74,1.92-9.65-1.21-2.48-2.3-13.08-1.55C355.31,792.89,364.74,792,364.74,792Zm-252.15,4.23v0l5.21-.08Zm-21.19,0c2.58.05,5.79.06,9.19.05.74.49-.06,1-2.19,1C99.56,797,94.56,796.69,91.4,796.28ZM136.22,806c-3.35.2-4.48-.08-4.94-.37,1.59,0,3.44-.07,5.87-.17.1-.05.3-.11.4-.17A3.42,3.42,0,0,1,136.22,806Z"/><polygon class="cls-2" points="6.41 598.8 6.06 598.83 6.37 600.68 6.41 598.8"/><path class="cls-2" d="M597.27,495.31a4.25,4.25,0,0,0-.36,1.53A6.15,6.15,0,0,0,597.27,495.31Z"/><path class="cls-2" d="M597,545.72l-.5,7.13C596.74,549.77,596.87,547.52,597,545.72Z"/><path class="cls-2" d="M596.25,584.48a1.85,1.85,0,0,0,.61.76v-.07Z"/><path class="cls-2" d="M568.2,5.4c-.53,0-1,0-1.5.06C563.19,5.73,565.58,5.63,568.2,5.4Z"/><path class="cls-2" d="M597.89,151.6c-.26-1.95-.51-3.87-.67-5.9C597.11,149,597.09,151.5,597.89,151.6Z"/><path class="cls-2" d="M363.4,7.09s0,0,0,0h-1.26Z"/><path class="cls-2" d="M597.25,137.17a51.76,51.76,0,0,0,0,8.53A78.28,78.28,0,0,0,597.25,137.17Z"/><path class="cls-2" d="M595.62,752.48l-.06,1.87c.09,0,.17.08.22.22Z"/><path class="cls-2" d="M595.78,754.57l.17,2.07A6.42,6.42,0,0,0,595.78,754.57Z"/><path class="cls-2" d="M596.3,761l-.35-4.37A14.54,14.54,0,0,0,596.3,761Z"/><path class="cls-2" d="M596.27,701.17l-.51-.59A.78.78,0,0,0,596.27,701.17Z"/><path class="cls-2" d="M596.12,685.58c-.12,3.71-1.09,9.33-.77,14.52l.41.48C595,698.14,597,689.11,596.12,685.58Z"/><polygon class="cls-2" points="596.6 231.22 595.81 236.49 596.98 239 596.6 231.22"/></g><g id="Layer_6" data-name="Layer 6"><path class="cls-3" d="M37.29,800.5C65.11,454.05,297.37,172.74,599.5,105.71V800.5Z"/><path class="cls-2" d="M37.29,793.18c-1.16,1-.51,3.09,2.7,2.67l2.28-3.64Z"/><path class="cls-2" d="M58.89,799.92c3.77-1.76,8.13-4.86,5.68-8.21-3.74,3.5-4.64,2-8.67,6.21-3.21.42-5.6-1.17-5.06-2.51-1.14.93-5-.8-6.72,1.48,4.18,2.82,9.47,2.94,15,.61C60.31,798.3,59.16,799.25,58.89,799.92Z"/><path class="cls-2" d="M102.17,791.14a9,9,0,0,0-2.82,1c.89-.16,1.76-.29,2.65-.39A5.12,5.12,0,0,1,102.17,791.14Z"/><path class="cls-2" d="M61.19,727.31a2.89,2.89,0,0,0-.54-.09C60.89,727.65,61.09,727.8,61.19,727.31Z"/><path class="cls-2" d="M36.49,800.44l-.06-1.07a9.41,9.41,0,0,0-1.7-.37Z"/><path class="cls-2" d="M103.87,791.55c.89,0,1.79-.06,2.7,0A10,10,0,0,0,103.87,791.55Z"/><path class="cls-2" d="M104.67,564.84a9.25,9.25,0,0,1-3.49,1.39C103.52,566.23,101.38,574.13,104.67,564.84Z"/><path class="cls-2" d="M102.2,792.88a2,2,0,0,1,1.67-1.33c-.64,0-1.26.09-1.87.16C101.83,792.17,101.8,792.61,102.2,792.88Z"/><path class="cls-2" d="M584,542.37l.45-9A80,80,0,0,0,584,542.37Z"/><path class="cls-2" d="M335.78,246.84l-1.35,1.54A3.13,3.13,0,0,0,335.78,246.84Z"/><path class="cls-2" d="M584,506.83a14.62,14.62,0,0,0,2.13-5,3.58,3.58,0,0,0-.79-1Z"/><path class="cls-2" d="M101.14,566.24a0,0,0,0,1,0,0A0,0,0,0,0,101.14,566.24Z"/><path class="cls-2" d="M89,623.4c1.22-4,.55-5.23-.62-5.77s-2.93-.39-3.75-1.58c2.1-9.88,4.32-3.49,7.38-6.08,1-6.23-1-12,.6-16.38.74-.11,1.26-.89,1.71.4a17.73,17.73,0,0,1,.55-6.16c.58-2.2,1.42-4.55,2.25-6.94,1.65-4.78,3.25-9.72,2.73-14.07a2.43,2.43,0,0,1,1.3-.58,8.14,8.14,0,0,1-5.62-.9c1.27-3.58.1-7.55,3.08-7.91-.9,2.15,0,2.73.42,4.05l.33-4.15c2.47-.94,2.21.42,1.79,2.19s-1.16,3.89.15,4.41c.4-1.92.69-4,1-6s.72-4.1,1.11-6.08c.8-4,1.77-7.62,3.42-10.15,3.92.32-4.22,13.26,1.91,7.26l-4.87,7.89c8.18-4.23-2.53,5,5.8,1.41,5.65-10.61,3.45-13.08,9.09-23.67-.86-3.32-3.16-.41-4-3.74,3.84-17.08,14.2-8.23,15-21.67-.43-2-1.6-3.82-1.86-6s.45-4.68,3.61-8.1l2.39,4.6c5.67-10.13-2.37-8.67,5.72-18.23.48,2.7-2.94,8.79-1.69,7.46,6.56-5.48.43-6.08,3.21-11.5l3.89.66c2.77-5.53,5.23-11.59,7.77-17.83,1.28-3.11,2.55-6.29,3.94-9.42s3-6.17,4.66-9.19c.55,1.22.33,3.83,3,1.68a130.45,130.45,0,0,1,6.37-11.71c1.2-1.93,2.36-3.89,3.72-5.74s2.71-3.7,4.11-5.51c2.8-3.64,5.69-7.18,8.56-10.6l4.3-5c1.43-1.64,2.94-3.17,4.37-4.7l1.09-7c.9-1.18,2.79-1.37,2.36.29,4.79-4.54-1.46-1.47-.66-4.75,2-3.13,4.36-2.86,3.77-.39,1.12-2.73,2.58-6,4.3-9.41s3.94-6.93,6.2-10.4a101.28,101.28,0,0,1,7.21-9.8,48.67,48.67,0,0,1,3.81-4.08,34.7,34.7,0,0,1,4-3.13l-.79,2.41c7.07-6.32,1.81-12.37,9.77-17.12l-.65,1.66c1.78-1.84,3.54-3.75,5.27-5.7s3.59-3.81,5.35-5.75l10.47-11.53c1.74-1.85,3.4-3.73,5.2-5.39s3.57-3.28,5.36-4.78a62.82,62.82,0,0,1,10.73-7.45c-.3-1.35.54-2.84,1.9-4.39a24,24,0,0,1,2.37-2.35l2.79-2.31c3.75-3.1,7.18-6.22,5.45-9A91.5,91.5,0,0,1,301.26,275a50,50,0,0,0,4.62-2.33c1.95-1.07,4.44-2.58,7.89-4.84,3.5-2.62,2.29-7.31,6-11.38L322,259c1.11-2.49,2.16-5.06,3.34-7.5l5.63.71,3.43-3.82c-1.71,1.1-4.33,1.48-4.7.54,5.29-6.15,16.65-10.18,17.84-8.91,2.11-2.37,4.41-4.49,6.63-6.74l6.74-6.67c.46,1.35-1.8,3.57-3.29,5.73,6-8.67,3.56,1.83,9.09-6.12-1.44.09-.63-2-.86-2.72,2.46-.49,5.71-2.36,9.27-4.46a88.71,88.71,0,0,0,10.12-7.34l.07,2.76c3-1.79,5.92-3.76,8.89-5.83l2.24-1.58,2.3-1.52,4.65-3.1,9.48-6.36,4.85-3.16c.82-.52,1.63-1.05,2.47-1.54l2.55-1.42c-2.72.86-4.3.3-4.73-.83s.29-2.81,2.21-4.1l3.38,2.23c1.5-3.36-4.87,1.14-.88-4.16,5.34-2.47,5.43,1.66,3.09,4.29l5.59-4.5c.88.73-.3,2,0,3.43,1.49-3.35,12.34-2.74,14.21-8.11l.85.77c6.94-3.43,11.85-6.2,16.43-8.85l6.84-3.93c2.38-1.24,4.91-2.46,7.78-3.79-1-2.92,3.76-4.31,6.22-8.14,2.24-.72,4.57-1.39,7-2.06l3.63-1,3.78-.89a102.81,102.81,0,0,0,15.46-4.89c6.8-4.33,1.22-3.29,3.89-6.32.38.61,1.32.79,2.43.78a32.21,32.21,0,0,0,3.55-.2c2.22-.19,3.64-.21,1.24,1.68,6.29-2.4,10.31-3.93,14.69-5.82,2.19-.94,4.47-2,7.17-3.27l9.84-4.33c-2.12-.57-4.28-.46-3.52-1.69,2.86-1.32,7.15-.87,7.1.56l-.71.51a44.24,44.24,0,0,1,10-3.84q1.34-.36,2.7-.66l1.37-.29.69-.14.4,0a27.82,27.82,0,0,1,3,0,21,21,0,0,1,4.71.8,25.71,25.71,0,0,0,3,.85c-.55,1.87-.4,2,1.32,2.57l-.29-.11a5.55,5.55,0,0,1,.77.86l.38.56.19.31a1.09,1.09,0,0,1,.19.57l1.53,8.06c-.49,7.42-2.12-4.45-3.86,1,4.7,17.39-.68,27.48,2.45,41.8-8.31,11.08.59,39.34-4.72,54.3l2-.86c1.91,3.86-1.12,4.67-1.57,7.52,1.52-.4,1.76-4.19,2.82-1.79,2.36,32.76-2.86,67.62-4.63,101.21-.52,12.28,10.13,7,5.46,22.45l-3.63-4.39c4.35,24.79-.16,50.69,3.54,75-.84-1.45-1.93-1.49-1.91-3.86-2.64,5.13-.13,19,2,19-.24,3.78-1.94.88-3,3.21-1.56,5.14,3.37,12.9.74,15.63-.42.47-.85-1.44-1.06-2.38,1.28,3.35-.32,15.61,2.72,12.4-1.45,9.11,1.36,17.43-.45,24.69,3.41,4.74-1.63,15.59,3.18,17.1-5-.66-4,16-1.67,21.73-1.51-1.93-1.56,5-3.64,2.74.07,6.58,1,12.6,3.55,11.45-6,12.11,4.79,24.34-2.84,31.16,2.67,19.52,4.48,37.59,5.65,55.15-5-.63-.5-19.41-5.7-18.66,2,16.66,6.3,26.27,5.1,42.79-.68,4.28-2.15-2.42-3-3.87,2,16.64-.45,32.18,2.25,47-.46,0-1-1.64-1.34-3.14.16,2.92-.73,6.78,1.52,6.45l-.61-2.84c3.27-4.66,6.84,11.59,8.57,12.11-6.47-5-1.63,14.63-9.79,6.76.42,1.92,1.49,4.33,3,3.89-.44,2.85-1.32,3.76-3,.87,1.23,10.45,3.63,6.74,3.58,16.21-1.1,0-1.52-1.95-2.8-2.93,2.12,4.8,4.26,9.62,3.33,17.62-.65-.48-1.51.45-1.49-1.94.16,6.88,1.58,12.74,2.7,18.76.13.75.26,1.51.4,2.27a3.16,3.16,0,0,0,.09.45l.09.38.18.76a32.2,32.2,0,0,1,.5,3.3,20.87,20.87,0,0,1-.35,6.79,9.81,9.81,0,0,0-2.19-2.73c-.44-.29-.65-.15-.8.11-1.3-.37-2.87-.45-4.53-2.68a15,15,0,0,1-2.5,1.22,18.11,18.11,0,0,0,2.19,2,8.9,8.9,0,0,0-2.67.4c-.47.13-.85.27-1.42.42l-2.44.44c-3.22.58-6.32,1-9.37.31l5.28-1.69-13.32.78,7.54,1.56c-7.19,2.12.77,5.2-8.69,4.05,1.92-.42-7.1-.05-10.81-2.47h0c-3.52,1.31-7.13,2.68-12.38,1.67-1.37-1.32,1.09-4.55.21-5.42-3.47,3.43-16.64.95-21,4.61,1.46-.86,1.54-3,1.06-3.46L514.76,796c-3.29-.89-3.78-1.32-3.24-3-9.9-.51,3.14,5.21-8.61,3,.93-.23.49-.65,2.41-1.07-11.8-1.17-22.8,1.77-33.64.4-3.2-4.14,9.47-1,5.81-4.5-15.63.75-32.37,5-47.5,4l2.82.45c-2.1,5.84-11.27-2.88-18.92-.13,1.88-.43,2.46-3.24,1.95-2.59-10.36-.93-21.18,1.44-36.88,3.27l2-1.5c-6.11-1.33-16.08-.77-22.68-1.45-2,1.5-5.73,1.25-3.43,3.43-20.34-8.53-38.79,4.58-56.84-2.53,2.16,0,5.15-1.31,3.43-1.32L286,793.79c1.22,2.55,2,1.54,5.24,3.52-1.94,1.51-6.28,2.68-10.09,2.68,6.91-1.69-.06-4.09-3-5.5.5.77-.53,1.63-.27,2.43-8-4.53-1.35,5.11-12.31,2.06l.58-1.33c-4.1.68-7.88,2.45-12.3,2.06-1.84-2.94,4.36-1.37,4.64-3.79-6.21.17-12.26,5.57-17.88,2.64,2.64-.82,6.43-.83,9.07-1.64-6.12-3.46-6.83-2.58-11.38-3.13l.45.08-10.52-1.56,2.68.93c-7.78,7.67-15.84,1.4-26.31,6.43,10.18-4.76,1.68-2.75,2.46-6.08-2.67-.93-6.74-2-5.58-2.9-5,2.68-8.27-2.12-15.25,1.81-.31-1.08-5.3-.11-4.18-2.8-6.44.84,1.52,1.87,1,3.21-9.92,3.66-23.32-4.44-37.59.58-12.31,2.07-14.58,5.69-26,7.49-3.86-1.71,3.15-3.9,3.15-3.9-6.21-1.58-10.89-1.29-16.75-.06,1.19-.94,0-1.73-1.82-2.94-4.7.28-3.15,3.91-9.35,2.33a16.69,16.69,0,0,1,4.7-4.31c-5.54,1-11,3-16.75,4-1.52-1.87,3.46-2.84,5.48-4.06-6.44.84-16.7,1.7-18.69,4.65l4.13,1.06c-2.35.14-1.21-2.54.53-3.08,5.52-2.32,8,1,8.28,2.1l-4.09.69c4.2,6.29,16.41-1,24.63-.65l-3.42,4.58,8.43-3.8c1.8,1.19,3,3.75-1,4.43,5.9,2.26,5.22-1.62,10.29.9.55.39.3.61-.22.79l5.76-1.36c-1.12,1,1,3.23-2.58,2.57,10.34,2.64,16.68-3.43,20.57,0l-.86.29c14.34-1.55,1.38-3.36,12.14-7.31l7.24,8.29,1.41-3.36c1.49.12,4.41.37,3.87,1.72,5.51-2.3-.94-1.46,2.26-3.63,7.12,3.06,19.64-1.43,21.25,3.91,2.55-2.55-6.82-2,.79-3.74,2.17,5.76,8.79-1,15.3,1.66-2,3-8.17,1.39-1.65,4,3.92-5,12.67,1.1,18.16.14.25-4,11.93-1.67,21.14-3-.58,1.35,17.33,2.2,25.9,3.64l-.25.68c1.66-4,10.5-3.28,16.93-4.12-.25,2.42-1.41,3.37-4.89,4.46l6.05,0c1.42-1.3,3.31-2,7.23-2.44l-1.52,3c8.06-.17,16.22-3.56,26.58-1.54.58-2.82-8.24-7.85,2.71-9.73.41,1.53.82,4.13-2.05,4.76.94-.21,3.35-1.27,5.24-.62l-4.38,2.56c4.72,1.13,2.47-2.14,6.24-1.9-.07,2.17,2.8,1.55,2.25,3.27-1,.21-3.29-.89-4.73,0,4.25.39,9.39,1.67,11.09,3.32-.37-1.23,0-2.92,3.12-3.21,8-.15,2.76,2.62,7.45,3.73,1.95-1.5,7.09.06,7.22-3.19,2.36,0,2.8,1.53,3.71,2.41,4.16-1.43,19.46-.41,14.77-3.86l-1.07-.23c.2-.07.43-.07.68-.14h0c13.66-3.23,28.37,1.84,41.93.45l0,1.08c8.1-1.24,18-.73,23.79-3.07,2.39,0,5.65,2,4.62,3.28,6.19-.81,6.88-2,15.81-.24-6.21,1.89,2.15,1.68-6.37,1.39,8,.93,9.86,2.67,18.49-.3-2.94,2.78,6,3.51,9.87,2.67l-5.64-2a74.22,74.22,0,0,1,11.87.08l-2.06,3.66c16.44,4.46,29.65-7.57,42.17-.12,4.35-2.56-8.93-1.8-5-4.8,7.56.5,15.45,5.75,17.81,5.76,10.37,2,9.67-5.35,20.51-4-1.38-1.3-2.69-4.79,5.41-6,7.57.48,9.31,5.48,4.53,6.52-1.82.11-2.69-.3-2.62-.74-2.44.47-5.65,1-2.66,2.45l1-1.31c3.75,1.33,14.17,1.19,11.72,3.33,5.72-1.24,2.45-2.14-1.79-2.81a48.08,48.08,0,0,0,6.62.82l1.5.07,2.17,0,4.57,0c3,0,6.05-.08,9.34,0s6.87.16,11.19.47c-3.28-.72-6.65-2.25-4.29-2.24l4,.26a49.68,49.68,0,0,0-.1-8.39,11.21,11.21,0,0,0-1-3.71c-.86-1.81-1.89-3.32-2.15-9.43.49-1.74,1-2.49,1.55-2.77A2.29,2.29,0,0,1,608,785c.36,0,.62-.21.67-1.39a8.66,8.66,0,0,0,0-1c0-.28,0-.6-.07-1-.08-.76-.22-1.73-.43-3,1.35-6.11,3.46-1.29,4.53,1.13-2.52-9.11,1.65-17,2.11-22.22l1.06,4.8a33,33,0,0,1-.61-7.61l-2.61,2.74c.46-2.82.47-5.21,1.56-5.15-1.71-2.91-4.35,2.22-6.68-3.54,1.32-3.76-1.43-11.44,2-12.74-1.18,11.82,3.48-1.3,4,8.7a19.56,19.56,0,0,1,.07-7.11c.38-.42.71.4.91,1.17,3.1-11.3-3.92-5.2-3.84-16.91,2,1.49,3.71-2.72,3.29-4.63,0,4.72-3.26,2.26-4.75-2.07,1.52-7.51-1.13-8.16-1-12.1l-.71,4.49c-2-1.52-1.7-5.27-2.31-10.51,1.52-.45,1.05,4.76,1.71,2.89-3.43-5.82,3.56-13.14,1.25-21.25,1.32-3.75,3.66-.36,4.56-3.66-2.53-9.08,2.68-9.84.58-19.38-2.62,2.75-2,3.23-4.54-3.5l1.85,15.7-3.82-10.07c0,4.74,1.65,10,1.21,12.83-2.14-4.8-1.49-4.3-3.67-2,3.94-6.48-2.29-12.85.37-20.34l6.49.23c2.9-11.27-3.33-20-1.7-34.65l-1.13,4.7c-2.58-2-.36-9-1.4-13.77,2.17.44,3-2.52,4.31-4.54-1.61.25.15-10.71-4.19-12l2.86-6.53c1.17-11.81-6.19-13.48-5.45-24.83,2.36,3.42,3.9-1.74,5.59,5.86,0-3.79.42-7.2-1.08-7.26,1.35-2.21-2.93-10.51-.87-14-1-1.59-3.23-2.12-3.05-6.37.44-.47,1.07,0,1.07,0-1.07,0-1.45-6.66-3.86-2.94,6.78-11.68-.49-32.64,5.33-42.81-.73-8.27-1.43-18.24-1.59-25.75.65.48,1.09,0,.86,1.44,2-10.36-6.24-6.37-4-18.16,3.51-6,1.9,6.26,3.23,2.51,7.14-1.64-1-14.23,3.19-22.17l.43,1.92c2.42-6.06-2.71-14.79-2.2-24.7,0,0,.63.48,1.08.05-3.65-6.77-4.85-19.6-5.86-29.13,2.79,3,1.48,4.33,4.32,2.52-.41-4.28-4.57,1.25-5.36-7.28,1.53-2.77,2.87-8.93,5.9-9.74l.16,8c3.93-4.12-.13-10.41.55-14.65l1.72.54c-.56-12.33-4.88-12.5-4.57-25.75l-1.3,1.37c-4.28-7.24,2.41-6.07-.78-13.3l4.35-2.18c-1.05-4.78-4.2-16.74-5-25.31,3.22,4.85,4.87,14.88,6.78,21.09,0-4.74-.32-16.1-2.46-18.57.42,1.91,1.48,4.31.81,6.2-3.41-5.81-5.09-13.46-5-22.9,8.42,1.68,2.13-24.6,8.66-31.45-3.11-16.69,1.33-33.12.83-52.57-6.55,6.9-.18-5.68-6.91-4.49-.43-4.53-.32-6.26.12-6.66l4-13.73c2-3.26,1.48,4.31,3,3.89.51-9.92,2.85-4.16,4.64-10.73-2.41,1.35-3.45-3.45-2.53-9.1l-3.1,8c-3.58-13.86,5.64-12,2.1-26l2.11,4.42a62.55,62.55,0,0,1-.57-6.51c0-.65-.06-1.33-.09-2l-.1-3.91c-.08-2.67-.16-5.43-.24-8.22-.39-11-1.13-22-3.1-26.29a43.69,43.69,0,0,0-4.44,2.39,1.28,1.28,0,0,1-.86-1.5c.24-.7,1.28-1.55,4-2.47-6.62,1.42-14.11,3.52-21.42,5.78-3.66,1.13-7.29,2.3-10.82,3.47L573,99.45l-2.55.85-1.25.42-.63.2-.31.11-.21.09c-8.57,3.68-16.68,6.91-23.67,7.23l.78-1.94c-3,1.38-4.52,4.49-8.87,4.28,0-.71.74-2-.72-1.59-1.47,1.11-7.28,5.55-11.67,6l2.89-3a50.64,50.64,0,0,0-11,3.56,45.27,45.27,0,0,0-4.5,2.34c-1.4.88-2.73,1.79-4,2.71-5.22,3.7-9.92,7.64-16.3,10.76-.45-1.12-1.6-1.75-3.18-2a13.79,13.79,0,0,0-2.66-.18,24.63,24.63,0,0,0-3.05.33,96.44,96.44,0,0,0-12.32,3.2l-.07-.72a120.56,120.56,0,0,0-12.61,6.05c-3.78,2.28-7.26,4.67-10.67,7.1l-20.83,15.11a37.31,37.31,0,0,0-11,3.08,105.56,105.56,0,0,0-13.22,6.6c-4.56,2.62-9.27,5.41-13.92,8-2.33,1.3-4.64,2.53-6.91,3.67s-4.39,2.34-6.5,3.3c2.81-.82,1.67,3.42-.76,5.62-4.12,1.57-8,9.35-9.9,5.3l1.32-.78c-2.56-.9-5.54.12-8.59,1.83s-6,4.35-8.86,6.33l2.47,5.38a39.29,39.29,0,0,0-14.11,6.32,56,56,0,0,0-6.49,5.08c-2.09,1.82-4.12,3.7-6.09,5.55a147.52,147.52,0,0,1-11.19,9.88c-3.45,2.71-6.63,4.61-9.74,4.76-2.36,3.94-6.45,7.44-8.75,11.34l-1.89-2.49a149,149,0,0,0-12,9.76c-3.65,3.25-7.42,6.9-12.63,12.26l.69-3.69a10.14,10.14,0,0,0-3,4.6,22.05,22.05,0,0,0-.73,5.13c-.2,3.46-.3,6.88-2.94,9.68L256,285.29c-5.1,5.25-11.13,9.67-16.36,14.85s-10.27,10.55-13.57,17.28c-.35-.63-1.07-1.83.4-3.71-2.46,2.44-7.28,7.1-10.84,11.3s-5.7,8.06-2.44,9.15c-1.64-1.27-4.17,1.56-6.73,5.59a146.46,146.46,0,0,0-6.58,13.15L198.24,350c-1,7.67-.31,8.48-5.14,16.42-1.67,1.49-3.15,0-.72-1.79a9.19,9.19,0,0,0-2.69,3.13,10.09,10.09,0,0,0-.8,2.63c-.37,1.75-.85,3.64-4.1,6.74l.35-3.83c-4.6,6-3.4,6.11-4,10.78a21.53,21.53,0,0,1-5.51,7.17c-2.37,2.14-4.78,3.72-6.24,3.39.82,1.8.42,6.49-2.7,9.72-1.2-.08-.85-1.78-.66-2.64-4.36,4.67-6.21,9.06-7.87,13-.87,1.94-1.56,3.83-2.54,5.56a16.26,16.26,0,0,1-4,4.77,2.26,2.26,0,0,0-2.32.28c2.66-4.24,5-8.09,6.82-10.71s2.91-4.07,2.8-3.69c-2.37-1.55-7.29,5-7-2.55-.44,1.67-1,3.6-1.45,5.79s-1,4.48-1.71,6.77c-1.33,4.58-3.1,9.05-5.73,12.08a3.92,3.92,0,0,1-1.39.38l.16-.86a11,11,0,0,0-2.22,4.5c-.86,1-1.57,1.74-2.23,2.53a21.92,21.92,0,0,0-1.83,2.68c-2.48-.36-5.66,7.5-7.74,11,2.86,1.22-.16,5.59,4.49,2.52-.5.44,0-.85,1.25-3.25a8,8,0,0,0,.57-1.66c0,.11.07.24.1.38,1.22-2.36,2.85-5.4,4.73-8.85-.21,3.58-.68,7.12-4.35,10.15.71,2.79,1.39,5.76,1.6,7.33-3.22,1.34-6.65,4-9.65,6.44L124.45,468c-.67.54-1.3,1-1.88,1.46a6.26,6.26,0,0,1-2.93,1.4c-2.06,5.9-5.12,12.5-7.46,18.81-.59,1.58-1.13,3.14-1.59,4.66a38.18,38.18,0,0,0-1,4.51,21.83,21.83,0,0,0-.1,8c-.79,3.48-3.2,2.92-4.58,3.72.33-2.07,1.42-4.21,1.13-5.56-.81,3.49-2.86,8.25-4.35,12.53a32.47,32.47,0,0,0-1.56,5.84c-.22,1.69,0,3.06.77,3.85-5.09,7.36-1.5-6.06-5.59,5.35l-.5-2a44.05,44.05,0,0,0-7.58,14.75,60.35,60.35,0,0,0-1.76,7.5c-.4,2.53-.72,5.07-1,7.62a88.79,88.79,0,0,1-3,15.45,61.75,61.75,0,0,1-3.19,7.91A51.17,51.17,0,0,1,73.25,592c1.06-1.57,1.58-2.35,2.34-2.48a174.8,174.8,0,0,0-8.3,21.26c-2.16,7.37-4,14.9-5.86,22.37L60,638.77l-.73,2.79c-.24.93-.44,1.87-.66,2.81-.88,3.73-1.82,7.44-2.86,11.11s-2.18,7.28-3.47,10.84c-.64,1.79-1.32,3.55-2,5.3s-1.37,3.52-2.12,5.25c-2.92,8-.58,9.45.27,14.87l-3.63,1.11,1.91,9.35a22.91,22.91,0,0,1-1.61,8.7c-1,2.7-2.44,5.29-3.8,8a42.88,42.88,0,0,0-3.44,8.74A26.77,26.77,0,0,0,37,732.7a21.68,21.68,0,0,0,0,2.79,27.59,27.59,0,0,0,.41,3l2.49-1.68c-1.19,5.55-1.14,17.93-3.56,16.65.33.63,2.06,2.14.6,4.18l-1.75-.06.54,7.08c.09,1.18.16,2.35.28,3.53l.4,3.54c-2.31,10.58-6.69-2.46-8.59,13.24.08,5.94,3.39,17.07,4.77,15,.32-2.34,1.67-5.9,3.43-5.92l.37,5.37c5,1.4,9.85,5.77,14.68-6.7l-2.23-9.22,2.75-2.62L51,788.34c2.75-4,1-6.91-.15-10.09A5.75,5.75,0,0,0,54,774.81l-2-4.65c-.65-1.55-1.23-3.1-1.85-4.66,2.14-.81,3.41,4.38,5.31-1.32-1.69-4.36-5,3.37-5.54-3.59,2.89-4,4.6-2.46,3.31-7.72,1.41-.52,2.09.65,2.4,2.7-1-4.65.94-11.82-1.43-14.52A10.24,10.24,0,0,0,56,737c.42-1.57.69-3.29,1-4.84.61-3.12,1.36-5.58,3.71-5-.9-1.57-2.39-8.41-1.87-12.52,2.2,4.23,2.95.45,3.87-4,.23-1.11.47-2.27.75-3.34a18,18,0,0,1,1.08-2.88c.81-1.62,1.84-2.49,3.26-1.7-2-3.22-1.49-8.24-.61-13.73.44-2.75,1-5.61,1.37-8.42.19-1.41.33-2.81.43-4.18a29.53,29.53,0,0,0,.14-4c.26.63.81,1.88.34,2.66,1.79-5.27,3.71-6.46,5.54-9.66-4-1.73-2.83-10.35-4.24-15.57,5.69-5.52,3.87,5.32,8.25,4.26-1.73-.28-1.84-3.35-1.95-6.18s0-5.37-1.78-4.65c4-4.3,2.47-4,6.66-5.55-4.92-2.37.48-4.88-1.47-10,4.67-6.45,5.37-.38,6.14-8.77C89.23,615.83,89,623.4,89,623.4Zm71.5-182.35,0,0c-.82,1.49-1.53,2.75-2,3.56Zm8.61-14.16c-1.16,1.65-2.49,3.79-3.86,6.06-1.21-.06-1.81-1.18-.89-2.58C164.48,431.53,167.05,428.51,169.1,426.89Zm-36.64,19.39c.94-2.57,1.9-3,2.63-3.06-.57,1.14-1.21,2.49-2,4.29.06.13.1.33.17.47A3.8,3.8,0,0,1,132.46,446.28Z"/><path class="cls-2" d="M133.61,452.5a6.81,6.81,0,0,1-.34,1.07,14,14,0,0,0,1.39-1.05c-.13-.44-.25-.89-.38-1.3Z"/><polygon class="cls-2" points="322.55 259.57 322.03 258.99 321.38 260.45 322.55 259.57"/><path class="cls-2" d="M278.13,794.49a2.18,2.18,0,0,0-1.21-.79C277,793.9,277.49,794.18,278.13,794.49Z"/><path class="cls-2" d="M238.28,793.79l-5.64-1.1A42.14,42.14,0,0,0,238.28,793.79Z"/><path class="cls-2" d="M207.64,792.26a3.55,3.55,0,0,0-.6,1.33h.06Z"/><path class="cls-2" d="M587.63,705.23a7.32,7.32,0,0,0-.14-1.19C586.89,701.27,587.12,703.15,587.63,705.23Z"/><path class="cls-2" d="M549.81,795.85a36,36,0,0,1,4.66-1.46C551.89,794.15,549.88,794.09,549.81,795.85Z"/><path class="cls-2" d="M583.9,543.35H584c0-.34,0-.65,0-1Z"/><path class="cls-2" d="M561.21,794.44a14.62,14.62,0,0,0-6.74-.05A22.4,22.4,0,0,0,561.21,794.44Z"/><path class="cls-2" d="M74.85,790.85l-1.47-.12a.67.67,0,0,1-.18.5Z"/><path class="cls-2" d="M73.2,791.23l-1.64.36C72.31,791.59,73,791.57,73.2,791.23Z"/><path class="cls-2" d="M68.11,792.37l3.45-.78C70.37,791.58,68.89,791.49,68.11,792.37Z"/><path class="cls-2" d="M115.41,792.29l.46-1.13A1.69,1.69,0,0,0,115.41,792.29Z"/><path class="cls-2" d="M127.74,792c-2.94-.25-7.38-2.39-11.48-1.69l-.39.89C117.8,789.5,124.94,793.85,127.74,792Z"/><polygon class="cls-2" points="486.87 793.02 482.71 791.27 480.73 793.85 486.87 793.02"/><polygon class="cls-2" points="340.3 210.24 342.39 207.28 337.72 211.88 340.3 210.24"/></g><g id="Layer_7" data-name="Layer 7"><g class="cls-4"><path class="cls-5" d="M600,249.06C383.16,339.29,217.15,544.68,162.67,798l-56.25-.69c45-294.62,239.16-533,493.39-616.66Z"/></g><line class="cls-6" x1="599.81" y1="180.66" x2="599.5" y2="82.5"/><line class="cls-6" x1="600.5" y1="396.5" x2="600.03" y2="249.06"/><line class="cls-6" x1="106.42" y1="797.32" x2="38.5" y2="796.5"/><line class="cls-6" x1="368.5" y1="800.5" x2="162.67" y2="798.01"/></g></svg>