<svg xmlns="http://www.w3.org/2000/svg" viewBox="0 0 600 800"><defs><style>.cls-1{fill:#484d9e;}.cls-2{fill:#f2b526;}.cls-3{font-size:297.57px;fill:#fceecd;stroke:#f0aa07;stroke-miterlimit:10;stroke-width:21px;font-family:CenturyGothic-Bold, Century Gothic;font-weight:700;}.cls-4{fill:#f0aa07;}</style></defs><title>monopoly-boards-</title><g id="BG"><rect class="cls-1" x="9" y="9" width="582" height="782"/><path class="cls-1" d="M582,18V782H18V18H582M600,0H0V800H600V0Z"/></g><g id="Layer_2" data-name="Layer 2"><path class="cls-2" d="M596.67,800c.43,1.47,1.41.64,1.22-3.42l-1.66-2.88Z"/><path class="cls-2" d="M599.74,772.68c-.8-4.78-2.21-10.29-3.73-7.2,1.59,4.73.92,5.88,2.82,11,.19,4.07-.53,7.09-1.14,6.41.42,1.44-.37,6.31.67,8.5,1.28-5.29,1.33-12,.28-19C599,770.88,599.43,772.33,599.74,772.68Z"/><path class="cls-2" d="M595.75,717.92a27.09,27.09,0,0,0,.43,3.57c-.07-1.13-.13-2.22-.17-3.35A1.69,1.69,0,0,1,595.75,717.92Z"/><path class="cls-2" d="M503.52,793.4c-.07.1,0,.17,0,.25C504,793.51,504.16,793.41,503.52,793.4Z"/><path class="cls-2" d="M595.93,715.76c0-1.12,0-2.26,0-3.41A33.66,33.66,0,0,0,595.93,715.76Z"/><path class="cls-2" d="M286.8,794.08a12.54,12.54,0,0,1,3.29,1.26C289,794.34,299.47,794,286.8,794.08Z"/><path class="cls-2" d="M596.54,717.88a3.48,3.48,0,0,1-.61-2.12c0,.82.05,1.61.08,2.38C596.22,718.34,596.41,718.39,596.54,717.88Z"/><path class="cls-2" d="M362.16,7.06l-11.33-.2C354,7,358.11,7.06,362.16,7.06Z"/><path class="cls-2" d="M5.72,575.2l.17,2.6A10.71,10.71,0,0,0,5.72,575.2Z"/><path class="cls-2" d="M317.2,7.06a42.54,42.54,0,0,0-6.38-1,6.26,6.26,0,0,0-1.31.37Z"/><path class="cls-2" d="M290.11,795.36l0,0Z"/><path class="cls-2" d="M364.74,792c-10.79,0-5.07,1.81-7.36,2.87-12.88.52-6-1.36-10.35-2.31-8,.49-14.21,2.19-20.21,2.11-.45-.3-1.62-.41-.25-.79-8.51,1.47-25.25.07-35.16,1.91a3.63,3.63,0,0,1-1.3-.45c1.61.92,1.86,1.86,1.53,2.53-4.84,0-9,1.17-10.81,0a10.1,10.1,0,0,0,4.61-.83l-5.08.53c-4.56-1.74,6.93-.6,6.93-1.89-9.89.57-21.42,2-29,1.51-1.59-1.7,17.72-.57,7.6-2.08l11.73.65c-9-2.68,7.12.19-1.11-2.68-15.43-.49-17.26.87-32.65.37-3.46.94,1.15,1.4-2.32,2.34-21.87,1.7-17.22-4.27-33.3-2-4.16,1.13-5.78,3.28-17.23,2.15l3.9-1.92c-14.93-.19-8.52,2.76-24.17,1.46,2.78-.75,11.74-.63,9.48-.86-10.13-1.52-7.17,1.09-15,1.09l-1.61-1.7c-15.9.27-33.42,1.49-51,1.8,1-.5,4-1-.13-1.55-22.21.85-47.42-.21-68.85-1.22l-8.18,1.47c-1.91,0-3.54-.66-1.47-1-8.36-.56-.44.93-4.45,1.51-4.75.1-6.28-.85-3.27-1.29-3.43.29-7.53.59-12,.86l-3.43.2-1.75.09-.89.05H8l-.17,0c-.92.12-2,.22-3.08.3l-.13-1.71,0-.91,0-.46,0-.68c0-2.81-.06-5.58,0-8.26,0-5.36.26-10.35.68-14.5l.43,3c.6-12.09-3-13.64-1.64-24.85l.26,2.15c.64-26.24-.7-55.24,1.51-75.27-2.11-3.8.94-26-2-27.65,1.46-15,2-10.7,3-31.8C6.8,608.74,4.82,606,4.52,599l1.54-.17-1.62-9.46,1.84-5-.39-6.54c-.09,2.61-.69,5.54-1.14,5.14-.69-10.21,1.08-24.89,1.87-25.14L5.31,533.65c.62.54.84,4.58,1.23,7.78-1.57-12.89,1.62-2.34.18-14.16-.35,1.59-.91-.85-1.23-1.12.94-5.89.94-19.3.55-29.21l1.06,1.9c.27-17.92-.51-37.77-.49-57.87-.49,7.21-2.33,5.55-2.51-.34l1.63-2.36c-1-3.81-.62,6.16-1.85-1.66.19-7.51,1.85-5.05,2.38-.73l-.56-9.14c.48-.53.74,1.61,1.36,2.17-1-3.75,1.64-15.76-.12-21.17l.48-.51c0-20.1-.54-29.22-.62-45.59-1.41-.32-1.1-6.72-2.24-11.6C5,338,6.12,324.65,6,310.16c-.7-10.19-1.19-3-2-7.56,1.28-.75,1.16-15.23,2.08-7.72-.2-17.4-.25-22.22-1.29-44.22-.53,2.38-.75,5.07-1.19,3.68-.21-4,.54-9.09,1.15-8.51l.13,1c-1.92-24.7,3.74-57,1.07-76.68l.13,1.11-1.39-20.4c.22-9.38,1,5.63,1.75-1.31-2.13-22,.31-34.77-1.11-52.89C9.08,82.69,5,47,7.45,28l-.89,1.09c-.88-4.89.5-5.92.71-9.52-.69.51-.8,5.3-1.28,2.26-.1-3.59-.16-7.2-.21-10.84,0-1.75,0-3.52-.07-5.3l7.41.07L26.35,6c8.84.17,17.73.41,26.63.66,17.8.52,35.64,1.12,53.2,1.45,15.55.24,8.82-4.6,28.42-2.48L129,7.26c31.37-2,64.13.07,94.84-1.61C222,6,222,6.53,219,6.52c6.48,1.2,24,.06,24.09-.92,4.78.11,1.11.88,4,1.38,6.51.71,16.33-1.53,19.79-.34.58.2-1.83.39-3,.49,4.24-.59,19.75.14,15.69-1.24,11.52.66,22-.62,31.23.2,6-1.54,19.73.75,21.63-1.44-.82,2.26,20.21,1.82,27.49.76-2.44.68,6.34.71,3.48,1.65,8.32,0,15.94-.45,14.49-1.61,15.31,2.71,30.79-2.18,39.41,1.29,24.7-1.21,47.56-2,69.78-2.57-.81,2.26-24.56.23-23.61,2.6,21.08-.93,33.24-2.87,54.14-2.32,5.41.3-3.08,1-4.9,1.36,21-.93,40.71.2,59.45-1,0,.21-2.07.44-4,.61,3.69-.08,8.58.33,8.17-.7l-3.6.28c-5.9-1.49,14.66-3.11,15.32-3.89-1.56.73-1.19,1.15.09,1.41a23.35,23.35,0,0,0,2.49.31l1.42.11,1,.1c1.28.14,2.36.31,2.5.67.08.18-.08.41-.47.71s-1,.67-1.69,1.14a13.14,13.14,0,0,0,1.51-.45.61.61,0,0,0,.92-.16,3.24,3.24,0,0,1-.48,1.77c-.22.22-.51,0-.9-.31.07.47.14.89.23,1.27l.06.29,0,.13c0,.12,0,.24,0,.36l.13,1.32c.18,1.61.37,2.63.54,3.62a49.39,49.39,0,0,1,.59,9.79c-.5,0-.69-2.46-1.27-3.7a98.61,98.61,0,0,1,1.52,22.29c-.3-.61-.69.57-.69-2.45C595.78,56.7,598.21,69,597.28,88c-2.16-5.63-.71,6.49-2.58,7.5l.56,10.26.9-4.11c0,9,1.33,16.93.72,24.65l-.77-6.68.35,16.85.71-9.54c1,9.1,2.36-1,1.84,11-.19-2.43,0,9-1.12,13.68v0a69.87,69.87,0,0,1,.75,15.66c-.59,1.73-2.06-1.39-2.46-.26,1.56,4.38.43,21.05,2.1,26.6-.39-1.85-1.37-1.95-1.57-1.34l1.26,3.68c-.4,4.17-.6,4.78-1.38,4.1-.23,12.52,2.37-4,1.35,10.88a27.67,27.67,0,0,1-.49-3c-.53,14.93.81,28.85.18,42.56-1.87,4.05-.46-12-2-7.35.34,19.78,2.25,41,1.81,60.09l.21-3.56c2.65,2.65-1.31,14.25-.06,23.93-.2-2.37-1.48-3.11-1.18-2.47-.43,13.11.65,26.8,1.49,46.66l-.69-2.46c-.6,7.72-.35,20.34-.66,28.69.68,2.47.57,7.24,1.56,4.34-3.88,25.73,2.08,49.08-1.15,71.9,0-2.72-.59-6.5-.6-4.33l.63,19.44c1.16-1.53.7-2.55,1.6-6.63a59.3,59.3,0,0,1,1.22,12.77c-.77-8.75-1.86.07-2.5,3.85.35-.63.74.66,1.1.34-2,10.16,2.33,1.7.94,15.57l-.61-.73c.31,5.19,1.12,10,.94,15.56-1.33,2.33-.62-5.52-1.72-5.88.08,7.86,2.53,15.51,1.2,22.63-.37-3.34-.38-8.14-.75-11.48-1.57,7.75-1.17,8.65-1.42,14.4l0-.56-.71,13.31.42-3.39c3.49,9.83.64,20,2.92,33.28-2.16-12.88-1.25-2.13-2.76-3.12-.42,3.39-.9,8.53-1.32,7.06,1.22,6.27-1,10.46.82,19.3-.49.39,0,6.7-1.27,5.29.38,8.14.85-1.93,1.46-1.24,1.67,12.55-2,29.5.27,47.55.94,15.57,2.58,18.45,3.4,32.9-.78,4.87-1.78-4-1.78-4a118.21,118.21,0,0,0,0,21.2c-.43-1.5-.79.05-1.34,2.31.13,5.95,1.78,4,1.06,11.82a27.19,27.19,0,0,1-2-5.94c.45,7,1.36,13.93,1.8,21.19-.85,1.92-1.29-4.38-1.84-6.94.38,8.16.77,21.13,2.11,23.65l.48-5.23c.07,3-1.15,1.53-1.4-.66-1.05-7,.47-10.08,1-10.48l.31,5.17c2.86-5.31-.46-20.76-.29-31.16l2.08,4.33-1.73-10.67c.54-2.27,1.7-3.82,2,1.32,1-7.46-.74-6.61.41-13,.18-.71.28-.39.36.26l-.62-7.28c.44,1.43,1.47-1.22,1.17,3.26,1.2-13.08-1.56-21.09,0-26l.12,1.1c-.7-18.15-1.52-1.76-3.31-15.37l3.76-9.16L601.06,644c.05-1.87.16-5.57.78-4.89-1.05-7-.67,1.19-1.66-2.85,1.4-9-.65-24.85,1.79-26.88-1.16-3.24-.9,8.61-1.71-1,2.62-2.74-.44-11.12.76-19.35,1.35,2.53.63,10.33,1.84,2.09-2.29-5,.5-16,.06-23-1.82-.32-.76-15.1-1.36-26.75.61.74,1-21.93,1.65-32.77l.31.32c-1.84-2.1-1.49-13.28-1.87-21.42,1.1.32,1.53,1.78,2,6.19v-7.65c-.59-1.8-.9-4.19-1.11-9.16l1.38,1.93c-.08-10.19-1.62-20.52-.7-33.63-1.28-.73-3.57,10.43-4.42-3.43.69-.52,1.87-1,2.16,2.6a32.1,32.1,0,0,1-.28-6.63l1.16,5.54c.51-6-1-3.12-.86-7.9,1,.1.7-3.53,1.48-2.84.1,1.21-.4,4.16,0,6,.18-5.39.77-11.89,1.51-14-.56.47-1.33,0-1.45-3.94-.08-10.19,1.18-3.49,1.69-9.43-.68-2.47,0-9-1.45-9.14a9.15,9.15,0,0,1,1.1-4.68c-.65-5.27-.19-24.63-1.76-18.69L602,380c0-.26,0-.56-.07-.87v0c-1.47-17.28.84-35.89.21-53l.49,0c-.56-10.24-.33-22.78-1.4-30.09,0-3,.91-7.15,1.49-5.85-.37-7.83-.92-8.71-.11-20,.86,7.87.77-2.71.63,8.06.43-10.16,1.22-12.46-.13-23.38,1.27,3.72,1.59-7.65,1.22-12.49l-.91,7.13c-.18-5.44-.07-10.19,0-15l1.66,2.61c2-20.81-3.44-37.52-.06-53.36-1.16-5.5-.81,11.3-2.18,6.38.23-9.57,2.62-19.54,2.62-22.54.92-13.11-2.43-12.23-1.8-25.95-.59,1.76-2.18,3.41-2.73-6.84.21-9.58,2.48-11.77,3-5.72.05,2.29-.14,3.4-.34,3.3.22,3.1.47,7.16,1.11,3.37l-.59-1.25c.61-4.75.54-17.92,1.52-14.83-.57-7.23-1-3.09-1.28,2.27.85-12.28,0-19.19.6-31.83-.33,2-1,3.86-1,1.86.74-18.55-1.13-8.17-1.39-20.73.91-7.14,2.16,2.55,1.41-10.09.61-7.73,1.57-1.64,2,1.43-1.14-11.52.76-21.53,1-28.11l.47,6.07c-.28-3.63-.27-6.61-.27-9.63L606,34.31c.21-3.56.22-6.58.71-6.51-.78-3.68-2,2.81-3-4.48a80.84,80.84,0,0,0,.1-9.22,41.89,41.89,0,0,1,.11-4.35,9.58,9.58,0,0,1,.25-1.57,5.41,5.41,0,0,1,.47-1.47c0,1.13-.05,2.1-.07,3,0,.7,0,1.29,0,1.79a12.12,12.12,0,0,0,.11,2c.12.75.35.47.59.12.5-.7,1.09-1.69,1.22,4.64a69,69,0,0,1,0-9c.18-.54.33.5.42,1.48.09-.93.16-1.76.22-2.52s0-1.32.07-1.93,0-1.24,0-1.81c.05-2.3,0-4.08,0-5.48a23.58,23.58,0,0,0-.73-5.39c-1.78.31-3.62.64-6.43.9-1.4.13-3,.23-5,.31l-3.2.09c-.74,0-1.55,0-2.45,0,1.89-.88-3.43-1.68-5.85-1.49,6,0,2.86,1.48-2.62,2.16-9.5-.69-10.33.51-15.31.43l5.68.33c-1.92.89-6.67.77-13.3,1.05-.56-.69,6-.48,3.66-.78C554.2-1.85,544.94-5,534.68-4c-4.75-.6-.46-1.66-4.63-2.07-11.49,1.15-12.45-1.22-24.53-.27,3.48,1.2,4.09.91-4.42,2.07L521-5.09,508.22-3.36c6,0,12.65-.75,16.24-.54-6.07,1-5.45.67-2.58,1.66-8.2-1.79-16.26,1.05-25.74-.16l.29-3c-14.26-1.31-25.33,1.52-43.83.78l5.94.51c-2.48,1.17-11.42.16-17.42.64.56-1-3.19-1.35-5.74-2,.31.73-13.55-.07-15.23,1.9l-8.26-1.3C396.94-5.32,394.83-2,380.46-2.31c4.33-1.07-2.2-1.77,7.43-2.54-4.8,0-9.11-.19-9.19.49C375.9-5,365.4-3,361-4c-2,.43-2.68,1.46-8.07,1.38-.58-.2,0-.49,0-.49,0,.49-8.43.67-3.72,1.76-14.77-3.08-41.3.22-54.16-2.42-10.47.33-23.08.65-32.58.72.61-.3,0-.49,1.83-.39-13.11-.92-8.06,2.83-23,1.81-7.62-1.6,7.92-.86,3.17-1.47-2.07-3.25-18,.44-28-1.45l2.43-.19c-7.67-1.11-18.72,1.23-31.26,1,0,0,.61-.29.08-.49C179.13-2.54,162.9-2,150.84-1.53c3.76-1.27,5.48-.67,3.19-2-5.4.18,1.59,2.07-9.2,2.43-3.51-.69-11.3-1.3-12.33-2.68l10.18-.08c-5.22-1.78-13.18.07-18.54-.24l.69-.78c-15.6.25-15.82,2.21-32.59,2.07L94-2.18c-9.16,2-7.68-1.09-16.82.36l-2.77-2c-6,.48-21.17,1.91-32,2.28C48.52-3,61.2-3.73,69.05-4.6c-6,0-20.36.15-23.49,1.12C48-3.67,51-4.15,53.41-3.85q-11,2.33-29,2.28c.69-1.25-2.4-1.79-7.17-2-2.38-.13-5.19-.19-8.16-.23L-4-4c0,2.37-.1,4.7-.15,6.93,0,1.13-.08,2.24-.12,3.32,0,.54-.05,1.08-.07,1.6,0,.2,0,.4,0,.6l0,.5a28.86,28.86,0,0,1-1.09,6.4c1.42,21.12-.6,41.9-.37,66.51,3-8.72.08,7.19,3.14,5.68.19,5.73.14,7.92,0,8.43l-1.83,17.37c-.89,4.12-.67-5.45-1.36-4.92C-6.22,121-7.28,113.68-8.09,122c1.09-1.71,1.57,4.36,1.15,11.52l1.41-10.08c1.63,17.54-2.57,15.16-1,32.84l-1-5.59c.57,9.07,0,33.47,2.44,42.36-.35,1.61-1.19,3.72-1.41-.27-.37,21.68,2.61,48.27,1.1,65.12l-.75-1.65c.22,4.05,1.41,7,.66,12.11-.31-.26-.75-1.63-.79.24.25,2.14,1.31,10.75.87,16.11l-.84-4.58c-1,21.14,2.05,32.45,2.56,50.19-2.2-.05-2.92,16.59-3.27,24.9l-.31-.29c-.28,24.62,1.82,41.83,2.68,64.63-2.39,14.16-1,48-2.34,70.71.4-3.48,1.72.56,1.94,4.61-.45,5.34,1.53,14.76-.49,13.91l0-1.9c-2,4-1.46,15-1.51,23.56l2.64,1.41c-3.84,22.41,1.41,58.72-2,70.95.66,5.41.65,12.11,1.31,17.47L-6.36,620c-.36,15-.54,22.46-.2,41l-1-3.78c-.09,10.45,4.09,13.19,4.17,22.83l-2.11,2.9c0,18.22-1.83,36.67.09,54.68-.31-.3-.92-.83-1-3.78,0,8.58-1.43,33.18,1.47,30.07-.94.1-1,4.8-.69,10.71.14,2.95.38,6.2.62,9.33.13,1.57.26,3.1.38,4.55.06.73.12,1.43.18,2.11s.11,1.17.16,2.27l-.35-.58a2,2,0,0,0-.34-.51l-.7-.77c.06.27.11.52.16.77a3,3,0,0,1,.08.51c0,.2.06.4.08.59.11.76.2,1.47.3,2.15.18,1.26.35,2.39.51,3.45.3,2,.55,3.63.75,5.37,2-.2,4.13-.36,6.69-.5l8.3-.38c2.75.18,2.41,1.12-1.24.76,9.16.73,7.14-1.32,18.25-.58L24,804c9.43.11,8.68-.37,13.87-1.4,5.92-.56,17.88.35,19.27,1.61,1.27-.77,6.43-1.8,12-1.44.74.48-1.28.78-2.3.92,15.77.95,23.44-1.62,34.28-.25.22.46.93.69,1.83.83-12.52,0-22.6-.11-21.66-.21,0,1.28,10.11,1.51,2.07,3.28,8.12-1,22-3.07,31.86-2.47a6,6,0,0,1,1.3.45l-1,.14a36.86,36.86,0,0,0,6.23-.2c3.15.21,5.15.36,8.17.38,1.16,1.06,11.59.57,16.64.63-.42-1.41,6.18-1.18,0-2.34.8.1-1,.16-4.31.22-.76,0-1.65.07-2.15.15l.35-.13-12.54.1a40.26,40.26,0,0,1,13.72-.54c2.59-.9,5.44-1.83,7-2.26,6.91,2,20.21,3,22.06,4.22,15.4-.78,36.28-.52,46-3.16,4.38-.34,5,.76,6.67,1.18-2.53.26-5.54.22-6.9.6,8.75-.68,25.93-.26,28-2.11,11,.83-6.2,1.7,9,1.4l-2,.56c29.82,3,48.48-4.71,81.55-.92-2.29-.23-3.44-.34-3.9-.65,37.69,1.67,77.68-1.57,114.88,1.08,10.57.53,11.72-.64,18.17-1.54l2.29,1.51,11-1.74c15.64-1.28,27.09,3.7,46.9,1.29l-2.56-1c7.12.2,22.54-.6,21.35.57a9,9,0,0,1,5.11-.52l.22.79,17.48-1.36c13.54.57-2.12,3.14,17.64,3.29,7.35-.3,20.93-2.3,18.17-2.83-3,0-7.58-.49-7.8-1.28l6.72-.41c1.22-2.33,6.39-4.71-10.11-6.34l-11.5,1.42-3.7-1.12,9.68-.08c-5.49-1.06-9-.12-12.87.53a11.51,11.51,0,0,0-4.82-1.25l-11.28,2.23c-1.37-.91,5.06-1.81-2.51-2.31-5.29,1,5.07,2-3.69,2.72-5.5-1.06-3.89-1.92-10.35-1-.9-.6.46-1,3-1.24-5.74.71-15.2.3-18.17,1.54-5.73-1.31-19.4.34-18.83-1.87a92.56,92.56,0,0,1-15.4,1.82c9.64-2.63-19.76-.15-17.21-3-7.14,2.37-25.78,1-38.42,2.37a9.66,9.66,0,0,1,3.21-.45c-7.11-.2-9.18-.91-13.75-1.36-.91,2-12,2.41-18,3.62-8.72-1.89,5.3-2.3,2.56-4.12.44,1.59-15.15,1.59-12.18,2.91-6.67-1.17-5.75-.57-9.19-2.19-1.17,2.45-6.21.41-11.74,1.92-9.65-1.21-2.48-2.3-13.08-1.55C355.31,792.89,364.74,792,364.74,792Zm-252.15,4.23v0l5.21-.08Zm-21.19,0c2.58.05,5.79.06,9.19.05.74.49-.06,1-2.19,1C99.56,797,94.56,796.69,91.4,796.28ZM136.22,806c-3.35.2-4.48-.08-4.94-.37,1.59,0,3.44-.07,5.87-.17.1-.05.3-.11.4-.17A3.42,3.42,0,0,1,136.22,806Z"/><polygon class="cls-2" points="6.41 598.8 6.06 598.83 6.37 600.68 6.41 598.8"/><path class="cls-2" d="M597.27,495.31a4.25,4.25,0,0,0-.36,1.53A6.15,6.15,0,0,0,597.27,495.31Z"/><path class="cls-2" d="M597,545.72l-.5,7.13C596.74,549.77,596.87,547.52,597,545.72Z"/><path class="cls-2" d="M596.25,584.48a1.85,1.85,0,0,0,.61.76v-.07Z"/><path class="cls-2" d="M568.2,5.4c-.53,0-1,0-1.5.06C563.19,5.73,565.58,5.63,568.2,5.4Z"/><path class="cls-2" d="M597.89,151.6c-.26-1.95-.51-3.87-.67-5.9C597.11,149,597.09,151.5,597.89,151.6Z"/><path class="cls-2" d="M363.4,7.09s0,0,0,0h-1.26Z"/><path class="cls-2" d="M597.25,137.17a51.76,51.76,0,0,0,0,8.53A78.28,78.28,0,0,0,597.25,137.17Z"/><path class="cls-2" d="M595.62,752.48l-.06,1.87c.09,0,.17.08.22.22Z"/><path class="cls-2" d="M595.78,754.57l.17,2.07A6.42,6.42,0,0,0,595.78,754.57Z"/><path class="cls-2" d="M596.3,761l-.35-4.37A14.54,14.54,0,0,0,596.3,761Z"/><path class="cls-2" d="M596.27,701.17l-.51-.59A.78.78,0,0,0,596.27,701.17Z"/><path class="cls-2" d="M596.12,685.58c-.12,3.71-1.09,9.33-.77,14.52l.41.48C595,698.14,597,689.11,596.12,685.58Z"/><polygon class="cls-2" points="596.6 231.22 595.81 236.49 596.98 239 596.6 231.22"/></g><g id="Text"><text class="cls-3" transform="matrix(0.87, -0.49, 0.49, 0.87, -556.53, 787.99)">JAIL</text></g><g id="Layer_6" data-name="Layer 6"><path class="cls-4" d="M37.29,4.5C65.11,351,297.37,632.26,599.5,699.29V4.5Z"/><path class="cls-2" d="M37.29-1.49C36.13-.72,36.78,1,40,.7l2.28-3Z"/><path class="cls-2" d="M58.89,4c3.77-1.44,8.13-4,5.68-6.72C60.83.17,59.93-1,55.9,2.39c-3.21.34-5.6-1-5.06-2.05-1.14.76-5-.66-6.72,1.21C48.3,3.86,53.59,4,59.12,2,60.31,2.7,59.16,3.48,58.89,4Z"/><path class="cls-2" d="M372.75,8.67l-2-.35A7.48,7.48,0,0,0,372.75,8.67Z"/><path class="cls-2" d="M567.22,10.31c-1.48.07-2.1.37-2.18.64C566.42,10.75,567.55,10.57,567.22,10.31Z"/><path class="cls-2" d="M590.41,13.94l.09-.44-.29-.11a.37.37,0,0,0,.12.28C590.28,13.86,590.29,14,590.41,13.94Z"/><path class="cls-2" d="M372.75,8.67l5.2.94C378.31,8.64,375.28,8.89,372.75,8.67Z"/><path class="cls-2" d="M287,11.09h-1.57a8.76,8.76,0,0,0-1.32,1.21Z"/><path class="cls-2" d="M221.24,11.55c1.48.11,2-2.42,2.57-3.53a4.83,4.83,0,0,1-3.24,1.73A3,3,0,0,0,221.24,11.55Z"/><path class="cls-2" d="M116.91,7.1l-1.85.34C115.54,7.34,116.36,7.23,116.91,7.1Z"/><path class="cls-2" d="M334.11,11.64a1.89,1.89,0,0,0,.6.9A1.23,1.23,0,0,0,334.11,11.64Z"/><path class="cls-2" d="M35.18,82.12c.19,0,.28-.07.44-.08C35.3,81.7,35.1,81.62,35.18,82.12Z"/><path class="cls-2" d="M37.94,4.45l.24,1a6.45,6.45,0,0,0,1.44.11Z"/><path class="cls-2" d="M587.17,66.18c0-.12,0-.16.05-.27C586.93,64.31,587,65.22,587.17,66.18Z"/><path class="cls-2" d="M589,624c2.26-6.32,2.91,10.28,5.42.77C593.46,625.66,590.5,616.12,589,624Z"/><path class="cls-2" d="M594.45,624.77h0l.24-1C594.6,624.2,594.54,624.42,594.45,624.77Z"/><path class="cls-2" d="M588.69,206.19a4.16,4.16,0,0,0,1.11-1.43C589.54,204.81,589.22,205.13,588.69,206.19Z"/><path class="cls-2" d="M592.29,101.89l-.34,2.58A14.2,14.2,0,0,0,592.29,101.89Z"/><path class="cls-2" d="M592.26,260.34a8.71,8.71,0,0,0-.2,3.8,2.87,2.87,0,0,0,.3-.58A4.48,4.48,0,0,1,592.26,260.34Z"/><path class="cls-2" d="M592.27,316.71a9.14,9.14,0,0,0,.51-1c0-.56-.09-1.21-.13-1.79Z"/><path class="cls-2" d="M82.62,248.8a8.75,8.75,0,0,1,1.18-3.28C82.44,247,78.88,239.37,82.62,248.8Z"/><path class="cls-2" d="M321.52,576.06,319.7,575A3.84,3.84,0,0,0,321.52,576.06Z"/><path class="cls-2" d="M83.82,245.49a0,0,0,0,1,0,0A0,0,0,0,0,83.82,245.49Z"/><path class="cls-2" d="M58.49,191c1.19,4.17,2.25,4.9,3.33,4.74s2.09-1.21,3.29-.63c4.17,9.47-.81,5.27-1.31,9.13,2.89,5.86,7.35,9.56,8.76,14.14-.41.52-.3,1.47-1.29.66a22.8,22.8,0,0,1,3.08,5.43c1,2.13,1.94,4.51,2.92,6.91,1.94,4.82,4,9.73,7,12.83a2.36,2.36,0,0,1-.41,1.27,5.62,5.62,0,0,1,3.83-2.79c1.41,3.58,4.47,5.9,3,8.06-.77-2.23-1.65-2.09-2.68-2.88l2.31,3.43c-.75,2.25-1.57,1.1-2.35-.56s-1.68-3.77-2.76-3.35c.94,1.75,2,3.55,3.08,5.33s2.31,3.53,3.4,5.26c2.18,3.46,4,6.8,4.81,9.74-2.32,2.36-6.43-12.61-5.81-4.13l-2.55-9.07c-1.69,8.4-1.9-5.38-4.13,2.62,4,11.75,6.81,12.15,10.78,23.87,2.63,1.87,1.94-1.85,4.57,0,10.13,14.53-1.16,15.7,8,25.66,1.63,1.06,3.43,1.47,5.11,2.74s3.32,3.36,4.49,7.88l-4.51-1.23c5.15,10.81,7.53,3.81,11.17,16-2.21-1.34-5.3-7.81-4.84-6,1.29,8.49,4.36,4.2,7.19,9.73l-2.08,2.58c3.33,5.44,7.19,10.95,11.14,16.59l5.94,8.55c2.08,2.83,4.12,5.7,6.07,8.62-1.18-.19-3.26-1.75-2.34,1.54,2.65,3.6,5.19,7.43,7.63,11.4,1.24,2,2.36,4,3.63,6s2.46,4,3.66,6.05c2.4,4.05,4.69,8.16,6.9,12.21l3.23,6c1.07,2,2.21,3.86,3.27,5.75l6,3.79c.87,1.25.69,3-.69,1.95,3.11,6,1.56-.7,4.28,1.3,2.37,3,1.72,5-.34,3.48,2.18,2.06,4.75,4.62,7.44,7.47s5.76,5.81,8.59,9,5.55,6.42,7.9,9.62c1.19,1.6,2.25,3.2,3.24,4.72a44.9,44.9,0,0,1,2.63,4.38l-2.17-1.35c5.45,8.09,11.2,4.84,15.1,13.26l-1.47-1c1.59,2.09,3.24,4.17,4.92,6.24s3.56,4,5.37,6l10.8,11.71c1.77,1.91,3.42,3.88,5.15,5.7s3.35,3.65,4.9,5.46a79.84,79.84,0,0,1,7.92,10.76c1.21-.13,2.65.8,4.2,2.22.79.71,1.58,1.57,2.43,2.43l2.59,2.66c3.49,3.57,6.95,6.87,9.25,5.38,3.47,5,4.44,7.16,5.92,9.62a35.41,35.41,0,0,0,3,4.33c1.45,1.74,3.44,4,6.36,7.07,3.28,3.14,7.28,1.88,11.85,5.09l-1.68,2.21c2.56.89,5,1.85,7.64,2.66l1.06,5.08,4.56,2.7c-1.54-1.43-2.7-3.72-1.95-4.15,7.18,4.09,14.41,13.89,13.72,15.15,2.74,1.75,5.66,3.25,8.48,4.87l8.53,4.75c-1,.65-3.85-1-6.35-1.89,10,3.81-.2,3.48,9,7-.66-1.26,1.52-.94,2-1.27a32.4,32.4,0,0,0,7.79,7.19,115.13,115.13,0,0,0,11,6.85l-2.33.74c2.93,2.1,6,4.16,9.19,6.2l2.41,1.53,2.49,1.43,5.08,2.86L399.13,632l5.22,3,2.61,1.52,2.65,1.46c-2.32-1.78-2.75-3.25-2.08-4s2.43-.8,4.57.21l.2,3.46c3.56-.11-3.77-3.35,2.8-2.26,5.09,3.19,1.92,4.87-1.59,4l6.91,2.66c0,1-1.77.54-2.7,1.3,3.51-.16,9.71,8.76,15,8l0,1c7.25,3.62,12.63,6,17.68,8.24l7.52,3.3c2.59,1.05,5.32,2.15,8.34,3.46,1.28-2.2,5.75.4,10.15.11,2.11,1.16,4.26,2.42,6.47,3.73l3.35,2,3.51,1.86A132.38,132.38,0,0,0,505,682c8.06,1.81,3-1.13,6.92-1.2-.06.59.57,1.29,1.46,2a31.66,31.66,0,0,0,3.05,1.89c1.95,1.14,3.16,1.93,0,1.73,6.68,2.1,10.94,3.44,15.69,4.75,2.38.65,4.88,1.3,7.86,2s6.53,1.28,10.89,2.09c-1.57-1.44-3.5-2.44-2.21-2.88,3.17.54,6.69,3,5.94,3.91h-.88a57.2,57.2,0,0,1,10.72,2.4c1.8.56,3.6,1.25,5.43,1.88s3.68,1.28,5.51,2l2.75,1.05.69.27.37.14.56.19,2.3.77,9.48,3.15c6.47,2.12,13.19,4.27,19.68,6.13.44-10,.32-20.66-1.09-28.84l.24,1.57-.31-3.56-.16-1.74-.08-.87a5.29,5.29,0,0,0-.08-.54l-.62-4-1.25-8.06c.39-7.42,1.73,4.45,3.16-1-3.85-17.39.55-27.48-2-41.8,6.8-11.08-.48-39.34,3.86-54.3l-1.6.86c-1.57-3.86.92-4.67,1.28-7.52-1.24.4-1.44,4.19-2.31,1.79-1.93-32.76,2.34-67.62,3.79-101.21.43-12.28-8.29-7-4.46-22.45l3,4.39c-3.56-24.79.12-50.69-2.9-75,.68,1.45,1.58,1.49,1.56,3.86,2.16-5.13.11-19-1.65-19,.2-3.78,1.59-.88,2.49-3.21,1.27-5.14-2.76-12.9-.61-15.63.35-.47.7,1.44.87,2.38-1.05-3.35.26-15.61-2.23-12.4,1.19-9.11-1.11-17.43.37-24.69-2.79-4.74,1.34-15.59-2.6-17.1,4.07.66,3.28-16,1.37-21.73,1.23,1.93,1.27-5,3-2.74-.06-6.58-.82-12.6-2.91-11.45,4.87-12.11-3.92-24.34,2.32-31.16-2.18-19.52-3.67-37.59-4.62-55.15,4.06.63.41,19.41,4.67,18.66-1.67-16.66-5.16-26.27-4.18-42.79.56-4.28,1.76,2.42,2.46,3.87-1.68-16.64.36-32.18-1.85-47,.38,0,.8,1.64,1.11,3.14-.14-2.92.59-6.78-1.26-6.45l.51,2.84c-2.68,4.66-5.6-11.59-7-12.11,5.29,5,1.33-14.63,8-6.76-.35-1.92-1.22-4.33-2.46-3.89.36-2.85,1.08-3.76,2.49-.87-1-10.45-3-6.74-2.93-16.21.9,0,1.24,2,2.29,2.93-1.74-4.8-3.48-9.62-2.73-17.62.54.48,1.24-.45,1.23,1.94-.14-6.88-1.3-12.74-2.21-18.76-.23-1.51-.44-3-.62-4.57,0-.39-.09-.77-.13-1.16s-.07-1-.11-1.56c-.07-1.05-.13-2.09-.17-3.15a113.57,113.57,0,0,1,.28-14c.89.51,1.44.5,1.79-.09a8.27,8.27,0,0,0,.66-3.1c-2.6-.3-7.1-.36-6.71-2.19l-13.5,1q2.52.82,4.68,1.63c-1.31,0-2.61,0-3.88.09s-2.69.14-3.36.24c-1.68.21-3.32.48-4.93.71a29,29,0,0,1-9.37.25l5.28-1.38-13.32.64,7.54,1.27c-7.19,1.73.77,4.25-8.69,3.32,1.92-.35-7.1,0-10.8-2h0c-3.52,1.07-7.13,2.19-12.38,1.36-1.37-1.08,1.09-3.72.21-4.43-3.47,2.81-16.64.78-21,3.77,1.46-.7,1.54-2.47,1.06-2.83L514.76.85C511.47.12,511-.23,511.52-1.64c-9.9-.41,3.14,4.27-8.61,2.43.93-.18.49-.53,2.41-.87-11.8-1-22.8,1.45-33.64.32-3.2-3.38,9.47-.83,5.81-3.68C461.86-2.82,445.12.61,430-.18l2.82.37C430.71,5,421.54-2.17,413.89.08c1.88-.35,2.46-2.65,1.95-2.11C405.48-2.8,394.66-.86,379,.64l2-1.23c-6.11-1.09-16.08-.63-22.68-1.18-2,1.22-5.73,1-3.43,2.8C334.46-5.95,316,4.78,298-1c2.16,0,5.15-1.07,3.43-1.08L286-1c1.22,2.08,2,1.26,5.24,2.88-1.94,1.23-6.28,2.19-10.09,2.19,6.91-1.38-.06-3.34-3-4.5.5.64-.53,1.34-.27,2-8-3.7-1.35,4.18-12.31,1.69l.58-1.09c-4.1.56-7.88,2-12.3,1.69C252,1.45,258.19,2.73,258.47.75c-6.21.14-12.26,4.56-17.88,2.16,2.64-.67,6.43-.68,9.07-1.34C243.54-1.26,242.83-.54,238.28-1l.45.07L228.21-2.2l2.68.76c-7.78,6.28-15.84,1.15-26.31,5.26,10.18-3.89,1.68-2.25,2.46-5-2.67-.75-6.74-1.6-5.58-2.37-5,2.2-8.27-1.73-15.25,1.48-.31-.88-5.3-.08-4.18-2.29-6.44.69,1.52,1.53,1,2.63-9.92,3-23.32-3.63-37.59.48-12.31,1.69-14.58,4.65-26,6.13-3.86-1.41,3.15-3.2,3.15-3.2a41.1,41.1,0,0,0-16.75-.05c1.19-.77,0-1.41-1.82-2.4-4.7.23-3.15,3.2-9.35,1.9a15.88,15.88,0,0,1,4.7-3.52c-5.54.8-11,2.44-16.75,3.23-1.52-1.52,3.46-2.32,5.48-3.32-6.44.69-16.7,1.39-18.69,3.81l4.13.87c-2.35.11-1.21-2.08.53-2.52,5.52-1.9,8,.84,8.28,1.72L78.24,2c4.2,5.15,16.41-.83,24.63-.53L99.45,5.2l8.43-3.11c1.8,1,3,3.06-1,3.62,5.9,1.85,5.22-1.33,10.29.74.55.32.3.5-.22.65L122.68,6c-1.13.79.95,2.64-2.59,2.1,10.34,2.16,16.68-2.81,20.57,0l-.86.23c14.34-1.26,1.38-2.75,12.14-6l7.24,6.78,1.41-2.75c1.49.1,4.41.3,3.87,1.4,5.51-1.88-.94-1.19,2.26-3C173.84,7.34,186.36,3.66,188,8c2.55-2.09-6.82-1.61.79-3.06,2.17,4.7,8.79-.81,15.3,1.35-2,2.43-8.17,1.14-1.65,3.31,3.92-4.11,12.67.9,18.16.11.25-3.27,11.93-1.36,21.14-2.45-.58,1.1,17.33,1.8,25.9,3l-.25.55c1.66-3.31,10.5-2.68,16.93-3.36-.25,2-1.41,2.75-4.89,3.64l6.05,0c1.42-1.06,3.31-1.61,7.23-2l-1.52,2.47c8.06-.14,16.22-2.91,26.58-1.26.58-2.31-8.24-6.42,2.71-8,.41,1.25.82,3.38-2.05,3.89.94-.17,3.35-1,5.24-.5l-4.38,2.09c4.72.92,2.47-1.75,6.24-1.55-.07,1.77,2.8,1.26,2.25,2.67-1,.18-3.29-.73-4.73,0,4.25.32,9.39,1.37,11.09,2.72-.37-1,0-2.4,3.12-2.63,8-.13,2.76,2.14,7.45,3.05,1.95-1.23,7.09,0,7.22-2.61,2.36,0,2.8,1.25,3.71,2,4.16-1.17,19.46-.33,14.77-3.16l-1.07-.18c.2-.06.43-.06.68-.12h0c13.66-2.64,28.37,1.5,41.93.37l0,.89c8.1-1,18-.6,23.79-2.52,2.39,0,5.65,1.63,4.62,2.69,6.19-.67,6.88-1.67,15.81-.2-6.21,1.55,2.15,1.37-6.37,1.13,8,.77,9.86,2.19,18.49-.24-2.94,2.28,6,2.87,9.87,2.19l-5.64-1.63a89.92,89.92,0,0,1,11.87.06l-2.06,3c16.44,3.64,29.65-6.2,42.17-.1,4.35-2.1-8.93-1.48-5-3.93,7.56.41,15.45,4.71,17.81,4.71,10.37,1.66,9.67-4.37,20.51-3.24-1.38-1.06-2.69-3.91,5.41-4.92,7.57.39,9.31,4.48,4.53,5.34-1.82.09-2.69-.25-2.62-.61-2.44.38-5.65.84-2.66,2l1-1.07c3.75,1.09,14.17,1,11.72,2.73,5.72-1,2.45-1.75-1.79-2.31a57.23,57.23,0,0,0,6.62.68c1,0,2,.07,3,.07h2.4c.79,0,1.61-.07,2.46,0a8.56,8.56,0,0,1,2.46.39c0-.59.13-1.84.94-1.83l1.08.21a5.9,5.9,0,0,0,.09,2.72,1.07,1.07,0,0,0,.85.65c.71.2,1.55.27,1.77,3.45-.21.42-.42,1-.63,1.34a1.89,1.89,0,0,1-.65.67,2.15,2.15,0,0,1-1.11.13c-.59,0-.82.62-.14,5.62-1.1,6.11-2.83,1.29-3.7-1.13,2.06,9.11-1.35,17-1.73,22.22l-.86-4.8a40.53,40.53,0,0,1,.49,7.61l2.14-2.74c-.38,2.82-.38,5.21-1.27,5.15,1.4,2.91,3.55-2.22,5.46,3.54-1.08,3.76,1.17,11.44-1.67,12.74,1-11.82-2.84,1.3-3.3-8.7a23.86,23.86,0,0,1-.05,7.11c-.32.42-.59-.4-.75-1.17-2.54,11.3,3.2,5.2,3.14,16.91-1.6-1.49-3,2.72-2.69,4.63,0-4.72,2.66-2.26,3.89,2.07-1.25,7.51.92,8.16.78,12.1l.58-4.49c1.6,1.52,1.39,5.27,1.89,10.51-1.24.45-.85-4.76-1.4-2.89,2.81,5.82-2.91,13.14-1,21.25-1.08,3.75-3,.36-3.73,3.66,2.07,9.08-2.19,9.84-.48,19.38,2.15-2.75,1.62-3.23,3.72,3.5l-1.51-15.7,3.12,10.07c0-4.74-1.35-10-1-12.83,1.76,4.8,1.22,4.3,3,2-3.22,6.48,1.88,12.85-.29,20.34l-5.32-.23c-2.37,11.27,2.73,20,1.39,34.65l.92-4.7c2.11,2,.3,9,1.15,13.77-1.77-.44-2.42,2.52-3.52,4.54,1.31-.25-.12,10.71,3.42,12l-2.34,6.53c-1,11.81,5.07,13.48,4.46,24.83-1.93-3.42-3.19,1.74-4.57-5.86,0,3.79-.34,7.2.89,7.26-1.11,2.21,2.39,10.51.7,14,.78,1.59,2.65,2.12,2.5,6.37-.36.47-.88,0-.88,0,.88,0,1.2,6.66,3.16,2.94-5.54,11.68.41,32.64-4.36,42.81.6,8.27,1.17,18.24,1.3,25.75-.53-.48-.88,0-.7-1.44-1.65,10.36,5.1,6.37,3.26,18.16-2.88,6-1.56-6.26-2.64-2.51-5.85,1.64.79,14.23-2.62,22.17l-.34-1.92c-2,6.06,2.21,14.79,1.79,24.7,0,0-.51-.48-.88-.05,3,6.77,4,19.6,4.8,29.13-2.29-3-1.21-4.33-3.54-2.52.33,4.28,3.73-1.25,4.38,7.28-1.25,2.77-2.34,8.93-4.82,9.74l-.14-8c-3.21,4.12.11,10.41-.45,14.65l-1.4-.54c.46,12.33,4,12.5,3.74,25.75l1.06-1.37c3.5,7.24-2,6.07.64,13.3l-3.56,2.18c.86,4.78,3.44,16.74,4.11,25.31-2.64-4.85-4-14.88-5.55-21.09,0,4.74.26,16.1,2,18.57-.34-1.91-1.21-4.31-.66-6.2,2.79,5.81,4.16,13.46,4.1,22.9-6.89-1.68-1.73,24.6-7.08,31.45,2.55,16.69-1.09,33.12-.68,52.57,5.36-6.9.15,5.68,5.65,4.49.36,4.53.27,6.26-.09,6.66l-3.29,13.73c-1.6,3.26-1.21-4.31-2.45-3.89-.42,9.92-2.33,4.16-3.79,10.73,2-1.35,2.82,3.45,2.07,9.1l2.54-8c2.92,13.86-4.62,12-1.72,26L586.1,668c.23,1.63.35,3.9.46,6.51.05,1.31.1,2.7.16,4.13l.09,2.1.1.3c.32.88.93,2.11,2.54,5.44a10.78,10.78,0,0,0,.22,1.11,10.26,10.26,0,0,1-1.59-1.79c-.43-.62-.67-1.17-.53-1.34a4.39,4.39,0,0,0-2.65-.23l-.4,0-.22,0h-.19l-.21,0-3.39-.48-6.74-.94c-8.79-1.63-17.13-3.39-23-6.54l1.62-.92c-3.12-.52-6,.92-9.34-1.7.37-.46,1.62-.87.27-1.41-1.71-.1-8.66-.48-12.35-2.58l3.86-.27a57.42,57.42,0,0,0-10.44-3.74c-1.62-.43-3.23-.72-4.77-1s-3.05-.62-4.56-.87c-6-1-11.87-1.61-18.51-3.72.38-.91-.05-2-1-3.08a14.84,14.84,0,0,0-1.79-1.71c-.7-.6-1.47-1.23-2.31-1.84A107.64,107.64,0,0,0,481,647l.44-.42a133.23,133.23,0,0,0-12.39-5.14c-3.91-1.58-7.7-2.95-11.5-4.23-7.57-2.62-15.27-4.7-23.36-8.46a42.31,42.31,0,0,0-8.41-7.07c-3.55-2.45-7.78-4.85-12-7.66s-8.78-5.52-13.07-8.33c-2.14-1.4-4.24-2.81-6.22-4.21s-3.76-3-5.44-4.46c1.86,2.11-2,2.35-4.89.93-3-3-11.13-4.12-8.54-6.76l1.2.88c-.31-2.34-2.36-4.49-5-6.53s-5.78-4.2-8.45-6.19l-3.67,3.21a44.5,44.5,0,0,0-10.32-10.75c-2.1-1.58-4.2-3.25-6.36-4.82s-4.37-3.1-6.53-4.58c-4.32-3-8.47-5.76-11.76-8.48s-5.53-5.61-6.34-8.33c-4-1.83-7.91-5.25-11.87-7.09l1.86-1.76c-4.26-4-7.24-7.2-10.63-10.47s-7.12-6.67-12.6-11.36l3.4.69a11.32,11.32,0,0,0-4.5-2.73,25.08,25.08,0,0,0-4.59-1c-3.07-.43-6.12-.79-8.83-3.42l1.1-4.29c-10.26-9.92-17.25-22.94-29.34-31,.57-.2,1.68-.62,3.34,1-2.29-2.43-5.89-7.86-9.36-11.88s-6.67-6.79-7.9-4.19c1.25-1.15-1-4-4.43-7.18s-7.57-6.94-10.55-9.5l2.71-.61c-6.52-3.13-7.35-2.76-13.66-9.39-1.07-1.9.44-2.7,1.69-.06a15.54,15.54,0,0,0-2.28-3.34,11.71,11.71,0,0,0-2.07-1.62c-1.41-.93-2.93-2-4.94-6l3.19,1.68C194,416,193.6,417,189.69,414.8a25.23,25.23,0,0,1-5-7.35c-1.31-2.82-1.9-5.59-1.28-6.67-1.69,0-5.47-2.38-7.34-6.38.38-1,1.71.06,2.36.58a47.21,47.21,0,0,0-8.67-12.11A34.17,34.17,0,0,1,166,378.2a19.24,19.24,0,0,1-2.54-5.55,2,2,0,0,0,.52-2c2.55,4.19,4.77,8,6.41,10.66s2.59,4.15,2.31,3.89c1.93-1.26-2.09-8,4.06-4.55-1.22-1.09-2.79-2.29-4.31-3.72s-3.19-3-4.8-4.59c-3.2-3.26-6.2-6.87-7.75-10.44a3.5,3.5,0,0,1,.16-1.28l.64.55a12.48,12.48,0,0,0-2.87-4c-.47-1.14-.86-2.08-1.27-3s-.8-1.82-1.36-2.85c1.2-1.76-3.53-8.4-5.38-11.87-2,1.52-4.22-3.19-3.67,2.05-.15-.63.63.51,2,2.74a8.7,8.7,0,0,0,1.05,1.34l-.32-.12c1.33,2.22,3,5.14,4.95,8.47-2.64-2.07-5.18-4.39-6.1-8.89-2.4-1-5-2.11-6.26-2.83.21-3.23-.54-7.34-1.19-10.93-.16-.89-.33-1.75-.45-2.57s-.19-1.59-.24-2.28a6.3,6.3,0,0,1,.26-3c-3.37-5-6.81-11.21-10.37-16.73-.89-1.38-1.79-2.72-2.7-4s-1.73-2.51-2.62-3.63a23.76,23.76,0,0,0-5.45-5.31c-2-2.86-.44-4.16-.3-5.64,1.27,1.6,2.2,3.76,3.27,4.44-2-2.84-4.26-7.4-6.48-11.25a37.29,37.29,0,0,0-3.26-5c-1.06-1.29-2-2.13-2.92-2.17-2-8.59,4.68,3.26-.43-7.49l1.55,1.08a51.09,51.09,0,0,0-5.34-15.31c-1.16-2.25-2.51-4.37-3.79-6.5s-2.58-4.23-3.9-6.36a101.76,101.76,0,0,1-7.41-13.57,48,48,0,0,1-2.74-8,59.94,59.94,0,0,1-1.37-9.32c.18,1.84.28,2.76-.13,3.29a208.83,208.83,0,0,0-6.29-21.6c-2.23-7.22-4.63-14.45-7-21.68l-1.78-5.42-.86-2.71c-.28-.91-.51-1.83-.77-2.74-1-3.66-1.92-7.32-2.76-11s-1.6-7.34-2.22-11c-.31-1.84-.59-3.67-.83-5.51s-.32-3.7-.42-5.54c-.8-8.32-3.06-8.73-5.7-13.37l2.28-2.31-4.89-7.86A17.21,17.21,0,0,1,53,97a29.84,29.84,0,0,1-.37-4.3c0-2.86.24-5.73.43-8.67a50.24,50.24,0,0,0,0-9.17,30.74,30.74,0,0,0-1-4.94c-.23-.86-.53-1.72-.83-2.6s-.64-1.79-1-2.72l-1.53,2.27c-.42-5.59-3.48-17.42-1.27-16.77-.41-.53-2.14-1.57-1.49-3.86l1.39-.35L45.1,39.22c-.35-1.11-.74-2.22-1.06-3.33l-.94-3.35c0-10.72,5.77,1,4.52-14.41-1.11-5.65-5.75-16-6.48-13.73.16,2.32-.3,6-1.7,6.3L38.18,5.49c-4.27-.6-8.95-4.41-10.57,9l3.46,8.89-1.73,3.15-.9-7.68C27,23.38,28.94,26,30.4,29A6,6,0,0,0,28.55,33L31,37.31c.82,1.42,1.72,2.82,2.57,4.23-1.48,1.28-3.78-3.62-3.85,2.5,2.42,4,3.1-4.47,5.26,2.3-1.3,4.58-3,3.53-.69,8.41-1,.87-1.8-.12-2.55-2.08,1.9,4.38,2.2,12,4.72,14a10.57,10.57,0,0,0-.32,4.44c.18,1.66.51,3.41.77,5,.51,3.2.72,5.82-1.28,5.93,1.19,1.27,4.47,7.44,5.36,11.55-3-3.36-2.39.54-1.69,5.16.18,1.15.35,2.35.49,3.49a21.81,21.81,0,0,1,.29,3.12c0,1.83-.42,3-1.77,2.78C41,110.52,42.54,115.46,44,121c.71,2.76,1.4,5.67,2.18,8.48.4,1.4.8,2.78,1.27,4.09s1.06,2.55,1.65,3.71c-.46-.47-1.41-1.39-1.41-2.3,1.05,5.59.21,7.5.33,11.25,3.6-.14,6.56,8.24,9.84,12.29-1.57,7.62-5-3-7.66-.08,1.33-.53,2.77,2.23,4.09,4.75s2.67,4.76,3.46,3.31c-.52,5.68.32,4.67-1.72,8.12,4.5-.33,2.13,4.57,6,8,.1,8-3.39,3.11.29,10.86C62.12,197.8,58.49,191,58.49,191Zm89.18,180.7,0,0-2.28-3.46C145.82,369,146.49,370,147.67,371.71Zm8.85,14.38c-1-1.8-2.31-4-3.74-6.3.43-1,1.53-.89,2.38.58C154.18,379.89,155.83,383.55,156.52,386.09Zm-3.19-39.34c1.59,2.1,1.59,3.11,1.32,3.69-.65-1.06-1.43-2.28-2.51-3.84-.12,0-.29-.11-.42-.12A3.12,3.12,0,0,1,153.33,346.75Z"/><path class="cls-2" d="M148.14,344.28a7.6,7.6,0,0,1-.69-.85,16.23,16.23,0,0,0,.27,1.65c.39.14.78.3,1.15.42Z"/><path class="cls-2" d="M370.38,8.26l.35.06A2.22,2.22,0,0,1,370,8C370.22,8.08,370.22,8.16,370.38,8.26Z"/><polygon class="cls-2" points="306.05 565.07 306.44 564.56 304.95 564.02 306.05 565.07"/><path class="cls-2" d="M549.81.7a42.42,42.42,0,0,1,4.66-1.2C551.89-.69,549.88-.74,549.81.7Z"/><path class="cls-2" d="M179.18,8.85l-10.33-.73c1.81,1,4.18,2.29-.52,2.53C181.35,13.56,165.65,8.46,179.18,8.85Z"/><path class="cls-2" d="M211.2,10.27c-5.54.46.07,1.42-.22,2C214.49,11.35,215.35,11.13,211.2,10.27Z"/><path class="cls-2" d="M442.63,10.28l-.56,2.3C446.35,12.25,442.11,11.69,442.63,10.28Z"/><polygon class="cls-2" points="513 14.78 511.14 15.11 518.27 14.27 513 14.78"/><path class="cls-2" d="M590,306.68l2.83-1.29C592.36,302.5,589.18,301.89,590,306.68Z"/><path class="cls-2" d="M592.93,474.48c-1.42,1.82-2.33,6.55-.94,9.45C592.18,480.16,593.29,476.4,592.93,474.48Z"/><polygon class="cls-2" points="355.08 574.75 358.32 575.94 352.8 572.9 355.08 574.75"/></g></svg>