<svg xmlns="http://www.w3.org/2000/svg" viewBox="0 0 800 800"><defs><style>.cls-1{fill:#484d9e;}.cls-2{fill:#f2b526;}.cls-3{font-size:297.57px;fill:#fceecd;stroke:#f0aa07;stroke-miterlimit:10;stroke-width:21px;font-family:CenturyGothic-Bold, Century Gothic;font-weight:700;}</style></defs><title>monopoly-boards-</title><g id="BG"><rect class="cls-1" x="9" y="9" width="782" height="782"/><path class="cls-1" d="M782,18V782H18V18H782M800,0H0V800H800V0Z"/></g><g id="Layer_2" data-name="Layer 2"><path class="cls-2" d="M796.67,800c.43,1.68,1.41.73,1.22-3.91l-1.66-3.29Z"/><path class="cls-2" d="M799.74,768.77c-.8-5.46-2.21-11.75-3.73-8.22,1.59,5.41.92,6.72,2.82,12.54.19,4.64-.53,8.1-1.14,7.32.42,1.64-.37,7.22.67,9.72,1.28-6,1.33-13.7.28-21.7C799,766.71,799.43,768.38,799.74,768.77Z"/><path class="cls-2" d="M795.75,706.19a34.88,34.88,0,0,0,.43,4.08c-.07-1.29-.13-2.54-.17-3.83A1.2,1.2,0,0,1,795.75,706.19Z"/><path class="cls-2" d="M689.74,793.4c-.08.1,0,.17,0,.25C690.3,793.51,690.47,793.41,689.74,793.4Z"/><path class="cls-2" d="M795.93,703.73c0-1.29,0-2.59,0-3.9C795.87,701.61,795.87,702.8,795.93,703.73Z"/><path class="cls-2" d="M442.05,794.08a15.63,15.63,0,0,1,3.77,1.26C444.56,794.34,456.53,794,442.05,794.08Z"/><path class="cls-2" d="M796.54,706.15a4.42,4.42,0,0,1-.61-2.42c0,.94.05,1.83.08,2.71C796.22,706.68,796.41,706.73,796.54,706.15Z"/><path class="cls-2" d="M413.89,7.06,401,6.86C404.57,7,409.27,7.06,413.89,7.06Z"/><path class="cls-2" d="M5.72,657.37l.17,3A13.92,13.92,0,0,0,5.72,657.37Z"/><path class="cls-2" d="M362.52,7.06a55.28,55.28,0,0,0-7.29-1,7.94,7.94,0,0,0-1.51.37Z"/><path class="cls-2" d="M445.84,795.36l0,0Z"/><path class="cls-2" d="M531.13,792c-12.33,0-5.79,1.81-8.41,2.87-14.73.52-6.81-1.36-11.83-2.31-9.19.49-16.24,2.19-23.1,2.11-.51-.3-1.85-.41-.28-.79-9.72,1.47-28.86.07-40.19,1.91a4.57,4.57,0,0,1-1.48-.45c1.84.92,2.12,1.86,1.74,2.53-5.53,0-10.26,1.17-12.34,0a13,13,0,0,0,5.26-.83l-5.8.53c-5.21-1.74,7.91-.6,7.91-1.89-11.3.57-24.47,2-33.13,1.51-1.81-1.7,20.25-.57,8.7-2.08l13.4.65c-10.24-2.68,8.14.19-1.27-2.68-17.63-.49-19.72.87-37.31.37-4,.94,1.31,1.4-2.65,2.34-25,1.7-19.68-4.27-38.07-2-4.75,1.13-6.6,3.28-19.69,2.15l4.47-1.92c-17.08-.19-9.75,2.76-27.63,1.46,3.18-.75,13.42-.63,10.84-.86-11.59-1.52-8.2,1.09-17.1,1.09l-1.85-1.7c-18.17.27-38.19,1.49-58.32,1.8,1.11-.5,4.56-1-.15-1.55-25.39.85-54.2-.21-78.69-1.22l-9.35,1.47c-2.18,0-4-.66-1.68-1-9.55-.56-.5.93-5.09,1.51-5.43.1-7.17-.85-3.73-1.29-16.84,1.25-48,2.68-65.72,1.11l3.46-.43c-13.82-.6-15.59,3-28.41,1.64l2.46-.26c-9.28-.2-18.86-.21-28.34-.19l-14.1,0H7.47l-3.06,0c.13-4,.26-7.78.37-11.39.21-5,.5-9.75.92-14.11-2.11-4.36.94-29.69-2-31.62,1.46-17.12,2-12.22,3-36.33.13-6.44-1.85-9.6-2.15-17.57l1.54-.19L4.44,673.57l1.84-5.76-.39-7.47c-.09,3-.69,6.33-1.14,5.88-.69-11.67,1.08-28.44,1.87-28.73l-1.31-27.6c.62.61.84,5.23,1.23,8.89C5,604,8.16,616.1,6.72,602.6c-.35,1.81-.91-1-1.23-1.29.94-6.73.94-22,.55-33.38L7.1,570.1c.27-20.47-.51-43.16-.49-66.14-.49,8.24-2.33,6.35-2.51-.39l1.63-2.69c-1-4.35-.62,7-1.85-1.89.19-8.59,1.85-5.78,2.38-.85L5.7,487.71c.48-.61.74,1.83,1.36,2.47-1-4.28,1.64-18-.12-24.19l.48-.59c0-23-.54-33.39-.62-52.1-1.41-.36-1.1-7.68-2.24-13.26C5,386.3,6.12,371,6,354.47c-.7-11.65-1.19-3.41-2-8.64,1.28-.86,1.16-17.4,2.08-8.82-.2-19.89-.25-25.4-1.29-50.55-.53,2.73-.75,5.8-1.19,4.21-.21-4.56.54-10.38,1.15-9.73l.13,1.21C2.93,253.92,8.59,217,5.92,194.52l.13,1.26L4.66,172.47c.22-10.72,1,6.43,1.75-1.5-2.13-25.15.31-39.73-1.11-60.44C9.08,94.5,5,53.65,7.45,32l-.89,1.25c-.88-5.59.5-6.76.71-10.89C6.58,23,6.47,28.45,6,25c-.1-4.11-.16-8.24-.21-12.4q0-3.4-.07-6.87L15,5.78,30.11,6c10.11.17,20.27.41,30.44.66,20.35.52,40.73,1.12,60.8,1.45,17.76.24,10.08-4.6,32.47-2.48l-6.35,1.65c35.84-2,73.29.07,108.38-1.61-2.09.38-2.15.88-5.58.87,7.41,1.2,27.41.06,27.53-.92,5.47.11,1.27.88,4.64,1.38,7.43.71,18.66-1.53,22.61-.34.67.2-2.09.39-3.45.49,4.84-.59,22.57.14,17.93-1.24,13.17.66,25.19-.62,35.7.2,6.85-1.54,22.54.75,24.72-1.44C379,6.91,403,6.47,411.36,5.41c-2.78.68,7.24.71,4,1.65,9.5,0,18.21-.45,16.55-1.61,17.51,2.71,35.19-2.18,45.05,1.29,28.23-1.21,54.35-2,79.74-2.57-.92,2.26-28.07.23-27,2.6,24.09-.93,38-2.87,61.87-2.32,6.19.3-3.51,1-5.6,1.36,24.07-.93,46.54.2,67.95-1-.06.21-2.37.44-4.55.61,4.22-.08,9.81.33,9.34-.7L654.59,5c-6.74-1.49,16.76-3.11,17.52-3.89-7.17,2.94,21.15.74,9.77,4.45,2.78-.2,6.26-.68,5.62-1.37,4.13.2,5.43.6,1.25,1.38C703.87,5,698.5,3.91,712.2,3.93c-.05.5-2.82.69-4.23,1.27a128.41,128.41,0,0,1,25.47-1.52c-.69.3.65.69-2.8.69,19.87-.15,33.88-2.58,55.68-1.65C783.11,3.8,785,4,787.76,4.12l2.22.11,1.12.08.54.05.27,0,.12,0c.62.16,1,.42.91.89l2-.24c.11.72.21,1.53.32,2.42a22.16,22.16,0,0,0,.9-2.64c0,.68,0,1.33.05,2l.06,1,0,.25,0,.44,0,.91q.2,3.64.39,7.14a107.92,107.92,0,0,1,.14,13.55l-.77-7.64.35,19.25.71-10.89c1,10.39,2.36-1.12,1.84,12.55-.19-2.77,0,10.28-1.12,15.63v0a91.15,91.15,0,0,1,.75,17.9c-.59,2-2.06-1.59-2.46-.3,1.56,5,.43,24.05,2.1,30.4-.39-2.11-1.37-2.23-1.57-1.53l1.26,4.21c-.4,4.76-.6,5.45-1.38,4.68-.23,14.31,2.37-4.55,1.35,12.44-.1-1.33-.29-.7-.49-3.47-.53,17.06.81,33,.18,48.64-1.87,4.62-.46-13.7-2-8.41.34,22.61,2.25,46.81,1.81,68.68l.21-4.08c2.65,3-1.31,16.29-.06,27.35-.2-2.7-1.48-3.55-1.18-2.81-.43,15,.65,30.62,1.49,53.32l-.69-2.81c-.6,8.82-.35,23.24-.66,32.78.68,2.83.57,8.28,1.56,5-3.88,29.4,2.08,56.08-1.15,82.17,0-3.12-.59-7.43-.6-5l.63,22.22c1.16-1.76.7-2.91,1.6-7.58a77,77,0,0,1,1.22,14.59c-.77-10-1.86.09-2.5,4.4.35-.72.74.76,1.1.39-2,11.61,2.33,1.95.94,17.8l-.61-.84c.31,5.93,1.12,11.39.94,17.79-1.33,2.65-.62-6.31-1.72-6.72.08,9,2.53,17.73,1.2,25.86-.37-3.82-.38-9.31-.75-13.12-1.57,8.85-1.17,9.88-1.42,16.46l0-.65L796.28,524l.42-3.87c3.49,11.24.64,22.89,2.92,38-2.16-14.72-1.25-2.43-2.76-3.56-.42,3.87-.9,9.75-1.32,8.07,1.22,7.16-1,12,.82,22-.49.46,0,7.66-1.27,6.05.38,9.3.85-2.2,1.46-1.42,1.67,14.34-2,33.72.27,54.35.94,17.79,2.58,21.08,3.4,37.59-.78,5.58-1.78-4.56-1.78-4.56a154.34,154.34,0,0,0,0,24.23c-.43-1.72-.79.05-1.34,2.63.13,6.8,1.78,4.55,1.06,13.51a34.18,34.18,0,0,1-2-6.79c.45,8,1.36,15.93,1.8,24.22-.85,2.2-1.29-5-1.84-7.93.38,9.32.77,24.15,2.11,27l.48-6c.07,3.4-1.15,1.75-1.4-.76-1.05-8,.47-11.52,1-12l.31,5.91c2.86-6.07-.46-23.73-.29-35.62l2.08,5-1.73-12.2c.54-2.59,1.7-4.36,2,1.51,1-8.53-.74-7.55.41-14.87.18-.81.28-.44.36.3l-.62-8.32c.44,1.63,1.47-1.39,1.17,3.73,1.2-14.95-1.56-24.11,0-29.74l.12,1.25c-.7-20.74-1.52-2-3.31-17.56l3.76-10.47-1.52-2c.05-2.14.16-6.38.78-5.59-1.05-8-.67,1.36-1.66-3.27,1.4-10.3-.65-28.4,1.79-30.72-1.16-3.69-.9,9.85-1.71-1.14,2.62-3.14-.44-12.71.76-22.12,1.35,2.89.63,11.8,1.84,2.39-2.29-5.68.5-18.33.06-26.26-1.82-.37-.76-17.26-1.36-30.58.61.85,1-25.06,1.65-37.44l.31.36c-1.84-2.4-1.49-15.18-1.87-24.48,1.1.36,1.53,2,2,7.08V441.2c-.59-2.06-.9-4.79-1.11-10.47l1.38,2.2c-.08-11.64-1.62-23.44-.7-38.42-1.28-.84-3.57,11.91-4.42-3.93.69-.59,1.87-1.17,2.16,3a41.75,41.75,0,0,1-.28-7.57l1.16,6.33c.51-6.83-1-3.57-.86-9,1,.11.7-4,1.48-3.25.1,1.39-.4,4.76,0,6.85.18-6.15.77-13.59,1.51-16.05-.56.54-1.33,0-1.45-4.5-.08-11.64,1.18-4,1.69-10.78-.68-2.82,0-10.24-1.45-10.44a11.62,11.62,0,0,1,1.1-5.35c-.65-6-.19-28.15-1.76-21.36L802,320c0-.29,0-.63-.07-1v0c-1.47-19.74.84-41,.21-60.62l.49,0c-.56-11.69-.33-26-1.4-34.39,0-3.46.91-8.16,1.49-6.68-.37-8.94-.92-10-.11-22.86.86,9,.77-3.1.63,9.21.43-11.62,1.22-14.25-.13-26.72,1.27,4.24,1.59-8.75,1.22-14.27l-.91,8.14c-.18-6.21-.07-11.64,0-17.16l1.66,3c2-23.77-3.44-42.87-.06-61-1.16-6.29-.81,12.91-2.18,7.28.23-10.93,2.62-22.33,2.62-25.75.92-15-2.43-14-1.8-29.66-.59,2-2.18,3.9-2.73-7.81.21-10.95,2.48-13.46,3-6.55.05,2.63-.14,3.89-.34,3.78.22,3.54.47,8.18,1.11,3.84l-.59-1.42c.61-5.43.54-20.48,1.52-16.95-.57-8.27-1-3.53-1.28,2.59.3-4.94.39-9.12.41-13.1,0-5.56,0-10.83,0-16.62l-8.47,0-4.52-.07-3.11-.11c2.3.33,4.42,1,2.13,1-21.19-.74-9.33,1.13-23.69,1.39-8.16-.91,2.92-2.16-11.53-1.41-8.83-.61-1.87-1.57,1.64-2.05C744-4.85,732.56-6.75,725-7L732-7.43c-4.15.28-7.54.27-11,.27l4,1.19c-4.07-.21-7.52-.22-7.45-.71-4.2.78,3.22,2-5.11,3-5.43-.61-16.54.64-18.42-.93C711-4,692.07-6.15,706.52-6.41a90,90,0,0,1-10.27,0c-.62-.18.57-.33,1.69-.42-16.34-1.41-7.51,1.78-24.45,1.74,2.15-.88-3.93-1.68-6.69-1.49,6.83,0,3.27,1.48-3,2.16-10.86-.69-11.8.51-17.49.43l6.5.33c-2.2.89-7.63.77-15.2,1.05-.65-.69,6.87-.48,4.17-.78-8.41,1.56-19-1.62-30.71-.57-5.43-.6-.53-1.66-5.3-2.07-13.13,1.15-14.22-1.22-28-.27,4,1.2,4.67.91-5,2.07l22.7-.84L580.82-3.36c6.85,0,14.46-.75,18.56-.54-6.94,1-6.23.67-3,1.66C587.06-4,577.85-1.19,567-2.4l.33-3c-16.28-1.31-28.94,1.52-50.09.78l6.8.51c-2.84,1.17-13.06.16-19.91.64.64-1-3.64-1.35-6.57-2,.36.73-15.48-.07-17.4,1.9l-9.44-1.3c-17.08-.53-19.5,2.82-35.91,2.48,4.94-1.07-2.52-1.77,8.48-2.54-5.48,0-10.41-.19-10.5.49C429.6-5,417.6-3,412.56-4c-2.31.43-3.07,1.46-9.22,1.38-.67-.2,0-.49,0-.49,0,.49-9.63.67-4.25,1.76-16.89-3.08-47.2.22-61.9-2.42-12,.33-26.37.65-37.23.72.69-.3,0-.49,2.08-.39-15-.92-9.21,2.83-26.25,1.81-8.71-1.6,9.05-.86,3.62-1.47-2.36-3.25-20.57.44-32.05-1.45l2.78-.19c-8.77-1.11-21.39,1.23-35.72,1,0,0,.7-.29.08-.49-9.8,1.65-28.34,2.2-42.13,2.66,4.29-1.27,6.26-.67,3.65-2-6.18.18,1.81,2.07-10.52,2.43-4-.69-12.91-1.3-14.09-2.68l11.63-.08c-6-1.78-15.06.07-21.19-.24l.79-.78c-17.83.25-18.08,2.21-37.24,2.07l2,.59c-10.47,2-8.78-1.09-19.22.36L85-3.8c-6.91.48-24.2,1.91-36.59,2.28C55.45-3,69.94-3.73,78.92-4.6c-6.85,0-23.28.15-26.85,1.12,2.76-.19,6.24-.67,9-.37Q48.43-1.52,27.93-1.57c.79-1.25-2.74-1.79-8.19-2-2.73-.13-5.94-.19-9.33-.23L-4-4c0,2.72-.1,5.39-.15,7.94,0,1.3-.08,2.58-.12,3.81l0,.72c0,.2,0,.4,0,.6,0,.39-.06.78-.08,1.16a37.16,37.16,0,0,1-1.09,7.31c1.42,24.14-.6,47.89-.37,76,3-10,.08,8.21,3.14,6.48.19,6.55.14,9,0,9.64l-1.83,19.85c-.89,4.71-.67-6.23-1.36-5.63-.24,14.35-1.3,6-2.11,15.51,1.09-1.94,1.57,5,1.15,13.17l1.41-11.52c1.63,20.05-2.57,17.33-1,37.54l-1-6.4c.57,10.37,0,38.25,2.44,48.42-.35,1.83-1.19,4.25-1.41-.31-.37,24.78,2.61,55.16,1.1,74.42l-.75-1.88c.22,4.62,1.41,8,.66,13.83-.31-.3-.75-1.86-.79.28.25,2.45,1.31,12.28.87,18.41l-.84-5.24c-1,24.17,2.05,37.1,2.56,57.36-2.2-.05-2.92,19-3.27,28.46l-.31-.33c-.28,28.14,1.82,47.81,2.68,73.87-2.39,16.18-1,54.8-2.34,80.8.4-4,1.72.65,1.94,5.27-.45,6.1,1.53,16.87-.49,15.9l0-2.17c-2,4.6-1.46,17.14-1.51,26.93l2.64,1.61c-3.84,25.61,1.41,67.11-2,81.08.66,6.18.65,13.84,1.31,20l-1.41-.34c-.36,17.13-.54,25.68-.2,46.84l-1-4.31c-.09,11.94,4.09,15.07,4.17,26.08l-2.11,3.32q0,4.88-.11,9.75l-.24,15.65,9.26.16,4.71.07,2.69.06c3.6.08,7.19.14,10.78.14,7.17,0,14.31-.21,21.39-.87-.34.31-1,.92-4.32,1,9.8,0,37.92,1.43,34.36-1.47.24,1.88,21.49.18,32.74-.65L104,805.71c9.49-1.78,9.8-2.27,23.06-2.76,3.14.18,2.75,1.12-1.42.76,10.46.73,8.15-1.32,20.85-.58l-4.73.89c10.77.11,9.91-.37,15.84-1.4,6.78-.56,20.44.35,22,1.61,1.45-.77,7.35-1.8,13.7-1.44.86.48-1.45.78-2.62.92,18,.95,26.79-1.62,39.17-.25.26.46,1.07.69,2.1.83-14.31,0-25.84-.11-24.76-.21,0,1.28,11.56,1.51,2.36,3.28,9.28-1,25.15-3.07,36.42-2.47a7.94,7.94,0,0,1,1.49.45l-1.17.14a48.11,48.11,0,0,0,7.12-.2c3.6.21,5.88.36,9.33.38,1.34,1.06,13.26.57,19,.63-.48-1.41,7.07-1.18,0-2.34.92.1-1.09.16-4.92.22-.87,0-1.89.07-2.46.15l.4-.13-14.33.1a52.46,52.46,0,0,1,15.68-.54c3-.9,6.22-1.83,8.05-2.26,7.89,2,23.09,3,25.21,4.22,17.59-.78,41.45-.52,52.52-3.16,5-.34,5.75.76,7.62,1.18-2.89.26-6.32.22-7.88.6,10-.68,29.64-.26,32-2.11,12.61.83-7.08,1.7,10.24,1.4l-2.34.56c34.09,3,55.42-4.71,93.21-.92-2.62-.23-3.93-.34-4.46-.65,43.08,1.67,88.78-1.57,131.29,1.08,12.09.53,13.4-.64,20.77-1.54l2.62,1.51,12.61-1.74c17.88-1.28,31,3.7,53.6,1.29l-2.92-1c8.13.2,25.76-.6,24.4.57a11.66,11.66,0,0,1,5.84-.52l.25.79,20-1.36c15.48.57-2.42,3.14,20.17,3.29,8.4-.3,23.92-2.3,20.76-2.83-3.39,0-8.66-.49-8.91-1.28l7.68-.41c1.39-2.33,7.3-4.71-11.55-6.34l-13.14,1.42-4.24-1.12,11.06-.08c-6.27-1.06-10.25-.12-14.7.53a14.66,14.66,0,0,0-5.51-1.25l-12.9,2.23c-1.56-.91,5.79-1.81-2.87-2.31-6,1,5.8,2-4.21,2.72-6.28-1.06-4.45-1.92-11.82-1-1-.6.52-1,3.45-1.24-6.57.71-17.38.3-20.77,1.54-6.55-1.31-22.17.34-21.53-1.87a120,120,0,0,1-17.59,1.82c11-2.63-22.58-.15-19.67-3-8.16,2.37-29.46,1-43.91,2.37a12.51,12.51,0,0,1,3.67-.45c-8.13-.2-10.49-.91-15.72-1.36-1,2-13.7,2.41-20.53,3.62-10-1.89,6.06-2.3,2.93-4.12.5,1.59-17.32,1.59-13.93,2.91-7.62-1.17-6.57-.57-10.49-2.19-1.34,2.45-7.1.41-13.42,1.92-11-1.21-2.84-2.3-15-1.55C520.36,792.89,531.13,792,531.13,792ZM243,796.25v0l5.95-.08Zm-24.22,0c2.95.05,6.62.06,10.51.05.85.49-.07,1-2.51,1C228.06,797,222.36,796.69,218.74,796.28ZM270,806c-3.83.2-5.12-.08-5.64-.37,1.81,0,3.92-.07,6.7-.17.11-.05.34-.11.45-.17A4,4,0,0,1,270,806Z"/><polygon class="cls-2" points="6.41 684.34 6.06 684.38 6.37 686.49 6.41 684.34"/><path class="cls-2" d="M797.27,451.78a5.53,5.53,0,0,0-.36,1.75A7.64,7.64,0,0,0,797.27,451.78Z"/><path class="cls-2" d="M797,509.4l-.5,8.15C796.74,514,796.87,511.45,797,509.4Z"/><path class="cls-2" d="M796.25,553.7a2,2,0,0,0,.61.86v-.08Z"/><path class="cls-2" d="M649.37,5.4c-.6,0-1.19,0-1.71.06C643.65,5.73,646.37,5.63,649.37,5.4Z"/><path class="cls-2" d="M797.89,59c-.26-2.23-.51-4.42-.67-6.74C797.11,56,797.09,58.86,797.89,59Z"/><path class="cls-2" d="M415.31,7.09s0,0,0,0h-1.45Z"/><path class="cls-2" d="M797.25,42.48a67.6,67.6,0,0,0,0,9.75C797.32,49.17,797.46,45.57,797.25,42.48Z"/><path class="cls-2" d="M795.62,745.69l-.06,2.14c.09,0,.17.09.22.25Z"/><path class="cls-2" d="M795.78,748.08l.17,2.37A8.39,8.39,0,0,0,795.78,748.08Z"/><path class="cls-2" d="M796.3,755.44l-.35-5A18.86,18.86,0,0,0,796.3,755.44Z"/><path class="cls-2" d="M796.27,687.05l-.51-.67A.86.86,0,0,0,796.27,687.05Z"/><path class="cls-2" d="M796.12,669.23c-.12,4.25-1.09,10.66-.77,16.59l.41.56C795,683.59,797,673.27,796.12,669.23Z"/><polygon class="cls-2" points="796.6 149.97 795.81 155.99 796.98 158.85 796.6 149.97"/></g><g id="Text"><text class="cls-3" transform="translate(113.4 497.72) rotate(0.45)">JAIL</text><path class="cls-2" d="M135.17,801c.43.42,1.41.18,1.22-1l-1.66-.81Z"/><path class="cls-2" d="M138.24,793.27c-.8-1.35-2.21-2.91-3.73-2,1.59,1.33.92,1.66,2.82,3.1.19,1.15-.53,2-1.14,1.81.42.41-.37,1.79.67,2.41,1.28-1.5,1.33-3.39.28-5.37C137.5,792.76,137.93,793.17,138.24,793.27Z"/><path class="cls-2" d="M140.82,681l-.2.73A2,2,0,0,0,140.82,681Z"/><path class="cls-2" d="M141.73,611.37c0,.53.2.75.35.77C142,611.65,141.87,611.25,141.73,611.37Z"/><path class="cls-2" d="M143.55,599.48c-.05.26-.08.47-.11.7C143.59,599.92,143.68,599.65,143.55,599.48Z"/><path class="cls-2" d="M140.82,681l.52-1.85C140.8,679,140.94,680.05,140.82,681Z"/><path class="cls-2" d="M134.25,777.78a2.71,2.71,0,0,0,.43,1c-.07-.32-.13-.63-.17-.95A1.22,1.22,0,0,1,134.25,777.78Z"/><path class="cls-2" d="M142.16,711.63v.57a4.74,4.74,0,0,0,.68.47Z"/><path class="cls-2" d="M142.41,735.18c.07-.54-1.34-.72-1.95-.93a1.73,1.73,0,0,1,1,1.16A2.35,2.35,0,0,0,142.41,735.18Z"/><path class="cls-2" d="M139.94,772.51l.2.66C140.08,773,140,772.71,139.94,772.51Z"/><path class="cls-2" d="M142.46,694.78a1.21,1.21,0,0,0,.51-.21A.82.82,0,0,0,142.46,694.78Z"/><path class="cls-2" d="M131.9,36.29a2.08,2.08,0,0,0,.25,0C132,36.15,131.91,36.11,131.9,36.29Z"/><path class="cls-2" d="M138.86,9l.08.38a5.29,5.29,0,0,0,.79.08Z"/><path class="cls-2" d="M145.35,577.74a.38.38,0,0,1,0,.1C145.48,578.41,145.46,578.08,145.35,577.74Z"/><path class="cls-2" d="M144.31,378.12c-1.25,2.26-1.61-3.68-3-.27C141.86,377.53,143.5,380.94,144.31,378.12Z"/><path class="cls-2" d="M134.43,777.17a7.67,7.67,0,0,1,0-1A2.69,2.69,0,0,0,134.43,777.17Z"/><path class="cls-2" d="M141.31,377.85h0l-.13.35Z"/><path class="cls-2" d="M144.51,527.64a1.68,1.68,0,0,0-.62.51C144,528.13,144.21,528,144.51,527.64Z"/><path class="cls-2" d="M142.51,565l.18-.92A3.35,3.35,0,0,0,142.51,565Z"/><path class="cls-2" d="M142.52,508.26a2.08,2.08,0,0,0,.12-1.36.72.72,0,0,0-.18.21A1,1,0,0,1,142.52,508.26Z"/><path class="cls-2" d="M142.51,488.09c-.1.1-.18.25-.28.37s.05.43.08.64Z"/><path class="cls-2" d="M132.58,97.59a3.94,3.94,0,0,1,1.26-.93C132.84,97,132.49,94,132.58,97.59Z"/><path class="cls-2" d="M135,777.77a.8.8,0,0,1-.61-.6c0,.23,0,.46.08.67C134.72,777.9,134.91,777.92,135,777.77Z"/><path class="cls-2" d="M131.44,507.44l.2-3.21A23.68,23.68,0,0,0,131.44,507.44Z"/><path class="cls-2" d="M132.78,242.3l-.17-.74A1,1,0,0,0,132.78,242.3Z"/><path class="cls-2" d="M131.44,494.72a4.81,4.81,0,0,0,1-1.8,1.19,1.19,0,0,0-.37-.37Z"/><path class="cls-2" d="M133.86,96.65h0Z"/><path class="cls-2" d="M130.52,75.54c0,3.06,1.81,1.44,2.87,2.09.52,3.64-1.36,1.68-2.31,2.92.49,2.28,2.19,4,2.11,5.72-.3.13-.41.46-.79.07,1.47,2.41.07,7.14,1.91,10a1,1,0,0,1-.45.36,4.53,4.53,0,0,1,2.53-.43c0,1.37,1.17,2.54,0,3.06,0-.84-.45-.91-.83-1.3l.53,1.43c-1.74,1.29-.6-2-1.89-2,.57,2.8,2,6.06,1.51,8.2-1.7.45-.57-5-2.08-2.15l.65-3.32c-2.68,2.54.19-2-2.68.32-.49,4.36.87,4.88.37,9.23.94,1,1.4-.32,2.34.66,1.7,6.19-4.27,4.87-2,9.42,1.13,1.18,3.28,1.63,2.15,4.87l-1.92-1.1c-.19,4.22,2.76,2.41,1.46,6.84-.75-.79-.63-3.33-.86-2.69-1.52,2.87,1.09,2,1.09,4.24l-1.7.45c.27,4.5,1.49,9.46,1.8,14.44-.5-.28-1-1.13-1.55,0,.85,6.29-.21,13.42-1.22,19.48l1.47,2.32c0,.53-.66,1-.95.41-.56,2.36.93.12,1.51,1.26.1,1.34-.85,1.77-1.29.92,1.25,4.17,2.68,11.88,1.11,16.27l-.43-.86c-.6,3.42,3,3.86,1.64,7l-.26-.6c-.64,7.42.7,15.62-1.51,21.28,2.11,1.08-.94,7.35,2,7.83-1.46,4.24-2,3-3,9-.13,1.59,1.85,2.38,2.15,4.35l-1.54.05,1.62,2.67-1.84,1.43.39,1.84c.09-.73.69-1.56,1.14-1.45.69,2.89-1.08,7-1.87,7.11l1.31,6.83c-.62-.15-.84-1.29-1.23-2.2,1.57,3.65-1.62.67-.18,4,.35-.45.91.24,1.23.32-.94,1.66-.94,5.45-.55,8.26l-1.06-.54c-.27,5.07.51,10.68.49,16.37.49-2,2.33-1.57,2.51.1l-1.63.66c1,1.08.62-1.74,1.85.47-.19,2.13-1.85,1.43-2.38.21l.56,2.58c-.48.15-.74-.45-1.36-.61,1,1.06-1.64,4.46.12,6l-.48.14c0,5.69.54,8.27.62,12.9,1.41.09,1.1,1.9,2.24,3.28-.45,3.4-1.56,7.18-1.44,11.28.7,2.88,1.19.84,2,2.14-1.28.21-1.16,4.3-2.08,2.18a74.7,74.7,0,0,0,1.29,12.51c.53-.68.75-1.44,1.19-1,.21,1.13-.54,2.57-1.15,2.41l-.13-.3c1.92,7-3.74,16.12-1.07,21.69l-.13-.32,1.39,5.77c-.22,2.66-1-1.59-1.75.38,2.13,6.22-.31,9.83,1.11,14.95-3.78,4,.27,14.08-2.15,19.44l.89-.31c.88,1.38-.5,1.67-.71,2.69.69-.14.8-1.5,1.28-.64,1.08,11.72-1.3,24.2-2.1,36.21-.24,4.4,4.6,2.5,2.48,8l-1.65-1.57c2,8.87-.07,18.14,1.61,26.82-.38-.52-.88-.53-.87-1.38-1.2,1.84-.06,6.79.92,6.82-.11,1.35-.88.31-1.38,1.14-.71,1.84,1.53,4.62.34,5.6-.2.17-.39-.52-.49-.85.59,1.19-.14,5.58,1.24,4.43-.66,3.26.62,6.24-.2,8.84,1.54,1.69-.75,5.58,1.44,6.12-2.26-.24-1.82,5.71-.76,7.77-.68-.69-.71,1.79-1.65,1,0,2.35.45,4.5,1.61,4.09-2.71,4.34,2.18,8.71-1.29,11.15,1.21,7,2,13.45,2.57,19.74-2.26-.23-.23-6.95-2.6-6.68.93,6,2.87,9.4,2.32,15.31-.3,1.54-1-.86-1.36-1.38.93,6-.2,11.52,1,16.81-.21,0-.44-.58-.61-1.12.08,1-.33,2.43.7,2.31l-.28-1c1.49-1.67,3.11,4.15,3.89,4.34-2.94-1.78-.74,5.23-4.45,2.42.2.68.68,1.54,1.37,1.39-.2,1-.6,1.34-1.38.31.55,3.74,1.64,2.41,1.62,5.8-.5,0-.69-.7-1.27-1a8.9,8.9,0,0,1,1.52,6.31c-.3-.18-.69.16-.69-.7.15,4.92,2.58,8.39,1.65,13.78-2.16-1.59-.71,1.84-2.58,2.13l.56,2.9.9-1.17c0,2.55,1.33,4.79.72,7l-.77-1.89.35,4.76.71-2.69c1,2.57,2.36-.28,1.84,3.11-.19-.69,0,2.54-1.12,3.86h0a6.07,6.07,0,0,1,.75,4.44c-.59.48-2.06-.4-2.46-.08,1.56,1.24.43,5.95,2.1,7.53a1.44,1.44,0,0,0-1.57-.38l1.26,1c-.4,1.18-.6,1.35-1.38,1.16-.23,3.54,2.37-1.13,1.35,3.08-.1-.33-.29-.18-.49-.86-.53,4.22.81,8.15.18,12-1.87,1.15-.46-3.39-2-2.08.34,5.6,2.25,11.59,1.81,17l.21-1c2.65.75-1.31,4-.06,6.77-.2-.67-1.48-.88-1.18-.7-.43,3.71.65,7.58,1.49,13.2l-.69-.69c-.6,2.18-.35,5.75-.66,8.11.68.7.57,2.05,1.56,1.23-3.88,7.28,2.08,13.88-1.15,20.34,0-.77-.59-1.84-.6-1.23l.63,5.5c1.16-.43.7-.72,1.6-1.87a5.68,5.68,0,0,1,1.22,3.61c-.77-2.48-1.86,0-2.5,1.09.35-.18.74.18,1.1.09-2.05,2.88,2.33.48.94,4.41l-.61-.21c.31,1.47,1.12,2.82.94,4.4-1.33.66-.62-1.56-1.72-1.66.08,2.22,2.53,4.39,1.2,6.4-.37-1-.38-2.3-.75-3.25-1.57,2.19-1.17,2.45-1.42,4.08l0-.16-.71,3.76.42-1c3.49,2.78.64,5.67,2.92,9.42-2.16-3.65-1.25-.61-2.76-.89-.42,1-.9,2.42-1.32,2,1.22,1.77-1,3,.82,5.46-.49.11,0,1.89-1.27,1.49.38,2.31.85-.54,1.46-.35,1.67,3.55-2,8.35.27,13.46.94,4.4,2.58,5.21,3.4,9.3-.78,1.38-1.78-1.13-1.78-1.13a9.69,9.69,0,0,0,0,6c-.43-.43-.79,0-1.34.65.13,1.68,1.78,1.12,1.06,3.34a7,7,0,0,1-2-1.68c.45,2,1.36,3.94,1.8,6-.85.54-1.29-1.24-1.84-2,.38,2.31.77,6,2.11,6.69l.48-1.48c.07.84-1.15.44-1.4-.18-1.05-2,.47-2.86,1-3l.31,1.46c2.86-1.5-.46-5.87-.29-8.81l2.08,1.23-1.73-3c.54-.64,1.7-1.08,2,.37,1-2.11-.74-1.87.41-3.68.18-.2.28-.11.36.08l-.62-2.07c.44.41,1.47-.34,1.17.93,1.2-3.7-1.56-6,0-7.36l.12.31c-.7-5.14-1.52-.5-3.31-4.35l3.76-2.59-1.52-.5c.05-.53.16-1.58.78-1.39-1.05-2-.67.34-1.66-.81,1.4-2.55-.65-7,1.79-7.6-1.16-.91-.9,2.44-1.71-.28,2.62-.78-.44-3.15.76-5.48,1.35.72.63,2.92,1.84.59-2.29-1.4.5-4.53.06-6.5-1.82-.09-.76-4.27-1.36-7.56.61.21,1-6.21,1.65-9.27l.31.09c-1.84-.59-1.49-3.76-1.87-6.06,1.1.09,1.53.5,2,1.75V712.2a3.8,3.8,0,0,1-1.11-2.59l1.38.54c-.08-2.88-1.62-5.8-.7-9.51-1.28-.21-3.57,3-4.42-1,.69-.15,1.87-.29,2.16.73-.1-.33-.58-1.19-.28-1.87l1.16,1.57c.51-1.69-1-.89-.86-2.24,1,0,.7-1,1.48-.8.1.34-.4,1.17,0,1.69.18-1.52.77-3.36,1.51-4a1.11,1.11,0,0,1-1.45-1.11c-.08-2.89,1.18-1,1.69-2.67-.68-.7,0-2.54-1.45-2.58,0-.85.7-1,1.1-1.33-.65-1.49-.19-7-1.76-5.28l-.1.38c0-.07,0-.16-.07-.25v0c-1.47-4.88.84-10.15.21-15h.49c-.56-2.9-.33-6.45-1.4-8.51,0-.86.91-2,1.49-1.66-.37-2.21-.92-2.46-.11-5.66.86,2.23.77-.76.63,2.28.43-2.87,1.22-3.52-.13-6.61,1.27,1.05,1.59-2.17,1.22-3.53l-.91,2a20.59,20.59,0,0,1,0-4.24l1.66.73c2-5.88-3.44-10.61-.06-15.09-1.16-1.55-.81,3.2-2.18,1.81.23-2.71,2.62-5.53,2.62-6.38.92-3.71-2.43-3.46-1.8-7.34-.59.5-2.18,1-2.73-1.93.21-2.71,2.48-3.33,3-1.62.05.65-.14,1-.34.93.22.88.47,2,1.11,1l-.59-.35c.61-1.34.54-5.07,1.52-4.19-.57-2-1-.88-1.28.64.85-3.48,0-5.43.6-9-.33.57-1,1.1-1,.53.74-5.24-1.13-2.31-1.39-5.86.91-2,2.16.72,1.41-2.86.61-2.18,1.57-.46,2.05.41-1.14-3.26.76-6.09,1-7.95l.47,1.71a9.5,9.5,0,0,1-.27-2.72l-1.19,1c.21-1,.22-1.86.71-1.84-.78-1-2,.79-3-1.27.61-1.34-.64-4.09.93-4.56-.53,4.23,1.58-.46,1.84,3.11a5.57,5.57,0,0,1,0-2.54c.18-.15.33.14.42.42,1.41-4-1.78-1.86-1.74-6,.88.53,1.68-1,1.49-1.66,0,1.69-1.48.81-2.16-.74.69-2.69-.51-2.92-.43-4.33l-.33,1.61c-.89-.55-.77-1.89-1.05-3.76.69-.16.48,1.7.78,1-1.56-2.08,1.62-4.7.57-7.6.6-1.35,1.66-.13,2.07-1.31-1.15-3.25,1.22-3.52.27-6.94-1.2,1-.91,1.16-2.07-1.25l.84,5.62-1.73-3.61c0,1.7.75,3.58.54,4.6-1-1.72-.67-1.54-1.66-.73,1.79-2.32-1.05-4.6.16-7.28l3,.08c1.31-4-1.52-7.17-.78-12.4l-.51,1.68c-1.17-.7-.16-3.23-.64-4.93,1,.16,1.35-.9,2-1.62-.73.09.07-3.83-1.9-4.31l1.3-2.34c.53-4.22-2.82-4.82-2.48-8.88,1.07,1.22,1.77-.63,2.54,2.1,0-1.36.19-2.58-.49-2.6.61-.79-1.33-3.76-.4-5-.43-.57-1.46-.76-1.38-2.28.2-.17.49,0,.49,0-.49,0-.67-2.38-1.76-1.05,3.08-4.18-.22-11.68,2.42-15.32-.33-3-.65-6.53-.72-9.22.3.18.49,0,.39.52.92-3.71-2.83-2.28-1.81-6.5,1.6-2.15.86,2.24,1.47.9,3.25-.59-.44-5.09,1.45-7.93l.19.68c1.11-2.17-1.23-5.29-1-8.84,0,0,.29.18.49,0-1.65-2.42-2.2-7-2.66-10.42,1.27,1.06.67,1.55,2,.9-.18-1.53-2.07.45-2.43-2.61.69-1,1.3-3.19,2.68-3.48l.08,2.88c1.78-1.48-.07-3.73.24-5.25l.78.2c-.25-4.41-2.21-4.48-2.07-9.22l-.59.49c-2-2.59,1.09-2.17-.36-4.76l2-.78A65.9,65.9,0,0,1,140,417c1.46,1.73,2.21,5.32,3.08,7.54,0-1.69-.15-5.76-1.12-6.64.19.68.67,1.54.37,2.22a13.19,13.19,0,0,1-2.28-8.2c3.83.6,1-8.8,3.94-11.25-1.42-6,.6-11.85.37-18.82-3,2.47-.08-2-3.14-1.6-.19-1.62-.14-2.24,0-2.39l1.83-4.91c.89-1.16.67,1.54,1.36,1.39.24-3.55,1.3-1.49,2.11-3.83-1.09.48-1.57-1.24-1.15-3.26L144,370.09c-1.63-5,2.57-4.29.95-9.29l1,1.58c-.57-2.57,0-9.47-2.44-12,.35-.46,1.19-1.06,1.41.07.37-6.13-2.61-13.65-1.1-18.41l.75.46c-.22-1.14-1.41-2-.66-3.42.31.07.75.46.79-.07-.25-.61-1.31-3-.87-4.56l.84,1.3c1-6-2-9.18-2.56-14.2,2.2,0,2.92-4.69,3.27-7l.31.08c.28-7-1.82-11.83-2.68-18.28,2.39-4,1-13.57,2.34-20-.4,1-1.72-.16-1.94-1.31.45-1.51-1.53-4.17.49-3.93l0,.54c2-1.14,1.46-4.25,1.51-6.67l-2.64-.4c3.84-6.34-1.41-16.61,2-20.07-.66-1.53-.65-3.42-1.31-4.94l1.41.09a62.44,62.44,0,0,0,.2-11.6l1,1.07c.09-3-4.09-3.73-4.17-6.46l2.11-.82c0-5.15,1.83-10.37-.09-15.46a1.15,1.15,0,0,1,1,1.07c.05-2.43,1.43-9.39-1.47-8.51,1.88-.06.18-5.32-.65-8.1l1.39.43c-1.78-2.35-2.27-2.42-2.76-5.7.18-.78,1.12-.69.76.35.73-2.59-1.32-2-.58-5.16l.89,1.17c.11-2.67-.37-2.46-1.4-3.92-.56-1.68.35-5.06,1.61-5.46a3.23,3.23,0,0,1-1.44-3.39c.48-.21.78.36.92.65.95-4.46-1.62-6.63-.25-9.69a1,1,0,0,0,.83-.52,49.24,49.24,0,0,1-.21,6.13c1.28,0,1.51-2.87,3.28-.59-1-2.3-3.07-6.22-2.47-9a1.51,1.51,0,0,1,.45-.37l.14.29a3,3,0,0,0-.2-1.76,10.12,10.12,0,0,0,.38-2.31c1.06-.33.57-3.28.63-4.71-1.41.12-1.18-1.75-2.34,0,.1-.23.16.27.22,1.22a2.48,2.48,0,0,0,.15.61l-.13-.1c.05.93.08,2.16.1,3.54-.72-1.12-1.32-2.3-.54-3.88a29.57,29.57,0,0,1-2.26-2c2-1.95,3-5.71,4.22-6.24-.78-4.35-.52-10.26-3.16-13-.34-1.24.76-1.42,1.18-1.88.26.71.22,1.56.6,1.95-.68-2.48-.26-7.34-2.11-7.93.83-3.12,1.7,1.75,1.4-2.53l.56.58c2.95-8.44-4.71-13.72-.92-23.07-.23.64-.34,1-.65,1.1,1.67-10.66-1.57-22,1.08-32.49.53-3-.64-3.32-1.54-5.14l1.51-.65-1.74-3.12c-1.28-4.43,3.7-7.67,1.29-13.27l-1,.72c.2-2-.6-6.37.57-6-.18-.2-1-.66-.52-1.44l.79-.06-1.36-4.95c.57-3.83,3.14.6,3.29-5-.3-2.08-2.3-5.92-2.83-5.14,0,.84-.49,2.15-1.28,2.21l-.41-1.9c-2.33-.35-4.71-1.81-6.34,2.86L134,15.49l-1.12,1-.08-2.74c-1.06,1.55-.12,2.54.53,3.64a2.25,2.25,0,0,0-1.25,1.36l2.23,3.2c-.91.38-1.81-1.44-2.31.71,1,1.49,2-1.44,2.72,1-1.06,1.55-1.92,1.1-1,2.92-.6.26-1-.13-1.24-.85.71,1.63.3,4.3,1.54,5.14-1.31,1.62.34,5.49-1.87,5.33A9.47,9.47,0,0,1,134,40.64c-2.63-2.72-.15,5.59-3,4.87,2.37,2,1,7.29,2.37,10.87-.19-.2-.57-.59-.45-.91-.2,2-.91,2.6-1.36,3.89,2,.26,2.41,3.39,3.62,5.08-1.89,2.47-2.3-1.5-4.12-.72,1.59-.13,1.59,4.28,2.91,3.44-1.17,1.89-.57,1.63-2.19,2.6,2.45.33.41,1.76,1.92,3.32-1.21,2.73-2.3.71-1.55,3.7C131.39,78.21,130.52,75.54,130.52,75.54Zm4.23,71.33h0c0-.62-.06-1.14-.08-1.48C134.67,145.7,134.69,146.13,134.75,146.87Zm0,6c.05-.73.06-1.64.05-2.6.49-.21,1,0,1,.62C135.47,150.55,135.19,152,134.78,152.86Zm9.74-12.68c.2.95-.08,1.27-.37,1.4a16.64,16.64,0,0,0-.17-1.66l-.17-.11A1.85,1.85,0,0,1,144.52,140.18Z"/><path class="cls-2" d="M142.67,138.48a2,2,0,0,1-.1-.39,5.33,5.33,0,0,0-.32.56l.44.34C142.69,138.82,142.68,138.64,142.67,138.48Z"/><path class="cls-2" d="M140.59,681.81l0-.13a.65.65,0,0,1-.2.26C140.49,681.86,140.53,681.86,140.59,681.81Z"/><polygon class="cls-2" points="132.09 235.63 132.44 235.62 132.13 235.09 132.09 235.63"/><path class="cls-2" d="M135.77,714.82a.73.73,0,0,0-.36.43C135.5,715.23,135.63,715,135.77,714.82Z"/><path class="cls-2" d="M135.45,729.08l-.5,2A12.24,12.24,0,0,0,135.45,729.08Z"/><path class="cls-2" d="M134.75,740a1.76,1.76,0,0,0,.61.21v0Z"/><path class="cls-2" d="M133.1,565.72a1.42,1.42,0,0,0-.06-.42C132.77,564.3,132.87,565,133.1,565.72Z"/><path class="cls-2" d="M136.39,617.59a10.68,10.68,0,0,1-.67-1.66C135.61,616.85,135.59,617.57,136.39,617.59Z"/><path class="cls-2" d="M131.41,507.79h0c0-.13,0-.24,0-.36Z"/><path class="cls-2" d="M135.75,613.51a4.25,4.25,0,0,0,0,2.42A6.35,6.35,0,0,0,135.75,613.51Z"/><path class="cls-2" d="M134.12,787.56l-.06.53a.3.3,0,0,1,.22.06Z"/><path class="cls-2" d="M134.28,788.15l.17.59C134.45,788.47,134.44,788.23,134.28,788.15Z"/><path class="cls-2" d="M134.8,790l-.35-1.23C134.45,789.16,134.4,789.69,134.8,790Z"/><path class="cls-2" d="M134.77,773l-.51-.16A.81.81,0,0,0,134.77,773Z"/><path class="cls-2" d="M134.62,768.63c-.12,1.06-1.09,2.64-.77,4.11l.41.14C133.5,772.19,135.48,769.63,134.62,768.63Z"/><path class="cls-2" d="M140.92,750.22l-.41,3.7c.54-.65,1.27-1.5,1.4.19C143.53,749.45,140.7,755.07,140.92,750.22Z"/><path class="cls-2" d="M141.71,738.76c.25,2,.78,0,1.09.09C142.31,737.59,142.18,737.28,141.71,738.76Z"/><path class="cls-2" d="M141.71,656l1.28.2C142.81,654.62,142.49,656.13,141.71,656Z"/><polygon class="cls-2" points="135.1 640.12 134.31 641.61 135.48 642.32 135.1 640.12"/><polygon class="cls-2" points="144.21 630.76 144.39 631.43 143.93 628.88 144.21 630.76"/><path class="cls-2" d="M143.76,491.68l-1.58.46C142.46,493.17,144.23,493.39,143.76,491.68Z"/><path class="cls-2" d="M142.15,431.63a2.72,2.72,0,0,0,.52-3.38C142.56,429.6,142,430.94,142.15,431.63Z"/><polygon class="cls-2" points="144.72 251.55 145.25 252.76 144.81 250.48 144.72 251.55"/><path class="cls-2" d="M278.17,801c.43.42,1.41.18,1.22-1l-1.66-.81Z"/><path class="cls-2" d="M281.24,793.27c-.8-1.35-2.21-2.91-3.73-2,1.59,1.33.92,1.66,2.82,3.1.19,1.15-.53,2-1.14,1.81.42.41-.37,1.79.67,2.41,1.28-1.5,1.33-3.39.28-5.37C280.5,792.76,280.93,793.17,281.24,793.27Z"/><path class="cls-2" d="M283.82,681l-.2.73A2,2,0,0,0,283.82,681Z"/><path class="cls-2" d="M284.73,611.37c0,.53.2.75.35.77C285,611.65,284.87,611.25,284.73,611.37Z"/><path class="cls-2" d="M286.55,599.48c-.05.26-.08.47-.11.7C286.59,599.92,286.68,599.65,286.55,599.48Z"/><path class="cls-2" d="M283.82,681l.52-1.85C283.8,679,283.94,680.05,283.82,681Z"/><path class="cls-2" d="M277.25,777.78a2.71,2.71,0,0,0,.43,1c-.07-.32-.13-.63-.17-.95A1.22,1.22,0,0,1,277.25,777.78Z"/><path class="cls-2" d="M285.16,711.63v.57a4.74,4.74,0,0,0,.68.47Z"/><path class="cls-2" d="M285.41,735.18c.07-.54-1.34-.72-2-.93a1.73,1.73,0,0,1,1,1.16A2.35,2.35,0,0,0,285.41,735.18Z"/><path class="cls-2" d="M282.94,772.51l.2.66C283.08,773,283,772.71,282.94,772.51Z"/><path class="cls-2" d="M285.46,694.78a1.21,1.21,0,0,0,.51-.21A.82.82,0,0,0,285.46,694.78Z"/><path class="cls-2" d="M274.9,36.29a2.08,2.08,0,0,0,.25,0C275,36.15,274.91,36.11,274.9,36.29Z"/><path class="cls-2" d="M281.86,9l.08.38a5.29,5.29,0,0,0,.79.08Z"/><path class="cls-2" d="M288.35,577.74a.38.38,0,0,1,0,.1C288.48,578.41,288.46,578.08,288.35,577.74Z"/><path class="cls-2" d="M287.31,378.12c-1.25,2.26-1.61-3.68-3-.27C284.86,377.53,286.5,380.94,287.31,378.12Z"/><path class="cls-2" d="M277.43,777.17a7.67,7.67,0,0,1,0-1A2.69,2.69,0,0,0,277.43,777.17Z"/><path class="cls-2" d="M284.31,377.85h0l-.13.35Z"/><path class="cls-2" d="M287.51,527.64a1.68,1.68,0,0,0-.62.51C287,528.13,287.21,528,287.51,527.64Z"/><path class="cls-2" d="M285.51,565l.18-.92A3.35,3.35,0,0,0,285.51,565Z"/><path class="cls-2" d="M285.52,508.26a2.08,2.08,0,0,0,.12-1.36.72.72,0,0,0-.18.21A1,1,0,0,1,285.52,508.26Z"/><path class="cls-2" d="M285.51,488.09c-.1.1-.18.25-.28.37s0,.43.08.64Z"/><path class="cls-2" d="M275.58,97.59a3.94,3.94,0,0,1,1.26-.93C275.84,97,275.49,94,275.58,97.59Z"/><path class="cls-2" d="M278,777.77a.8.8,0,0,1-.61-.6c0,.23,0,.46.08.67C277.72,777.9,277.91,777.92,278,777.77Z"/><path class="cls-2" d="M274.44,507.44l.2-3.21A23.68,23.68,0,0,0,274.44,507.44Z"/><path class="cls-2" d="M275.78,242.3l-.17-.74A1,1,0,0,0,275.78,242.3Z"/><path class="cls-2" d="M274.44,494.72a4.81,4.81,0,0,0,1-1.8,1.19,1.19,0,0,0-.37-.37Z"/><path class="cls-2" d="M276.86,96.65h0Z"/><path class="cls-2" d="M273.52,75.54c0,3.06,1.81,1.44,2.87,2.09.52,3.64-1.36,1.68-2.31,2.92.49,2.28,2.19,4,2.11,5.72-.3.13-.41.46-.79.07,1.47,2.41.07,7.14,1.91,10a1,1,0,0,1-.45.36,4.53,4.53,0,0,1,2.53-.43c0,1.37,1.17,2.54,0,3.06,0-.84-.45-.91-.83-1.3l.53,1.43c-1.74,1.29-.6-2-1.89-2,.57,2.8,2,6.06,1.51,8.2-1.7.45-.57-5-2.08-2.15l.65-3.32c-2.68,2.54.19-2-2.68.32-.49,4.36.87,4.88.37,9.23.94,1,1.4-.32,2.34.66,1.7,6.19-4.27,4.87-2,9.42,1.13,1.18,3.28,1.63,2.15,4.87l-1.92-1.1c-.19,4.22,2.76,2.41,1.46,6.84-.75-.79-.63-3.33-.86-2.69-1.52,2.87,1.09,2,1.09,4.24l-1.7.45c.27,4.5,1.49,9.46,1.8,14.44-.5-.28-1-1.13-1.55,0,.85,6.29-.21,13.42-1.22,19.48l1.47,2.32c0,.53-.66,1-1,.41-.56,2.36.93.12,1.51,1.26.1,1.34-.85,1.77-1.29.92,1.25,4.17,2.68,11.88,1.11,16.27l-.43-.86c-.6,3.42,3,3.86,1.64,7l-.26-.6c-.64,7.42.7,15.62-1.51,21.28,2.11,1.08-.94,7.35,2,7.83-1.46,4.24-2,3-3,9-.13,1.59,1.85,2.38,2.15,4.35l-1.54.05,1.62,2.67-1.84,1.43.39,1.84c.09-.73.69-1.56,1.14-1.45.69,2.89-1.08,7-1.87,7.11l1.31,6.83c-.62-.15-.84-1.29-1.23-2.2,1.57,3.65-1.62.67-.18,4,.35-.45.91.24,1.23.32-.94,1.66-.94,5.45-.55,8.26l-1.06-.54c-.27,5.07.51,10.68.49,16.37.49-2,2.33-1.57,2.51.1l-1.63.66c1,1.08.62-1.74,1.85.47-.19,2.13-1.85,1.43-2.38.21l.56,2.58c-.48.15-.74-.45-1.36-.61,1,1.06-1.64,4.46.12,6l-.48.14c0,5.69.54,8.27.62,12.9,1.41.09,1.1,1.9,2.24,3.28-.45,3.4-1.56,7.18-1.44,11.28.7,2.88,1.19.84,2,2.14-1.28.21-1.16,4.3-2.08,2.18a74.7,74.7,0,0,0,1.29,12.51c.53-.68.75-1.44,1.19-1,.21,1.13-.54,2.57-1.15,2.41l-.13-.3c1.92,7-3.74,16.12-1.07,21.69l-.13-.32,1.39,5.77c-.22,2.66-1-1.59-1.75.38,2.13,6.22-.31,9.83,1.11,14.95-3.78,4,.27,14.08-2.15,19.44l.89-.31c.88,1.38-.5,1.67-.71,2.69.69-.14.8-1.5,1.28-.64,1.08,11.72-1.3,24.2-2.1,36.21-.24,4.4,4.6,2.5,2.48,8l-1.65-1.57c2,8.87-.07,18.14,1.61,26.82-.38-.52-.88-.53-.87-1.38-1.2,1.84-.06,6.79.92,6.82-.11,1.35-.88.31-1.38,1.14-.71,1.84,1.53,4.62.34,5.6-.2.17-.39-.52-.49-.85.59,1.19-.14,5.58,1.24,4.43-.66,3.26.62,6.24-.2,8.84,1.54,1.69-.75,5.58,1.44,6.12-2.26-.24-1.82,5.71-.76,7.77-.68-.69-.71,1.79-1.65,1,0,2.35.45,4.5,1.61,4.09-2.71,4.34,2.18,8.71-1.29,11.15,1.21,7,2,13.45,2.57,19.74-2.26-.23-.23-6.95-2.6-6.68.93,6,2.87,9.4,2.32,15.31-.3,1.54-1-.86-1.36-1.38.93,6-.2,11.52,1,16.81-.21,0-.44-.58-.61-1.12.08,1-.33,2.43.7,2.31l-.28-1c1.49-1.67,3.11,4.15,3.89,4.34-2.94-1.78-.74,5.23-4.45,2.42.2.68.68,1.54,1.37,1.39-.2,1-.6,1.34-1.38.31.55,3.74,1.64,2.41,1.62,5.8-.5,0-.69-.7-1.27-1a8.9,8.9,0,0,1,1.52,6.31c-.3-.18-.69.16-.69-.7.15,4.92,2.58,8.39,1.65,13.78-2.16-1.59-.71,1.84-2.58,2.13l.56,2.9.9-1.17c0,2.55,1.33,4.79.72,7l-.77-1.89.35,4.76.71-2.69c1,2.57,2.36-.28,1.84,3.11-.19-.69,0,2.54-1.12,3.86h0a6.07,6.07,0,0,1,.75,4.44c-.59.48-2.06-.4-2.46-.08,1.56,1.24.43,5.95,2.1,7.53a1.44,1.44,0,0,0-1.57-.38l1.26,1c-.4,1.18-.6,1.35-1.38,1.16-.23,3.54,2.37-1.13,1.35,3.08-.1-.33-.29-.18-.49-.86-.53,4.22.81,8.15.18,12-1.87,1.15-.46-3.39-2-2.08.34,5.6,2.25,11.59,1.81,17l.21-1c2.65.75-1.31,4-.06,6.77-.2-.67-1.48-.88-1.18-.7-.43,3.71.65,7.58,1.49,13.2l-.69-.69c-.6,2.18-.35,5.75-.66,8.11.68.7.57,2.05,1.56,1.23-3.88,7.28,2.08,13.88-1.15,20.34,0-.77-.59-1.84-.6-1.23l.63,5.5c1.16-.43.7-.72,1.6-1.87a5.68,5.68,0,0,1,1.22,3.61c-.77-2.48-1.86,0-2.5,1.09.35-.18.74.18,1.1.09-2.05,2.88,2.33.48.94,4.41l-.61-.21c.31,1.47,1.12,2.82.94,4.4-1.33.66-.62-1.56-1.72-1.66.08,2.22,2.53,4.39,1.2,6.4-.37-1-.38-2.3-.75-3.25-1.57,2.19-1.17,2.45-1.42,4.08l0-.16-.71,3.76.42-1c3.49,2.78.64,5.67,2.92,9.42-2.16-3.65-1.25-.61-2.76-.89-.42,1-.9,2.42-1.32,2,1.22,1.77-1,3,.82,5.46-.49.11,0,1.89-1.27,1.49.38,2.31.85-.54,1.46-.35,1.67,3.55-2,8.35.27,13.46.94,4.4,2.58,5.21,3.4,9.3-.78,1.38-1.78-1.13-1.78-1.13a9.69,9.69,0,0,0,0,6c-.43-.43-.79,0-1.34.65.13,1.68,1.78,1.12,1.06,3.34a7,7,0,0,1-2-1.68c.45,2,1.36,3.94,1.8,6-.85.54-1.29-1.24-1.84-2,.38,2.31.77,6,2.11,6.69l.48-1.48c.07.84-1.15.44-1.4-.18-1.05-2,.47-2.86,1-3l.31,1.46c2.86-1.5-.46-5.87-.29-8.81l2.08,1.23-1.73-3c.54-.64,1.7-1.08,2,.37,1-2.11-.74-1.87.41-3.68.18-.2.28-.11.36.08l-.62-2.07c.44.41,1.47-.34,1.17.93,1.2-3.7-1.56-6,0-7.36l.12.31c-.7-5.14-1.52-.5-3.31-4.35l3.76-2.59-1.52-.5c.05-.53.16-1.58.78-1.39-1-2-.67.34-1.66-.81,1.4-2.55-.65-7,1.79-7.6-1.16-.91-.9,2.44-1.71-.28,2.62-.78-.44-3.15.76-5.48,1.35.72.63,2.92,1.84.59-2.29-1.4.5-4.53.06-6.5-1.82-.09-.76-4.27-1.36-7.56.61.21,1-6.21,1.65-9.27l.31.09c-1.84-.59-1.49-3.76-1.87-6.06,1.1.09,1.53.5,2,1.75V712.2a3.8,3.8,0,0,1-1.11-2.59l1.38.54c-.08-2.88-1.62-5.8-.7-9.51-1.28-.21-3.57,3-4.42-1,.69-.15,1.87-.29,2.16.73-.1-.33-.58-1.19-.28-1.87l1.16,1.57c.51-1.69-1-.89-.86-2.24,1,0,.7-1,1.48-.8.1.34-.4,1.17,0,1.69.18-1.52.77-3.36,1.51-4a1.11,1.11,0,0,1-1.45-1.11c-.08-2.89,1.18-1,1.69-2.67-.68-.7,0-2.54-1.45-2.58,0-.85.7-1,1.1-1.33-.65-1.49-.19-7-1.76-5.28l-.1.38c0-.07,0-.16-.07-.25v0c-1.47-4.88.84-10.15.21-15h.49c-.56-2.9-.33-6.45-1.4-8.51,0-.86.91-2,1.49-1.66-.37-2.21-.92-2.46-.11-5.66.86,2.23.77-.76.63,2.28.43-2.87,1.22-3.52-.13-6.61,1.27,1.05,1.59-2.17,1.22-3.53l-.91,2a20.59,20.59,0,0,1,0-4.24l1.66.73c2-5.88-3.44-10.61-.06-15.09-1.16-1.55-.81,3.2-2.18,1.81.23-2.71,2.62-5.53,2.62-6.38.92-3.71-2.43-3.46-1.8-7.34-.59.5-2.18,1-2.73-1.93.21-2.71,2.48-3.33,3-1.62.05.65-.14,1-.34.93.22.88.47,2,1.11,1l-.59-.35c.61-1.34.54-5.07,1.52-4.19-.57-2-1-.88-1.28.64.85-3.48,0-5.43.6-9-.33.57-1,1.1-1,.53.74-5.24-1.13-2.31-1.39-5.86.91-2,2.16.72,1.41-2.86.61-2.18,1.57-.46,2.05.41-1.14-3.26.76-6.09,1-7.95l.47,1.71a9.5,9.5,0,0,1-.27-2.72l-1.19,1c.21-1,.22-1.86.71-1.84-.78-1-2,.79-3-1.27.61-1.34-.64-4.09.93-4.56-.53,4.23,1.58-.46,1.84,3.11a5.57,5.57,0,0,1,0-2.54c.18-.15.33.14.42.42,1.41-4-1.78-1.86-1.74-6,.88.53,1.68-1,1.49-1.66,0,1.69-1.48.81-2.16-.74.69-2.69-.51-2.92-.43-4.33l-.33,1.61c-.89-.55-.77-1.89-1.05-3.76.69-.16.48,1.7.78,1-1.56-2.08,1.62-4.7.57-7.6.6-1.35,1.66-.13,2.07-1.31-1.15-3.25,1.22-3.52.27-6.94-1.2,1-.91,1.16-2.07-1.25l.84,5.62-1.73-3.61c0,1.7.75,3.58.54,4.6-1-1.72-.67-1.54-1.66-.73,1.79-2.32-1.05-4.6.16-7.28l3,.08c1.31-4-1.52-7.17-.78-12.4l-.51,1.68c-1.17-.7-.16-3.23-.64-4.93,1,.16,1.35-.9,2-1.62-.73.09.07-3.83-1.9-4.31l1.3-2.34c.53-4.22-2.82-4.82-2.48-8.88,1.07,1.22,1.77-.63,2.54,2.1,0-1.36.19-2.58-.49-2.6.61-.79-1.33-3.76-.4-5-.43-.57-1.46-.76-1.38-2.28.2-.17.49,0,.49,0-.49,0-.67-2.38-1.76-1.05,3.08-4.18-.22-11.68,2.42-15.32-.33-3-.65-6.53-.72-9.22.3.18.49,0,.39.52.92-3.71-2.83-2.28-1.81-6.5,1.6-2.15.86,2.24,1.47.9,3.25-.59-.44-5.09,1.45-7.93l.19.68c1.11-2.17-1.23-5.29-1-8.84,0,0,.29.18.49,0-1.65-2.42-2.2-7-2.66-10.42,1.27,1.06.67,1.55,2,.9-.18-1.53-2.07.45-2.43-2.61.69-1,1.3-3.19,2.68-3.48l.08,2.88c1.78-1.48-.07-3.73.24-5.25l.78.2c-.25-4.41-2.21-4.48-2.07-9.22l-.59.49c-1.95-2.59,1.09-2.17-.36-4.76l2-.78A65.9,65.9,0,0,1,283,417c1.46,1.73,2.21,5.32,3.08,7.54,0-1.69-.15-5.76-1.12-6.64.19.68.67,1.54.37,2.22a13.19,13.19,0,0,1-2.28-8.2c3.83.6,1-8.8,3.94-11.25-1.42-6,.6-11.85.37-18.82-3,2.47-.08-2-3.14-1.6-.19-1.62-.14-2.24.05-2.39l1.83-4.91c.89-1.16.67,1.54,1.36,1.39.24-3.55,1.3-1.49,2.11-3.83-1.09.48-1.57-1.24-1.15-3.26L287,370.09c-1.63-5,2.57-4.29,1-9.29l1,1.58c-.57-2.57,0-9.47-2.44-12,.35-.46,1.19-1.06,1.41.07.37-6.13-2.61-13.65-1.1-18.41l.75.46c-.22-1.14-1.41-2-.66-3.42.31.07.75.46.79-.07-.25-.61-1.31-3-.87-4.56l.84,1.3c1-6-2.05-9.18-2.56-14.2,2.2,0,2.92-4.69,3.27-7l.31.08c.28-7-1.82-11.83-2.68-18.28,2.39-4,1-13.57,2.34-20-.4,1-1.72-.16-1.94-1.31.45-1.51-1.53-4.17.49-3.93l0,.54c2-1.14,1.46-4.25,1.51-6.67l-2.64-.4c3.84-6.34-1.41-16.61,2-20.07-.66-1.53-.65-3.42-1.31-4.94l1.41.09a62.44,62.44,0,0,0,.2-11.6l1,1.07c.09-3-4.09-3.73-4.17-6.46l2.11-.82c0-5.15,1.83-10.37-.09-15.46a1.15,1.15,0,0,1,1,1.07c.05-2.43,1.43-9.39-1.47-8.51,1.88-.06.18-5.32-.65-8.1l1.39.43c-1.78-2.35-2.27-2.42-2.76-5.7.18-.78,1.12-.69.76.35.73-2.59-1.32-2-.58-5.16l.89,1.17c.11-2.67-.37-2.46-1.4-3.92-.56-1.68.35-5.06,1.61-5.46a3.23,3.23,0,0,1-1.44-3.39c.48-.21.78.36.92.65,1-4.46-1.62-6.63-.25-9.69a1,1,0,0,0,.83-.52,49.24,49.24,0,0,1-.21,6.13c1.28,0,1.51-2.87,3.28-.59-1-2.3-3.07-6.22-2.47-9a1.51,1.51,0,0,1,.45-.37l.14.29a3,3,0,0,0-.2-1.76,10.12,10.12,0,0,0,.38-2.31c1.06-.33.57-3.28.63-4.71-1.41.12-1.18-1.75-2.34,0,.1-.23.16.27.22,1.22a2.48,2.48,0,0,0,.15.61l-.13-.1c.05.93.08,2.16.1,3.54-.72-1.12-1.32-2.3-.54-3.88a29.57,29.57,0,0,1-2.26-2c2-1.95,3-5.71,4.22-6.24-.78-4.35-.52-10.26-3.16-13-.34-1.24.76-1.42,1.18-1.88.26.71.22,1.56.6,1.95-.68-2.48-.26-7.34-2.11-7.93.83-3.12,1.7,1.75,1.4-2.53l.56.58c2.95-8.44-4.71-13.72-.92-23.07-.23.64-.34,1-.65,1.1,1.67-10.66-1.57-22,1.08-32.49.53-3-.64-3.32-1.54-5.14l1.51-.65-1.74-3.12c-1.28-4.43,3.7-7.67,1.29-13.27l-1,.72c.2-2-.6-6.37.57-6-.18-.2-1.05-.66-.52-1.44l.79-.06-1.36-4.95c.57-3.83,3.14.6,3.29-5-.3-2.08-2.3-5.92-2.83-5.14,0,.84-.49,2.15-1.28,2.21l-.41-1.9c-2.33-.35-4.71-1.81-6.34,2.86L277,15.49l-1.12,1-.08-2.74c-1.06,1.55-.12,2.54.53,3.64a2.25,2.25,0,0,0-1.25,1.36l2.23,3.2c-.91.38-1.81-1.44-2.31.71,1,1.49,2-1.44,2.72,1-1.06,1.55-1.92,1.1-1,2.92-.6.26-1-.13-1.24-.85.71,1.63.3,4.3,1.54,5.14-1.31,1.62.34,5.49-1.87,5.33A9.47,9.47,0,0,1,277,40.64c-2.63-2.72-.15,5.59-3,4.87,2.37,2,1.05,7.29,2.37,10.87-.19-.2-.57-.59-.45-.91-.2,2-.91,2.6-1.36,3.89,2,.26,2.41,3.39,3.62,5.08-1.89,2.47-2.3-1.5-4.12-.72,1.59-.13,1.59,4.28,2.91,3.44-1.17,1.89-.57,1.63-2.19,2.6,2.45.33.41,1.76,1.92,3.32-1.21,2.73-2.3.71-1.55,3.7C274.39,78.21,273.52,75.54,273.52,75.54Zm4.23,71.33h0c0-.62-.06-1.14-.08-1.48C277.67,145.7,277.69,146.13,277.75,146.87Zm0,6c.05-.73.06-1.64.05-2.6.49-.21,1,0,1,.62C278.47,150.55,278.19,152,277.78,152.86Zm9.74-12.68c.2.95-.08,1.27-.37,1.4a16.64,16.64,0,0,0-.17-1.66l-.17-.11A1.85,1.85,0,0,1,287.52,140.18Z"/><path class="cls-2" d="M285.67,138.48a2,2,0,0,1-.1-.39,5.33,5.33,0,0,0-.32.56l.44.34C285.69,138.82,285.68,138.64,285.67,138.48Z"/><path class="cls-2" d="M283.59,681.81l0-.13a.65.65,0,0,1-.2.26C283.49,681.86,283.53,681.86,283.59,681.81Z"/><polygon class="cls-2" points="275.09 235.63 275.44 235.62 275.13 235.09 275.09 235.63"/><path class="cls-2" d="M278.77,714.82a.73.73,0,0,0-.36.43C278.5,715.23,278.63,715,278.77,714.82Z"/><path class="cls-2" d="M278.45,729.08l-.5,2A12.24,12.24,0,0,0,278.45,729.08Z"/><path class="cls-2" d="M277.75,740a1.76,1.76,0,0,0,.61.21v0Z"/><path class="cls-2" d="M276.1,565.72a1.42,1.42,0,0,0-.06-.42C275.77,564.3,275.87,565,276.1,565.72Z"/><path class="cls-2" d="M279.39,617.59a10.68,10.68,0,0,1-.67-1.66C278.61,616.85,278.59,617.57,279.39,617.59Z"/><path class="cls-2" d="M274.41,507.79h0c0-.13,0-.24,0-.36Z"/><path class="cls-2" d="M278.75,613.51a4.25,4.25,0,0,0,0,2.42A6.35,6.35,0,0,0,278.75,613.51Z"/><path class="cls-2" d="M277.12,787.56l-.06.53a.3.3,0,0,1,.22.06Z"/><path class="cls-2" d="M277.28,788.15l.17.59C277.45,788.47,277.44,788.23,277.28,788.15Z"/><path class="cls-2" d="M277.8,790l-.35-1.23C277.45,789.16,277.4,789.69,277.8,790Z"/><path class="cls-2" d="M277.77,773l-.51-.16A.81.81,0,0,0,277.77,773Z"/><path class="cls-2" d="M277.62,768.63c-.12,1.06-1.09,2.64-.77,4.11l.41.14C276.5,772.19,278.48,769.63,277.62,768.63Z"/><path class="cls-2" d="M283.92,750.22l-.41,3.7c.54-.65,1.27-1.5,1.4.19C286.53,749.45,283.7,755.07,283.92,750.22Z"/><path class="cls-2" d="M284.71,738.76c.25,2,.78,0,1.09.09C285.31,737.59,285.18,737.28,284.71,738.76Z"/><path class="cls-2" d="M284.71,656l1.28.2C285.81,654.62,285.49,656.13,284.71,656Z"/><polygon class="cls-2" points="278.1 640.12 277.31 641.61 278.48 642.32 278.1 640.12"/><polygon class="cls-2" points="287.21 630.76 287.39 631.43 286.93 628.88 287.21 630.76"/><path class="cls-2" d="M286.76,491.68l-1.58.46C285.46,493.17,287.23,493.39,286.76,491.68Z"/><path class="cls-2" d="M285.15,431.63a2.72,2.72,0,0,0,.52-3.38C285.56,429.6,285,430.94,285.15,431.63Z"/><polygon class="cls-2" points="287.72 251.55 288.25 252.76 287.81 250.48 287.72 251.55"/><path class="cls-2" d="M422.83,4c-.43-.42-1.41-.18-1.22,1l1.66.81Z"/><path class="cls-2" d="M419.76,11.73c.8,1.35,2.21,2.91,3.73,2-1.59-1.33-.92-1.66-2.82-3.1-.19-1.15.53-2,1.14-1.81-.42-.41.37-1.79-.67-2.41-1.28,1.5-1.33,3.39-.28,5.37C420.5,12.24,420.07,11.83,419.76,11.73Z"/><path class="cls-2" d="M417.18,124.05l.2-.73A2,2,0,0,0,417.18,124.05Z"/><path class="cls-2" d="M416.27,193.63c0-.53-.2-.75-.35-.77C416,193.35,416.13,193.75,416.27,193.63Z"/><path class="cls-2" d="M414.45,205.52c.05-.26.08-.47.11-.7C414.41,205.08,414.32,205.35,414.45,205.52Z"/><path class="cls-2" d="M417.18,124.05l-.52,1.85C417.2,126,417.06,125,417.18,124.05Z"/><path class="cls-2" d="M423.75,27.22a2.71,2.71,0,0,0-.43-1c.07.32.13.63.17.95A1.22,1.22,0,0,1,423.75,27.22Z"/><path class="cls-2" d="M415.84,93.37V92.8a4.74,4.74,0,0,0-.68-.47Z"/><path class="cls-2" d="M415.59,69.82c-.07.54,1.34.72,2,.93a1.73,1.73,0,0,1-1-1.16A2.35,2.35,0,0,0,415.59,69.82Z"/><path class="cls-2" d="M418.06,32.49l-.2-.66C417.92,32,418,32.29,418.06,32.49Z"/><path class="cls-2" d="M415.54,110.22a1.21,1.21,0,0,0-.51.21A.82.82,0,0,0,415.54,110.22Z"/><path class="cls-2" d="M426.1,768.71a2.08,2.08,0,0,0-.25,0C426,768.85,426.09,768.89,426.1,768.71Z"/><path class="cls-2" d="M419.14,796l-.08-.38a5.29,5.29,0,0,0-.79-.08Z"/><path class="cls-2" d="M412.65,227.26a.38.38,0,0,1,0-.1C412.52,226.59,412.54,226.92,412.65,227.26Z"/><path class="cls-2" d="M413.69,426.88c1.25-2.26,1.61,3.68,3,.27C416.14,427.47,414.5,424.06,413.69,426.88Z"/><path class="cls-2" d="M423.57,27.83a7.67,7.67,0,0,1,0,1A2.69,2.69,0,0,0,423.57,27.83Z"/><path class="cls-2" d="M416.69,427.15h0l.13-.35Z"/><path class="cls-2" d="M413.49,277.36a1.68,1.68,0,0,0,.62-.51C414,276.87,413.79,277,413.49,277.36Z"/><path class="cls-2" d="M415.49,240l-.18.92A3.35,3.35,0,0,0,415.49,240Z"/><path class="cls-2" d="M415.48,296.74a2.08,2.08,0,0,0-.12,1.36.72.72,0,0,0,.18-.21A1,1,0,0,1,415.48,296.74Z"/><path class="cls-2" d="M415.49,316.91c.1-.1.18-.25.28-.37s0-.43-.08-.64Z"/><path class="cls-2" d="M425.42,707.41a3.94,3.94,0,0,1-1.26.93C425.16,708,425.51,711,425.42,707.41Z"/><path class="cls-2" d="M423,27.23a.8.8,0,0,1,.61.6c0-.23,0-.46-.08-.67C423.28,27.1,423.09,27.08,423,27.23Z"/><path class="cls-2" d="M426.56,297.56l-.2,3.21A23.68,23.68,0,0,0,426.56,297.56Z"/><path class="cls-2" d="M425.22,562.7l.17.74A1,1,0,0,0,425.22,562.7Z"/><path class="cls-2" d="M426.56,310.28a4.81,4.81,0,0,0-1,1.8,1.19,1.19,0,0,0,.37.37Z"/><path class="cls-2" d="M424.14,708.35h0Z"/><path class="cls-2" d="M427.48,729.46c0-3.06-1.81-1.44-2.87-2.09-.52-3.64,1.36-1.68,2.31-2.92-.49-2.28-2.19-4-2.11-5.72.3-.13.41-.46.79-.07-1.47-2.41-.07-7.14-1.91-9.95a1,1,0,0,1,.45-.36,4.53,4.53,0,0,1-2.53.43c0-1.37-1.17-2.54,0-3.06,0,.84.45.91.83,1.3l-.53-1.43c1.74-1.29.6,2,1.89,2-.57-2.8-2-6.06-1.51-8.2,1.7-.45.57,5,2.08,2.15l-.65,3.32c2.68-2.54-.19,2,2.68-.32.49-4.36-.87-4.88-.37-9.23-.94-1-1.4.32-2.34-.66-1.7-6.19,4.27-4.87,2-9.42-1.13-1.18-3.28-1.63-2.15-4.87l1.92,1.1c.19-4.22-2.76-2.41-1.46-6.84.75.79.63,3.33.86,2.69,1.52-2.87-1.09-2-1.09-4.24l1.7-.45c-.27-4.5-1.49-9.46-1.8-14.44.5.28,1,1.13,1.55,0-.85-6.29.21-13.42,1.22-19.48L425,636.31c0-.53.66-1,1-.41.56-2.36-.93-.12-1.51-1.26-.1-1.34.85-1.77,1.29-.92-1.25-4.17-2.68-11.88-1.11-16.27l.43.86c.6-3.42-3-3.86-1.64-7l.26.6c.64-7.42-.7-15.62,1.51-21.28-2.11-1.08.94-7.35-2-7.83,1.46-4.24,2-3,3-9,.13-1.59-1.85-2.38-2.15-4.35l1.54,0-1.62-2.67,1.84-1.43-.39-1.84c-.09.73-.69,1.56-1.14,1.45-.69-2.89,1.08-7,1.87-7.11L424.81,551c.62.15.84,1.29,1.23,2.2-1.57-3.65,1.62-.67.18-4-.35.45-.91-.24-1.23-.32.94-1.66.94-5.45.55-8.26l1.06.54c.27-5.07-.51-10.68-.49-16.37-.49,2-2.33,1.57-2.51-.1l1.63-.66c-1-1.08-.62,1.74-1.85-.47.19-2.13,1.85-1.43,2.38-.21l-.56-2.58c.48-.15.74.45,1.36.61-1-1.06,1.64-4.46-.12-6l.48-.14c0-5.69-.54-8.27-.62-12.9-1.41-.09-1.1-1.9-2.24-3.28.45-3.4,1.56-7.18,1.44-11.28-.7-2.88-1.19-.84-2-2.14,1.28-.21,1.16-4.3,2.08-2.18a74.7,74.7,0,0,0-1.29-12.51c-.53.68-.75,1.44-1.19,1-.21-1.13.54-2.57,1.15-2.41l.13.3c-1.92-7,3.74-16.12,1.07-21.69l.13.32-1.39-5.77c.22-2.66,1,1.59,1.75-.38-2.13-6.22.31-9.83-1.11-14.95,3.78-4-.27-14.08,2.15-19.44l-.89.31c-.88-1.38.5-1.67.71-2.69-.69.14-.8,1.5-1.28.64-1.08-11.72,1.3-24.2,2.1-36.21.24-4.4-4.6-2.5-2.48-8l1.65,1.57c-2-8.87.07-18.14-1.61-26.82.38.52.88.53.87,1.38,1.2-1.84.06-6.79-.92-6.82.11-1.35.88-.31,1.38-1.14.71-1.84-1.53-4.62-.34-5.6.2-.17.39.52.49.85-.59-1.19.14-5.58-1.24-4.43.66-3.26-.62-6.24.2-8.84-1.54-1.69.75-5.58-1.44-6.12,2.26.24,1.82-5.71.76-7.77.68.69.71-1.79,1.65-1,0-2.35-.45-4.5-1.61-4.09,2.71-4.34-2.18-8.71,1.29-11.15-1.21-7-2-13.45-2.57-19.74,2.26.23.23,6.95,2.6,6.68-.93-6-2.87-9.4-2.32-15.31.3-1.54,1,.86,1.36,1.38-.93-5.95.2-11.52-1-16.81.21,0,.44.58.61,1.12-.08-1,.33-2.43-.7-2.31l.28,1c-1.49,1.67-3.11-4.15-3.89-4.34,2.94,1.78.74-5.23,4.45-2.42-.2-.68-.68-1.54-1.37-1.39.2-1,.6-1.34,1.38-.31-.55-3.74-1.64-2.41-1.62-5.8.5,0,.69.7,1.27,1.05a8.9,8.9,0,0,1-1.52-6.31c.3.18.69-.16.69.7-.15-4.92-2.58-8.39-1.65-13.78,2.16,1.59.71-1.84,2.58-2.13l-.56-2.9-.9,1.17c0-2.55-1.33-4.79-.72-7l.77,1.89-.35-4.76-.71,2.69c-1-2.57-2.36.28-1.84-3.11.19.69,0-2.54,1.12-3.86h0a6.07,6.07,0,0,1-.75-4.44c.59-.48,2.06.4,2.46.08-1.56-1.24-.43-6-2.1-7.53a1.44,1.44,0,0,0,1.57.38l-1.26-1c.4-1.18.6-1.35,1.38-1.16.23-3.54-2.37,1.13-1.35-3.08.1.33.29.18.49.86.53-4.22-.81-8.15-.18-12,1.87-1.15.46,3.39,2,2.08-.34-5.6-2.25-11.59-1.81-17l-.21,1c-2.65-.75,1.31-4,.06-6.77.2.67,1.48.88,1.18.7.43-3.71-.65-7.58-1.49-13.2l.69.69c.6-2.18.35-5.75.66-8.11-.68-.7-.57-2-1.56-1.23,3.88-7.28-2.08-13.88,1.15-20.34,0,.77.59,1.84.6,1.23l-.63-5.5c-1.16.43-.7.72-1.6,1.87a5.68,5.68,0,0,1-1.22-3.61c.77,2.48,1.86,0,2.5-1.09-.35.18-.74-.18-1.1-.09,2.05-2.88-2.33-.48-.94-4.41l.61.21c-.31-1.47-1.12-2.82-.94-4.4,1.33-.66.62,1.56,1.72,1.66-.08-2.22-2.53-4.39-1.2-6.4.37,1,.38,2.3.75,3.25,1.57-2.19,1.17-2.45,1.42-4.08l0,.16.71-3.76-.42,1c-3.49-2.78-.64-5.67-2.92-9.42,2.16,3.65,1.25.61,2.76.89.42-1,.9-2.42,1.32-2-1.22-1.77,1-3-.82-5.46.49-.11,0-1.89,1.27-1.49-.38-2.31-.85.54-1.46.35-1.67-3.55,2-8.35-.27-13.46-.94-4.4-2.58-5.21-3.4-9.3.78-1.38,1.78,1.13,1.78,1.13a9.69,9.69,0,0,0,0-6c.43.43.79,0,1.34-.65-.13-1.68-1.78-1.12-1.06-3.34a7,7,0,0,1,2,1.68c-.45-2-1.36-3.94-1.8-6,.85-.54,1.29,1.24,1.84,2-.38-2.31-.77-6-2.11-6.69L420.77,17c-.07-.84,1.15-.44,1.4.18,1.05,2-.47,2.86-1,3l-.31-1.46c-2.86,1.5.46,5.87.29,8.81l-2.08-1.23,1.73,3c-.54.64-1.7,1.08-2-.37-1,2.11.74,1.87-.41,3.68-.18.2-.28.11-.36-.08l.62,2.07c-.44-.41-1.47.34-1.17-.93-1.2,3.7,1.56,6,0,7.36l-.12-.31c.7,5.14,1.52.5,3.31,4.35l-3.76,2.59,1.52.5c-.05.53-.16,1.58-.78,1.39,1,2,.67-.34,1.66.81-1.4,2.55.65,7-1.79,7.6,1.16.91.9-2.44,1.71.28-2.62.78.44,3.15-.76,5.48-1.35-.72-.63-2.92-1.84-.59,2.29,1.4-.5,4.53-.06,6.5,1.82.09.76,4.27,1.36,7.56-.61-.21-1,6.21-1.65,9.27l-.31-.09c1.84.59,1.49,3.76,1.87,6.06-1.1-.09-1.53-.5-2-1.75V92.8A3.8,3.8,0,0,1,417,95.39l-1.38-.54c.08,2.88,1.62,5.8.7,9.51,1.28.21,3.57-3,4.42,1-.69.15-1.87.29-2.16-.73.1.33.58,1.19.28,1.87l-1.16-1.57c-.51,1.69,1,.89.86,2.24-1,0-.7,1-1.48.8-.1-.34.4-1.17,0-1.69-.18,1.52-.77,3.36-1.51,4a1.11,1.11,0,0,1,1.45,1.11c.08,2.89-1.18,1-1.69,2.67.68.7,0,2.54,1.45,2.58,0,.85-.7,1-1.1,1.33.65,1.49.19,7,1.76,5.28l.1-.38c0,.07,0,.16.07.25v0c1.47,4.88-.84,10.15-.21,15h-.49c.56,2.9.33,6.45,1.4,8.51,0,.86-.91,2-1.49,1.66.37,2.21.92,2.46.11,5.66-.86-2.23-.77.76-.63-2.28-.43,2.87-1.22,3.52.13,6.61-1.27-1.05-1.59,2.17-1.22,3.53l.91-2a20.59,20.59,0,0,1,0,4.24l-1.66-.73c-2,5.88,3.44,10.61.06,15.09,1.16,1.55.81-3.2,2.18-1.81-.23,2.71-2.62,5.53-2.62,6.38-.92,3.71,2.43,3.46,1.8,7.34.59-.5,2.18-1,2.73,1.93-.21,2.71-2.48,3.33-3,1.62-.05-.65.14-1,.34-.93-.22-.88-.47-2-1.11-1l.59.35c-.61,1.34-.54,5.07-1.52,4.19.57,2.05,1,.88,1.28-.64-.85,3.48,0,5.43-.6,9,.33-.57,1-1.1,1-.53-.74,5.24,1.13,2.31,1.39,5.86-.91,2-2.16-.72-1.41,2.86-.61,2.18-1.57.46-2.05-.41,1.14,3.26-.76,6.09-1,8l-.47-1.71a9.5,9.5,0,0,1,.27,2.72l1.19-1c-.21,1-.22,1.86-.71,1.84.78,1,2-.79,3,1.27-.61,1.34.64,4.09-.93,4.56.53-4.23-1.58.46-1.84-3.11a5.57,5.57,0,0,1,0,2.54c-.18.15-.33-.14-.42-.42-1.41,4,1.78,1.86,1.74,6.05-.88-.53-1.68,1-1.49,1.66,0-1.69,1.48-.81,2.16.74-.69,2.69.51,2.92.43,4.33l.33-1.61c.89.55.77,1.89,1.05,3.76-.69.16-.48-1.7-.78-1,1.56,2.08-1.62,4.7-.57,7.6-.6,1.35-1.66.13-2.07,1.31,1.15,3.25-1.22,3.52-.27,6.94,1.2-1,.91-1.16,2.07,1.25l-.84-5.62,1.73,3.61c0-1.7-.75-3.58-.54-4.6,1,1.72.67,1.54,1.66.73-1.79,2.32,1.05,4.6-.16,7.28l-3-.08c-1.31,4,1.52,7.17.78,12.4l.51-1.68c1.17.7.16,3.23.64,4.93-1-.16-1.35.9-2,1.62.73-.09-.07,3.83,1.9,4.31l-1.3,2.34c-.53,4.22,2.82,4.82,2.48,8.88-1.07-1.22-1.77.63-2.54-2.1,0,1.36-.19,2.58.49,2.6-.61.79,1.33,3.76.4,5,.43.57,1.46.76,1.38,2.28-.2.17-.49,0-.49,0,.49,0,.67,2.38,1.76,1.05-3.08,4.18.22,11.68-2.42,15.32.33,3,.65,6.53.72,9.22-.3-.18-.49,0-.39-.52-.92,3.71,2.83,2.28,1.81,6.5-1.6,2.15-.86-2.24-1.47-.9-3.25.59.44,5.09-1.45,7.93l-.19-.68c-1.11,2.17,1.23,5.29,1,8.84,0,0-.29-.18-.49,0,1.65,2.42,2.2,7,2.66,10.42-1.27-1.06-.67-1.55-2-.9.18,1.53,2.07-.45,2.43,2.61-.69,1-1.3,3.19-2.68,3.48l-.08-2.88c-1.78,1.48.07,3.73-.24,5.25l-.78-.2c.25,4.41,2.21,4.48,2.07,9.22l.59-.49c1.95,2.59-1.09,2.17.36,4.76l-2,.78A65.9,65.9,0,0,1,418,388c-1.46-1.73-2.21-5.32-3.08-7.54,0,1.69.15,5.76,1.12,6.64-.19-.68-.67-1.54-.37-2.22a13.19,13.19,0,0,1,2.28,8.2c-3.83-.6-1,8.8-3.94,11.25,1.42,6-.6,11.85-.37,18.82,3-2.47.08,2,3.14,1.6.19,1.62.14,2.24-.05,2.39l-1.83,4.91c-.89,1.16-.67-1.54-1.36-1.39-.24,3.55-1.3,1.49-2.11,3.83,1.09-.48,1.57,1.24,1.15,3.26l1.41-2.85c1.63,5-2.57,4.29-1,9.29l-1-1.58c.57,2.57,0,9.47,2.44,12-.35.46-1.19,1.06-1.41-.07-.37,6.13,2.61,13.65,1.1,18.41l-.75-.46c.22,1.14,1.41,2,.66,3.42-.31-.07-.75-.46-.79.07.25.61,1.31,3,.87,4.56l-.84-1.3c-1,6,2.05,9.18,2.56,14.2-2.2,0-2.92,4.69-3.27,7l-.31-.08c-.28,7,1.82,11.83,2.68,18.28-2.39,4-1,13.57-2.34,20,.4-1,1.72.16,1.94,1.31-.45,1.51,1.53,4.17-.49,3.93l0-.54c-2,1.14-1.46,4.25-1.51,6.67l2.64.4c-3.84,6.34,1.41,16.61-2,20.07.66,1.53.65,3.42,1.31,4.94l-1.41-.09a62.44,62.44,0,0,0-.2,11.6l-1-1.07c-.09,3,4.09,3.73,4.17,6.46l-2.11.82c0,5.15-1.83,10.37.09,15.46a1.15,1.15,0,0,1-1-1.07c-.05,2.43-1.43,9.39,1.47,8.51-1.88.06-.18,5.32.65,8.1l-1.39-.43c1.78,2.35,2.27,2.42,2.76,5.7-.18.78-1.12.69-.76-.35-.73,2.59,1.32,2,.58,5.16l-.89-1.17c-.11,2.67.37,2.46,1.4,3.92.56,1.68-.35,5.06-1.61,5.46a3.23,3.23,0,0,1,1.44,3.39c-.48.21-.78-.36-.92-.65-1,4.46,1.62,6.63.25,9.69a1,1,0,0,0-.83.52,49.24,49.24,0,0,1,.21-6.13c-1.28,0-1.51,2.87-3.28.59,1,2.3,3.07,6.22,2.47,9a1.51,1.51,0,0,1-.45.37L414,659a3,3,0,0,0,.2,1.76,10.12,10.12,0,0,0-.38,2.31c-1.06.33-.57,3.28-.63,4.71,1.41-.12,1.18,1.75,2.34,0-.1.23-.16-.27-.22-1.22a2.48,2.48,0,0,0-.15-.61l.13.1c-.05-.93-.08-2.16-.1-3.54.72,1.12,1.32,2.3.54,3.88a29.57,29.57,0,0,1,2.26,2c-2,1.95-3,5.71-4.22,6.24.78,4.35.52,10.26,3.16,13,.34,1.24-.76,1.42-1.18,1.88-.26-.71-.22-1.56-.6-2,.68,2.48.26,7.34,2.11,7.93-.83,3.12-1.7-1.75-1.4,2.53l-.56-.58c-2.95,8.44,4.71,13.72.92,23.07.23-.64.34-1,.65-1.1-1.67,10.66,1.57,22-1.08,32.49-.53,3,.64,3.32,1.54,5.14l-1.51.65,1.74,3.12c1.28,4.43-3.7,7.67-1.29,13.27l1-.72c-.2,2,.6,6.37-.57,6,.18.2,1.05.66.52,1.44l-.79.06,1.36,4.95c-.57,3.83-3.14-.6-3.29,5,.3,2.08,2.3,5.92,2.83,5.14,0-.84.49-2.15,1.28-2.21l.41,1.9c2.33.35,4.71,1.81,6.34-2.86L424,789.51l1.12-1,.08,2.74c1.06-1.55.12-2.54-.53-3.64a2.25,2.25,0,0,0,1.25-1.36l-2.23-3.2c.91-.38,1.81,1.44,2.31-.71-1-1.49-2,1.44-2.72-1,1.06-1.55,1.92-1.1,1-2.92.6-.26,1,.13,1.24.85-.71-1.63-.3-4.3-1.54-5.14,1.31-1.62-.34-5.49,1.87-5.33a9.47,9.47,0,0,1-1.82-4.35c2.63,2.72.15-5.59,3-4.87-2.37-2-1.05-7.29-2.37-10.87.19.2.57.59.45.91.2-2,.91-2.6,1.36-3.89-2-.26-2.41-3.39-3.62-5.08,1.89-2.47,2.3,1.5,4.12.72-1.59.13-1.59-4.28-2.91-3.44,1.17-1.89.57-1.63,2.19-2.6-2.45-.33-.41-1.76-1.92-3.32,1.21-2.73,2.3-.71,1.55-3.7C426.61,726.79,427.48,729.46,427.48,729.46Zm-4.23-71.33h0c0,.62.06,1.14.08,1.48C423.33,659.3,423.31,658.87,423.25,658.13Zm0-6c-.05.73-.06,1.64-.05,2.6-.49.21-1,0-1-.62C422.53,654.45,422.81,653,423.22,652.14Zm-9.74,12.68c-.2-1,.08-1.27.37-1.4a16.64,16.64,0,0,0,.17,1.66l.17.11A1.85,1.85,0,0,1,413.48,664.82Z"/><path class="cls-2" d="M415.33,666.52a2,2,0,0,1,.1.39,5.33,5.33,0,0,0,.32-.56l-.44-.34C415.31,666.18,415.32,666.36,415.33,666.52Z"/><path class="cls-2" d="M417.41,123.19l0,.13a.65.65,0,0,1,.2-.26C417.51,123.14,417.47,123.14,417.41,123.19Z"/><polygon class="cls-2" points="425.91 569.38 425.56 569.38 425.87 569.91 425.91 569.38"/><path class="cls-2" d="M422.23,90.18a.73.73,0,0,0,.36-.43C422.5,89.77,422.37,90,422.23,90.18Z"/><path class="cls-2" d="M422.55,75.92l.5-2A12.24,12.24,0,0,0,422.55,75.92Z"/><path class="cls-2" d="M423.25,65a1.76,1.76,0,0,0-.61-.21,0,0,0,0,1,0,0Z"/><path class="cls-2" d="M424.9,239.28a1.42,1.42,0,0,0,.06.42C425.23,240.7,425.13,240,424.9,239.28Z"/><path class="cls-2" d="M421.61,187.41a10.68,10.68,0,0,1,.67,1.66C422.39,188.15,422.41,187.43,421.61,187.41Z"/><path class="cls-2" d="M426.59,297.21h0c0,.13,0,.24,0,.36Z"/><path class="cls-2" d="M422.25,191.49a4.25,4.25,0,0,0,0-2.42A6.35,6.35,0,0,0,422.25,191.49Z"/><path class="cls-2" d="M423.88,17.44l.06-.53a.3.3,0,0,1-.22-.06Z"/><path class="cls-2" d="M423.72,16.85l-.17-.59C423.55,16.53,423.56,16.77,423.72,16.85Z"/><path class="cls-2" d="M423.2,15l.35,1.23C423.55,15.84,423.6,15.31,423.2,15Z"/><path class="cls-2" d="M423.23,32l.51.16A.81.81,0,0,0,423.23,32Z"/><path class="cls-2" d="M423.38,36.37c.12-1.06,1.09-2.64.77-4.11l-.41-.14C424.5,32.81,422.52,35.37,423.38,36.37Z"/><path class="cls-2" d="M417.08,54.78l.41-3.7c-.54.65-1.27,1.5-1.4-.19C414.47,55.55,417.3,49.93,417.08,54.78Z"/><path class="cls-2" d="M416.29,66.24c-.25-2-.78,0-1.09-.09C415.69,67.41,415.82,67.72,416.29,66.24Z"/><path class="cls-2" d="M416.29,149.05l-1.28-.2C415.19,150.38,415.51,148.87,416.29,149.05Z"/><polygon class="cls-2" points="422.9 164.88 423.69 163.39 422.52 162.68 422.9 164.88"/><polygon class="cls-2" points="413.79 174.24 413.61 173.57 414.07 176.12 413.79 174.24"/><path class="cls-2" d="M414.24,313.32l1.58-.46C415.54,311.83,413.77,311.61,414.24,313.32Z"/><path class="cls-2" d="M415.85,373.37a2.72,2.72,0,0,0-.52,3.38C415.44,375.4,416.05,374.06,415.85,373.37Z"/><polygon class="cls-2" points="413.28 553.45 412.75 552.24 413.19 554.52 413.28 553.45"/><path class="cls-2" d="M559.17,796c.43.42,1.41.18,1.22-1l-1.66-.81Z"/><path class="cls-2" d="M562.24,788.27c-.8-1.35-2.21-2.91-3.73-2,1.59,1.33.92,1.66,2.82,3.1.19,1.15-.53,2-1.14,1.81.42.41-.37,1.79.67,2.41,1.28-1.5,1.33-3.39.28-5.37C561.5,787.76,561.93,788.17,562.24,788.27Z"/><path class="cls-2" d="M564.82,676l-.2.73A2,2,0,0,0,564.82,676Z"/><path class="cls-2" d="M565.73,606.37c0,.53.2.75.35.77C566,606.65,565.87,606.25,565.73,606.37Z"/><path class="cls-2" d="M567.55,594.48c0,.26-.08.47-.11.7C567.59,594.92,567.68,594.65,567.55,594.48Z"/><path class="cls-2" d="M564.82,676l.52-1.85C564.8,674,564.94,675.05,564.82,676Z"/><path class="cls-2" d="M558.25,772.78a2.71,2.71,0,0,0,.43,1c-.07-.32-.13-.63-.17-.95A1.22,1.22,0,0,1,558.25,772.78Z"/><path class="cls-2" d="M566.16,706.63v.57a4.74,4.74,0,0,0,.68.47Z"/><path class="cls-2" d="M566.41,730.18c.07-.54-1.34-.72-1.95-.93a1.73,1.73,0,0,1,1,1.16A2.35,2.35,0,0,0,566.41,730.18Z"/><path class="cls-2" d="M563.94,767.51l.2.66C564.08,768,564,767.71,563.94,767.51Z"/><path class="cls-2" d="M566.46,689.78a1.21,1.21,0,0,0,.51-.21A.82.82,0,0,0,566.46,689.78Z"/><path class="cls-2" d="M555.9,31.29a2.08,2.08,0,0,0,.25,0C556,31.15,555.91,31.11,555.9,31.29Z"/><path class="cls-2" d="M562.86,4l.08.38a5.29,5.29,0,0,0,.79.08Z"/><path class="cls-2" d="M569.35,572.74a.38.38,0,0,1,0,.1C569.48,573.41,569.46,573.08,569.35,572.74Z"/><path class="cls-2" d="M568.31,373.12c-1.25,2.26-1.61-3.68-3-.27C565.86,372.53,567.5,375.94,568.31,373.12Z"/><path class="cls-2" d="M558.43,772.17a7.67,7.67,0,0,1,0-1A2.69,2.69,0,0,0,558.43,772.17Z"/><path class="cls-2" d="M565.31,372.85h0l-.13.35Z"/><path class="cls-2" d="M568.51,522.64a1.68,1.68,0,0,0-.62.51C568,523.13,568.21,523,568.51,522.64Z"/><path class="cls-2" d="M566.51,560l.18-.92A3.35,3.35,0,0,0,566.51,560Z"/><path class="cls-2" d="M566.52,503.26a2.08,2.08,0,0,0,.12-1.36.72.72,0,0,0-.18.21A1,1,0,0,1,566.52,503.26Z"/><path class="cls-2" d="M566.51,483.09c-.1.1-.18.25-.28.37s0,.43.08.64Z"/><path class="cls-2" d="M556.58,92.59a3.94,3.94,0,0,1,1.26-.93C556.84,92,556.49,89,556.58,92.59Z"/><path class="cls-2" d="M559,772.77a.8.8,0,0,1-.61-.6c0,.23,0,.46.08.67C558.72,772.9,558.91,772.92,559,772.77Z"/><path class="cls-2" d="M555.44,502.44l.2-3.21A23.68,23.68,0,0,0,555.44,502.44Z"/><path class="cls-2" d="M556.78,237.3l-.17-.74A1,1,0,0,0,556.78,237.3Z"/><path class="cls-2" d="M555.44,489.72a4.81,4.81,0,0,0,1-1.8,1.19,1.19,0,0,0-.37-.37Z"/><path class="cls-2" d="M557.86,91.65h0Z"/><path class="cls-2" d="M554.52,70.54c0,3.06,1.81,1.44,2.87,2.09.52,3.64-1.36,1.68-2.31,2.92.49,2.28,2.19,4,2.11,5.72-.3.13-.41.46-.79.07,1.47,2.41.07,7.14,1.91,10a1,1,0,0,1-.45.36,4.53,4.53,0,0,1,2.53-.43c0,1.37,1.17,2.54,0,3.06,0-.84-.45-.91-.83-1.3l.53,1.43c-1.74,1.29-.6-2-1.89-2,.57,2.8,2,6.06,1.51,8.2-1.7.45-.57-5-2.08-2.15l.65-3.32c-2.68,2.54.19-2-2.68.32-.49,4.36.87,4.88.37,9.23.94,1,1.4-.32,2.34.66,1.7,6.19-4.27,4.87-2,9.42,1.13,1.18,3.28,1.63,2.15,4.87l-1.92-1.1c-.19,4.22,2.76,2.41,1.46,6.84-.75-.79-.63-3.33-.86-2.69-1.52,2.87,1.09,2,1.09,4.24l-1.7.45c.27,4.5,1.49,9.46,1.8,14.44-.5-.28-1-1.13-1.55,0,.85,6.29-.21,13.42-1.22,19.48l1.47,2.32c0,.53-.66,1-1,.41-.56,2.36.93.12,1.51,1.26.1,1.34-.85,1.77-1.29.92,1.25,4.17,2.68,11.88,1.11,16.27l-.43-.86c-.6,3.42,3,3.86,1.64,7l-.26-.6c-.64,7.42.7,15.62-1.51,21.28,2.11,1.08-.94,7.35,2,7.83-1.46,4.24-2,3-3,9-.13,1.59,1.85,2.38,2.15,4.35l-1.54.05,1.62,2.67-1.84,1.43.39,1.84c.09-.73.69-1.56,1.14-1.45.69,2.89-1.08,7-1.87,7.11l1.31,6.83c-.62-.15-.84-1.29-1.23-2.2,1.57,3.65-1.62.67-.18,4,.35-.45.91.24,1.23.32-.94,1.66-.94,5.45-.55,8.26l-1.06-.54c-.27,5.07.51,10.68.49,16.37.49-2,2.33-1.57,2.51.1l-1.63.66c1,1.08.62-1.74,1.85.47-.19,2.13-1.85,1.43-2.38.21l.56,2.58c-.48.15-.74-.45-1.36-.61,1,1.06-1.64,4.46.12,6l-.48.14c0,5.69.54,8.27.62,12.9,1.41.09,1.1,1.9,2.24,3.28-.45,3.4-1.56,7.18-1.44,11.28.7,2.88,1.19.84,2,2.14-1.28.21-1.16,4.3-2.08,2.18a74.7,74.7,0,0,0,1.29,12.51c.53-.68.75-1.44,1.19-1,.21,1.13-.54,2.57-1.15,2.41l-.13-.3c1.92,7-3.74,16.12-1.07,21.69l-.13-.32,1.39,5.77c-.22,2.66-1-1.59-1.75.38,2.13,6.22-.31,9.83,1.11,14.95-3.78,4,.27,14.08-2.15,19.44l.89-.31c.88,1.38-.5,1.67-.71,2.69.69-.14.8-1.5,1.28-.64,1.08,11.72-1.3,24.2-2.1,36.21-.24,4.4,4.6,2.5,2.48,8l-1.65-1.57c2,8.87-.07,18.14,1.61,26.82-.38-.52-.88-.53-.87-1.38-1.2,1.84-.06,6.79.92,6.82-.11,1.35-.88.31-1.38,1.14-.71,1.84,1.53,4.62.34,5.6-.2.17-.39-.52-.49-.85.59,1.19-.14,5.58,1.24,4.43-.66,3.26.62,6.24-.2,8.84,1.54,1.69-.75,5.58,1.44,6.12-2.26-.24-1.82,5.71-.76,7.77-.68-.69-.71,1.79-1.65,1,0,2.35.45,4.5,1.61,4.09-2.71,4.34,2.18,8.71-1.29,11.15,1.21,7,2,13.45,2.57,19.74-2.26-.23-.23-6.95-2.6-6.68.93,6,2.87,9.4,2.32,15.31-.3,1.54-1-.86-1.36-1.38.93,6-.2,11.52,1,16.81-.21,0-.44-.58-.61-1.12.08,1-.33,2.43.7,2.31l-.28-1c1.49-1.67,3.11,4.15,3.89,4.34-2.94-1.78-.74,5.23-4.45,2.42.2.68.68,1.54,1.37,1.39-.2,1-.6,1.34-1.38.31.55,3.74,1.64,2.41,1.62,5.8-.5,0-.69-.7-1.27-1a8.9,8.9,0,0,1,1.52,6.31c-.3-.18-.69.16-.69-.7.15,4.92,2.58,8.39,1.65,13.78-2.16-1.59-.71,1.84-2.58,2.13l.56,2.9.9-1.17c0,2.55,1.33,4.79.72,7l-.77-1.89.35,4.76.71-2.69c1,2.57,2.36-.28,1.84,3.11-.19-.69,0,2.54-1.12,3.86h0a6.07,6.07,0,0,1,.75,4.44c-.59.48-2.06-.4-2.46-.08,1.56,1.24.43,5.95,2.1,7.53a1.44,1.44,0,0,0-1.57-.38l1.26,1c-.4,1.18-.6,1.35-1.38,1.16-.23,3.54,2.37-1.13,1.35,3.08-.1-.33-.29-.18-.49-.86-.53,4.22.81,8.15.18,12-1.87,1.15-.46-3.39-2-2.08.34,5.6,2.25,11.59,1.81,17l.21-1c2.65.75-1.31,4-.06,6.77-.2-.67-1.48-.88-1.18-.7-.43,3.71.65,7.58,1.49,13.2l-.69-.69c-.6,2.18-.35,5.75-.66,8.11.68.7.57,2.05,1.56,1.23-3.88,7.28,2.08,13.88-1.15,20.34,0-.77-.59-1.84-.6-1.23l.63,5.5c1.16-.43.7-.72,1.6-1.87a5.68,5.68,0,0,1,1.22,3.61c-.77-2.48-1.86,0-2.5,1.09.35-.18.74.18,1.1.09-2,2.88,2.33.48.94,4.41l-.61-.21c.31,1.47,1.12,2.82.94,4.4-1.33.66-.62-1.56-1.72-1.66.08,2.22,2.53,4.39,1.2,6.4-.37-1-.38-2.3-.75-3.25-1.57,2.19-1.17,2.45-1.42,4.08l0-.16-.71,3.76.42-1c3.49,2.78.64,5.67,2.92,9.42-2.16-3.65-1.25-.61-2.76-.89-.42,1-.9,2.42-1.32,2,1.22,1.77-1,3,.82,5.46-.49.11,0,1.89-1.27,1.49.38,2.31.85-.54,1.46-.35,1.67,3.55-2,8.35.27,13.46.94,4.4,2.58,5.21,3.4,9.3-.78,1.38-1.78-1.13-1.78-1.13a9.69,9.69,0,0,0,0,6c-.43-.43-.79,0-1.34.65.13,1.68,1.78,1.12,1.06,3.34a7,7,0,0,1-2-1.68c.45,2,1.36,3.94,1.8,6-.85.54-1.29-1.24-1.84-2,.38,2.31.77,6,2.11,6.69l.48-1.48c.07.84-1.15.44-1.4-.18-1.05-2,.47-2.86,1-3l.31,1.46c2.86-1.5-.46-5.87-.29-8.81l2.08,1.23-1.73-3c.54-.64,1.7-1.08,2,.37,1-2.11-.74-1.87.41-3.68.18-.2.28-.11.36.08l-.62-2.07c.44.41,1.47-.34,1.17.93,1.2-3.7-1.56-6,0-7.36l.12.31c-.7-5.14-1.52-.5-3.31-4.35l3.76-2.59-1.52-.5c.05-.53.16-1.58.78-1.39-1.05-2-.67.34-1.66-.81,1.4-2.55-.65-7,1.79-7.6-1.16-.91-.9,2.44-1.71-.28,2.62-.78-.44-3.15.76-5.48,1.35.72.63,2.92,1.84.59-2.29-1.4.5-4.53.06-6.5-1.82-.09-.76-4.27-1.36-7.56.61.21,1-6.21,1.65-9.27l.31.09c-1.84-.59-1.49-3.76-1.87-6.06,1.1.09,1.53.5,2,1.75V707.2a3.8,3.8,0,0,1-1.11-2.59l1.38.54c-.08-2.88-1.62-5.8-.7-9.51-1.28-.21-3.57,3-4.42-1,.69-.15,1.87-.29,2.16.73-.1-.33-.58-1.19-.28-1.87l1.16,1.57c.51-1.69-1-.89-.86-2.24,1,0,.7-1,1.48-.8.1.34-.4,1.17,0,1.69.18-1.52.77-3.36,1.51-4a1.11,1.11,0,0,1-1.45-1.11c-.08-2.89,1.18-1,1.69-2.67-.68-.7,0-2.54-1.45-2.58,0-.85.7-1,1.1-1.33-.65-1.49-.19-7-1.76-5.28l-.1.38c0-.07,0-.16-.07-.25v0c-1.47-4.88.84-10.15.21-15h.49c-.56-2.9-.33-6.45-1.4-8.51,0-.86.91-2,1.49-1.66-.37-2.21-.92-2.46-.11-5.66.86,2.23.77-.76.63,2.28.43-2.87,1.22-3.52-.13-6.61,1.27,1.05,1.59-2.17,1.22-3.53l-.91,2a20.59,20.59,0,0,1,0-4.24l1.66.73c2-5.88-3.44-10.61-.06-15.09-1.16-1.55-.81,3.2-2.18,1.81.23-2.71,2.62-5.53,2.62-6.38.92-3.71-2.43-3.46-1.8-7.34-.59.5-2.18,1-2.73-1.93.21-2.71,2.48-3.33,3-1.62.05.65-.14,1-.34.93.22.88.47,2,1.11,1l-.59-.35c.61-1.34.54-5.07,1.52-4.19-.57-2-1-.88-1.28.64.85-3.48,0-5.43.6-9-.33.57-1,1.1-1,.53.74-5.24-1.13-2.31-1.39-5.86.91-2,2.16.72,1.41-2.86.61-2.18,1.57-.46,2,.41-1.14-3.26.76-6.09,1-7.95l.47,1.71a9.5,9.5,0,0,1-.27-2.72l-1.19,1c.21-1,.22-1.86.71-1.84-.78-1-2,.79-3-1.27.61-1.34-.64-4.09.93-4.56-.53,4.23,1.58-.46,1.84,3.11a5.57,5.57,0,0,1,0-2.54c.18-.15.33.14.42.42,1.41-4-1.78-1.86-1.74-6,.88.53,1.68-1,1.49-1.66,0,1.69-1.48.81-2.16-.74.69-2.69-.51-2.92-.43-4.33l-.33,1.61c-.89-.55-.77-1.89-1-3.76.69-.16.48,1.7.78,1-1.56-2.08,1.62-4.7.57-7.6.6-1.35,1.66-.13,2.07-1.31-1.15-3.25,1.22-3.52.27-6.94-1.2,1-.91,1.16-2.07-1.25l.84,5.62-1.73-3.61c0,1.7.75,3.58.54,4.6-1-1.72-.67-1.54-1.66-.73,1.79-2.32-1-4.6.16-7.28l3,.08c1.31-4-1.52-7.17-.78-12.4l-.51,1.68c-1.17-.7-.16-3.23-.64-4.93,1,.16,1.35-.9,2-1.62-.73.09.07-3.83-1.9-4.31l1.3-2.34c.53-4.22-2.82-4.82-2.48-8.88,1.07,1.22,1.77-.63,2.54,2.1,0-1.36.19-2.58-.49-2.6.61-.79-1.33-3.76-.4-5-.43-.57-1.46-.76-1.38-2.28.2-.17.49,0,.49,0-.49,0-.67-2.38-1.76-1.05,3.08-4.18-.22-11.68,2.42-15.32-.33-3-.65-6.53-.72-9.22.3.18.49,0,.39.52.92-3.71-2.83-2.28-1.81-6.5,1.6-2.15.86,2.24,1.47.9,3.25-.59-.44-5.09,1.45-7.93l.19.68c1.11-2.17-1.23-5.29-1-8.84,0,0,.29.18.49,0-1.65-2.42-2.2-7-2.66-10.42,1.27,1.06.67,1.55,2,.9-.18-1.53-2.07.45-2.43-2.61.69-1,1.3-3.19,2.68-3.48l.08,2.88c1.78-1.48-.07-3.73.24-5.25l.78.2c-.25-4.41-2.21-4.48-2.07-9.22l-.59.49c-1.95-2.59,1.09-2.17-.36-4.76l2-.78A65.9,65.9,0,0,1,564,412c1.46,1.73,2.21,5.32,3.08,7.54,0-1.69-.15-5.76-1.12-6.64.19.68.67,1.54.37,2.22a13.19,13.19,0,0,1-2.28-8.2c3.83.6,1-8.8,3.94-11.25-1.42-6,.6-11.85.37-18.82-3,2.47-.08-2-3.14-1.6-.19-1.62-.14-2.24,0-2.39l1.83-4.91c.89-1.16.67,1.54,1.36,1.39.24-3.55,1.3-1.49,2.11-3.83-1.09.48-1.57-1.24-1.15-3.26L568,365.09c-1.63-5,2.57-4.29,1-9.29l1,1.58c-.57-2.57,0-9.47-2.44-12,.35-.46,1.19-1.06,1.41.07.37-6.13-2.61-13.65-1.1-18.41l.75.46c-.22-1.14-1.41-2-.66-3.42.31.07.75.46.79-.07-.25-.61-1.31-3-.87-4.56l.84,1.3c1-6-2-9.18-2.56-14.2,2.2,0,2.92-4.69,3.27-7l.31.08c.28-7-1.82-11.83-2.68-18.28,2.39-4,1-13.57,2.34-20-.4,1-1.72-.16-1.94-1.31.45-1.51-1.53-4.17.49-3.93l0,.54c2-1.14,1.46-4.25,1.51-6.67l-2.64-.4c3.84-6.34-1.41-16.61,2-20.07-.66-1.53-.65-3.42-1.31-4.94l1.41.09a62.44,62.44,0,0,0,.2-11.6l1,1.07c.09-3-4.09-3.73-4.17-6.46l2.11-.82c0-5.15,1.83-10.37-.09-15.46a1.15,1.15,0,0,1,1,1.07c0-2.43,1.43-9.39-1.47-8.51,1.88-.06.18-5.32-.65-8.1l1.39.43c-1.78-2.35-2.27-2.42-2.76-5.7.18-.78,1.12-.69.76.35.73-2.59-1.32-2-.58-5.16l.89,1.17c.11-2.67-.37-2.46-1.4-3.92-.56-1.68.35-5.06,1.61-5.46a3.23,3.23,0,0,1-1.44-3.39c.48-.21.78.36.92.65.95-4.46-1.62-6.63-.25-9.69a1,1,0,0,0,.83-.52,49.24,49.24,0,0,1-.21,6.13c1.28,0,1.51-2.87,3.28-.59-1-2.3-3.07-6.22-2.47-9a1.51,1.51,0,0,1,.45-.37l.14.29a3,3,0,0,0-.2-1.76,10.12,10.12,0,0,0,.38-2.31c1.06-.33.57-3.28.63-4.71-1.41.12-1.18-1.75-2.34,0,.1-.23.16.27.22,1.22a2.48,2.48,0,0,0,.15.61l-.13-.1c0,.93.08,2.16.1,3.54-.72-1.12-1.32-2.3-.54-3.88a29.57,29.57,0,0,1-2.26-2c2-1.95,3-5.71,4.22-6.24-.78-4.35-.52-10.26-3.16-13-.34-1.24.76-1.42,1.18-1.88.26.71.22,1.56.6,1.95-.68-2.48-.26-7.34-2.11-7.93.83-3.12,1.7,1.75,1.4-2.53l.56.58c3-8.44-4.71-13.72-.92-23.07-.23.64-.34,1-.65,1.1,1.67-10.66-1.57-22,1.08-32.49.53-3-.64-3.32-1.54-5.14l1.51-.65-1.74-3.12c-1.28-4.43,3.7-7.67,1.29-13.27l-1,.72c.2-2-.6-6.37.57-6-.18-.2-1-.66-.52-1.44l.79-.06-1.36-4.95c.57-3.83,3.14.6,3.29-5-.3-2.08-2.3-5.92-2.83-5.14,0,.84-.49,2.15-1.28,2.21l-.41-1.9c-2.33-.35-4.71-1.81-6.34,2.86L558,10.49l-1.12,1-.08-2.74c-1.06,1.55-.12,2.54.53,3.64a2.25,2.25,0,0,0-1.25,1.36l2.23,3.2c-.91.38-1.81-1.44-2.31.71,1,1.49,2-1.44,2.72,1-1.06,1.55-1.92,1.1-1,2.92-.6.26-1-.13-1.24-.85.71,1.63.3,4.3,1.54,5.14-1.31,1.62.34,5.49-1.87,5.33A9.47,9.47,0,0,1,558,35.64c-2.63-2.72-.15,5.59-3,4.87,2.37,2,1,7.29,2.37,10.87-.19-.2-.57-.59-.45-.91-.2,2-.91,2.6-1.36,3.89,2,.26,2.41,3.39,3.62,5.08-1.89,2.47-2.3-1.5-4.12-.72,1.59-.13,1.59,4.28,2.91,3.44-1.17,1.89-.57,1.63-2.19,2.6,2.45.33.41,1.76,1.92,3.32-1.21,2.73-2.3.71-1.55,3.7C555.39,73.21,554.52,70.54,554.52,70.54Zm4.23,71.33h0c0-.62-.06-1.14-.08-1.48C558.67,140.7,558.69,141.13,558.75,141.87Zm0,6c.05-.73.06-1.64.05-2.6.49-.21,1,0,1,.62C559.47,145.55,559.19,147,558.78,147.86Zm9.74-12.68c.2.95-.08,1.27-.37,1.4a16.64,16.64,0,0,0-.17-1.66l-.17-.11A1.85,1.85,0,0,1,568.52,135.18Z"/><path class="cls-2" d="M566.67,133.48a2,2,0,0,1-.1-.39,5.33,5.33,0,0,0-.32.56l.44.34C566.69,133.82,566.68,133.64,566.67,133.48Z"/><path class="cls-2" d="M564.59,676.81l0-.13a.65.65,0,0,1-.2.26C564.49,676.86,564.53,676.86,564.59,676.81Z"/><polygon class="cls-2" points="556.09 230.63 556.44 230.62 556.13 230.09 556.09 230.63"/><path class="cls-2" d="M559.77,709.82a.73.73,0,0,0-.36.43C559.5,710.23,559.63,710,559.77,709.82Z"/><path class="cls-2" d="M559.45,724.08l-.5,2A12.24,12.24,0,0,0,559.45,724.08Z"/><path class="cls-2" d="M558.75,735a1.76,1.76,0,0,0,.61.21v0Z"/><path class="cls-2" d="M557.1,560.72a1.42,1.42,0,0,0-.06-.42C556.77,559.3,556.87,560,557.1,560.72Z"/><path class="cls-2" d="M560.39,612.59a10.68,10.68,0,0,1-.67-1.66C559.61,611.85,559.59,612.57,560.39,612.59Z"/><path class="cls-2" d="M555.41,502.79h0c0-.13,0-.24,0-.36Z"/><path class="cls-2" d="M559.75,608.51a4.25,4.25,0,0,0,0,2.42A6.35,6.35,0,0,0,559.75,608.51Z"/><path class="cls-2" d="M558.12,782.56l-.06.53a.3.3,0,0,1,.22.06Z"/><path class="cls-2" d="M558.28,783.15l.17.59C558.45,783.47,558.44,783.23,558.28,783.15Z"/><path class="cls-2" d="M558.8,785l-.35-1.23C558.45,784.16,558.4,784.69,558.8,785Z"/><path class="cls-2" d="M558.77,768l-.51-.16A.81.81,0,0,0,558.77,768Z"/><path class="cls-2" d="M558.62,763.63c-.12,1.06-1.09,2.64-.77,4.11l.41.14C557.5,767.19,559.48,764.63,558.62,763.63Z"/><path class="cls-2" d="M564.92,745.22l-.41,3.7c.54-.65,1.27-1.5,1.4.19C567.53,744.45,564.7,750.07,564.92,745.22Z"/><path class="cls-2" d="M565.71,733.76c.25,2,.78,0,1.09.09C566.31,732.59,566.18,732.28,565.71,733.76Z"/><path class="cls-2" d="M565.71,651l1.28.2C566.81,649.62,566.49,651.13,565.71,651Z"/><polygon class="cls-2" points="559.1 635.12 558.31 636.61 559.48 637.32 559.1 635.12"/><polygon class="cls-2" points="568.21 625.76 568.39 626.43 567.93 623.88 568.21 625.76"/><path class="cls-2" d="M567.76,486.68l-1.58.46C566.46,488.17,568.23,488.39,567.76,486.68Z"/><path class="cls-2" d="M566.15,426.63a2.72,2.72,0,0,0,.52-3.38C566.56,424.6,566,425.94,566.15,426.63Z"/><polygon class="cls-2" points="568.72 246.55 569.25 247.76 568.81 245.48 568.72 246.55"/><path class="cls-2" d="M684.83,4c-.43-.42-1.41-.18-1.22,1l1.66.81Z"/><path class="cls-2" d="M681.76,11.73c.8,1.35,2.21,2.91,3.73,2-1.59-1.33-.92-1.66-2.82-3.1-.19-1.15.53-2,1.14-1.81-.42-.41.37-1.79-.67-2.41-1.28,1.5-1.33,3.39-.28,5.37C682.5,12.24,682.07,11.83,681.76,11.73Z"/><path class="cls-2" d="M679.18,124.05l.2-.73A2,2,0,0,0,679.18,124.05Z"/><path class="cls-2" d="M678.27,193.63c0-.53-.2-.75-.35-.77C678,193.35,678.13,193.75,678.27,193.63Z"/><path class="cls-2" d="M676.45,205.52c0-.26.08-.47.11-.7C676.41,205.08,676.32,205.35,676.45,205.52Z"/><path class="cls-2" d="M679.18,124.05l-.52,1.85C679.2,126,679.06,125,679.18,124.05Z"/><path class="cls-2" d="M685.75,27.22a2.71,2.71,0,0,0-.43-1c.07.32.13.63.17.95A1.22,1.22,0,0,1,685.75,27.22Z"/><path class="cls-2" d="M677.84,93.37V92.8a4.74,4.74,0,0,0-.68-.47Z"/><path class="cls-2" d="M677.59,69.82c-.07.54,1.34.72,1.95.93a1.73,1.73,0,0,1-1-1.16A2.35,2.35,0,0,0,677.59,69.82Z"/><path class="cls-2" d="M680.06,32.49l-.2-.66C679.92,32,680,32.29,680.06,32.49Z"/><path class="cls-2" d="M677.54,110.22a1.21,1.21,0,0,0-.51.21A.82.82,0,0,0,677.54,110.22Z"/><path class="cls-2" d="M688.1,768.71a2.08,2.08,0,0,0-.25,0C688,768.85,688.09,768.89,688.1,768.71Z"/><path class="cls-2" d="M681.14,796l-.08-.38a5.29,5.29,0,0,0-.79-.08Z"/><path class="cls-2" d="M674.65,227.26a.38.38,0,0,1,0-.1C674.52,226.59,674.54,226.92,674.65,227.26Z"/><path class="cls-2" d="M675.69,426.88c1.25-2.26,1.61,3.68,3,.27C678.14,427.47,676.5,424.06,675.69,426.88Z"/><path class="cls-2" d="M685.57,27.83a7.67,7.67,0,0,1,0,1A2.69,2.69,0,0,0,685.57,27.83Z"/><path class="cls-2" d="M678.69,427.15h0l.13-.35Z"/><path class="cls-2" d="M675.49,277.36a1.68,1.68,0,0,0,.62-.51C676,276.87,675.79,277,675.49,277.36Z"/><path class="cls-2" d="M677.49,240l-.18.92A3.35,3.35,0,0,0,677.49,240Z"/><path class="cls-2" d="M677.48,296.74a2.08,2.08,0,0,0-.12,1.36.72.72,0,0,0,.18-.21A1,1,0,0,1,677.48,296.74Z"/><path class="cls-2" d="M677.49,316.91c.1-.1.18-.25.28-.37s0-.43-.08-.64Z"/><path class="cls-2" d="M687.42,707.41a3.94,3.94,0,0,1-1.26.93C687.16,708,687.51,711,687.42,707.41Z"/><path class="cls-2" d="M685,27.23a.8.8,0,0,1,.61.6c0-.23,0-.46-.08-.67C685.28,27.1,685.09,27.08,685,27.23Z"/><path class="cls-2" d="M688.56,297.56l-.2,3.21A23.68,23.68,0,0,0,688.56,297.56Z"/><path class="cls-2" d="M687.22,562.7l.17.74A1,1,0,0,0,687.22,562.7Z"/><path class="cls-2" d="M688.56,310.28a4.81,4.81,0,0,0-1,1.8,1.19,1.19,0,0,0,.37.37Z"/><path class="cls-2" d="M686.14,708.35h0Z"/><path class="cls-2" d="M689.48,729.46c0-3.06-1.81-1.44-2.87-2.09-.52-3.64,1.36-1.68,2.31-2.92-.49-2.28-2.19-4-2.11-5.72.3-.13.41-.46.79-.07-1.47-2.41-.07-7.14-1.91-9.95a1,1,0,0,1,.45-.36,4.53,4.53,0,0,1-2.53.43c0-1.37-1.17-2.54,0-3.06,0,.84.45.91.83,1.3l-.53-1.43c1.74-1.29.6,2,1.89,2-.57-2.8-2-6.06-1.51-8.2,1.7-.45.57,5,2.08,2.15l-.65,3.32c2.68-2.54-.19,2,2.68-.32.49-4.36-.87-4.88-.37-9.23-.94-1-1.4.32-2.34-.66-1.7-6.19,4.27-4.87,2-9.42-1.13-1.18-3.28-1.63-2.15-4.87l1.92,1.1c.19-4.22-2.76-2.41-1.46-6.84.75.79.63,3.33.86,2.69,1.52-2.87-1.09-2-1.09-4.24l1.7-.45c-.27-4.5-1.49-9.46-1.8-14.44.5.28,1,1.13,1.55,0-.85-6.29.21-13.42,1.22-19.48L687,636.31c0-.53.66-1,1-.41.56-2.36-.93-.12-1.51-1.26-.1-1.34.85-1.77,1.29-.92-1.25-4.17-2.68-11.88-1.11-16.27l.43.86c.6-3.42-3-3.86-1.64-7l.26.6c.64-7.42-.7-15.62,1.51-21.28-2.11-1.08.94-7.35-2-7.83,1.46-4.24,2-3,3-9,.13-1.59-1.85-2.38-2.15-4.35l1.54,0-1.62-2.67,1.84-1.43-.39-1.84c-.09.73-.69,1.56-1.14,1.45-.69-2.89,1.08-7,1.87-7.11L686.81,551c.62.15.84,1.29,1.23,2.2-1.57-3.65,1.62-.67.18-4-.35.45-.91-.24-1.23-.32.94-1.66.94-5.45.55-8.26l1.06.54c.27-5.07-.51-10.68-.49-16.37-.49,2-2.33,1.57-2.51-.1l1.63-.66c-1-1.08-.62,1.74-1.85-.47.19-2.13,1.85-1.43,2.38-.21l-.56-2.58c.48-.15.74.45,1.36.61-1-1.06,1.64-4.46-.12-6l.48-.14c0-5.69-.54-8.27-.62-12.9-1.41-.09-1.1-1.9-2.24-3.28.45-3.4,1.56-7.18,1.44-11.28-.7-2.88-1.19-.84-2-2.14,1.28-.21,1.16-4.3,2.08-2.18a74.7,74.7,0,0,0-1.29-12.51c-.53.68-.75,1.44-1.19,1-.21-1.13.54-2.57,1.15-2.41l.13.3c-1.92-7,3.74-16.12,1.07-21.69l.13.32-1.39-5.77c.22-2.66,1,1.59,1.75-.38-2.13-6.22.31-9.83-1.11-14.95,3.78-4-.27-14.08,2.15-19.44l-.89.31c-.88-1.38.5-1.67.71-2.69-.69.14-.8,1.5-1.28.64-1.08-11.72,1.3-24.2,2.1-36.21.24-4.4-4.6-2.5-2.48-8l1.65,1.57c-2-8.87.07-18.14-1.61-26.82.38.52.88.53.87,1.38,1.2-1.84.06-6.79-.92-6.82.11-1.35.88-.31,1.38-1.14.71-1.84-1.53-4.62-.34-5.6.2-.17.39.52.49.85-.59-1.19.14-5.58-1.24-4.43.66-3.26-.62-6.24.2-8.84-1.54-1.69.75-5.58-1.44-6.12,2.26.24,1.82-5.71.76-7.77.68.69.71-1.79,1.65-1,0-2.35-.45-4.5-1.61-4.09,2.71-4.34-2.18-8.71,1.29-11.15-1.21-7-2-13.45-2.57-19.74,2.26.23.23,6.95,2.6,6.68-.93-6-2.87-9.4-2.32-15.31.3-1.54,1,.86,1.36,1.38-.93-5.95.2-11.52-1-16.81.21,0,.44.58.61,1.12-.08-1,.33-2.43-.7-2.31l.28,1c-1.49,1.67-3.11-4.15-3.89-4.34,2.94,1.78.74-5.23,4.45-2.42-.2-.68-.68-1.54-1.37-1.39.2-1,.6-1.34,1.38-.31-.55-3.74-1.64-2.41-1.62-5.8.5,0,.69.7,1.27,1.05a8.9,8.9,0,0,1-1.52-6.31c.3.18.69-.16.69.7-.15-4.92-2.58-8.39-1.65-13.78,2.16,1.59.71-1.84,2.58-2.13l-.56-2.9-.9,1.17c0-2.55-1.33-4.79-.72-7l.77,1.89-.35-4.76-.71,2.69c-1-2.57-2.36.28-1.84-3.11.19.69,0-2.54,1.12-3.86h0a6.07,6.07,0,0,1-.75-4.44c.59-.48,2.06.4,2.46.08-1.56-1.24-.43-6-2.1-7.53a1.44,1.44,0,0,0,1.57.38l-1.26-1c.4-1.18.6-1.35,1.38-1.16.23-3.54-2.37,1.13-1.35-3.08.1.33.29.18.49.86.53-4.22-.81-8.15-.18-12,1.87-1.15.46,3.39,2,2.08-.34-5.6-2.25-11.59-1.81-17l-.21,1c-2.65-.75,1.31-4,.06-6.77.2.67,1.48.88,1.18.7.43-3.71-.65-7.58-1.49-13.2l.69.69c.6-2.18.35-5.75.66-8.11-.68-.7-.57-2-1.56-1.23,3.88-7.28-2.08-13.88,1.15-20.34,0,.77.59,1.84.6,1.23l-.63-5.5c-1.16.43-.7.72-1.6,1.87a5.68,5.68,0,0,1-1.22-3.61c.77,2.48,1.86,0,2.5-1.09-.35.18-.74-.18-1.1-.09,2-2.88-2.33-.48-.94-4.41l.61.21c-.31-1.47-1.12-2.82-.94-4.4,1.33-.66.62,1.56,1.72,1.66-.08-2.22-2.53-4.39-1.2-6.4.37,1,.38,2.3.75,3.25,1.57-2.19,1.17-2.45,1.42-4.08l0,.16.71-3.76-.42,1c-3.49-2.78-.64-5.67-2.92-9.42,2.16,3.65,1.25.61,2.76.89.42-1,.9-2.42,1.32-2-1.22-1.77,1-3-.82-5.46.49-.11,0-1.89,1.27-1.49-.38-2.31-.85.54-1.46.35-1.67-3.55,2-8.35-.27-13.46-.94-4.4-2.58-5.21-3.4-9.3.78-1.38,1.78,1.13,1.78,1.13a9.69,9.69,0,0,0,0-6c.43.43.79,0,1.34-.65-.13-1.68-1.78-1.12-1.06-3.34a7,7,0,0,1,2,1.68c-.45-2-1.36-3.94-1.8-6,.85-.54,1.29,1.24,1.84,2-.38-2.31-.77-6-2.11-6.69L682.77,17c-.07-.84,1.15-.44,1.4.18,1.05,2-.47,2.86-1,3l-.31-1.46c-2.86,1.5.46,5.87.29,8.81l-2.08-1.23,1.73,3c-.54.64-1.7,1.08-2-.37-1,2.11.74,1.87-.41,3.68-.18.2-.28.11-.36-.08l.62,2.07c-.44-.41-1.47.34-1.17-.93-1.2,3.7,1.56,6,0,7.36l-.12-.31c.7,5.14,1.52.5,3.31,4.35l-3.76,2.59,1.52.5c-.05.53-.16,1.58-.78,1.39,1.05,2,.67-.34,1.66.81-1.4,2.55.65,7-1.79,7.6,1.16.91.9-2.44,1.71.28-2.62.78.44,3.15-.76,5.48-1.35-.72-.63-2.92-1.84-.59,2.29,1.4-.5,4.53-.06,6.5,1.82.09.76,4.27,1.36,7.56-.61-.21-1,6.21-1.65,9.27l-.31-.09c1.84.59,1.49,3.76,1.87,6.06-1.1-.09-1.53-.5-2-1.75V92.8A3.8,3.8,0,0,1,679,95.39l-1.38-.54c.08,2.88,1.62,5.8.7,9.51,1.28.21,3.57-3,4.42,1-.69.15-1.87.29-2.16-.73.1.33.58,1.19.28,1.87l-1.16-1.57c-.51,1.69,1,.89.86,2.24-1,0-.7,1-1.48.8-.1-.34.4-1.17,0-1.69-.18,1.52-.77,3.36-1.51,4a1.11,1.11,0,0,1,1.45,1.11c.08,2.89-1.18,1-1.69,2.67.68.7,0,2.54,1.45,2.58,0,.85-.7,1-1.1,1.33.65,1.49.19,7,1.76,5.28l.1-.38c0,.07,0,.16.07.25v0c1.47,4.88-.84,10.15-.21,15h-.49c.56,2.9.33,6.45,1.4,8.51,0,.86-.91,2-1.49,1.66.37,2.21.92,2.46.11,5.66-.86-2.23-.77.76-.63-2.28-.43,2.87-1.22,3.52.13,6.61-1.27-1.05-1.59,2.17-1.22,3.53l.91-2a20.59,20.59,0,0,1,0,4.24l-1.66-.73c-2,5.88,3.44,10.61.06,15.09,1.16,1.55.81-3.2,2.18-1.81-.23,2.71-2.62,5.53-2.62,6.38-.92,3.71,2.43,3.46,1.8,7.34.59-.5,2.18-1,2.73,1.93-.21,2.71-2.48,3.33-3,1.62-.05-.65.14-1,.34-.93-.22-.88-.47-2-1.11-1l.59.35c-.61,1.34-.54,5.07-1.52,4.19.57,2.05,1,.88,1.28-.64-.85,3.48,0,5.43-.6,9,.33-.57,1-1.1,1-.53-.74,5.24,1.13,2.31,1.39,5.86-.91,2-2.16-.72-1.41,2.86-.61,2.18-1.57.46-2-.41,1.14,3.26-.76,6.09-1,8l-.47-1.71a9.5,9.5,0,0,1,.27,2.72l1.19-1c-.21,1-.22,1.86-.71,1.84.78,1,2-.79,3,1.27-.61,1.34.64,4.09-.93,4.56.53-4.23-1.58.46-1.84-3.11a5.57,5.57,0,0,1,0,2.54c-.18.15-.33-.14-.42-.42-1.41,4,1.78,1.86,1.74,6.05-.88-.53-1.68,1-1.49,1.66,0-1.69,1.48-.81,2.16.74-.69,2.69.51,2.92.43,4.33l.33-1.61c.89.55.77,1.89,1,3.76-.69.16-.48-1.7-.78-1,1.56,2.08-1.62,4.7-.57,7.6-.6,1.35-1.66.13-2.07,1.31,1.15,3.25-1.22,3.52-.27,6.94,1.2-1,.91-1.16,2.07,1.25l-.84-5.62,1.73,3.61c0-1.7-.75-3.58-.54-4.6,1,1.72.67,1.54,1.66.73-1.79,2.32,1,4.6-.16,7.28l-3-.08c-1.31,4,1.52,7.17.78,12.4l.51-1.68c1.17.7.16,3.23.64,4.93-1-.16-1.35.9-2,1.62.73-.09-.07,3.83,1.9,4.31l-1.3,2.34c-.53,4.22,2.82,4.82,2.48,8.88-1.07-1.22-1.77.63-2.54-2.1,0,1.36-.19,2.58.49,2.6-.61.79,1.33,3.76.4,5,.43.57,1.46.76,1.38,2.28-.2.17-.49,0-.49,0,.49,0,.67,2.38,1.76,1.05-3.08,4.18.22,11.68-2.42,15.32.33,3,.65,6.53.72,9.22-.3-.18-.49,0-.39-.52-.92,3.71,2.83,2.28,1.81,6.5-1.6,2.15-.86-2.24-1.47-.9-3.25.59.44,5.09-1.45,7.93l-.19-.68c-1.11,2.17,1.23,5.29,1,8.84,0,0-.29-.18-.49,0,1.65,2.42,2.2,7,2.66,10.42-1.27-1.06-.67-1.55-2-.9.18,1.53,2.07-.45,2.43,2.61-.69,1-1.3,3.19-2.68,3.48l-.08-2.88c-1.78,1.48.07,3.73-.24,5.25l-.78-.2c.25,4.41,2.21,4.48,2.07,9.22l.59-.49c1.95,2.59-1.09,2.17.36,4.76l-2,.78A65.9,65.9,0,0,1,680,388c-1.46-1.73-2.21-5.32-3.08-7.54,0,1.69.15,5.76,1.12,6.64-.19-.68-.67-1.54-.37-2.22a13.19,13.19,0,0,1,2.28,8.2c-3.83-.6-1,8.8-3.94,11.25,1.42,6-.6,11.85-.37,18.82,3-2.47.08,2,3.14,1.6.19,1.62.14,2.24,0,2.39l-1.83,4.91c-.89,1.16-.67-1.54-1.36-1.39-.24,3.55-1.3,1.49-2.11,3.83,1.09-.48,1.57,1.24,1.15,3.26l1.41-2.85c1.63,5-2.57,4.29-1,9.29l-1-1.58c.57,2.57,0,9.47,2.44,12-.35.46-1.19,1.06-1.41-.07-.37,6.13,2.61,13.65,1.1,18.41l-.75-.46c.22,1.14,1.41,2,.66,3.42-.31-.07-.75-.46-.79.07.25.61,1.31,3,.87,4.56l-.84-1.3c-1,6,2,9.18,2.56,14.2-2.2,0-2.92,4.69-3.27,7l-.31-.08c-.28,7,1.82,11.83,2.68,18.28-2.39,4-1,13.57-2.34,20,.4-1,1.72.16,1.94,1.31-.45,1.51,1.53,4.17-.49,3.93l0-.54c-2,1.14-1.46,4.25-1.51,6.67l2.64.4c-3.84,6.34,1.41,16.61-2,20.07.66,1.53.65,3.42,1.31,4.94l-1.41-.09a62.44,62.44,0,0,0-.2,11.6l-1-1.07c-.09,3,4.09,3.73,4.17,6.46l-2.11.82c0,5.15-1.83,10.37.09,15.46a1.15,1.15,0,0,1-1-1.07c0,2.43-1.43,9.39,1.47,8.51-1.88.06-.18,5.32.65,8.1l-1.39-.43c1.78,2.35,2.27,2.42,2.76,5.7-.18.78-1.12.69-.76-.35-.73,2.59,1.32,2,.58,5.16l-.89-1.17c-.11,2.67.37,2.46,1.4,3.92.56,1.68-.35,5.06-1.61,5.46a3.23,3.23,0,0,1,1.44,3.39c-.48.21-.78-.36-.92-.65-.95,4.46,1.62,6.63.25,9.69a1,1,0,0,0-.83.52,49.24,49.24,0,0,1,.21-6.13c-1.28,0-1.51,2.87-3.28.59,1,2.3,3.07,6.22,2.47,9a1.51,1.51,0,0,1-.45.37L676,659a3,3,0,0,0,.2,1.76,10.12,10.12,0,0,0-.38,2.31c-1.06.33-.57,3.28-.63,4.71,1.41-.12,1.18,1.75,2.34,0-.1.23-.16-.27-.22-1.22a2.48,2.48,0,0,0-.15-.61l.13.1c0-.93-.08-2.16-.1-3.54.72,1.12,1.32,2.3.54,3.88a29.57,29.57,0,0,1,2.26,2c-2,1.95-3,5.71-4.22,6.24.78,4.35.52,10.26,3.16,13,.34,1.24-.76,1.42-1.18,1.88-.26-.71-.22-1.56-.6-2,.68,2.48.26,7.34,2.11,7.93-.83,3.12-1.7-1.75-1.4,2.53l-.56-.58c-3,8.44,4.71,13.72.92,23.07.23-.64.34-1,.65-1.1-1.67,10.66,1.57,22-1.08,32.49-.53,3,.64,3.32,1.54,5.14l-1.51.65,1.74,3.12c1.28,4.43-3.7,7.67-1.29,13.27l1-.72c-.2,2,.6,6.37-.57,6,.18.2,1,.66.52,1.44l-.79.06,1.36,4.95c-.57,3.83-3.14-.6-3.29,5,.3,2.08,2.3,5.92,2.83,5.14,0-.84.49-2.15,1.28-2.21l.41,1.9c2.33.35,4.71,1.81,6.34-2.86L686,789.51l1.12-1,.08,2.74c1.06-1.55.12-2.54-.53-3.64a2.25,2.25,0,0,0,1.25-1.36l-2.23-3.2c.91-.38,1.81,1.44,2.31-.71-1-1.49-2,1.44-2.72-1,1.06-1.55,1.92-1.1,1-2.92.6-.26,1,.13,1.24.85-.71-1.63-.3-4.3-1.54-5.14,1.31-1.62-.34-5.49,1.87-5.33a9.47,9.47,0,0,1-1.82-4.35c2.63,2.72.15-5.59,3-4.87-2.37-2-1-7.29-2.37-10.87.19.2.57.59.45.91.2-2,.91-2.6,1.36-3.89-2-.26-2.41-3.39-3.62-5.08,1.89-2.47,2.3,1.5,4.12.72-1.59.13-1.59-4.28-2.91-3.44,1.17-1.89.57-1.63,2.19-2.6-2.45-.33-.41-1.76-1.92-3.32,1.21-2.73,2.3-.71,1.55-3.7C688.61,726.79,689.48,729.46,689.48,729.46Zm-4.23-71.33h0c0,.62.06,1.14.08,1.48C685.33,659.3,685.31,658.87,685.25,658.13Zm0-6c-.05.73-.06,1.64-.05,2.6-.49.21-1,0-1-.62C684.53,654.45,684.81,653,685.22,652.14Zm-9.74,12.68c-.2-1,.08-1.27.37-1.4a16.64,16.64,0,0,0,.17,1.66l.17.11A1.85,1.85,0,0,1,675.48,664.82Z"/><path class="cls-2" d="M677.33,666.52a2,2,0,0,1,.1.39,5.33,5.33,0,0,0,.32-.56l-.44-.34C677.31,666.18,677.32,666.36,677.33,666.52Z"/><path class="cls-2" d="M679.41,123.19l0,.13a.65.65,0,0,1,.2-.26C679.51,123.14,679.47,123.14,679.41,123.19Z"/><polygon class="cls-2" points="687.91 569.38 687.56 569.38 687.87 569.91 687.91 569.38"/><path class="cls-2" d="M684.23,90.18a.73.73,0,0,0,.36-.43C684.5,89.77,684.37,90,684.23,90.18Z"/><path class="cls-2" d="M684.55,75.92l.5-2A12.24,12.24,0,0,0,684.55,75.92Z"/><path class="cls-2" d="M685.25,65a1.76,1.76,0,0,0-.61-.21,0,0,0,0,1,0,0Z"/><path class="cls-2" d="M686.9,239.28a1.42,1.42,0,0,0,.06.42C687.23,240.7,687.13,240,686.9,239.28Z"/><path class="cls-2" d="M683.61,187.41a10.68,10.68,0,0,1,.67,1.66C684.39,188.15,684.41,187.43,683.61,187.41Z"/><path class="cls-2" d="M688.59,297.21h0c0,.13,0,.24,0,.36Z"/><path class="cls-2" d="M684.25,191.49a4.25,4.25,0,0,0,0-2.42A6.35,6.35,0,0,0,684.25,191.49Z"/><path class="cls-2" d="M685.88,17.44l.06-.53a.3.3,0,0,1-.22-.06Z"/><path class="cls-2" d="M685.72,16.85l-.17-.59C685.55,16.53,685.56,16.77,685.72,16.85Z"/><path class="cls-2" d="M685.2,15l.35,1.23C685.55,15.84,685.6,15.31,685.2,15Z"/><path class="cls-2" d="M685.23,32l.51.16A.81.81,0,0,0,685.23,32Z"/><path class="cls-2" d="M685.38,36.37c.12-1.06,1.09-2.64.77-4.11l-.41-.14C686.5,32.81,684.52,35.37,685.38,36.37Z"/><path class="cls-2" d="M679.08,54.78l.41-3.7c-.54.65-1.27,1.5-1.4-.19C676.47,55.55,679.3,49.93,679.08,54.78Z"/><path class="cls-2" d="M678.29,66.24c-.25-2-.78,0-1.09-.09C677.69,67.41,677.82,67.72,678.29,66.24Z"/><path class="cls-2" d="M678.29,149.05l-1.28-.2C677.19,150.38,677.51,148.87,678.29,149.05Z"/><polygon class="cls-2" points="684.9 164.88 685.69 163.39 684.52 162.68 684.9 164.88"/><polygon class="cls-2" points="675.79 174.24 675.61 173.57 676.07 176.12 675.79 174.24"/><path class="cls-2" d="M676.24,313.32l1.58-.46C677.54,311.83,675.77,311.61,676.24,313.32Z"/><path class="cls-2" d="M677.85,373.37a2.72,2.72,0,0,0-.52,3.38C677.44,375.4,678.05,374.06,677.85,373.37Z"/><polygon class="cls-2" points="675.28 553.45 674.75 552.24 675.19 554.52 675.28 553.45"/></g></svg>