<svg xmlns="http://www.w3.org/2000/svg" viewBox="0 0 600 800"><defs><style>.cls-1{fill:#484d9e;}.cls-2{fill:#f2b526;}.cls-3{fill:#f0aa07;}.cls-4{fill:none;stroke:#f0aa07;stroke-miterlimit:10;stroke-width:5px;}</style></defs><title>monopoly-boards-</title><g id="BG"><rect class="cls-1" x="9" y="9" width="582" height="782"/><path class="cls-1" d="M582,18V782H18V18H582M600,0H0V800H600V0Z"/><rect class="cls-1" x="9" y="9" width="582" height="782"/><path class="cls-1" d="M582,18V782H18V18H582M600,0H0V800H600V0Z"/></g><g id="Layer_2" data-name="Layer 2"><path class="cls-2" d="M596.67,800c.43,1.47,1.41.64,1.22-3.42l-1.66-2.88Z"/><path class="cls-2" d="M599.74,772.68c-.8-4.78-2.21-10.29-3.73-7.2,1.59,4.73.92,5.88,2.82,11,.19,4.07-.53,7.09-1.14,6.41.42,1.44-.37,6.31.67,8.5,1.28-5.29,1.33-12,.28-19C599,770.88,599.43,772.33,599.74,772.68Z"/><path class="cls-2" d="M595.75,717.92a27.09,27.09,0,0,0,.43,3.57c-.07-1.13-.13-2.22-.17-3.35A1.69,1.69,0,0,1,595.75,717.92Z"/><path class="cls-2" d="M503.52,793.4c-.07.1,0,.17,0,.25C504,793.51,504.16,793.41,503.52,793.4Z"/><path class="cls-2" d="M595.93,715.76c0-1.12,0-2.26,0-3.41A33.66,33.66,0,0,0,595.93,715.76Z"/><path class="cls-2" d="M286.8,794.08a12.54,12.54,0,0,1,3.29,1.26C289,794.34,299.47,794,286.8,794.08Z"/><path class="cls-2" d="M596.54,717.88a3.48,3.48,0,0,1-.61-2.12c0,.82.05,1.61.08,2.38C596.22,718.34,596.41,718.39,596.54,717.88Z"/><path class="cls-2" d="M362.16,7.06l-11.33-.2C354,7,358.11,7.06,362.16,7.06Z"/><path class="cls-2" d="M5.72,575.2l.17,2.6A10.71,10.71,0,0,0,5.72,575.2Z"/><path class="cls-2" d="M317.2,7.06a42.54,42.54,0,0,0-6.38-1,6.26,6.26,0,0,0-1.31.37Z"/><path class="cls-2" d="M290.11,795.36l0,0Z"/><path class="cls-2" d="M364.74,792c-10.79,0-5.07,1.81-7.36,2.87-12.88.52-6-1.36-10.35-2.31-8,.49-14.21,2.19-20.21,2.11-.45-.3-1.62-.41-.25-.79-8.51,1.47-25.25.07-35.16,1.91a3.63,3.63,0,0,1-1.3-.45c1.61.92,1.86,1.86,1.53,2.53-4.84,0-9,1.17-10.81,0a10.1,10.1,0,0,0,4.61-.83l-5.08.53c-4.56-1.74,6.93-.6,6.93-1.89-9.89.57-21.42,2-29,1.51-1.59-1.7,17.72-.57,7.6-2.08l11.73.65c-9-2.68,7.12.19-1.11-2.68-15.43-.49-17.26.87-32.65.37-3.46.94,1.15,1.4-2.32,2.34-21.87,1.7-17.22-4.27-33.3-2-4.16,1.13-5.78,3.28-17.23,2.15l3.9-1.92c-14.93-.19-8.52,2.76-24.17,1.46,2.78-.75,11.74-.63,9.48-.86-10.13-1.52-7.17,1.09-15,1.09l-1.61-1.7c-15.9.27-33.42,1.49-51,1.8,1-.5,4-1-.13-1.55-22.21.85-47.42-.21-68.85-1.22l-8.18,1.47c-1.91,0-3.54-.66-1.47-1-8.36-.56-.44.93-4.45,1.51-4.75.1-6.28-.85-3.27-1.29-3.43.29-7.53.59-12,.86l-3.43.2-1.75.09-.89.05H8l-.17,0c-.92.12-2,.22-3.08.3l-.13-1.71,0-.91,0-.46,0-.68c0-2.81-.06-5.58,0-8.26,0-5.36.26-10.35.68-14.5l.43,3c.6-12.09-3-13.64-1.64-24.85l.26,2.15c.64-26.24-.7-55.24,1.51-75.27-2.11-3.8.94-26-2-27.65,1.46-15,2-10.7,3-31.8C6.8,608.74,4.82,606,4.52,599l1.54-.17-1.62-9.46,1.84-5-.39-6.54c-.09,2.61-.69,5.54-1.14,5.14-.69-10.21,1.08-24.89,1.87-25.14L5.31,533.65c.62.54.84,4.58,1.23,7.78-1.57-12.89,1.62-2.34.18-14.16-.35,1.59-.91-.85-1.23-1.12.94-5.89.94-19.3.55-29.21l1.06,1.9c.27-17.92-.51-37.77-.49-57.87-.49,7.21-2.33,5.55-2.51-.34l1.63-2.36c-1-3.81-.62,6.16-1.85-1.66.19-7.51,1.85-5.05,2.38-.73l-.56-9.14c.48-.53.74,1.61,1.36,2.17-1-3.75,1.64-15.76-.12-21.17l.48-.51c0-20.1-.54-29.22-.62-45.59-1.41-.32-1.1-6.72-2.24-11.6C5,338,6.12,324.65,6,310.16c-.7-10.19-1.19-3-2-7.56,1.28-.75,1.16-15.23,2.08-7.72-.2-17.4-.25-22.22-1.29-44.22-.53,2.38-.75,5.07-1.19,3.68-.21-4,.54-9.09,1.15-8.51l.13,1c-1.92-24.7,3.74-57,1.07-76.68l.13,1.11-1.39-20.4c.22-9.38,1,5.63,1.75-1.31-2.13-22,.31-34.77-1.11-52.89C9.08,82.69,5,47,7.45,28l-.89,1.09c-.88-4.89.5-5.92.71-9.52-.69.51-.8,5.3-1.28,2.26-.1-3.59-.16-7.2-.21-10.84,0-1.75,0-3.52-.07-5.3l7.41.07L26.35,6c8.84.17,17.73.41,26.63.66,17.8.52,35.64,1.12,53.2,1.45,15.55.24,8.82-4.6,28.42-2.48L129,7.26c31.37-2,64.13.07,94.84-1.61C222,6,222,6.53,219,6.52c6.48,1.2,24,.06,24.09-.92,4.78.11,1.11.88,4,1.38,6.51.71,16.33-1.53,19.79-.34.58.2-1.83.39-3,.49,4.24-.59,19.75.14,15.69-1.24,11.52.66,22-.62,31.23.2,6-1.54,19.73.75,21.63-1.44-.82,2.26,20.21,1.82,27.49.76-2.44.68,6.34.71,3.48,1.65,8.32,0,15.94-.45,14.49-1.61,15.31,2.71,30.79-2.18,39.41,1.29,24.7-1.21,47.56-2,69.78-2.57-.81,2.26-24.56.23-23.61,2.6,21.08-.93,33.24-2.87,54.14-2.32,5.41.3-3.08,1-4.9,1.36,21-.93,40.71.2,59.45-1,0,.21-2.07.44-4,.61,3.69-.08,8.58.33,8.17-.7l-3.6.28c-5.9-1.49,14.66-3.11,15.32-3.89-1.56.73-1.19,1.15.09,1.41a23.35,23.35,0,0,0,2.49.31l1.42.11,1,.1c1.28.14,2.36.31,2.5.67.08.18-.08.41-.47.71s-1,.67-1.69,1.14a13.14,13.14,0,0,0,1.51-.45.61.61,0,0,0,.92-.16,3.24,3.24,0,0,1-.48,1.77c-.22.22-.51,0-.9-.31.07.47.14.89.23,1.27l.06.29,0,.13c0,.12,0,.24,0,.36l.13,1.32c.18,1.61.37,2.63.54,3.62a49.39,49.39,0,0,1,.59,9.79c-.5,0-.69-2.46-1.27-3.7a98.61,98.61,0,0,1,1.52,22.29c-.3-.61-.69.57-.69-2.45C595.78,56.7,598.21,69,597.28,88c-2.16-5.63-.71,6.49-2.58,7.5l.56,10.26.9-4.11c0,9,1.33,16.93.72,24.65l-.77-6.68.35,16.85.71-9.54c1,9.1,2.36-1,1.84,11-.19-2.43,0,9-1.12,13.68v0a69.87,69.87,0,0,1,.75,15.66c-.59,1.73-2.06-1.39-2.46-.26,1.56,4.38.43,21.05,2.1,26.6-.39-1.85-1.37-1.95-1.57-1.34l1.26,3.68c-.4,4.17-.6,4.78-1.38,4.1-.23,12.52,2.37-4,1.35,10.88a27.67,27.67,0,0,1-.49-3c-.53,14.93.81,28.85.18,42.56-1.87,4.05-.46-12-2-7.35.34,19.78,2.25,41,1.81,60.09l.21-3.56c2.65,2.65-1.31,14.25-.06,23.93-.2-2.37-1.48-3.11-1.18-2.47-.43,13.11.65,26.8,1.49,46.66l-.69-2.46c-.6,7.72-.35,20.34-.66,28.69.68,2.47.57,7.24,1.56,4.34-3.88,25.73,2.08,49.08-1.15,71.9,0-2.72-.59-6.5-.6-4.33l.63,19.44c1.16-1.53.7-2.55,1.6-6.63a59.3,59.3,0,0,1,1.22,12.77c-.77-8.75-1.86.07-2.5,3.85.35-.63.74.66,1.1.34-2,10.16,2.33,1.7.94,15.57l-.61-.73c.31,5.19,1.12,10,.94,15.56-1.33,2.33-.62-5.52-1.72-5.88.08,7.86,2.53,15.51,1.2,22.63-.37-3.34-.38-8.14-.75-11.48-1.57,7.75-1.17,8.65-1.42,14.4l0-.56-.71,13.31.42-3.39c3.49,9.83.64,20,2.92,33.28-2.16-12.88-1.25-2.13-2.76-3.12-.42,3.39-.9,8.53-1.32,7.06,1.22,6.27-1,10.46.82,19.3-.49.39,0,6.7-1.27,5.29.38,8.14.85-1.93,1.46-1.24,1.67,12.55-2,29.5.27,47.55.94,15.57,2.58,18.45,3.4,32.9-.78,4.87-1.78-4-1.78-4a118.21,118.21,0,0,0,0,21.2c-.43-1.5-.79.05-1.34,2.31.13,5.95,1.78,4,1.06,11.82a27.19,27.19,0,0,1-2-5.94c.45,7,1.36,13.93,1.8,21.19-.85,1.92-1.29-4.38-1.84-6.94.38,8.16.77,21.13,2.11,23.65l.48-5.23c.07,3-1.15,1.53-1.4-.66-1.05-7,.47-10.08,1-10.48l.31,5.17c2.86-5.31-.46-20.76-.29-31.16l2.08,4.33-1.73-10.67c.54-2.27,1.7-3.82,2,1.32,1-7.46-.74-6.61.41-13,.18-.71.28-.39.36.26l-.62-7.28c.44,1.43,1.47-1.22,1.17,3.26,1.2-13.08-1.56-21.09,0-26l.12,1.1c-.7-18.15-1.52-1.76-3.31-15.37l3.76-9.16L601.06,644c.05-1.87.16-5.57.78-4.89-1.05-7-.67,1.19-1.66-2.85,1.4-9-.65-24.85,1.79-26.88-1.16-3.24-.9,8.61-1.71-1,2.62-2.74-.44-11.12.76-19.35,1.35,2.53.63,10.33,1.84,2.09-2.29-5,.5-16,.06-23-1.82-.32-.76-15.1-1.36-26.75.61.74,1-21.93,1.65-32.77l.31.32c-1.84-2.1-1.49-13.28-1.87-21.42,1.1.32,1.53,1.78,2,6.19v-7.65c-.59-1.8-.9-4.19-1.11-9.16l1.38,1.93c-.08-10.19-1.62-20.52-.7-33.63-1.28-.73-3.57,10.43-4.42-3.43.69-.52,1.87-1,2.16,2.6a32.1,32.1,0,0,1-.28-6.63l1.16,5.54c.51-6-1-3.12-.86-7.9,1,.1.7-3.53,1.48-2.84.1,1.21-.4,4.16,0,6,.18-5.39.77-11.89,1.51-14-.56.47-1.33,0-1.45-3.94-.08-10.19,1.18-3.49,1.69-9.43-.68-2.47,0-9-1.45-9.14a9.15,9.15,0,0,1,1.1-4.68c-.65-5.27-.19-24.63-1.76-18.69L602,380c0-.26,0-.56-.07-.87v0c-1.47-17.28.84-35.89.21-53l.49,0c-.56-10.24-.33-22.78-1.4-30.09,0-3,.91-7.15,1.49-5.85-.37-7.83-.92-8.71-.11-20,.86,7.87.77-2.71.63,8.06.43-10.16,1.22-12.46-.13-23.38,1.27,3.72,1.59-7.65,1.22-12.49l-.91,7.13c-.18-5.44-.07-10.19,0-15l1.66,2.61c2-20.81-3.44-37.52-.06-53.36-1.16-5.5-.81,11.3-2.18,6.38.23-9.57,2.62-19.54,2.62-22.54.92-13.11-2.43-12.23-1.8-25.95-.59,1.76-2.18,3.41-2.73-6.84.21-9.58,2.48-11.77,3-5.72.05,2.29-.14,3.4-.34,3.3.22,3.1.47,7.16,1.11,3.37l-.59-1.25c.61-4.75.54-17.92,1.52-14.83-.57-7.23-1-3.09-1.28,2.27.85-12.28,0-19.19.6-31.83-.33,2-1,3.86-1,1.86.74-18.55-1.13-8.17-1.39-20.73.91-7.14,2.16,2.55,1.41-10.09.61-7.73,1.57-1.64,2,1.43-1.14-11.52.76-21.53,1-28.11l.47,6.07c-.28-3.63-.27-6.61-.27-9.63L606,34.31c.21-3.56.22-6.58.71-6.51-.78-3.68-2,2.81-3-4.48a80.84,80.84,0,0,0,.1-9.22,41.89,41.89,0,0,1,.11-4.35,9.58,9.58,0,0,1,.25-1.57,5.41,5.41,0,0,1,.47-1.47c0,1.13-.05,2.1-.07,3,0,.7,0,1.29,0,1.79a12.12,12.12,0,0,0,.11,2c.12.75.35.47.59.12.5-.7,1.09-1.69,1.22,4.64a69,69,0,0,1,0-9c.18-.54.33.5.42,1.48.09-.93.16-1.76.22-2.52s0-1.32.07-1.93,0-1.24,0-1.81c.05-2.3,0-4.08,0-5.48a23.58,23.58,0,0,0-.73-5.39c-1.78.31-3.62.64-6.43.9-1.4.13-3,.23-5,.31l-3.2.09c-.74,0-1.55,0-2.45,0,1.89-.88-3.43-1.68-5.85-1.49,6,0,2.86,1.48-2.62,2.16-9.5-.69-10.33.51-15.31.43l5.68.33c-1.92.89-6.67.77-13.3,1.05-.56-.69,6-.48,3.66-.78C554.2-1.85,544.94-5,534.68-4c-4.75-.6-.46-1.66-4.63-2.07-11.49,1.15-12.45-1.22-24.53-.27,3.48,1.2,4.09.91-4.42,2.07L521-5.09,508.22-3.36c6,0,12.65-.75,16.24-.54-6.07,1-5.45.67-2.58,1.66-8.2-1.79-16.26,1.05-25.74-.16l.29-3c-14.26-1.31-25.33,1.52-43.83.78l5.94.51c-2.48,1.17-11.42.16-17.42.64.56-1-3.19-1.35-5.74-2,.31.73-13.55-.07-15.23,1.9l-8.26-1.3C396.94-5.32,394.83-2,380.46-2.31c4.33-1.07-2.2-1.77,7.43-2.54-4.8,0-9.11-.19-9.19.49C375.9-5,365.4-3,361-4c-2,.43-2.68,1.46-8.07,1.38-.58-.2,0-.49,0-.49,0,.49-8.43.67-3.72,1.76-14.77-3.08-41.3.22-54.16-2.42-10.47.33-23.08.65-32.58.72.61-.3,0-.49,1.83-.39-13.11-.92-8.06,2.83-23,1.81-7.62-1.6,7.92-.86,3.17-1.47-2.07-3.25-18,.44-28-1.45l2.43-.19c-7.67-1.11-18.72,1.23-31.26,1,0,0,.61-.29.08-.49C179.13-2.54,162.9-2,150.84-1.53c3.76-1.27,5.48-.67,3.19-2-5.4.18,1.59,2.07-9.2,2.43-3.51-.69-11.3-1.3-12.33-2.68l10.18-.08c-5.22-1.78-13.18.07-18.54-.24l.69-.78c-15.6.25-15.82,2.21-32.59,2.07L94-2.18c-9.16,2-7.68-1.09-16.82.36l-2.77-2c-6,.48-21.17,1.91-32,2.28C48.52-3,61.2-3.73,69.05-4.6c-6,0-20.36.15-23.49,1.12C48-3.67,51-4.15,53.41-3.85q-11,2.33-29,2.28c.69-1.25-2.4-1.79-7.17-2-2.38-.13-5.19-.19-8.16-.23L-4-4c0,2.37-.1,4.7-.15,6.93,0,1.13-.08,2.24-.12,3.32,0,.54-.05,1.08-.07,1.6,0,.2,0,.4,0,.6l0,.5a28.86,28.86,0,0,1-1.09,6.4c1.42,21.12-.6,41.9-.37,66.51,3-8.72.08,7.19,3.14,5.68.19,5.73.14,7.92,0,8.43l-1.83,17.37c-.89,4.12-.67-5.45-1.36-4.92C-6.22,121-7.28,113.68-8.09,122c1.09-1.71,1.57,4.36,1.15,11.52l1.41-10.08c1.63,17.54-2.57,15.16-1,32.84l-1-5.59c.57,9.07,0,33.47,2.44,42.36-.35,1.61-1.19,3.72-1.41-.27-.37,21.68,2.61,48.27,1.1,65.12l-.75-1.65c.22,4.05,1.41,7,.66,12.11-.31-.26-.75-1.63-.79.24.25,2.14,1.31,10.75.87,16.11l-.84-4.58c-1,21.14,2.05,32.45,2.56,50.19-2.2-.05-2.92,16.59-3.27,24.9l-.31-.29c-.28,24.62,1.82,41.83,2.68,64.63-2.39,14.16-1,48-2.34,70.71.4-3.48,1.72.56,1.94,4.61-.45,5.34,1.53,14.76-.49,13.91l0-1.9c-2,4-1.46,15-1.51,23.56l2.64,1.41c-3.84,22.41,1.41,58.72-2,70.95.66,5.41.65,12.11,1.31,17.47L-6.36,620c-.36,15-.54,22.46-.2,41l-1-3.78c-.09,10.45,4.09,13.19,4.17,22.83l-2.11,2.9c0,18.22-1.83,36.67.09,54.68-.31-.3-.92-.83-1-3.78,0,8.58-1.43,33.18,1.47,30.07-.94.1-1,4.8-.69,10.71.14,2.95.38,6.2.62,9.33.13,1.57.26,3.1.38,4.55.06.73.12,1.43.18,2.11s.11,1.17.16,2.27l-.35-.58a2,2,0,0,0-.34-.51l-.7-.77c.06.27.11.52.16.77a3,3,0,0,1,.08.51c0,.2.06.4.08.59.11.76.2,1.47.3,2.15.18,1.26.35,2.39.51,3.45.3,2,.55,3.63.75,5.37,2-.2,4.13-.36,6.69-.5l8.3-.38c2.75.18,2.41,1.12-1.24.76,9.16.73,7.14-1.32,18.25-.58L24,804c9.43.11,8.68-.37,13.87-1.4,5.92-.56,17.88.35,19.27,1.61,1.27-.77,6.43-1.8,12-1.44.74.48-1.28.78-2.3.92,15.77.95,23.44-1.62,34.28-.25.22.46.93.69,1.83.83-12.52,0-22.6-.11-21.66-.21,0,1.28,10.11,1.51,2.07,3.28,8.12-1,22-3.07,31.86-2.47a6,6,0,0,1,1.3.45l-1,.14a36.86,36.86,0,0,0,6.23-.2c3.15.21,5.15.36,8.17.38,1.16,1.06,11.59.57,16.64.63-.42-1.41,6.18-1.18,0-2.34.8.1-1,.16-4.31.22-.76,0-1.65.07-2.15.15l.35-.13-12.54.1a40.26,40.26,0,0,1,13.72-.54c2.59-.9,5.44-1.83,7-2.26,6.91,2,20.21,3,22.06,4.22,15.4-.78,36.28-.52,46-3.16,4.38-.34,5,.76,6.67,1.18-2.53.26-5.54.22-6.9.6,8.75-.68,25.93-.26,28-2.11,11,.83-6.2,1.7,9,1.4l-2,.56c29.82,3,48.48-4.71,81.55-.92-2.29-.23-3.44-.34-3.9-.65,37.69,1.67,77.68-1.57,114.88,1.08,10.57.53,11.72-.64,18.17-1.54l2.29,1.51,11-1.74c15.64-1.28,27.09,3.7,46.9,1.29l-2.56-1c7.12.2,22.54-.6,21.35.57a9,9,0,0,1,5.11-.52l.22.79,17.48-1.36c13.54.57-2.12,3.14,17.64,3.29,7.35-.3,20.93-2.3,18.17-2.83-3,0-7.58-.49-7.8-1.28l6.72-.41c1.22-2.33,6.39-4.71-10.11-6.34l-11.5,1.42-3.7-1.12,9.68-.08c-5.49-1.06-9-.12-12.87.53a11.51,11.51,0,0,0-4.82-1.25l-11.28,2.23c-1.37-.91,5.06-1.81-2.51-2.31-5.29,1,5.07,2-3.69,2.72-5.5-1.06-3.89-1.92-10.35-1-.9-.6.46-1,3-1.24-5.74.71-15.2.3-18.17,1.54-5.73-1.31-19.4.34-18.83-1.87a92.56,92.56,0,0,1-15.4,1.82c9.64-2.63-19.76-.15-17.21-3-7.14,2.37-25.78,1-38.42,2.37a9.66,9.66,0,0,1,3.21-.45c-7.11-.2-9.18-.91-13.75-1.36-.91,2-12,2.41-18,3.62-8.72-1.89,5.3-2.3,2.56-4.12.44,1.59-15.15,1.59-12.18,2.91-6.67-1.17-5.75-.57-9.19-2.19-1.17,2.45-6.21.41-11.74,1.92-9.65-1.21-2.48-2.3-13.08-1.55C355.31,792.89,364.74,792,364.74,792Zm-252.15,4.23v0l5.21-.08Zm-21.19,0c2.58.05,5.79.06,9.19.05.74.49-.06,1-2.19,1C99.56,797,94.56,796.69,91.4,796.28ZM136.22,806c-3.35.2-4.48-.08-4.94-.37,1.59,0,3.44-.07,5.87-.17.1-.05.3-.11.4-.17A3.42,3.42,0,0,1,136.22,806Z"/><polygon class="cls-2" points="6.41 598.8 6.06 598.83 6.37 600.68 6.41 598.8"/><path class="cls-2" d="M597.27,495.31a4.25,4.25,0,0,0-.36,1.53A6.15,6.15,0,0,0,597.27,495.31Z"/><path class="cls-2" d="M597,545.72l-.5,7.13C596.74,549.77,596.87,547.52,597,545.72Z"/><path class="cls-2" d="M596.25,584.48a1.85,1.85,0,0,0,.61.76v-.07Z"/><path class="cls-2" d="M568.2,5.4c-.53,0-1,0-1.5.06C563.19,5.73,565.58,5.63,568.2,5.4Z"/><path class="cls-2" d="M597.89,151.6c-.26-1.95-.51-3.87-.67-5.9C597.11,149,597.09,151.5,597.89,151.6Z"/><path class="cls-2" d="M363.4,7.09s0,0,0,0h-1.26Z"/><path class="cls-2" d="M597.25,137.17a51.76,51.76,0,0,0,0,8.53A78.28,78.28,0,0,0,597.25,137.17Z"/><path class="cls-2" d="M595.62,752.48l-.06,1.87c.09,0,.17.08.22.22Z"/><path class="cls-2" d="M595.78,754.57l.17,2.07A6.42,6.42,0,0,0,595.78,754.57Z"/><path class="cls-2" d="M596.3,761l-.35-4.37A14.54,14.54,0,0,0,596.3,761Z"/><path class="cls-2" d="M596.27,701.17l-.51-.59A.78.78,0,0,0,596.27,701.17Z"/><path class="cls-2" d="M596.12,685.58c-.12,3.71-1.09,9.33-.77,14.52l.41.48C595,698.14,597,689.11,596.12,685.58Z"/><polygon class="cls-2" points="596.6 231.22 595.81 236.49 596.98 239 596.6 231.22"/><path class="cls-2" d="M596.67,800c.43,1.47,1.41.64,1.22-3.42l-1.66-2.88Z"/><path class="cls-2" d="M599.74,772.68c-.8-4.78-2.21-10.29-3.73-7.2,1.59,4.73.92,5.88,2.82,11,.19,4.07-.53,7.09-1.14,6.41.42,1.44-.37,6.31.67,8.5,1.28-5.29,1.33-12,.28-19C599,770.88,599.43,772.33,599.74,772.68Z"/><path class="cls-2" d="M595.75,717.92a27.09,27.09,0,0,0,.43,3.57c-.07-1.13-.13-2.22-.17-3.35A1.69,1.69,0,0,1,595.75,717.92Z"/><path class="cls-2" d="M503.52,793.4c-.07.1,0,.17,0,.25C504,793.51,504.16,793.41,503.52,793.4Z"/><path class="cls-2" d="M595.93,715.76c0-1.12,0-2.26,0-3.41A33.66,33.66,0,0,0,595.93,715.76Z"/><path class="cls-2" d="M286.8,794.08a12.54,12.54,0,0,1,3.29,1.26C289,794.34,299.47,794,286.8,794.08Z"/><path class="cls-2" d="M596.54,717.88a3.48,3.48,0,0,1-.61-2.12c0,.82.05,1.61.08,2.38C596.22,718.34,596.41,718.39,596.54,717.88Z"/><path class="cls-2" d="M362.16,7.06l-11.33-.2C354,7,358.11,7.06,362.16,7.06Z"/><path class="cls-2" d="M5.72,575.2l.17,2.6A10.71,10.71,0,0,0,5.72,575.2Z"/><path class="cls-2" d="M317.2,7.06a42.54,42.54,0,0,0-6.38-1,6.26,6.26,0,0,0-1.31.37Z"/><path class="cls-2" d="M290.11,795.36l0,0Z"/><path class="cls-2" d="M364.74,792c-10.79,0-5.07,1.81-7.36,2.87-12.88.52-6-1.36-10.35-2.31-8,.49-14.21,2.19-20.21,2.11-.45-.3-1.62-.41-.25-.79-8.51,1.47-25.25.07-35.16,1.91a3.63,3.63,0,0,1-1.3-.45c1.61.92,1.86,1.86,1.53,2.53-4.84,0-9,1.17-10.81,0a10.1,10.1,0,0,0,4.61-.83l-5.08.53c-4.56-1.74,6.93-.6,6.93-1.89-9.89.57-21.42,2-29,1.51-1.59-1.7,17.72-.57,7.6-2.08l11.73.65c-9-2.68,7.12.19-1.11-2.68-15.43-.49-17.26.87-32.65.37-3.46.94,1.15,1.4-2.32,2.34-21.87,1.7-17.22-4.27-33.3-2-4.16,1.13-5.78,3.28-17.23,2.15l3.9-1.92c-14.93-.19-8.52,2.76-24.17,1.46,2.78-.75,11.74-.63,9.48-.86-10.13-1.52-7.17,1.09-15,1.09l-1.61-1.7c-15.9.27-33.42,1.49-51,1.8,1-.5,4-1-.13-1.55-22.21.85-47.42-.21-68.85-1.22l-8.18,1.47c-1.91,0-3.54-.66-1.47-1-8.36-.56-.44.93-4.45,1.51-4.75.1-6.28-.85-3.27-1.29-3.43.29-7.53.59-12,.86l-3.43.2-1.75.09-.89.05H8l-.17,0c-.92.12-2,.22-3.08.3l-.13-1.71,0-.91,0-.46,0-.68c0-2.81-.06-5.58,0-8.26,0-5.36.26-10.35.68-14.5l.43,3c.6-12.09-3-13.64-1.64-24.85l.26,2.15c.64-26.24-.7-55.24,1.51-75.27-2.11-3.8.94-26-2-27.65,1.46-15,2-10.7,3-31.8C6.8,608.74,4.82,606,4.52,599l1.54-.17-1.62-9.46,1.84-5-.39-6.54c-.09,2.61-.69,5.54-1.14,5.14-.69-10.21,1.08-24.89,1.87-25.14L5.31,533.65c.62.54.84,4.58,1.23,7.78-1.57-12.89,1.62-2.34.18-14.16-.35,1.59-.91-.85-1.23-1.12.94-5.89.94-19.3.55-29.21l1.06,1.9c.27-17.92-.51-37.77-.49-57.87-.49,7.21-2.33,5.55-2.51-.34l1.63-2.36c-1-3.81-.62,6.16-1.85-1.66.19-7.51,1.85-5.05,2.38-.73l-.56-9.14c.48-.53.74,1.61,1.36,2.17-1-3.75,1.64-15.76-.12-21.17l.48-.51c0-20.1-.54-29.22-.62-45.59-1.41-.32-1.1-6.72-2.24-11.6C5,338,6.12,324.65,6,310.16c-.7-10.19-1.19-3-2-7.56,1.28-.75,1.16-15.23,2.08-7.72-.2-17.4-.25-22.22-1.29-44.22-.53,2.38-.75,5.07-1.19,3.68-.21-4,.54-9.09,1.15-8.51l.13,1c-1.92-24.7,3.74-57,1.07-76.68l.13,1.11-1.39-20.4c.22-9.38,1,5.63,1.75-1.31-2.13-22,.31-34.77-1.11-52.89C9.08,82.69,5,47,7.45,28l-.89,1.09c-.88-4.89.5-5.92.71-9.52-.69.51-.8,5.3-1.28,2.26-.1-3.59-.16-7.2-.21-10.84,0-1.75,0-3.52-.07-5.3l7.41.07L26.35,6c8.84.17,17.73.41,26.63.66,17.8.52,35.64,1.12,53.2,1.45,15.55.24,8.82-4.6,28.42-2.48L129,7.26c31.37-2,64.13.07,94.84-1.61C222,6,222,6.53,219,6.52c6.48,1.2,24,.06,24.09-.92,4.78.11,1.11.88,4,1.38,6.51.71,16.33-1.53,19.79-.34.58.2-1.83.39-3,.49,4.24-.59,19.75.14,15.69-1.24,11.52.66,22-.62,31.23.2,6-1.54,19.73.75,21.63-1.44-.82,2.26,20.21,1.82,27.49.76-2.44.68,6.34.71,3.48,1.65,8.32,0,15.94-.45,14.49-1.61,15.31,2.71,30.79-2.18,39.41,1.29,24.7-1.21,47.56-2,69.78-2.57-.81,2.26-24.56.23-23.61,2.6,21.08-.93,33.24-2.87,54.14-2.32,5.41.3-3.08,1-4.9,1.36,21-.93,40.71.2,59.45-1,0,.21-2.07.44-4,.61,3.69-.08,8.58.33,8.17-.7l-3.6.28c-5.9-1.49,14.66-3.11,15.32-3.89-1.56.73-1.19,1.15.09,1.41a23.35,23.35,0,0,0,2.49.31l1.42.11,1,.1c1.28.14,2.36.31,2.5.67.08.18-.08.41-.47.71s-1,.67-1.69,1.14a13.14,13.14,0,0,0,1.51-.45.61.61,0,0,0,.92-.16,3.24,3.24,0,0,1-.48,1.77c-.22.22-.51,0-.9-.31.07.47.14.89.23,1.27l.06.29,0,.13c0,.12,0,.24,0,.36l.13,1.32c.18,1.61.37,2.63.54,3.62a49.39,49.39,0,0,1,.59,9.79c-.5,0-.69-2.46-1.27-3.7a98.61,98.61,0,0,1,1.52,22.29c-.3-.61-.69.57-.69-2.45C595.78,56.7,598.21,69,597.28,88c-2.16-5.63-.71,6.49-2.58,7.5l.56,10.26.9-4.11c0,9,1.33,16.93.72,24.65l-.77-6.68.35,16.85.71-9.54c1,9.1,2.36-1,1.84,11-.19-2.43,0,9-1.12,13.68v0a69.87,69.87,0,0,1,.75,15.66c-.59,1.73-2.06-1.39-2.46-.26,1.56,4.38.43,21.05,2.1,26.6-.39-1.85-1.37-1.95-1.57-1.34l1.26,3.68c-.4,4.17-.6,4.78-1.38,4.1-.23,12.52,2.37-4,1.35,10.88a27.67,27.67,0,0,1-.49-3c-.53,14.93.81,28.85.18,42.56-1.87,4.05-.46-12-2-7.35.34,19.78,2.25,41,1.81,60.09l.21-3.56c2.65,2.65-1.31,14.25-.06,23.93-.2-2.37-1.48-3.11-1.18-2.47-.43,13.11.65,26.8,1.49,46.66l-.69-2.46c-.6,7.72-.35,20.34-.66,28.69.68,2.47.57,7.24,1.56,4.34-3.88,25.73,2.08,49.08-1.15,71.9,0-2.72-.59-6.5-.6-4.33l.63,19.44c1.16-1.53.7-2.55,1.6-6.63a59.3,59.3,0,0,1,1.22,12.77c-.77-8.75-1.86.07-2.5,3.85.35-.63.74.66,1.1.34-2,10.16,2.33,1.7.94,15.57l-.61-.73c.31,5.19,1.12,10,.94,15.56-1.33,2.33-.62-5.52-1.72-5.88.08,7.86,2.53,15.51,1.2,22.63-.37-3.34-.38-8.14-.75-11.48-1.57,7.75-1.17,8.65-1.42,14.4l0-.56-.71,13.31.42-3.39c3.49,9.83.64,20,2.92,33.28-2.16-12.88-1.25-2.13-2.76-3.12-.42,3.39-.9,8.53-1.32,7.06,1.22,6.27-1,10.46.82,19.3-.49.39,0,6.7-1.27,5.29.38,8.14.85-1.93,1.46-1.24,1.67,12.55-2,29.5.27,47.55.94,15.57,2.58,18.45,3.4,32.9-.78,4.87-1.78-4-1.78-4a118.21,118.21,0,0,0,0,21.2c-.43-1.5-.79.05-1.34,2.31.13,5.95,1.78,4,1.06,11.82a27.19,27.19,0,0,1-2-5.94c.45,7,1.36,13.93,1.8,21.19-.85,1.92-1.29-4.38-1.84-6.94.38,8.16.77,21.13,2.11,23.65l.48-5.23c.07,3-1.15,1.53-1.4-.66-1.05-7,.47-10.08,1-10.48l.31,5.17c2.86-5.31-.46-20.76-.29-31.16l2.08,4.33-1.73-10.67c.54-2.27,1.7-3.82,2,1.32,1-7.46-.74-6.61.41-13,.18-.71.28-.39.36.26l-.62-7.28c.44,1.43,1.47-1.22,1.17,3.26,1.2-13.08-1.56-21.09,0-26l.12,1.1c-.7-18.15-1.52-1.76-3.31-15.37l3.76-9.16L601.06,644c.05-1.87.16-5.57.78-4.89-1.05-7-.67,1.19-1.66-2.85,1.4-9-.65-24.85,1.79-26.88-1.16-3.24-.9,8.61-1.71-1,2.62-2.74-.44-11.12.76-19.35,1.35,2.53.63,10.33,1.84,2.09-2.29-5,.5-16,.06-23-1.82-.32-.76-15.1-1.36-26.75.61.74,1-21.93,1.65-32.77l.31.32c-1.84-2.1-1.49-13.28-1.87-21.42,1.1.32,1.53,1.78,2,6.19v-7.65c-.59-1.8-.9-4.19-1.11-9.16l1.38,1.93c-.08-10.19-1.62-20.52-.7-33.63-1.28-.73-3.57,10.43-4.42-3.43.69-.52,1.87-1,2.16,2.6a32.1,32.1,0,0,1-.28-6.63l1.16,5.54c.51-6-1-3.12-.86-7.9,1,.1.7-3.53,1.48-2.84.1,1.21-.4,4.16,0,6,.18-5.39.77-11.89,1.51-14-.56.47-1.33,0-1.45-3.94-.08-10.19,1.18-3.49,1.69-9.43-.68-2.47,0-9-1.45-9.14a9.15,9.15,0,0,1,1.1-4.68c-.65-5.27-.19-24.63-1.76-18.69L602,380c0-.26,0-.56-.07-.87v0c-1.47-17.28.84-35.89.21-53l.49,0c-.56-10.24-.33-22.78-1.4-30.09,0-3,.91-7.15,1.49-5.85-.37-7.83-.92-8.71-.11-20,.86,7.87.77-2.71.63,8.06.43-10.16,1.22-12.46-.13-23.38,1.27,3.72,1.59-7.65,1.22-12.49l-.91,7.13c-.18-5.44-.07-10.19,0-15l1.66,2.61c2-20.81-3.44-37.52-.06-53.36-1.16-5.5-.81,11.3-2.18,6.38.23-9.57,2.62-19.54,2.62-22.54.92-13.11-2.43-12.23-1.8-25.95-.59,1.76-2.18,3.41-2.73-6.84.21-9.58,2.48-11.77,3-5.72.05,2.29-.14,3.4-.34,3.3.22,3.1.47,7.16,1.11,3.37l-.59-1.25c.61-4.75.54-17.92,1.52-14.83-.57-7.23-1-3.09-1.28,2.27.85-12.28,0-19.19.6-31.83-.33,2-1,3.86-1,1.86.74-18.55-1.13-8.17-1.39-20.73.91-7.14,2.16,2.55,1.41-10.09.61-7.73,1.57-1.64,2,1.43-1.14-11.52.76-21.53,1-28.11l.47,6.07c-.28-3.63-.27-6.61-.27-9.63L606,34.31c.21-3.56.22-6.58.71-6.51-.78-3.68-2,2.81-3-4.48a80.84,80.84,0,0,0,.1-9.22,41.89,41.89,0,0,1,.11-4.35,9.58,9.58,0,0,1,.25-1.57,5.41,5.41,0,0,1,.47-1.47c0,1.13-.05,2.1-.07,3,0,.7,0,1.29,0,1.79a12.12,12.12,0,0,0,.11,2c.12.75.35.47.59.12.5-.7,1.09-1.69,1.22,4.64a69,69,0,0,1,0-9c.18-.54.33.5.42,1.48.09-.93.16-1.76.22-2.52s0-1.32.07-1.93,0-1.24,0-1.81c.05-2.3,0-4.08,0-5.48a23.58,23.58,0,0,0-.73-5.39c-1.78.31-3.62.64-6.43.9-1.4.13-3,.23-5,.31l-3.2.09c-.74,0-1.55,0-2.45,0,1.89-.88-3.43-1.68-5.85-1.49,6,0,2.86,1.48-2.62,2.16-9.5-.69-10.33.51-15.31.43l5.68.33c-1.92.89-6.67.77-13.3,1.05-.56-.69,6-.48,3.66-.78C554.2-1.85,544.94-5,534.68-4c-4.75-.6-.46-1.66-4.63-2.07-11.49,1.15-12.45-1.22-24.53-.27,3.48,1.2,4.09.91-4.42,2.07L521-5.09,508.22-3.36c6,0,12.65-.75,16.24-.54-6.07,1-5.45.67-2.58,1.66-8.2-1.79-16.26,1.05-25.74-.16l.29-3c-14.26-1.31-25.33,1.52-43.83.78l5.94.51c-2.48,1.17-11.42.16-17.42.64.56-1-3.19-1.35-5.74-2,.31.73-13.55-.07-15.23,1.9l-8.26-1.3C396.94-5.32,394.83-2,380.46-2.31c4.33-1.07-2.2-1.77,7.43-2.54-4.8,0-9.11-.19-9.19.49C375.9-5,365.4-3,361-4c-2,.43-2.68,1.46-8.07,1.38-.58-.2,0-.49,0-.49,0,.49-8.43.67-3.72,1.76-14.77-3.08-41.3.22-54.16-2.42-10.47.33-23.08.65-32.58.72.61-.3,0-.49,1.83-.39-13.11-.92-8.06,2.83-23,1.81-7.62-1.6,7.92-.86,3.17-1.47-2.07-3.25-18,.44-28-1.45l2.43-.19c-7.67-1.11-18.72,1.23-31.26,1,0,0,.61-.29.08-.49C179.13-2.54,162.9-2,150.84-1.53c3.76-1.27,5.48-.67,3.19-2-5.4.18,1.59,2.07-9.2,2.43-3.51-.69-11.3-1.3-12.33-2.68l10.18-.08c-5.22-1.78-13.18.07-18.54-.24l.69-.78c-15.6.25-15.82,2.21-32.59,2.07L94-2.18c-9.16,2-7.68-1.09-16.82.36l-2.77-2c-6,.48-21.17,1.91-32,2.28C48.52-3,61.2-3.73,69.05-4.6c-6,0-20.36.15-23.49,1.12C48-3.67,51-4.15,53.41-3.85q-11,2.33-29,2.28c.69-1.25-2.4-1.79-7.17-2-2.38-.13-5.19-.19-8.16-.23L-4-4c0,2.37-.1,4.7-.15,6.93,0,1.13-.08,2.24-.12,3.32,0,.54-.05,1.08-.07,1.6,0,.2,0,.4,0,.6l0,.5a28.86,28.86,0,0,1-1.09,6.4c1.42,21.12-.6,41.9-.37,66.51,3-8.72.08,7.19,3.14,5.68.19,5.73.14,7.92,0,8.43l-1.83,17.37c-.89,4.12-.67-5.45-1.36-4.92C-6.22,121-7.28,113.68-8.09,122c1.09-1.71,1.57,4.36,1.15,11.52l1.41-10.08c1.63,17.54-2.57,15.16-1,32.84l-1-5.59c.57,9.07,0,33.47,2.44,42.36-.35,1.61-1.19,3.72-1.41-.27-.37,21.68,2.61,48.27,1.1,65.12l-.75-1.65c.22,4.05,1.41,7,.66,12.11-.31-.26-.75-1.63-.79.24.25,2.14,1.31,10.75.87,16.11l-.84-4.58c-1,21.14,2.05,32.45,2.56,50.19-2.2-.05-2.92,16.59-3.27,24.9l-.31-.29c-.28,24.62,1.82,41.83,2.68,64.63-2.39,14.16-1,48-2.34,70.71.4-3.48,1.72.56,1.94,4.61-.45,5.34,1.53,14.76-.49,13.91l0-1.9c-2,4-1.46,15-1.51,23.56l2.64,1.41c-3.84,22.41,1.41,58.72-2,70.95.66,5.41.65,12.11,1.31,17.47L-6.36,620c-.36,15-.54,22.46-.2,41l-1-3.78c-.09,10.45,4.09,13.19,4.17,22.83l-2.11,2.9c0,18.22-1.83,36.67.09,54.68-.31-.3-.92-.83-1-3.78,0,8.58-1.43,33.18,1.47,30.07-.94.1-1,4.8-.69,10.71.14,2.95.38,6.2.62,9.33.13,1.57.26,3.1.38,4.55.06.73.12,1.43.18,2.11s.11,1.17.16,2.27l-.35-.58a2,2,0,0,0-.34-.51l-.7-.77c.06.27.11.52.16.77a3,3,0,0,1,.08.51c0,.2.06.4.08.59.11.76.2,1.47.3,2.15.18,1.26.35,2.39.51,3.45.3,2,.55,3.63.75,5.37,2-.2,4.13-.36,6.69-.5l8.3-.38c2.75.18,2.41,1.12-1.24.76,9.16.73,7.14-1.32,18.25-.58L24,804c9.43.11,8.68-.37,13.87-1.4,5.92-.56,17.88.35,19.27,1.61,1.27-.77,6.43-1.8,12-1.44.74.48-1.28.78-2.3.92,15.77.95,23.44-1.62,34.28-.25.22.46.93.69,1.83.83-12.52,0-22.6-.11-21.66-.21,0,1.28,10.11,1.51,2.07,3.28,8.12-1,22-3.07,31.86-2.47a6,6,0,0,1,1.3.45l-1,.14a36.86,36.86,0,0,0,6.23-.2c3.15.21,5.15.36,8.17.38,1.16,1.06,11.59.57,16.64.63-.42-1.41,6.18-1.18,0-2.34.8.1-1,.16-4.31.22-.76,0-1.65.07-2.15.15l.35-.13-12.54.1a40.26,40.26,0,0,1,13.72-.54c2.59-.9,5.44-1.83,7-2.26,6.91,2,20.21,3,22.06,4.22,15.4-.78,36.28-.52,46-3.16,4.38-.34,5,.76,6.67,1.18-2.53.26-5.54.22-6.9.6,8.75-.68,25.93-.26,28-2.11,11,.83-6.2,1.7,9,1.4l-2,.56c29.82,3,48.48-4.71,81.55-.92-2.29-.23-3.44-.34-3.9-.65,37.69,1.67,77.68-1.57,114.88,1.08,10.57.53,11.72-.64,18.17-1.54l2.29,1.51,11-1.74c15.64-1.28,27.09,3.7,46.9,1.29l-2.56-1c7.12.2,22.54-.6,21.35.57a9,9,0,0,1,5.11-.52l.22.79,17.48-1.36c13.54.57-2.12,3.14,17.64,3.29,7.35-.3,20.93-2.3,18.17-2.83-3,0-7.58-.49-7.8-1.28l6.72-.41c1.22-2.33,6.39-4.71-10.11-6.34l-11.5,1.42-3.7-1.12,9.68-.08c-5.49-1.06-9-.12-12.87.53a11.51,11.51,0,0,0-4.82-1.25l-11.28,2.23c-1.37-.91,5.06-1.81-2.51-2.31-5.29,1,5.07,2-3.69,2.72-5.5-1.06-3.89-1.92-10.35-1-.9-.6.46-1,3-1.24-5.74.71-15.2.3-18.17,1.54-5.73-1.31-19.4.34-18.83-1.87a92.56,92.56,0,0,1-15.4,1.82c9.64-2.63-19.76-.15-17.21-3-7.14,2.37-25.78,1-38.42,2.37a9.66,9.66,0,0,1,3.21-.45c-7.11-.2-9.18-.91-13.75-1.36-.91,2-12,2.41-18,3.62-8.72-1.89,5.3-2.3,2.56-4.12.44,1.59-15.15,1.59-12.18,2.91-6.67-1.17-5.75-.57-9.19-2.19-1.17,2.45-6.21.41-11.74,1.92-9.65-1.21-2.48-2.3-13.08-1.55C355.31,792.89,364.74,792,364.74,792Zm-252.15,4.23v0l5.21-.08Zm-21.19,0c2.58.05,5.79.06,9.19.05.74.49-.06,1-2.19,1C99.56,797,94.56,796.69,91.4,796.28ZM136.22,806c-3.35.2-4.48-.08-4.94-.37,1.59,0,3.44-.07,5.87-.17.1-.05.3-.11.4-.17A3.42,3.42,0,0,1,136.22,806Z"/><polygon class="cls-2" points="6.41 598.8 6.06 598.83 6.37 600.68 6.41 598.8"/><path class="cls-2" d="M597.27,495.31a4.25,4.25,0,0,0-.36,1.53A6.15,6.15,0,0,0,597.27,495.31Z"/><path class="cls-2" d="M597,545.72l-.5,7.13C596.74,549.77,596.87,547.52,597,545.72Z"/><path class="cls-2" d="M596.25,584.48a1.85,1.85,0,0,0,.61.76v-.07Z"/><path class="cls-2" d="M568.2,5.4c-.53,0-1,0-1.5.06C563.19,5.73,565.58,5.63,568.2,5.4Z"/><path class="cls-2" d="M597.89,151.6c-.26-1.95-.51-3.87-.67-5.9C597.11,149,597.09,151.5,597.89,151.6Z"/><path class="cls-2" d="M363.4,7.09s0,0,0,0h-1.26Z"/><path class="cls-2" d="M597.25,137.17a51.76,51.76,0,0,0,0,8.53A78.28,78.28,0,0,0,597.25,137.17Z"/><path class="cls-2" d="M595.62,752.48l-.06,1.87c.09,0,.17.08.22.22Z"/><path class="cls-2" d="M595.78,754.57l.17,2.07A6.42,6.42,0,0,0,595.78,754.57Z"/><path class="cls-2" d="M596.3,761l-.35-4.37A14.54,14.54,0,0,0,596.3,761Z"/><path class="cls-2" d="M596.27,701.17l-.51-.59A.78.78,0,0,0,596.27,701.17Z"/><path class="cls-2" d="M596.12,685.58c-.12,3.71-1.09,9.33-.77,14.52l.41.48C595,698.14,597,689.11,596.12,685.58Z"/><polygon class="cls-2" points="596.6 231.22 595.81 236.49 596.98 239 596.6 231.22"/></g><g id="Layer_6" data-name="Layer 6"><path class="cls-3" d="M562.71.5C534.89,347,302.63,628.26.5,695.29V.5Z"/><path class="cls-2" d="M562.71,6.49c1.16-.77.51-2.53-2.7-2.19l-2.28,3Z"/><path class="cls-2" d="M541.11,1c-3.77,1.44-8.13,4-5.68,6.72,3.74-2.86,4.64-1.67,8.67-5.08,3.21-.34,5.6,1,5.06,2.05,1.14-.76,5,.66,6.72-1.21-4.18-2.31-9.47-2.4-15-.49C539.69,2.3,540.84,1.52,541.11,1Z"/><path class="cls-2" d="M497.83,8.16a10.52,10.52,0,0,0,2.82-.79c-.89.13-1.76.24-2.65.32A3.36,3.36,0,0,1,497.83,8.16Z"/><path class="cls-2" d="M541.41,74.13c.17.08.29,0,.44.07C541.67,73.79,541.51,73.64,541.41,74.13Z"/><path class="cls-2" d="M563.36.55l0,1.07a6.55,6.55,0,0,0,1.39.34Z"/><path class="cls-2" d="M496.13,7.82c-.89,0-1.79.06-2.7,0A12.07,12.07,0,0,0,496.13,7.82Z"/><path class="cls-2" d="M497.54,237a8.48,8.48,0,0,1,3-1.58C498.58,235.59,500.87,227.72,497.54,237Z"/><path class="cls-2" d="M497.8,6.73a2,2,0,0,1-1.67,1.09c.64,0,1.26-.07,1.87-.13C498.17,7.31,498.2,7,497.8,6.73Z"/><path class="cls-2" d="M13.22,258.63l-.38,9C13.09,265.09,13.22,261.83,13.22,258.63Z"/><path class="cls-2" d="M265.65,556l1.39-1.49A3.74,3.74,0,0,0,265.65,556Z"/><path class="cls-2" d="M13.22,294.17a16.43,16.43,0,0,0-1.75,5,3.61,3.61,0,0,0,.65,1Z"/><path class="cls-2" d="M500.59,235.44h0Z"/><path class="cls-2" d="M514.06,178.54c-1.22,4-.72,5.2.23,5.67s2.42.22,3,1.36c-2.3,9.84-3.81,3.67-6.51,6.38-1.16,6.2.2,11.75-1.41,16.16-.63.15-1.11.94-1.42-.29a20.69,20.69,0,0,1-.8,6.08c-.62,2.2-1.47,4.55-2.31,6.94-1.69,4.78-3.34,9.72-3.16,13.95a2.36,2.36,0,0,1-1.13.65,5.6,5.6,0,0,1,4.68.53c-1.29,3.57-.54,7.38-3.07,7.92.88-2.16.14-2.66-.11-3.93l-.53,4.07c-2.15,1.08-1.84-.27-1.37-2s1.21-3.88.13-4.31c-.45,1.91-.81,3.93-1.21,6s-.88,4-1.34,6c-.93,3.91-2,7.54-3.56,10.11-3.3-.05,4.44-13.2-1.14-6.94l4.64-8c-7.19,4.65,2.47-5-4.81-1-5.48,10.72-3.78,13-9.25,23.69.5,3.17,2.64.18,3.15,3.37-4.47,16.82-12.67,9-14.27,22.06.22,1.92,1.09,3.59,1.16,5.68s-.74,4.55-3.7,8.08l-1.7-4.27c-5.62,10.21,1.39,8.19-6.26,18-.21-2.57,3.17-8.69,2-7.31-6,5.77-.82,5.89-3.6,11.32l-3.3-.34c-2.82,5.52-5.42,11.53-8.11,17.71-1.34,3.08-2.68,6.22-4.13,9.33s-3.13,6.13-4.81,9.14c-.38-1.13,0-3.63-2.45-1.37-1.93,3.89-4.13,7.81-6.49,11.69-1.21,1.92-2.36,3.9-3.71,5.76s-2.69,3.73-4.07,5.57c-2.76,3.67-5.58,7.27-8.39,10.76q-2.13,2.6-4.19,5.13c-1.4,1.66-2.87,3.23-4.27,4.8l-1.58,6.7c-.89,1.19-2.58,1.53-2.05-.07-4.62,4.69,1.16,1.26.17,4.4-2,3.12-4.1,3.08-3.36.71-1.23,2.65-2.8,5.82-4.62,9.21s-4.11,6.82-6.44,10.26a120.59,120.59,0,0,1-7.28,9.78c-1.25,1.49-2.48,2.9-3.75,4.15a43,43,0,0,1-3.82,3.25l.92-2.3c-6.91,6.49-2.74,11.61-10.3,16.72l.74-1.59c-1.77,1.87-3.52,3.8-5.25,5.76l-5.35,5.78-10.49,11.54c-1.75,1.86-3.41,3.74-5.2,5.42s-3.55,3.32-5.31,4.85A75.9,75.9,0,0,1,323.08,505c.15,1.21-.74,2.63-2.12,4.17a29.55,29.55,0,0,1-2.38,2.36l-2.77,2.35c-3.72,3.15-7.16,6.28-5.83,8.67a107.34,107.34,0,0,1-9.81,5c-1.25.6-2.54,1.4-4.45,2.53s-4.34,2.72-7.74,5.06c-3.48,2.67-2.79,6.77-6.57,10.75l-1.88-2c-1.25,2.32-2.45,4.73-3.77,7l-5.18-.13L267,554.46c1.7-1.13,4.17-1.71,4.43-.9C266,559.5,255,564.11,254,563.09c-2.17,2.31-4.54,4.37-6.82,6.55l-6.91,6.48c-.32-1.15,2-3.31,3.59-5.35-6.44,8.19-3.18-1.29-9.08,6.21,1.36-.21.42,1.74.57,2.32-2.35.65-5.56,2.6-9.12,4.74a108,108,0,0,0-10.21,7.28l.18-2.41c-3,1.83-5.93,3.8-8.93,5.88l-2.25,1.57-2.33,1.5L198,601l-9.56,6.3-4.89,3.15c-.83.51-1.64,1-2.48,1.53l-2.56,1.42c2.68-1,4.14-.59,4.46.35s-.51,2.45-2.44,3.71l-3.07-1.66c-1.7,3,4.76-1.36.51,3.52-5.31,2.54-5.08-1-2.61-3.46l-5.73,4.32c-.78-.57.45-1.77.29-3-1.69,3-12.07,3.34-14.29,8.1l-.76-.6c-7,3.45-11.93,6.19-16.56,8.79l-6.91,3.87c-2.4,1.22-5,2.43-7.84,3.76.82,2.4-4,3.91-6.61,7.33-2.23.77-4.54,1.49-6.92,2.23l-3.6,1.09-3.75,1a124.23,124.23,0,0,0-15.44,5.09c-6.93,4.08-1.4,2.85-4.2,5.57-.33-.49-1.24-.58-2.33-.5s-2.4.22-3.5.37c-2.19.28-3.59.38-1.11-1.35-6.34,2.37-10.38,3.88-14.8,5.72-2.21.92-4.51,1.91-7.24,3.14l-9.94,4.11c2.06.37,4.2.18,3.39,1.23-2.9,1.25-7.1,1.08-7-.11l.72-.46a53.51,53.51,0,0,1-10,3.7c-1.79.47-3.6.94-5.46,1.26s-3.76.55-5.66.78l-2.86.33-.71.07-.34,0-.13,0-.5-.08A9.12,9.12,0,0,1,14,681.2a12.4,12.4,0,0,1-1.72-.87c.44-1.75.32-1.94-1.09-2.88l.24.18a5.66,5.66,0,0,1-.31-.48l-.16-.27-.08-.14c0-.1-.05-.32-.08-.47l-.62-4-1.25-8.06c.39-7.42,1.73,4.45,3.16-1-3.85-17.39.55-27.48-2-41.8,6.8-11.08-.48-39.34,3.86-54.3l-1.6.86c-1.57-3.86.92-4.67,1.28-7.52-1.24.4-1.44,4.19-2.31,1.79C9.34,529.41,13.61,494.55,15.06,461c.43-12.28-8.29-7-4.46-22.45l3,4.39c-3.56-24.79.12-50.69-2.9-75,.68,1.45,1.58,1.49,1.56,3.86,2.16-5.13.11-19-1.65-19,.2-3.78,1.59-.88,2.49-3.21,1.27-5.14-2.76-12.9-.61-15.63.35-.47.7,1.44.87,2.38-1.05-3.35.26-15.61-2.23-12.4,1.19-9.11-1.11-17.43.37-24.69-2.79-4.74,1.34-15.59-2.6-17.1,4.07.66,3.28-16,1.37-21.73,1.23,1.93,1.27-5,3-2.74-.06-6.58-.82-12.6-2.91-11.45,4.87-12.11-3.92-24.34,2.32-31.16C10.45,195.51,9,177.44,8,159.88c4.06.63.41,19.41,4.67,18.66C11,161.88,7.52,152.27,8.5,135.75c.56-4.28,1.76,2.42,2.46,3.87-1.68-16.64.36-32.18-1.85-47,.38,0,.8,1.64,1.11,3.14-.14-2.92.59-6.78-1.26-6.45l.51,2.84c-2.68,4.66-5.6-11.59-7-12.11,5.29,5,1.33-14.63,8-6.76C10.12,71.37,9.25,69,8,69.4c.36-2.85,1.08-3.76,2.49-.87-1-10.45-3-6.74-2.93-16.21.9,0,1.24,2,2.29,2.93-1.74-4.8-3.48-9.62-2.73-17.62.54.48,1.24-.45,1.23,1.94-.14-6.88-1.3-12.74-2.21-18.76-.23-1.51-.44-3-.62-4.57,0-.39-.09-.77-.13-1.16l-.11-.8c-.07-.53-.13-1.09-.17-1.65A26.07,26.07,0,0,1,5.4,5.77,7.3,7.3,0,0,0,7.19,8.1c.36.22.53,0,.66-.25,1.23.3,2.78.36,4,2.19a22,22,0,0,1,2.73-1,12,12,0,0,0-1.83-1.63,10.51,10.51,0,0,0,1.37-.09c.48-.06.74-.14,1.76-.24,1.68-.21,3.32-.48,4.93-.71a29,29,0,0,1,9.37-.25L24.94,7.5l13.32-.64L30.72,5.59c7.19-1.73-.77-4.25,8.69-3.32-1.92.35,7.1,0,10.81,2h0c3.52-1.07,7.13-2.19,12.38-1.36,1.37,1.08-1.09,3.72-.21,4.43,3.47-2.81,16.64-.78,21-3.77-1.46.7-1.54,2.47-1.06,2.83l2.91-2.28c3.29.73,3.78,1.08,3.24,2.49,9.9.41-3.14-4.27,8.61-2.43-.93.18-.49.53-2.41.87,11.8,1,22.8-1.45,33.64-.32,3.2,3.38-9.47.83-5.81,3.68,15.63-.62,32.37-4,47.5-3.26l-2.82-.37c2.1-4.77,11.27,2.36,18.92.11-1.88.35-2.46,2.65-2,2.11,10.36.77,21.18-1.17,36.88-2.67l-1.95,1.23c6.11,1.09,16.08.63,22.68,1.18,1.95-1.22,5.73-1,3.43-2.8C265.54,11,284,.22,302,6c-2.16,0-5.15,1.07-3.43,1.08L314,6c-1.22-2.08-2-1.26-5.24-2.88C310.68,1.88,315,.92,318.83.92c-6.91,1.38.06,3.34,3,4.5-.5-.64.53-1.34.27-2,8,3.7,1.35-4.18,12.31-1.69l-.58,1.09c4.1-.56,7.88-2,12.3-1.69,1.84,2.41-4.36,1.13-4.64,3.11,6.21-.14,12.26-4.56,17.88-2.16-2.64.67-6.43.68-9.07,1.34,6.12,2.83,6.83,2.11,11.38,2.56l-.45-.07L371.79,7.2l-2.68-.76C376.89.16,385,5.29,395.42,1.18c-10.18,3.89-1.68,2.25-2.46,5,2.67.75,6.74,1.6,5.58,2.37,4.95-2.2,8.27,1.73,15.25-1.48.31.88,5.3.08,4.18,2.29,6.44-.69-1.52-1.53-1-2.63,9.92-3,23.32,3.63,37.59-.48,12.31-1.69,14.58-4.65,26-6.13,3.86,1.41-3.15,3.2-3.15,3.2a41.1,41.1,0,0,0,16.75.05c-1.19.77,0,1.41,1.82,2.4,4.7-.23,3.15-3.2,9.35-1.9a15.88,15.88,0,0,1-4.7,3.52c5.54-.8,11-2.44,16.75-3.23,1.52,1.52-3.46,2.32-5.48,3.32,6.44-.69,16.7-1.39,18.69-3.81l-4.13-.87c2.35-.11,1.21,2.08-.53,2.52-5.52,1.9-8-.84-8.28-1.72L521.76,3c-4.2-5.15-16.41.83-24.63.53L500.55-.2l-8.43,3.11c-1.8-1-3-3.06,1-3.62-5.9-1.85-5.22,1.33-10.29-.74-.55-.32-.3-.5.22-.65L477.33-1c1.12-.79-1-2.64,2.58-2.1-10.34-2.16-16.68,2.81-20.57,0l.86-.23c-14.34,1.26-1.38,2.75-12.14,6l-7.24-6.78L439.41-1.4c-1.49-.1-4.41-.3-3.87-1.4-5.51,1.88.94,1.19-2.26,3C426.16-2.34,413.64,1.34,412-3c-2.55,2.09,6.82,1.61-.79,3.06-2.17-4.7-8.79.81-15.3-1.35,2-2.43,8.17-1.14,1.65-3.31-3.92,4.11-12.67-.9-18.16-.11-.25,3.27-11.93,1.36-21.14,2.45.58-1.1-17.33-1.8-25.9-3l.25-.55c-1.66,3.31-10.5,2.68-16.93,3.36.25-2,1.41-2.75,4.89-3.64l-6.05,0c-1.42,1.06-3.31,1.61-7.23,2l1.52-2.47c-8.06.14-16.22,2.91-26.58,1.26-.58,2.31,8.24,6.42-2.71,8-.41-1.25-.82-3.38,2.05-3.89-.94.17-3.35,1-5.24.5l4.38-2.09c-4.72-.92-2.47,1.75-6.24,1.55.07-1.77-2.8-1.26-2.25-2.67,1-.18,3.29.73,4.73,0-4.25-.32-9.39-1.37-11.09-2.72.37,1,0,2.4-3.12,2.63-8,.13-2.76-2.14-7.45-3-1.95,1.23-7.09-.05-7.22,2.61-2.36,0-2.8-1.25-3.71-2-4.16,1.17-19.46.33-14.77,3.16l1.07.18c-.2.06-.43.06-.68.12h0c-13.66,2.64-28.37-1.5-41.93-.37l0-.89c-8.1,1-18,.6-23.79,2.52-2.39,0-5.65-1.63-4.62-2.69-6.19.67-6.88,1.67-15.81.2,6.21-1.55-2.15-1.37,6.37-1.13-8-.77-9.86-2.19-18.49.24,2.94-2.28-6-2.87-9.87-2.19l5.64,1.63a89.92,89.92,0,0,1-11.87-.06l2.06-3c-16.44-3.64-29.65,6.2-42.17.1-4.35,2.1,8.93,1.48,5,3.93C73-5.08,65.15-9.38,62.79-9.38,52.43-11,53.12-5,42.28-6.14,43.66-5.08,45-2.23,36.87-1.22c-7.57-.39-9.31-4.48-4.53-5.34,1.82-.09,2.69.25,2.62.61,2.44-.38,5.65-.84,2.66-2l-1,1.07C32.88-8,22.46-7.86,24.91-9.61c-5.72,1-2.45,1.75,1.79,2.31A57.23,57.23,0,0,0,20.08-8c-1,0-2-.07-3-.07H13.74c-3,0-6.06.07-9.35,0s-6.85-.13-11.11-.39c3.15.59,6.24,1.84,3.89,1.83l-3.94-.21A59.93,59.93,0,0,0-6.68,1.6a11.11,11.11,0,0,0,.85,3.52c.71,1.66,1.55,3,1.77,9a5.21,5.21,0,0,1-.63,1.77,1.89,1.89,0,0,1-.65.67,2.15,2.15,0,0,1-1.11.13c-.59,0-.82.62-.14,5.62-1.1,6.11-2.83,1.29-3.7-1.13,2.06,9.11-1.35,17-1.73,22.22l-.86-4.8a40.53,40.53,0,0,1,.49,7.61l2.14-2.74c-.38,2.82-.38,5.21-1.27,5.15,1.39,2.91,3.55-2.22,5.46,3.54C-7.14,56-4.89,63.64-7.73,64.94c1-11.82-2.84,1.3-3.3-8.7a23.86,23.86,0,0,1-.05,7.11c-.32.42-.59-.4-.75-1.17-2.54,11.3,3.2,5.2,3.14,16.91-1.6-1.49-3,2.72-2.69,4.63,0-4.72,2.66-2.26,3.89,2.07-1.25,7.51.92,8.16.78,12.1l.58-4.49c1.6,1.52,1.39,5.27,1.89,10.51-1.24.45-.85-4.76-1.4-2.89,2.81,5.82-2.91,13.14-1,21.25-1.08,3.75-3,.36-3.73,3.66,2.07,9.08-2.19,9.84-.48,19.38,2.15-2.75,1.62-3.23,3.72,3.5l-1.51-15.7,3.12,10.07c0-4.74-1.35-10-1-12.83,1.76,4.8,1.22,4.3,3,2-3.22,6.48,1.88,12.85-.29,20.34l-5.32-.23c-2.37,11.27,2.73,20,1.39,34.65l.92-4.7c2.11,2,.3,9,1.15,13.77-1.77-.44-2.42,2.52-3.52,4.54,1.31-.25-.12,10.71,3.42,12l-2.34,6.53c-1,11.81,5.07,13.48,4.46,24.83-1.93-3.42-3.19,1.74-4.57-5.86,0,3.79-.34,7.2.89,7.26-1.11,2.21,2.39,10.51.7,14,.78,1.59,2.65,2.12,2.5,6.37-.36.47-.88,0-.88,0,.88,0,1.2,6.66,3.16,2.94-5.54,11.68.41,32.64-4.36,42.81.6,8.27,1.17,18.24,1.3,25.75-.53-.48-.88,0-.7-1.44-1.65,10.36,5.1,6.37,3.26,18.16-2.88,6-1.56-6.26-2.64-2.51-5.85,1.64.79,14.23-2.62,22.17L-8,371.88c-2,6.06,2.21,14.79,1.79,24.7,0,0-.51-.48-.88-.05,3,6.77,4,19.6,4.8,29.13-2.29-3-1.21-4.33-3.54-2.52.33,4.28,3.73-1.25,4.38,7.28-1.25,2.77-2.34,8.93-4.82,9.74l-.14-8c-3.21,4.12.11,10.41-.45,14.65l-1.4-.54c.46,12.33,4,12.5,3.74,25.75l1.06-1.37c3.5,7.24-2,6.07.64,13.3l-3.56,2.18c.86,4.78,3.44,16.74,4.11,25.31-2.64-4.85-4-14.88-5.55-21.09,0,4.74.26,16.1,2,18.57-.34-1.91-1.21-4.31-.66-6.2,2.79,5.81,4.16,13.46,4.1,22.9-6.89-1.68-1.73,24.6-7.08,31.45,2.55,16.69-1.09,33.12-.68,52.57,5.36-6.9.15,5.68,5.65,4.49.36,4.53.27,6.26-.09,6.66l-3.29,13.73c-1.6,3.26-1.21-4.31-2.45-3.89-.42,9.92-2.33,4.16-3.79,10.73,2-1.35,2.82,3.45,2.07,9.1l2.54-8c2.92,13.86-4.62,12-1.72,26L-12.9,664c.23,1.63.35,3.9.46,6.51,0,1.31.1,2.7.16,4.13,0,.75.06,1.52.09,2.29,0,1.38.07,2.77.1,4.16.32,11.11.93,22.25,2.54,27a47.56,47.56,0,0,0,4.48-2.16c.72.15,1.49.52,1.42,1s-1,1.27-4,2.19c7.32-1.63,15.49-3.85,23.37-6.17l3-.87,1.46-.44.73-.22.33-.1.21-.07,3.33-1.17,6.58-2.36c8.59-3.48,16.72-6.55,23.61-7.16l-.87,1.66c3-1.3,4.68-4,8.92-4,0,.59-.82,1.7.62,1.29,1.5-1,7.42-5,11.74-5.69l-3,2.62a62.24,62.24,0,0,0,10.9-3.57c1.59-.71,3.11-1.4,4.53-2.21s2.76-1.67,4.09-2.53c5.3-3.43,10.11-7,16.52-10.06.37.92,1.45,1.38,3,1.53a15.79,15.79,0,0,0,2.57,0c.93-.1,1.93-.28,3-.49a114,114,0,0,0,12.13-3.53l0,.61c4.58-1.9,8.72-3.9,12.58-6,3.8-2.21,7.32-4.5,10.76-6.81,6.87-4.67,13.54-9.22,21.08-14.45a43.64,43.64,0,0,0,10.73-3.48,117.29,117.29,0,0,0,13.09-6.7c4.54-2.63,9.23-5.42,13.85-8,2.3-1.3,4.59-2.56,6.83-3.72s4.33-2.4,6.4-3.41c-2.72.94-1.3-2.85,1.17-5,4-1.71,8.28-8.83,9.76-5.45L234,604c2.34.58,5.22-.55,8.24-2.3s6-4.33,8.82-6.31l-1.86-4.52A46.74,46.74,0,0,0,263,584.12a62,62,0,0,0,6.48-5c2.1-1.79,4.14-3.64,6.14-5.45,4-3.62,7.74-7.09,11.24-9.74s6.52-4.71,9.4-5.12c2.52-3.73,6.6-7.22,9.06-10.92l1.51,2.07c4.83-3.62,8.24-6.58,11.86-9.83s7.4-6.87,12.62-12.17l-1,3.39a11.92,11.92,0,0,0,3.15-4.41,22,22,0,0,0,1.11-4.72c.49-3.16.88-6.27,3.53-9l4.33,1c10.39-10.2,22.65-19.09,29.87-32,.26.55.79,1.59-.69,3.44,2.44-2.44,7.14-7.17,10.69-11.36s5.79-7.94,3-8.65c1.36,1,3.86-1.8,6.51-5.75s5.13-9.24,7-12.78l1.22,2.51c1.58-7.22,1-7.91,6-15.72,1.61-1.53,2.79-.31.48,1.6a10.87,10.87,0,0,0,2.65-3.15,11.47,11.47,0,0,0,.92-2.53c.48-1.66,1.06-3.47,4.19-6.66l-.64,3.62c4.56-6,3.52-6,4.41-10.44a26,26,0,0,1,5.46-7.18c2.26-2.21,4.49-3.91,5.75-3.72-.58-1.63.17-6.08,3.16-9.39,1,0,.59,1.61.36,2.43a48.8,48.8,0,0,0,7.95-12.87c.92-1.9,1.66-3.75,2.65-5.47a19.93,19.93,0,0,1,3.83-4.85,2,2,0,0,0,2-.46c-2.65,4.24-5,8.09-6.77,10.71s-2.89,4.08-2.76,3.72c1.94,1.26,6.77-5.28,5.88,1.83.52-1.61,1.18-3.47,1.74-5.58s1.26-4.32,2-6.55c1.52-4.45,3.41-8.84,5.93-11.92a3.66,3.66,0,0,1,1.24-.47l-.21.83a13,13,0,0,0,2.28-4.45c.82-1,1.5-1.77,2.14-2.57a24.31,24.31,0,0,0,1.78-2.7c2.11.15,5.45-7.59,7.5-11.07-2.36-1,.57-5.34-3.67-2.06.47-.46-.11.81-1.33,3.2a9.9,9.9,0,0,0-.61,1.62c0-.1,0-.22-.06-.34-1.23,2.33-2.87,5.37-4.75,8.8.45-3.42,1.13-6.84,4.53-10-.41-2.6-.76-5.39-.82-6.88,2.88-1.53,6-4.38,8.81-6.89l2-1.79c.6-.57,1.18-1.1,1.71-1.54a6.22,6.22,0,0,1,2.61-1.57c2.19-5.81,5.29-12.37,7.75-18.6.62-1.56,1.19-3.1,1.7-4.59a43.11,43.11,0,0,0,1.19-4.43,24.24,24.24,0,0,0,.63-7.73c.92-3.41,2.93-3,4.16-3.91-.42,2-1.5,4.17-1.34,5.45.92-3.43,3-8.16,4.55-12.4a37.34,37.34,0,0,0,1.73-5.76c.31-1.64.19-3-.39-3.68,4.78-7.48.88,5.78,5.07-5.56l.3,1.9A53.49,53.49,0,0,0,511,255a70.94,70.94,0,0,0,2-7.4c.48-2.49.9-5,1.33-7.5a105.84,105.84,0,0,1,3.48-15.25,78.32,78.32,0,0,1,3.14-7.92,60.76,60.76,0,0,1,4.56-8.33c-1,1.59-1.45,2.39-2.09,2.56a214.56,214.56,0,0,0,8.09-21.3c2.17-7.35,4-14.85,6-22.29l1.47-5.58.75-2.78c.24-.93.44-1.87.67-2.8.89-3.73,1.83-7.43,2.85-11.1s2.12-7.29,3.34-10.86q.92-2.68,1.92-5.32c.66-1.76,1.26-3.53,2-5.28,2.71-8,.83-9.38.33-14.72l3-1.23-1.23-9.2a31,31,0,0,1,.48-4.51A29.25,29.25,0,0,1,554.2,90c.93-2.72,2.17-5.33,3.37-8.07a51,51,0,0,0,3.11-8.78,34,34,0,0,0,.79-5c.06-.9.11-1.81.08-2.77s-.13-1.93-.27-3l-2.08,1.73c1.11-5.55,1.36-17.87,3.32-16.65-.25-.62-1.64-2.09-.39-4.15h1.44l-.27-7c0-1.18-.07-2.34-.15-3.52l-.26-3.51c2.08-10.6,5.44,2.31,7.27-13.36,0-5.91-2.48-17-3.64-14.85-.3,2.34-1.48,5.91-2.91,6l-.22-5.35c-4.08-1.32-8-5.64-12.15,6.92l1.66,9.19-2.3,2.68.62-7.54c-2.33,4.08-.91,7-.06,10.1a5.82,5.82,0,0,0-2.6,3.5l1.56,4.62c.5,1.54.93,3.07,1.4,4.61-1.77.86-2.69-4.3-4.39,1.44,1.28,4.32,4.19-3.48,4.46,3.47-2.47,4-3.84,2.56-2.91,7.79-1.17.55-1.7-.6-1.9-2.64.67,4.62-1.07,11.83.81,14.46A12.27,12.27,0,0,0,546,64.29c-.39,1.58-.67,3.3-1,4.86-.6,3.12-1.29,5.61-3.21,5,.7,1.54,1.7,8.32,1.15,12.43-1.68-4.15-2.42-.35-3.32,4.1-.22,1.11-.45,2.27-.72,3.36a21.21,21.21,0,0,1-1,2.9c-.73,1.64-1.61,2.54-2.76,1.8,1.51,3.14.92,8.16,0,13.65-.46,2.74-1,5.61-1.44,8.43-.22,1.4-.38,2.8-.52,4.16a36.21,36.21,0,0,0-.29,3.94,3.82,3.82,0,0,1-.17-2.62c-1.71,5.3-3.36,6.56-5,9.81,3.25,1.54,1.9,10.14,2.84,15.25-5,5.73-3-5.09-6.66-3.85,1.42.2,1.38,3.24,1.35,6s-.24,5.31,1.25,4.52c-3.5,4.44-2.25,4-5.82,5.8,4,2.1-.65,4.85.73,9.77-4.21,6.61-4.5.66-5.56,9C513.48,186,514.06,178.54,514.06,178.54ZM440.8,360.73l-.05,0c.84-1.48,1.55-2.75,2-3.55C442.35,357.89,441.78,358.93,440.8,360.73Zm-8.64,14.18c1.14-1.67,2.47-3.81,3.84-6.09,1.05,0,1.48,1,.57,2.38C436.55,370.12,434.07,373.19,432.16,374.91Zm33.3-21.38c-1,2.52-1.88,3.05-2.51,3.11.58-1.12,1.24-2.46,2-4.24-.05-.12-.06-.31-.12-.43A3.15,3.15,0,0,1,465.46,353.53Z"/><path class="cls-2" d="M464.93,347.68a8.63,8.63,0,0,1,.38-1.05,13.82,13.82,0,0,0-1.27,1.11c.07.41.14.83.22,1.22Z"/><polygon class="cls-2" points="279.1 543.39 279.53 543.87 280.26 542.5 279.1 543.39"/><path class="cls-2" d="M321.87,5.42a2.39,2.39,0,0,0,1.21.65C323,5.9,322.51,5.67,321.87,5.42Z"/><path class="cls-2" d="M361.72,6l5.64.9A52.13,52.13,0,0,0,361.72,6Z"/><path class="cls-2" d="M392.36,7.24a2.71,2.71,0,0,0,.6-1.08l-.06,0Z"/><path class="cls-2" d="M10.22,95.77A7.4,7.4,0,0,0,10.33,97C10.82,99.73,10.63,97.85,10.22,95.77Z"/><path class="cls-2" d="M50.19,4.3a42.42,42.42,0,0,1-4.66,1.2C48.11,5.69,50.12,5.74,50.19,4.3Z"/><path class="cls-2" d="M13.26,257.65h0v1Z"/><path class="cls-2" d="M38.79,5.46a18,18,0,0,0,6.74,0A27.14,27.14,0,0,0,38.79,5.46Z"/><path class="cls-2" d="M525.15,8.39l1.47.11a.48.48,0,0,1,.18-.41Z"/><path class="cls-2" d="M526.8,8.09l1.64-.3C527.69,7.79,527,7.81,526.8,8.09Z"/><path class="cls-2" d="M531.89,7.15l-3.45.64C529.63,7.8,531.11,7.88,531.89,7.15Z"/><path class="cls-2" d="M484.59,7.22l-.46.92A1.28,1.28,0,0,0,484.59,7.22Z"/><path class="cls-2" d="M472.26,7.49c2.94.21,7.38,1.95,11.48,1.38l.39-.73C482.2,9.5,475.06,5.94,472.26,7.49Z"/><polygon class="cls-2" points="113.13 6.62 117.29 8.05 119.27 5.94 113.13 6.62"/><polygon class="cls-2" points="258.23 588.76 256.01 591.54 260.77 587.1 258.23 588.76"/><line class="cls-4" x1="599.5" y1="0.5" x2="562.71" y2="0.5"/><line class="cls-4" x1="0.5" y1="737.5" x2="0.5" y2="695.29"/></g></svg>