<svg xmlns="http://www.w3.org/2000/svg" viewBox="0 0 800 600"><defs><style>.cls-1{fill:#f7931e;}.cls-2{fill:#dce0f9;}.cls-3{fill:#fbb03b;}.cls-4{fill:#b6bde0;}</style></defs><title>player-building</title><g id="Layer_2" data-name="Layer 2"><circle class="cls-1" cx="204.43" cy="297.97" r="177.57"/><circle class="cls-2" cx="204.43" cy="297.97" r="161.43"/><polygon class="cls-1" points="320.34 416.46 319.11 417.64 320.28 416.4 320.34 416.46"/><circle class="cls-1" cx="204.43" cy="297.97" r="80.72"/><circle class="cls-3" cx="204.83" cy="298.62" r="56.5"/><ellipse class="cls-2" cx="225.6" cy="267.46" rx="6.97" ry="8.04" transform="translate(-123.05 237.86) rotate(-45)"/><path class="cls-4" d="M246.44,301.82c-1.86,1.43-4.66.71-6.54-.55-2.65-1.77-3.7-4.78-4.92-8.24s-3.36-9.59-.92-13.11a4.69,4.69,0,0,1,3.66-2.07c4,0,7.6,6.35,9,10.29C248.07,291.8,249.68,299.33,246.44,301.82Z"/><circle class="cls-1" cx="590.43" cy="302.97" r="177.57"/><circle class="cls-2" cx="590.43" cy="302.97" r="161.43"/><polygon class="cls-1" points="706.34 421.46 705.11 422.64 706.28 421.4 706.34 421.46"/><circle class="cls-1" cx="590.43" cy="302.97" r="80.72"/><circle class="cls-3" cx="590.83" cy="303.62" r="56.5"/><ellipse class="cls-2" cx="611.6" cy="272.46" rx="6.97" ry="8.04" transform="translate(-13.53 512.27) rotate(-45)"/><path class="cls-4" d="M632.44,306.82c-1.86,1.43-4.66.71-6.54-.55-2.65-1.77-3.7-4.78-4.92-8.24s-3.36-9.59-.92-13.11a4.69,4.69,0,0,1,3.66-2.07c4,0,7.6,6.35,9,10.29C634.07,296.8,635.68,304.33,632.44,306.82Z"/></g></svg>