<svg xmlns="http://www.w3.org/2000/svg" viewBox="0 0 600 600"><defs><style>.cls-1{fill:#dcf9e8;}.cls-2{fill:#fb986e;}.cls-3{fill:#94034a;}.cls-4{fill:#ce1c6a;}.cls-5{fill:#ae0959;}.cls-6{fill:#fbb690;}.cls-7{fill:#87ac97;}.cls-8{fill:#ffe9dd;}.cls-9{fill:#190e41;}.cls-10{fill:#95ffc1;}</style></defs><title>player-icons</title><g id="Layer_2" data-name="Layer 2"><path class="cls-1" d="M248.86,225.15l0-.79c6.88-27.64,13.31-55.39,29.89-79.46,23-33.36,54.18-40.8,84.27,1.94,13.72,19.49,19.15,42.19,26.27,64.28q2.87,26.55,5.74,53.11c-9-2.06-16.31-4.59-17.19,10.26-1.33,22.59-6,45-8.67,67.5-1.65,14.07-8.06,20.73-22.88,20.36-24.94-.62-49.91-.07-74.87,0-8.25,0-16.16-.81-21.85-7.87q-4-35.85-8-71.71,3.52-27.93,7.06-55.87ZM331,191.3c-10.42-8.59-17.26-3.09-24.72,1.34-10.42,6.18-16.38,13.07-7.54,25.15-6.29,16.71,4.2,23,17.38,25.05,17,2.65,29.22-5.51,32.32-22.44C351,206.33,349,196,331,191.3Z"/><path class="cls-2" d="M351,397.43l-.33,31.77c-3.12,0-5.84.19-7,1-6,4-8.94,8.41-5,12.34,4.33,4.28-15.68,7.12-6.43,11.43,3.47,1.62,2.5,4.13-9.35,4.47-11.54.33-15.8-1.12-15.57-3.84s.8-5.49-.35-8.19c-1.93-4.55-2.57-9.27-15.87-13-.14-.86-.28-1.73-.41-2.58,3,.14,5.65-.07,5.63-.89s-2.68-1-5.68-.85q-.06-16.44-.12-32.85C310.92,396.07,331.76,394.3,351,397.43Z"/><path class="cls-3" d="M298.64,506.12l7.88-.16c5.65,6.6-9.83,14.21,14.15,20,1.81-3.31,12.37-5.79,12.39-8.78,0-9.8,15-19.27,9.62-29.17-.77-1.43-.47-2.95,4.6-4.05"/><path class="cls-4" d="M306.52,506l-7.88.16-.57-.46c-.57-9.73,5-19.52-3.66-29.2q-.71-6.27-1.4-12.54c.79-8,3.81-15.94-2.43-23.87-.62-2.22-2.39-4.45.59-6.65,13.3,3.71,13.94,8.43,15.87,13,1.15,2.7.58,5.46.35,8.19s4,4.17,15.57,3.84c11.85-.34,12.82-2.85,9.35-4.47-9.25-4.31,10.76-7.15,6.43-11.43-4-3.93-1.05-8.33,5-12.34,1.17-.78,3.89-1,7-1,5.58,9.44-3.48,18.76-3.89,28.14a7.17,7.17,0,0,0,3.29,6.94c-7.23,4.92-10.43,10-6.78,15.18-.18.71-.36,1.43-.53,2.14-11.92.93-7.91,3.48-9.26,5.53-2.19,3.31-6.81,8.84-14.31,8.75-17.82-.21-11,2.4-12,4C306.08,501.9,306.68,504,306.52,506Z"/><path class="cls-5" d="M306.52,506c.16-2-.44-4.06.73-6,1-1.64-5.84-4.25,12-4,7.5.09,12.12-5.44,14.31-8.75,1.35-2.05-2.66-4.6,9.26-5.53l.41.11,3.76,1c.1.43.2.86.31,1.29-5.07,1.1-5.37,2.62-4.6,4.05,5.35,9.9-9.58,19.37-9.62,29.17,0,3-10.58,5.47-12.39,8.78C296.69,520.17,312.17,512.56,306.52,506Z"/><path class="cls-6" d="M370.71,387.76c.23,7.55-6.23,6.5-10.55,8.2-5.5-.83-6,4.78-9.12,7-19.28-12.57-40.12-5.48-60.45-4.84-1.66-1.16-3.33-2.28-5-3.41q2.24-3.76,4.46-7.53l56-.67Z"/><path class="cls-3" d="M294.41,476.46c8.63,9.68,3.09,19.47,3.66,29.2C289.91,496,294.33,486.2,294.41,476.46Z"/><path class="cls-3" d="M343.33,479.46c-3.65-5.22-.45-10.26,6.78-15.18.25,4,.62,7.89.69,11.84C350.82,477.53,351.26,479.11,343.33,479.46Z"/><path class="cls-3" d="M290.58,440.05C296.82,448,293.8,456,293,463.92,286.24,456,289.38,448,290.58,440.05Z"/><path class="cls-7" d="M290.06,387.22l-4.47,7.53L280.78,397c-8.93-.5-11.87-6.17-12.18-14.11C275.92,383.53,283.69,381.86,290.06,387.22Z"/><path class="cls-4" d="M290.71,429.08c3-.16,5.65,0,5.68.85s-2.63,1-5.63.89C290.74,430.23,290.73,429.65,290.71,429.08Z"/><path class="cls-3" d="M347,482.71l-3.76-1Z"/><path class="cls-8" d="M382.17,372.25l-6.12.57c-9.38-3.35-18.95-3.1-28.59-1.49-26.85-.29-53.9-5.81-80.4,3.12l-4.09-1.9c-7-4.17-15.92-6.85-13.44-18.06,5.69,7.06,13.6,7.9,21.85,7.87,25-.08,49.93-.63,74.87,0,14.82.37,21.23-6.29,22.88-20.36,2.64-22.54,7.33-44.91,8.67-67.5.88-14.85,8.23-12.32,17.19-10.26a88.53,88.53,0,0,1,3.93,17.63,87.14,87.14,0,0,1,.58,9c-4.1,8.87-2.82,18.43-3.79,27.73C393.8,337.12,394.24,356.3,382.17,372.25Z"/><path class="cls-7" d="M382.17,372.25c12.07-15.95,11.63-35.13,13.54-53.63,1-9.3-.31-18.86,3.79-27.73a20.51,20.51,0,0,1,8.78,4.52q2.3,4.33,4.6,8.65Q415.46,309,418,314.2q1.83,3.8,3.49,7.47l-.11.1q2,4.8,4.07,9.61c5.78,20.15,11.95,40.27,9.18,61.66-.76,5.84,2.24,14.08-8.21,14.55a1.52,1.52,0,0,0-1.89-1.24c-2.17-5.61-7-15.44-17.33-22.09A40.93,40.93,0,0,0,401,381l-3-2-3-2a19.37,19.37,0,0,0-3.37-2.35A20,20,0,0,0,382.17,372.25Z"/><polygon class="cls-9" points="426.34 418.46 425.11 419.64 426.28 418.4 426.34 418.46"/><path class="cls-7" d="M249.53,354.49C247.05,365.7,256,368.38,263,372.55c-25.83-1.88-37.11,19.27-53.46,37-9-34.11-.43-62.17,12.23-89.63,4.87-10.56,10.11-20.95,15.18-31.43l4.64-5.69Q245.55,318.63,249.53,354.49Z"/><path class="cls-10" d="M267.06,374.45c26.5-8.93,53.55-3.41,80.4-3.13l-1.41,15.23-56,.67c-6.36-5.36-14.13-3.69-21.45-4.31Q267.83,378.68,267.06,374.45Z"/><path class="cls-1" d="M237.46,218.31l-.15-.7Z"/><path class="cls-7" d="M346.05,386.55l1.41-15.23c9.64-1.6,19.21-1.85,28.59,1.5q-2.66,7.47-5.33,14.94Z"/><circle class="cls-6" cx="321.85" cy="216.4" r="30"/><circle class="cls-10" cx="322.29" cy="214.64" r="17.18"/></g></svg>