<svg xmlns="http://www.w3.org/2000/svg" viewBox="0 0 1100 600"><defs><style>.cls-1{fill:#f7931e;}.cls-2{fill:#dce0f9;}.cls-3{fill:#fbb03b;}.cls-4{fill:#b6bde0;}</style></defs><title>player-building</title><g id="Layer_2" data-name="Layer 2"><circle class="cls-1" cx="185.43" cy="287.97" r="177.57"/><circle class="cls-2" cx="185.43" cy="287.97" r="161.43"/><polygon class="cls-1" points="355.34 406.46 354.11 407.64 355.28 406.4 355.34 406.46"/><circle class="cls-1" cx="185.43" cy="287.97" r="80.72"/><circle class="cls-3" cx="185.83" cy="288.62" r="56.5"/><ellipse class="cls-2" cx="206.6" cy="257.46" rx="6.97" ry="8.04" transform="translate(-121.54 221.5) rotate(-45)"/><path class="cls-4" d="M227.44,291.82c-1.86,1.43-4.66.71-6.54-.55-2.65-1.77-3.7-4.78-4.92-8.24s-3.36-9.59-.92-13.11a4.69,4.69,0,0,1,3.66-2.07c4,0,7.6,6.35,9,10.29C229.07,281.8,230.68,289.33,227.44,291.82Z"/><circle class="cls-1" cx="547.43" cy="292.97" r="177.57"/><circle class="cls-2" cx="547.43" cy="292.97" r="161.43"/><polygon class="cls-1" points="717.34 411.46 716.11 412.64 717.28 411.4 717.34 411.46"/><circle class="cls-1" cx="547.43" cy="292.97" r="80.72"/><circle class="cls-3" cx="547.83" cy="293.62" r="56.5"/><ellipse class="cls-2" cx="568.6" cy="262.46" rx="6.97" ry="8.04" transform="translate(-19.05 478.93) rotate(-45)"/><path class="cls-4" d="M589.44,296.82c-1.86,1.43-4.66.71-6.54-.55-2.65-1.77-3.7-4.78-4.92-8.24s-3.36-9.59-.92-13.11a4.69,4.69,0,0,1,3.66-2.07c4,0,7.6,6.35,9,10.29C591.07,286.8,592.68,294.33,589.44,296.82Z"/><circle class="cls-1" cx="907.43" cy="294.97" r="177.57"/><circle class="cls-2" cx="907.43" cy="294.97" r="161.43"/><polygon class="cls-1" points="1077.34 413.46 1076.11 414.64 1077.28 413.4 1077.34 413.46"/><circle class="cls-1" cx="907.43" cy="294.97" r="80.72"/><circle class="cls-3" cx="907.83" cy="295.62" r="56.5"/><ellipse class="cls-2" cx="928.6" cy="264.46" rx="6.97" ry="8.04" transform="translate(84.98 734.08) rotate(-45)"/><path class="cls-4" d="M949.44,298.82c-1.86,1.43-4.66.71-6.54-.55-2.65-1.77-3.7-4.78-4.92-8.24s-3.36-9.59-.92-13.11a4.69,4.69,0,0,1,3.66-2.07c4,0,7.6,6.35,9,10.29C951.07,288.8,952.68,296.33,949.44,298.82Z"/></g></svg>