<svg xmlns="http://www.w3.org/2000/svg" viewBox="0 0 600 600"><defs><style>.cls-1{fill:#87ac97;}.cls-2{fill:#dcf9e8;}.cls-3{fill:#190e41;}.cls-4{fill:#fbb690;}.cls-5{fill:#95ffc1;}.cls-6{fill:#bde5cd;}</style></defs><title>player-building</title><g id="Layer_2" data-name="Layer 2"><circle class="cls-1" cx="315.43" cy="287.97" r="177.57"/><circle class="cls-2" cx="315.43" cy="287.97" r="161.43"/><polygon class="cls-3" points="431.34 406.46 430.11 407.64 431.28 406.4 431.34 406.46"/><circle class="cls-4" cx="315.43" cy="287.97" r="80.72"/><circle class="cls-5" cx="315.83" cy="288.62" r="56.5"/><ellipse class="cls-2" cx="336.6" cy="257.46" rx="6.97" ry="8.04" transform="translate(-83.46 313.42) rotate(-45)"/><path class="cls-6" d="M357.44,291.82c-1.86,1.43-4.66.71-6.54-.55-2.65-1.77-3.7-4.78-4.92-8.24s-3.36-9.59-.92-13.11a4.69,4.69,0,0,1,3.66-2.07c4,0,7.6,6.35,9,10.29C359.07,281.8,360.68,289.33,357.44,291.82Z"/></g></svg>